<svg width="32" height="32" viewBox="0 0 32 32" fill="none" xmlns="http://www.w3.org/2000/svg">
<path d="M22.6667 4H9.33333C6.388 4 4 6.388 4 9.33333V22.6667C4 25.612 6.388 28 9.33333 28H16.828V18.7187H13.704V15.0853H16.828V12.412C16.828 9.31333 18.7227 7.624 21.488 7.624C22.42 7.62133 23.3507 7.66933 24.2773 7.764V11.004H22.3733C20.8667 11.004 20.5733 11.716 20.5733 12.7667V15.08H24.1733L23.7053 18.7133H20.552V28H22.6667C25.612 28 28 25.612 28 22.6667V9.33333C28 6.388 25.612 4 22.6667 4Z" fill="#45484E"/>
</svg>
