<?xml version="1.0" encoding="UTF-8"?>
<svg id="Layer_2" data-name="Layer 2" xmlns="http://www.w3.org/2000/svg" xmlns:xlink="http://www.w3.org/1999/xlink" viewBox="0 0 250 250">
  <defs>
    <style>
      .cls-1 {
        fill: #fff;
      }

      .cls-2 {
        fill: url(#radial-gradient);
      }

      .cls-3 {
        filter: url(#drop-shadow-1);
      }

      .cls-4 {
        fill: #ff541e;
      }
    </style>
    <radialGradient id="radial-gradient" cx="124.14" cy="124.26" fx="124.14" fy="124.26" r="131.72" gradientUnits="userSpaceOnUse">
      <stop offset="0" stop-color="#ff6e42"/>
      <stop offset="1" stop-color="#ff541e"/>
    </radialGradient>
    <filter id="drop-shadow-1" x="95.64" y="56.53" width="65" height="145.55" filterUnits="userSpaceOnUse">
      <feOffset dx="3.01" dy="4.17"/>
      <feGaussianBlur result="blur" stdDeviation="1.16"/>
      <feFlood flood-color="#771600" flood-opacity=".25"/>
      <feComposite in2="blur" operator="in"/>
      <feComposite in="SourceGraphic"/>
    </filter>
  </defs>
  <g id="Layer_1-2" data-name="Layer 1">
    <g>
      <circle class="cls-2" cx="125" cy="125" r="125"/>
      <g id="icon" class="cls-3">
        <g id="Group">
          <g id="Group_2" data-name="Group 2">
            <path id="Vector" class="cls-1" d="M144.22,193.47c5.31,0,9.61-4.3,9.61-9.61v-38.68c0-6.25-3-12.37-7.93-16.22l-28.11-21.62c-6.61-5.04-10.69-13.09-10.81-21.38v-.6c.24-9.73,8.05-17.78,17.66-18.02,4.92-.12,9.49,1.8,12.97,5.16,3.48,3.36,5.4,7.93,5.4,12.85v.6c0,3,2.4,5.4,5.41,5.4s5.41-2.4,5.41-5.4v-.6c0-7.81-3.12-15.13-8.77-20.66-5.65-5.53-13.09-8.41-20.9-8.17-15.37.48-27.99,13.69-27.99,29.55v97.77c0,5.31,4.3,9.61,9.61,9.61h38.44Z"/>
            <g id="Group_1" data-name="Group 1">
              <path id="room_service" data-name="room service" class="cls-4" d="M107.12,177.61c-.74,0-1.34-.6-1.34-1.34v-1.52c0-.74.6-1.34,1.34-1.34h35.76c.74,0,1.34.6,1.34,1.34v1.52c0,.74-.6,1.34-1.34,1.34h-35.76Z"/>
              <g id="room_service_2" data-name="room service 2">
                <path class="cls-4" d="M107.7,169.23v.76c0,.74.6,1.34,1.34,1.34h31.92c.74,0,1.34-.6,1.34-1.34v-.76c0-4.47-1.25-8.42-3.75-11.85-2.5-3.42-5.73-5.59-9.7-6.5h0s-2.34-.52-3.84-.52-3.77.51-3.84.52h0c-3.94.91-7.16,3.08-9.68,6.5-2.51,3.42-3.77,7.37-3.77,11.85Z"/>
                <path class="cls-4" d="M122.29,146.3c-.34.37-.6.77-.79,1.21-.35.82.53,1.5,1.4,1.32.69-.14,1.46-.26,2.1-.26s1.41.12,2.1.26c.88.18,1.75-.49,1.4-1.32-.19-.44-.45-.84-.79-1.21-.75-.82-1.66-1.23-2.71-1.23s-1.96.41-2.71,1.23Z"/>
              </g>
            </g>
          </g>
        </g>
        <g id="Group_3" data-name="Group 3">
          <path id="_0_deg" data-name="0 deg" class="cls-4" d="M126.48,136.66l-.71,4.25c-.04.27-.27.46-.54.46s-.5-.19-.54-.46l-.71-4.25c-.08-.46.28-.89.75-.89h1c.47,0,.83.42.75.89Z"/>
          <path id="_30_deg" data-name="30 deg" class="cls-4" d="M118.3,137.93l1.51,4.04c.09.25,0,.54-.24.67-.23.13-.53.08-.7-.13l-2.74-3.33c-.3-.36-.2-.91.21-1.14l.87-.5c.41-.24.93-.05,1.09.39Z"/>
          <path id="_60_deg" data-name="60 deg" class="cls-4" d="M111.85,143.13l3.33,2.74c.21.17.26.47.13.7-.13.23-.42.33-.67.24l-4.04-1.51c-.44-.17-.63-.69-.39-1.09l.5-.87c.24-.41.78-.51,1.14-.21Z"/>
          <path id="_300_deg" data-name="300 deg" class="cls-4" d="M139.4,146.1l-4.04,1.51c-.25.09-.54,0-.67-.24-.13-.23-.08-.53.13-.7l3.33-2.74c.36-.3.91-.2,1.14.21l.5.87c.24.41.05.93-.39,1.09Z"/>
          <path id="_330_deg" data-name="330 deg" class="cls-4" d="M134.21,139.65l-2.74,3.33c-.17.21-.47.26-.7.13-.23-.13-.33-.42-.24-.67l1.51-4.04c.17-.44.69-.63,1.09-.39l.87.5c.41.24.51.78.21,1.14Z"/>
        </g>
      </g>
    </g>
  </g>
</svg>