<svg width="32" height="32" viewBox="0 0 32 32" fill="none" xmlns="http://www.w3.org/2000/svg">
<path d="M25.3333 4H6.66667C5.19333 4 4 5.19333 4 6.66667V25.3333C4 26.8067 5.19333 28 6.66667 28H25.3333C26.8067 28 28 26.8067 28 25.3333V6.66667C28 5.19333 26.8067 4 25.3333 4ZM10.3173 22.6667C9.388 22.6667 8.63467 21.9133 8.63467 20.984V15.0147C8.636 14.0867 9.38933 13.3333 10.3173 13.3333C11.2467 13.3333 12 14.0867 12 15.016V20.9853C12 21.9133 11.2467 22.6667 10.3173 22.6667ZM10.2587 11.6227C9.23067 11.6227 8.544 10.9373 8.544 10.0227C8.544 9.108 9.22933 8.42267 10.372 8.42267C11.4 8.42267 12.0867 9.108 12.0867 10.0227C12.0867 10.9373 11.4013 11.6227 10.2587 11.6227ZM22.372 22.6667C21.4733 22.6667 20.744 21.9373 20.744 21.0387V17.5653C20.744 16.1547 19.876 16 19.5507 16C19.2253 16 18.14 16.0467 18.14 17.5653V21.0387C18.14 21.9373 17.4107 22.6667 16.512 22.6667H16.404C15.5053 22.6667 14.776 21.9373 14.776 21.0387V15.016C14.776 14.0867 15.5293 13.3333 16.4587 13.3333C17.388 13.3333 18.1413 14.0867 18.1413 15.016C18.1413 15.016 18.5173 13.3333 21.072 13.3333C22.6973 13.3333 24 14.636 24 17.5653V21.0387C24 21.9373 23.2707 22.6667 22.372 22.6667Z" fill="#45484E"/>
</svg>
