<svg width="180" height="61" viewBox="0 0 180 61" fill="none" xmlns="http://www.w3.org/2000/svg">
<path d="M25.5054 57.0521C27.5764 57.0521 29.2554 55.3731 29.2554 53.3021V38.2083C29.2554 35.7708 28.0835 33.3802 26.1616 31.8802L15.1929 23.4427C12.6147 21.4739 11.021 18.3333 10.9741 15.0989V15.0521V14.9583C10.9741 14.9114 10.9741 14.9114 10.9741 14.8646C11.0679 11.0677 14.1147 7.92705 17.8647 7.8333C19.7866 7.78643 21.5679 8.53642 22.9272 9.84892C24.2866 11.1614 25.0366 12.9427 25.0366 14.8646V15.0989C25.0366 16.2708 25.9741 17.2083 27.146 17.2083C28.3179 17.2083 29.2554 16.2708 29.2554 15.0989V14.8646C29.2554 11.8177 28.0366 8.9583 25.8335 6.80205C23.6304 4.6458 20.7241 3.5208 17.6772 3.61455C11.6772 3.80205 6.75537 8.9583 6.75537 15.1458V53.3021C6.75537 55.3731 8.4343 57.0521 10.5054 57.0521H25.5054Z" fill="#FF541E"/>
<path d="M11.0269 50.8641C10.7389 50.8641 10.5054 50.6307 10.5054 50.3426V49.7493C10.5054 49.4613 10.7389 49.2278 11.0269 49.2278H24.9839C25.2719 49.2278 25.5054 49.4613 25.5054 49.7493V50.3426C25.5054 50.6307 25.2719 50.8641 24.9839 50.8641H11.0269Z" fill="white"/>
<path d="M11.2554 47.5917V47.8884C11.2554 48.1764 11.4889 48.4099 11.7769 48.4099H24.2339C24.5219 48.4099 24.7554 48.1764 24.7554 47.8884V47.5917C24.7554 45.8463 24.2679 44.3054 23.2929 42.969C22.3181 41.6329 21.0559 40.7875 19.5063 40.4328L19.5051 40.4326C19.4862 40.4283 18.5903 40.2281 18.0054 40.2281C17.4236 40.2281 16.5342 40.4262 16.5061 40.4325L16.504 40.4329C14.9671 40.7877 13.7082 41.633 12.7272 42.969C11.746 44.3054 11.2554 45.8463 11.2554 47.5917Z" fill="white"/>
<path d="M16.946 38.644C16.8139 38.7881 16.7116 38.9452 16.6389 39.1155C16.5016 39.437 16.8437 39.7007 17.1861 39.6299C17.4542 39.5745 17.7567 39.527 18.0054 39.527C18.254 39.527 18.5565 39.5745 18.8246 39.6299C19.167 39.7007 19.5092 39.437 19.3719 39.1155C19.2992 38.9452 19.1968 38.7881 19.0647 38.644C18.771 38.3236 18.4179 38.1633 18.0054 38.1633C17.5929 38.1633 17.2397 38.3236 16.946 38.644Z" fill="white"/>
<path d="M18.5839 34.882L18.3075 36.5407C18.2902 36.6444 18.2005 36.7203 18.0955 36.7203C17.9904 36.7203 17.9008 36.6444 17.8835 36.5407L17.607 34.882C17.5768 34.7007 17.7166 34.5356 17.9004 34.5356H18.2905C18.4743 34.5356 18.6141 34.7007 18.5839 34.882Z" fill="white"/>
<path d="M15.3905 35.3786L15.9804 36.9533C16.0173 37.0517 15.9776 37.1623 15.8866 37.2148C15.7956 37.2674 15.68 37.2464 15.6132 37.1653L14.5445 35.867C14.4276 35.7251 14.4662 35.5123 14.6254 35.4204L14.9632 35.2253C15.1224 35.1334 15.326 35.2065 15.3905 35.3786Z" fill="white"/>
<path d="M12.8729 37.4046L14.1712 38.4734C14.2523 38.5402 14.2733 38.6558 14.2207 38.7468C14.1682 38.8378 14.0576 38.8774 13.9592 38.8406L12.3845 38.2506C12.2124 38.1861 12.1393 37.9825 12.2312 37.8234L12.4263 37.4855C12.5182 37.3264 12.731 37.2878 12.8729 37.4046Z" fill="white"/>
<path d="M23.6251 38.5665L22.0503 39.1564C21.9519 39.1933 21.8413 39.1536 21.7888 39.0626C21.7363 38.9717 21.7572 38.856 21.8383 38.7893L23.1366 37.7205C23.2785 37.6037 23.4914 37.6422 23.5833 37.8014L23.7783 38.1392C23.8702 38.2984 23.7972 38.502 23.6251 38.5665Z" fill="white"/>
<path d="M21.5983 36.0492L20.5295 37.3475C20.4628 37.4286 20.3471 37.4495 20.2561 37.397C20.1652 37.3445 20.1255 37.2339 20.1624 37.1355L20.7523 35.5607C20.8168 35.3886 21.0204 35.3156 21.1796 35.4075L21.5174 35.6025C21.6766 35.6944 21.7151 35.9073 21.5983 36.0492Z" fill="white"/>
<path d="M61.6626 45.1999L54.7506 42.4519V29.9621C54.7506 27.9025 54.2793 26.3665 53.3368 25.3541C52.3942 24.3068 51.12 23.7832 49.5142 23.7832C48.3971 23.7832 47.3324 24.0799 46.32 24.6734C45.3077 25.2668 44.4873 26.1919 43.8589 27.4486C43.2306 28.7054 42.9164 30.3635 42.9164 32.4232V45.1999L36.0044 42.4519V4.51514L42.9164 7.49809V27.0297H42.0262C42.3404 24.6908 42.9862 22.8755 43.9637 21.5839C44.976 20.2574 46.1455 19.3323 47.472 18.8086C48.8335 18.285 50.1775 18.0232 51.504 18.0232C54.6459 18.0232 57.1244 18.9832 58.9397 20.9032C60.7549 22.8232 61.6626 25.6159 61.6626 29.2814V45.1999Z" fill="#1A1F24"/>
<path d="M78.3985 46.0377C75.5359 46.0377 73.005 45.4443 70.8058 44.2574C68.6065 43.0355 66.8959 41.3774 65.6741 39.2828C64.4523 37.1534 63.8414 34.7446 63.8414 32.0566C63.8414 29.2988 64.4523 26.8726 65.6741 24.7781C66.8959 22.6835 68.6065 21.0428 70.8058 19.8559C73.005 18.6341 75.5359 18.0232 78.3985 18.0232C81.261 18.0232 83.7919 18.6341 85.9912 19.8559C88.1905 21.0428 89.901 22.6835 91.1229 24.7781C92.3447 26.8726 92.9556 29.2814 92.9556 32.0043C92.9556 34.7272 92.3447 37.1534 91.1229 39.2828C89.901 41.3774 88.1905 43.0355 85.9912 44.2574C83.7919 45.4443 81.261 46.0377 78.3985 46.0377ZM78.3985 40.2777C79.8647 40.2777 81.1563 39.9286 82.2734 39.2304C83.3905 38.5323 84.2632 37.5723 84.8916 36.3505C85.52 35.0937 85.8341 33.6625 85.8341 32.0566C85.8341 30.4159 85.52 28.9846 84.8916 27.7628C84.2632 26.5061 83.3905 25.5286 82.2734 24.8305C81.1563 24.1323 79.8647 23.7832 78.3985 23.7832C76.9323 23.7832 75.6407 24.1323 74.5236 24.8305C73.4065 25.5286 72.5338 26.5061 71.9054 27.7628C71.277 28.9846 70.9629 30.4159 70.9629 32.0566C70.9629 33.6625 71.277 35.0937 71.9054 36.3505C72.5338 37.5723 73.4065 38.5323 74.5236 39.2304C75.6407 39.9286 76.9323 40.2777 78.3985 40.2777Z" fill="#1A1F24"/>
<path d="M110.385 45.1999H104.906C102.532 45.1999 100.734 44.6064 99.5121 43.4195C98.3252 42.1977 97.7317 40.3999 97.7317 38.0261V8.91368L104.644 11.8966V36.8217C104.644 37.7643 104.853 38.4625 105.272 38.9163C105.691 39.3352 106.354 39.5446 107.262 39.5446L110.385 39.6494V45.1999Z" fill="#1A1F24"/>
<path d="M129.142 45.1999H123.662C121.289 45.1999 119.491 44.6064 118.269 43.4195C117.082 42.1977 116.489 40.3999 116.489 38.0261V8.91368L123.401 11.8966V36.8217C123.401 37.7643 123.61 38.4625 124.029 38.9163C124.448 39.3352 125.111 39.5446 126.019 39.5446L129.142 39.6494V45.1999ZM129.946 24.8377L112.004 24.8305L110.004 19.706L127.815 19.7133L129.946 24.8377Z" fill="#1A1F24"/>
<path d="M154.468 36.9788L158.133 41.2203C156.807 42.7214 155.096 43.9083 153.002 44.781C150.942 45.6188 148.655 46.0377 146.142 46.0377C143.105 46.0377 140.434 45.4443 138.13 44.2574C135.826 43.0704 134.028 41.4297 132.737 39.3352C131.445 37.2406 130.799 34.8145 130.799 32.0566C130.799 29.2988 131.41 26.8726 132.632 24.7781C133.889 22.6486 134.732 21.7371 136.628 20.4185C139.417 18.4791 142.302 18.0232 144.99 18.0232C147.608 18.0232 149.93 18.6166 151.954 19.8035C154.014 20.9555 155.62 22.5614 156.772 24.621C157.924 26.6806 158.5 29.0719 158.5 31.7948V32.109H151.745V31.3759C151.745 29.7701 151.448 28.3737 150.855 27.1868C150.296 25.9999 149.511 25.0748 148.498 24.4115C147.521 23.7483 146.351 23.4166 144.99 23.4166C143.559 23.4166 142.302 23.7657 141.22 24.4639C140.138 25.1272 139.282 26.1046 138.654 27.3963C138.06 28.653 137.764 30.1541 137.764 31.8995C137.764 33.7497 138.13 35.3381 138.863 36.6646C139.631 37.9563 140.661 38.9512 141.953 39.6494C143.279 40.3126 144.798 40.6443 146.508 40.6443C149.65 40.6443 152.303 39.4225 154.468 36.9788ZM158.5 34.1512L138.787 34.1512C138.787 34.1512 138.537 32.784 138.542 31.8995C138.546 31.0557 138.787 29.7526 138.787 29.7526L157.662 29.7526L158.5 31.7948V34.1512Z" fill="#1A1F24"/>
<path d="M167.996 45.1999L161.084 42.4519V4.51514L167.996 7.49809V45.1999Z" fill="#1A1F24"/>
<path d="M92.0044 19.7133L94.1351 24.8377L111.004 24.8305L109.004 19.706L92.0044 19.7133Z" fill="#1A1F24"/>
<rect x="36.0044" y="53.2422" width="38.2643" height="0.818182" fill="#1A1F24"/>
<path d="M82.6322 50.667V53.9883C82.6322 54.7093 82.4277 55.2718 82.0186 55.6758C81.6146 56.0747 81.0546 56.2741 80.3387 56.2741C79.6279 56.2741 79.068 56.0747 78.6589 55.6758C78.2498 55.2718 78.0453 54.7093 78.0453 53.9883V50.667H78.9274V53.9883C78.9274 54.4588 79.0501 54.8269 79.2955 55.0928C79.5461 55.3588 79.8938 55.4917 80.3387 55.4917C80.7887 55.4917 81.1365 55.3588 81.3819 55.0928C81.6325 54.8269 81.7578 54.4588 81.7578 53.9883V50.667H82.6322ZM87.0609 56.1514H86.2018V53.9423C86.2018 53.5997 86.1251 53.344 85.9717 53.1752C85.8183 53.0065 85.6112 52.9221 85.3504 52.9221C85.1612 52.9221 84.9822 52.9707 84.8135 53.0678C84.6498 53.165 84.5169 53.3184 84.4146 53.5281C84.3123 53.7377 84.2612 54.0088 84.2612 54.3411V56.1514H83.4021V52.3238H84.2535V53.5051H84.1385C84.1896 53.1676 84.2893 52.9068 84.4376 52.7227C84.5859 52.5335 84.7598 52.4005 84.9592 52.3238C85.1587 52.242 85.3632 52.2011 85.5729 52.2011C86.0331 52.2011 86.3962 52.3417 86.6621 52.623C86.928 52.9042 87.0609 53.3133 87.0609 53.8502V56.1514ZM88.5929 56.1514H87.7338V50.6286H88.5929V56.1514ZM91.2569 56.2741C90.8529 56.2741 90.4924 56.1872 90.1754 56.0133C89.8634 55.8394 89.618 55.5991 89.439 55.2923C89.26 54.9855 89.1705 54.6326 89.1705 54.2338C89.1705 53.84 89.26 53.4897 89.439 53.1829C89.618 52.8761 89.8634 52.6357 90.1754 52.4619C90.4924 52.288 90.8529 52.2011 91.2569 52.2011C91.666 52.2011 92.0265 52.288 92.3384 52.4619C92.6555 52.6357 92.9009 52.8761 93.0748 53.1829C93.2538 53.4897 93.3433 53.84 93.3433 54.2338C93.3433 54.6326 93.2538 54.9855 93.0748 55.2923C92.9009 55.5991 92.6555 55.8394 92.3384 56.0133C92.0265 56.1872 91.666 56.2741 91.2569 56.2741ZM91.2569 55.5531C91.4972 55.5531 91.7069 55.4968 91.8859 55.3843C92.0649 55.2718 92.2029 55.1184 92.3001 54.9241C92.4024 54.7247 92.4535 54.4945 92.4535 54.2338C92.4535 53.9781 92.4024 53.7531 92.3001 53.5588C92.2029 53.3593 92.0649 53.2034 91.8859 53.0909C91.7069 52.9784 91.4972 52.9221 91.2569 52.9221C91.0217 52.9221 90.8146 52.9784 90.6356 53.0909C90.4566 53.2034 90.316 53.3593 90.2137 53.5588C90.1166 53.7531 90.068 53.9781 90.068 54.2338C90.068 54.4945 90.1166 54.7247 90.2137 54.9241C90.316 55.1184 90.4566 55.2718 90.6356 55.3843C90.8146 55.4968 91.0217 55.5531 91.2569 55.5531ZM96.9095 54.9778L97.4618 55.5147C97.2726 55.7499 97.0399 55.9366 96.7638 56.0747C96.4876 56.2076 96.1706 56.2741 95.8126 56.2741C95.4189 56.2741 95.066 56.1872 94.7541 56.0133C94.4473 55.8343 94.2044 55.594 94.0254 55.2923C93.8464 54.9855 93.7569 54.6326 93.7569 54.2338C93.7569 53.84 93.8464 53.4923 94.0254 53.1906C94.2044 52.8838 94.4498 52.6434 94.7618 52.4695C95.0788 52.2906 95.4368 52.2011 95.8356 52.2011C96.1834 52.2011 96.4927 52.2676 96.7638 52.4005C97.0399 52.5335 97.2726 52.7201 97.4618 52.9605L96.9095 53.4974C96.797 53.3235 96.6538 53.1855 96.4799 53.0832C96.3112 52.9758 96.1066 52.9221 95.8663 52.9221C95.6311 52.9221 95.4214 52.9784 95.2373 53.0909C95.0532 53.2034 94.9101 53.3593 94.8078 53.5588C94.7055 53.7531 94.6544 53.9781 94.6544 54.2338C94.6544 54.4894 94.7055 54.717 94.8078 54.9164C94.9101 55.1159 95.0532 55.2718 95.2373 55.3843C95.4214 55.4968 95.6311 55.5531 95.8663 55.5531C96.1066 55.5531 96.3112 55.4994 96.4799 55.392C96.6538 55.2846 96.797 55.1465 96.9095 54.9778ZM98.824 56.1514H97.9649V50.6286H98.824V56.1514ZM101.884 56.1514H100.749L98.6092 54.1647H98.6859L100.596 52.3238H101.662L99.6294 54.2414V54.0957L101.884 56.1514ZM107.294 56.1514V50.667H108.176V56.1514H107.294ZM104.479 56.1514H103.597V50.667H104.479V56.1514ZM104.403 53.7045V52.9451H107.371V53.7045H104.403ZM110.938 56.2741C110.534 56.2741 110.173 56.1872 109.856 56.0133C109.544 55.8394 109.299 55.5991 109.12 55.2923C108.941 54.9855 108.852 54.6326 108.852 54.2338C108.852 53.84 108.941 53.4897 109.12 53.1829C109.299 52.8761 109.544 52.6357 109.856 52.4619C110.173 52.288 110.534 52.2011 110.938 52.2011C111.347 52.2011 111.708 52.288 112.019 52.4619C112.336 52.6357 112.582 52.8761 112.756 53.1829C112.935 53.4897 113.024 53.84 113.024 54.2338C113.024 54.6326 112.935 54.9855 112.756 55.2923C112.582 55.5991 112.336 55.8394 112.019 56.0133C111.708 56.1872 111.347 56.2741 110.938 56.2741ZM110.938 55.5531C111.178 55.5531 111.388 55.4968 111.567 55.3843C111.746 55.2718 111.884 55.1184 111.981 54.9241C112.083 54.7247 112.135 54.4945 112.135 54.2338C112.135 53.9781 112.083 53.7531 111.981 53.5588C111.884 53.3593 111.746 53.2034 111.567 53.0909C111.388 52.9784 111.178 52.9221 110.938 52.9221C110.703 52.9221 110.496 52.9784 110.317 53.0909C110.138 53.2034 109.997 53.3593 109.895 53.5588C109.798 53.7531 109.749 53.9781 109.749 54.2338C109.749 54.4945 109.798 54.7247 109.895 54.9241C109.997 55.1184 110.138 55.2718 110.317 55.3843C110.496 55.4968 110.703 55.5531 110.938 55.5531ZM115.842 56.1514H114.899C114.577 56.1514 114.334 56.0695 114.17 55.9059C114.007 55.7372 113.925 55.4943 113.925 55.1772V51.273H114.784V55.0468C114.784 55.1798 114.815 55.2795 114.876 55.346C114.937 55.4073 115.034 55.438 115.167 55.438H115.842V56.1514ZM115.789 53.0218H113.211V52.3238H115.789V53.0218ZM117.733 56.1514V50.667H119.597C120.18 50.667 120.689 50.7846 121.123 51.0198C121.563 51.2551 121.903 51.5798 122.143 51.994C122.389 52.4031 122.512 52.8735 122.512 53.4053C122.512 53.9372 122.389 54.4102 122.143 54.8244C121.903 55.2386 121.563 55.5633 121.123 55.7985C120.689 56.0338 120.18 56.1514 119.597 56.1514H117.733ZM118.615 55.392H119.597C120.006 55.392 120.359 55.3102 120.655 55.1465C120.957 54.9778 121.187 54.7451 121.346 54.4485C121.509 54.1519 121.591 53.8042 121.591 53.4053C121.591 53.0065 121.509 52.6588 121.346 52.3622C121.187 52.0656 120.957 51.8355 120.655 51.6718C120.359 51.5082 120.006 51.4264 119.597 51.4264H118.615V55.392ZM126.281 54.9931L126.772 55.5301C126.573 55.7602 126.325 55.9417 126.028 56.0747C125.732 56.2076 125.402 56.2741 125.039 56.2741C124.609 56.2741 124.228 56.1872 123.896 56.0133C123.569 55.8394 123.31 55.5991 123.121 55.2923C122.937 54.9855 122.845 54.6352 122.845 54.2414C122.845 53.8426 122.935 53.4897 123.114 53.1829C123.292 52.8761 123.538 52.6357 123.85 52.4619C124.162 52.288 124.512 52.2011 124.901 52.2011C125.279 52.2011 125.614 52.288 125.906 52.4619C126.197 52.6306 126.427 52.8659 126.596 53.1676C126.765 53.4642 126.849 53.8093 126.849 54.2031V54.2491H125.998V54.1647C125.998 53.909 125.949 53.6866 125.852 53.4974C125.76 53.3031 125.632 53.1548 125.468 53.0525C125.305 52.9451 125.113 52.8914 124.893 52.8914C124.663 52.8914 124.458 52.9477 124.279 53.0602C124.106 53.1676 123.97 53.321 123.873 53.5204C123.776 53.7147 123.727 53.9499 123.727 54.2261C123.727 54.5022 123.783 54.7426 123.896 54.9471C124.014 55.1517 124.172 55.3102 124.371 55.4227C124.576 55.5301 124.811 55.5838 125.077 55.5838C125.563 55.5838 125.964 55.3869 126.281 54.9931ZM126.849 54.5099H123.443V53.9269H126.726L126.849 54.2107V54.5099ZM130.812 56.1514H130.022V55.392L129.983 55.2309V53.7965C129.983 53.5102 129.891 53.2877 129.707 53.1292C129.523 52.9656 129.272 52.8838 128.955 52.8838C128.725 52.8838 128.511 52.9298 128.311 53.0218C128.117 53.1139 127.948 53.2417 127.805 53.4053L127.314 52.8684C127.524 52.6588 127.769 52.4951 128.05 52.3775C128.332 52.2599 128.643 52.2011 128.986 52.2011C129.349 52.2011 129.666 52.265 129.937 52.3928C130.213 52.5156 130.428 52.6945 130.582 52.9298C130.735 53.165 130.812 53.4463 130.812 53.7735V56.1514ZM128.664 56.2741C128.372 56.2741 128.114 56.2204 127.889 56.113C127.664 56.0056 127.49 55.8599 127.368 55.6758C127.245 55.4917 127.184 55.2769 127.184 55.0315C127.184 54.7656 127.26 54.5406 127.414 54.3565C127.567 54.1673 127.779 54.0241 128.05 53.9269C128.326 53.8247 128.643 53.7735 129.001 53.7735H130.075V54.3642H129.078C128.776 54.3642 128.531 54.4178 128.342 54.5252C128.158 54.6326 128.066 54.7911 128.066 55.0008C128.066 55.19 128.137 55.3409 128.28 55.4534C128.424 55.5607 128.61 55.6144 128.84 55.6144C129.06 55.6144 129.262 55.5684 129.446 55.4764C129.63 55.3843 129.776 55.259 129.884 55.1005C129.996 54.9369 130.06 54.7502 130.075 54.5406L130.351 54.671C130.351 54.9829 130.28 55.2616 130.137 55.507C129.993 55.7474 129.794 55.9366 129.538 56.0747C129.283 56.2076 128.991 56.2741 128.664 56.2741ZM132.341 56.1514H131.482V50.6286H132.341V56.1514ZM132.788 55.5684L133.287 55.0315C133.461 55.2105 133.665 55.3511 133.901 55.4534C134.141 55.5556 134.392 55.6068 134.652 55.6068C134.918 55.6068 135.13 55.5582 135.289 55.461C135.447 55.3588 135.527 55.2284 135.527 55.0698C135.527 54.9267 135.455 54.8167 135.312 54.74C135.174 54.6582 134.926 54.5943 134.568 54.5482C134.005 54.4664 133.596 54.3386 133.341 54.1647C133.09 53.9857 132.965 53.7403 132.965 53.4284C132.965 53.1829 133.036 52.9681 133.18 52.784C133.323 52.5999 133.517 52.4568 133.763 52.3545C134.008 52.2522 134.289 52.2011 134.606 52.2011C134.974 52.2011 135.299 52.2624 135.58 52.3852C135.867 52.5079 136.115 52.6741 136.324 52.8838L135.826 53.4284C135.667 53.2545 135.486 53.1164 135.281 53.0142C135.077 52.9119 134.854 52.8607 134.614 52.8607C134.374 52.8607 134.179 52.9093 134.031 53.0065C133.883 53.0985 133.809 53.2187 133.809 53.367C133.809 53.4897 133.875 53.5843 134.008 53.6508C134.146 53.7122 134.386 53.7659 134.729 53.8119C135.292 53.8937 135.706 54.0292 135.972 54.2184C136.238 54.4025 136.371 54.6684 136.371 55.0161C136.371 55.2667 136.296 55.4866 136.148 55.6758C136 55.865 135.795 56.0133 135.534 56.1207C135.274 56.223 134.969 56.2741 134.622 56.2741C134.248 56.2741 133.906 56.2127 133.594 56.09C133.282 55.9622 133.013 55.7883 132.788 55.5684ZM139.182 56.1514H138.3V50.667H139.182V56.1514ZM143.666 56.1514H142.807V53.9423C142.807 53.5997 142.73 53.344 142.577 53.1752C142.424 53.0065 142.216 52.9221 141.956 52.9221C141.766 52.9221 141.587 52.9707 141.419 53.0678C141.255 53.165 141.122 53.3184 141.02 53.5281C140.918 53.7377 140.866 54.0088 140.866 54.3411V56.1514H140.007V52.3238H140.859V53.5051H140.744C140.795 53.1676 140.895 52.9068 141.043 52.7227C141.191 52.5335 141.365 52.4005 141.564 52.3238C141.764 52.242 141.968 52.2011 142.178 52.2011C142.638 52.2011 143.001 52.3417 143.267 52.623C143.533 52.9042 143.666 53.3133 143.666 53.8502V56.1514ZM149.412 56.1514V50.667H150.294V56.1514H149.412ZM146.597 56.1514H145.715V50.667H146.597V56.1514ZM146.52 53.7045V52.9451H149.488V53.7045H146.52ZM153.055 56.2741C152.651 56.2741 152.291 56.1872 151.974 56.0133C151.662 55.8394 151.416 55.5991 151.237 55.2923C151.058 54.9855 150.969 54.6326 150.969 54.2338C150.969 53.84 151.058 53.4897 151.237 53.1829C151.416 52.8761 151.662 52.6357 151.974 52.4619C152.291 52.288 152.651 52.2011 153.055 52.2011C153.464 52.2011 153.825 52.288 154.137 52.4619C154.454 52.6357 154.699 52.8761 154.873 53.1829C155.052 53.4897 155.142 53.84 155.142 54.2338C155.142 54.6326 155.052 54.9855 154.873 55.2923C154.699 55.5991 154.454 55.8394 154.137 56.0133C153.825 56.1872 153.464 56.2741 153.055 56.2741ZM153.055 55.5531C153.296 55.5531 153.505 55.4968 153.684 55.3843C153.863 55.2718 154.001 55.1184 154.098 54.9241C154.201 54.7247 154.252 54.4945 154.252 54.2338C154.252 53.9781 154.201 53.7531 154.098 53.5588C154.001 53.3593 153.863 53.2034 153.684 53.0909C153.505 52.9784 153.296 52.9221 153.055 52.9221C152.82 52.9221 152.613 52.9784 152.434 53.0909C152.255 53.2034 152.114 53.3593 152.012 53.5588C151.915 53.7531 151.866 53.9781 151.866 54.2338C151.866 54.4945 151.915 54.7247 152.012 54.9241C152.114 55.1184 152.255 55.2718 152.434 55.3843C152.613 55.4968 152.82 55.5531 153.055 55.5531ZM157.96 56.1514H157.016C156.694 56.1514 156.451 56.0695 156.288 55.9059C156.124 55.7372 156.042 55.4943 156.042 55.1772V51.273H156.901V55.0468C156.901 55.1798 156.932 55.2795 156.993 55.346C157.055 55.4073 157.152 55.438 157.285 55.438H157.96V56.1514ZM157.906 53.0218H155.329V52.3238H157.906V53.0218ZM161.653 54.9931L162.144 55.5301C161.944 55.7602 161.696 55.9417 161.4 56.0747C161.103 56.2076 160.773 56.2741 160.41 56.2741C159.981 56.2741 159.6 56.1872 159.267 56.0133C158.94 55.8394 158.682 55.5991 158.493 55.2923C158.309 54.9855 158.217 54.6352 158.217 54.2414C158.217 53.8426 158.306 53.4897 158.485 53.1829C158.664 52.8761 158.91 52.6357 159.221 52.4619C159.533 52.288 159.884 52.2011 160.272 52.2011C160.651 52.2011 160.986 52.288 161.277 52.4619C161.569 52.6306 161.799 52.8659 161.967 53.1676C162.136 53.4642 162.221 53.8093 162.221 54.2031V54.2491H161.369V54.1647C161.369 53.909 161.321 53.6866 161.223 53.4974C161.131 53.3031 161.004 53.1548 160.84 53.0525C160.676 52.9451 160.485 52.8914 160.265 52.8914C160.035 52.8914 159.83 52.9477 159.651 53.0602C159.477 53.1676 159.342 53.321 159.244 53.5204C159.147 53.7147 159.099 53.9499 159.099 54.2261C159.099 54.5022 159.155 54.7426 159.267 54.9471C159.385 55.1517 159.544 55.3102 159.743 55.4227C159.948 55.5301 160.183 55.5838 160.449 55.5838C160.935 55.5838 161.336 55.3869 161.653 54.9931ZM162.221 54.5099H158.815V53.9269H162.098L162.221 54.2107V54.5099ZM163.658 56.1514H162.799V50.6286H163.658V56.1514ZM164.105 55.5684L164.604 55.0315C164.778 55.2105 164.982 55.3511 165.218 55.4534C165.458 55.5556 165.709 55.6068 165.969 55.6068C166.235 55.6068 166.447 55.5582 166.606 55.461C166.765 55.3588 166.844 55.2284 166.844 55.0698C166.844 54.9267 166.772 54.8167 166.629 54.74C166.491 54.6582 166.243 54.5943 165.885 54.5482C165.322 54.4664 164.913 54.3386 164.658 54.1647C164.407 53.9857 164.282 53.7403 164.282 53.4284C164.282 53.1829 164.353 52.9681 164.497 52.784C164.64 52.5999 164.834 52.4568 165.08 52.3545C165.325 52.2522 165.606 52.2011 165.923 52.2011C166.292 52.2011 166.616 52.2624 166.897 52.3852C167.184 52.5079 167.432 52.6741 167.642 52.8838L167.143 53.4284C166.984 53.2545 166.803 53.1164 166.598 53.0142C166.394 52.9119 166.171 52.8607 165.931 52.8607C165.691 52.8607 165.496 52.9093 165.348 53.0065C165.2 53.0985 165.126 53.2187 165.126 53.367C165.126 53.4897 165.192 53.5843 165.325 53.6508C165.463 53.7122 165.703 53.7659 166.046 53.8119C166.609 53.8937 167.023 54.0292 167.289 54.2184C167.555 54.4025 167.688 54.6684 167.688 55.0161C167.688 55.2667 167.613 55.4866 167.465 55.6758C167.317 55.865 167.112 56.0133 166.851 56.1207C166.591 56.223 166.286 56.2741 165.939 56.2741C165.565 56.2741 165.223 56.2127 164.911 56.09C164.599 55.9622 164.33 55.7883 164.105 55.5684Z" fill="#1A1F24"/>
</svg>
