<svg width="32" height="32" viewBox="0 0 32 32" fill="none" xmlns="http://www.w3.org/2000/svg">
<path d="M28.7753 8.24798C28.4687 7.10131 27.5647 6.19731 26.418 5.89065C24.338 5.33331 15.9993 5.33331 15.9993 5.33331C15.9993 5.33331 7.66068 5.33331 5.58068 5.89065C4.43402 6.19731 3.53002 7.10131 3.22335 8.24798C2.66602 10.328 2.66602 16 2.66602 16C2.66602 16 2.66602 21.672 3.22335 23.752C3.53002 24.8986 4.43402 25.8026 5.58068 26.1093C7.66068 26.6666 15.9993 26.6666 15.9993 26.6666C15.9993 26.6666 24.338 26.6666 26.418 26.1093C27.566 25.8026 28.4687 24.8986 28.7753 23.752C29.3327 21.672 29.3327 16 29.3327 16C29.3327 16 29.3327 10.328 28.7753 8.24798ZM13.3327 19.464V12.536C13.3327 12.0226 13.8887 11.7026 14.3327 11.9586L20.3327 15.4226C20.7767 15.6786 20.7767 16.3213 20.3327 16.5773L14.3327 20.0413C13.8887 20.2986 13.3327 19.9773 13.3327 19.464Z" fill="#45484E"/>
</svg>
