<svg width="24" height="24" viewBox="0 0 24 24" fill="none" xmlns="http://www.w3.org/2000/svg">
<mask id="mask0_1421_5844" style="mask-type:alpha" maskUnits="userSpaceOnUse" x="0" y="0" width="24" height="24">
<rect width="24" height="24" fill="#D9D9D9"/>
</mask>
<g mask="url(#mask0_1421_5844)">
<path d="M4.6155 19C4.15517 19 3.77083 18.8458 3.4625 18.5375C3.15417 18.2292 3 17.8448 3 17.3845V6.6155C3 6.15517 3.15417 5.77083 3.4625 5.4625C3.77083 5.15417 4.15517 5 4.6155 5H19.3845C19.8448 5 20.2292 5.15417 20.5375 5.4625C20.8458 5.77083 21 6.15517 21 6.6155V10.3925C21 10.6065 20.9263 10.7933 20.7788 10.953C20.6314 11.1125 20.4487 11.1923 20.2307 11.1923H4V17.3845C4 17.5385 4.06408 17.6796 4.19225 17.8077C4.32042 17.9359 4.4615 18 4.6155 18H13.2308C13.3724 18 13.4912 18.048 13.587 18.144C13.6828 18.24 13.7308 18.3589 13.7308 18.5008C13.7308 18.6426 13.6828 18.7613 13.587 18.8568C13.4912 18.9523 13.3724 19 13.2308 19H4.6155ZM4 8.80775H20V6.6155C20 6.4615 19.9359 6.32042 19.8078 6.19225C19.6796 6.06408 19.5385 6 19.3845 6H4.6155C4.4615 6 4.32042 6.06408 4.19225 6.19225C4.06408 6.32042 4 6.4615 4 6.6155V8.80775ZM19.5 18.5H17C16.8583 18.5 16.7396 18.452 16.6438 18.356C16.5479 18.26 16.5 18.1411 16.5 17.9992C16.5 17.8574 16.5479 17.7387 16.6438 17.6432C16.7396 17.5477 16.8583 17.5 17 17.5H19.5V15C19.5 14.8583 19.548 14.7396 19.644 14.6438C19.74 14.5479 19.8589 14.5 20.0008 14.5C20.1426 14.5 20.2612 14.5479 20.3568 14.6438C20.4523 14.7396 20.5 14.8583 20.5 15V17.5H23C23.1417 17.5 23.2604 17.548 23.3563 17.644C23.4521 17.74 23.5 17.8589 23.5 18.0008C23.5 18.1426 23.4521 18.2613 23.3563 18.3568C23.2604 18.4523 23.1417 18.5 23 18.5H20.5V21C20.5 21.1417 20.452 21.2604 20.356 21.3563C20.26 21.4521 20.1411 21.5 19.9993 21.5C19.8574 21.5 19.7388 21.4521 19.6432 21.3563C19.5477 21.2604 19.5 21.1417 19.5 21V18.5Z" fill="#FF541E"/>
</g>
</svg>
