<svg width="24" height="24" viewBox="0 0 24 24" fill="none" xmlns="http://www.w3.org/2000/svg">
<mask id="mask0_1421_5850" style="mask-type:alpha" maskUnits="userSpaceOnUse" x="0" y="0" width="24" height="24">
<rect width="24" height="24" fill="#D9D9D9"/>
</mask>
<g mask="url(#mask0_1421_5850)">
<path d="M6.50007 16.5001V9.50007C6.50007 9.35841 6.54807 9.23966 6.64407 9.14383C6.74007 9.04799 6.85899 9.00007 7.00082 9.00007C7.14266 9.00007 7.26132 9.04799 7.35682 9.14383C7.45232 9.23966 7.50007 9.35841 7.50007 9.50007V16.5001C7.50007 16.6417 7.45207 16.7605 7.35607 16.8563C7.26007 16.9522 7.14116 17.0001 6.99932 17.0001C6.85749 17.0001 6.73882 16.9522 6.64332 16.8563C6.54782 16.7605 6.50007 16.6417 6.50007 16.5001ZM11.5001 16.5001V9.50007C11.5001 9.35841 11.5481 9.23966 11.6441 9.14383C11.7401 9.04799 11.859 9.00007 12.0008 9.00007C12.1427 9.00007 12.2613 9.04799 12.3568 9.14383C12.4523 9.23966 12.5001 9.35841 12.5001 9.50007V16.5001C12.5001 16.6417 12.4521 16.7605 12.3561 16.8563C12.2601 16.9522 12.1412 17.0001 11.9993 17.0001C11.8575 17.0001 11.7388 16.9522 11.6433 16.8563C11.5478 16.7605 11.5001 16.6417 11.5001 16.5001ZM20.0386 7.00007H3.91932C3.81349 7.00007 3.72357 6.96333 3.64957 6.88983C3.57557 6.81616 3.53857 6.72682 3.53857 6.62182V6.39057C3.53857 6.31357 3.55799 6.24749 3.59682 6.19232C3.63549 6.13716 3.68657 6.09232 3.75007 6.05782L11.3116 2.45007C11.5276 2.34241 11.7562 2.28857 11.9976 2.28857C12.2389 2.28857 12.4692 2.34241 12.6886 2.45007L20.2193 6.03282C20.2873 6.07766 20.3447 6.13216 20.3913 6.19632C20.4382 6.26032 20.4616 6.33316 20.4616 6.41483V6.58183C20.4616 6.70816 20.4234 6.80941 20.3471 6.88557C20.2709 6.96191 20.1681 7.00007 20.0386 7.00007ZM6.18657 6.00007H17.8136L12.2693 3.36557C12.1795 3.32707 12.0897 3.30782 12.0001 3.30782C11.9104 3.30782 11.8207 3.32707 11.7308 3.36557L6.18657 6.00007ZM4.03857 20.0001C3.89691 20.0001 3.77816 19.9521 3.68232 19.8561C3.58649 19.7601 3.53857 19.6412 3.53857 19.4993C3.53857 19.3575 3.58649 19.2388 3.68232 19.1433C3.77816 19.0478 3.89691 19.0001 4.03857 19.0001H14.1463C14.288 19.0001 14.4067 19.0481 14.5026 19.1441C14.5984 19.2401 14.6463 19.359 14.6463 19.5008C14.6463 19.6427 14.5984 19.7613 14.5026 19.8568C14.4067 19.9523 14.288 20.0001 14.1463 20.0001H4.03857ZM16.9993 14.0193C16.8575 14.0193 16.7388 13.9714 16.6433 13.8756C16.5478 13.7797 16.5001 13.661 16.5001 13.5193V9.50007C16.5001 9.35841 16.5481 9.23966 16.6441 9.14383C16.7401 9.04799 16.859 9.00007 17.0008 9.00007C17.1427 9.00007 17.2613 9.04799 17.3568 9.14383C17.4523 9.23966 17.5001 9.35841 17.5001 9.50007V13.5193C17.5001 13.661 17.4521 13.7797 17.3561 13.8756C17.2601 13.9714 17.1412 14.0193 16.9993 14.0193ZM16.6156 18.6236V16.9713C16.6156 16.8243 16.655 16.684 16.7338 16.5503C16.8127 16.4168 16.9245 16.3148 17.0693 16.2443L19.6463 14.9558C19.7503 14.8982 19.8673 14.8693 19.9973 14.8693C20.1273 14.8693 20.2462 14.8982 20.3538 14.9558L22.9308 16.2443C23.0757 16.3148 23.1875 16.4168 23.2663 16.5503C23.3452 16.684 23.3846 16.8243 23.3846 16.9713V18.6236C23.3846 19.6964 23.1077 20.6101 22.5538 21.3646C22 22.1191 21.2457 22.6987 20.2908 23.1033C20.2623 23.1178 20.1654 23.1417 20.0001 23.1751C19.9539 23.1751 19.8546 23.1501 19.7021 23.1001C18.7521 22.6976 18.0002 22.1191 17.4463 21.3646C16.8925 20.6101 16.6156 19.6964 16.6156 18.6236ZM19.2751 19.3173L18.6136 18.6558C18.5276 18.57 18.4262 18.5248 18.3096 18.5203C18.1929 18.5158 18.0852 18.5629 17.9866 18.6616C17.8879 18.7602 17.8386 18.8647 17.8386 18.9751C17.8386 19.0854 17.8879 19.1899 17.9866 19.2886L18.7096 20.0116C18.8712 20.1731 19.0597 20.2538 19.2751 20.2538C19.4904 20.2538 19.6789 20.1731 19.8406 20.0116L21.9943 17.8636C22.0802 17.7776 22.1263 17.6762 22.1328 17.5596C22.1392 17.4429 22.093 17.3352 21.9943 17.2366C21.8957 17.1379 21.7912 17.0895 21.6808 17.0913C21.5707 17.0933 21.4662 17.1417 21.3673 17.2366L19.2751 19.3173Z" fill="#FF541E"/>
</g>
</svg>
