<svg width="200" height="410" viewBox="0 0 200 410" fill="none" xmlns="http://www.w3.org/2000/svg">
<g opacity="0.03">
<path d="M156.25 405.391C171.783 405.391 184.375 392.799 184.375 377.266V264.063C184.375 245.782 175.586 227.852 161.172 216.602L78.9062 153.321C59.5703 138.555 47.6172 115.001 47.2656 90.7428V90.3912V89.6881C47.2656 89.3365 47.2656 89.3365 47.2656 88.985C47.9688 60.5084 70.8203 36.9537 98.9453 36.2506C113.359 35.899 126.719 41.524 136.914 51.3678C147.109 61.2115 152.734 74.5709 152.734 88.985V90.7428C152.734 99.5318 159.766 106.563 168.555 106.563C177.344 106.563 184.375 99.5318 184.375 90.7428V88.985C184.375 66.1334 175.234 44.6881 158.711 28.5162C142.188 12.3444 120.391 3.90686 97.5391 4.60998C52.5391 6.01623 15.625 44.6881 15.625 91.0943V377.266C15.625 392.799 28.217 405.391 43.75 405.391H156.25Z" fill="#1A1F24"/>
<path d="M47.6569 358.974C45.4967 358.974 43.7456 357.223 43.7456 355.063V350.613C43.7456 348.453 45.4967 346.702 47.6569 346.702H152.334C154.495 346.702 156.246 348.453 156.246 350.613V355.063C156.246 357.223 154.495 358.974 152.334 358.974H47.6569Z" fill="white"/>
<path d="M49.3721 334.432V336.657C49.3721 338.817 51.1232 340.568 53.2833 340.568H146.711C148.871 340.568 150.622 338.817 150.622 336.657V334.432C150.622 321.341 146.966 309.784 139.653 299.761C132.342 289.74 122.876 283.4 111.254 280.74L111.245 280.738C111.103 280.706 104.384 279.204 99.9971 279.204C95.6336 279.204 88.9634 280.69 88.7522 280.737L88.737 280.741C77.2103 283.401 67.7684 289.741 60.4111 299.761C53.0518 309.784 49.3721 321.341 49.3721 334.432Z" fill="white"/>
<path d="M92.0518 267.324C91.0613 268.404 90.2935 269.583 89.7483 270.86C88.7186 273.272 91.2847 275.249 93.8527 274.718C95.8633 274.303 98.1324 273.946 99.9971 273.946C101.862 273.946 104.131 274.303 106.141 274.718C108.709 275.249 111.276 273.272 110.246 270.86C109.701 269.583 108.933 268.404 107.942 267.324C105.739 264.92 103.091 263.719 99.9971 263.719C96.9033 263.719 94.2549 264.92 92.0518 267.324Z" fill="white"/>
<path d="M104.347 239.116L102.273 251.557C102.144 252.334 101.471 252.904 100.683 252.904C99.8953 252.904 99.2228 252.334 99.0933 251.557L97.0199 239.116C96.7932 237.756 97.8418 236.519 99.2204 236.519H102.146C103.525 236.519 104.573 237.756 104.347 239.116Z" fill="white"/>
<path d="M80.3926 242.84L84.8172 254.651C85.0937 255.388 84.7961 256.218 84.1138 256.612C83.4314 257.006 82.5642 256.849 82.0635 256.241L74.0475 246.503C73.1714 245.439 73.4606 243.843 74.6544 243.153L77.1881 241.691C78.3819 241.001 79.909 241.549 80.3926 242.84Z" fill="white"/>
<path d="M61.5154 258.049L71.2525 266.064C71.8608 266.565 72.018 267.432 71.624 268.115C71.23 268.797 70.4005 269.095 69.6626 268.818L57.8521 264.394C56.5611 263.91 56.0134 262.383 56.7027 261.189L58.1655 258.655C58.8548 257.462 60.4511 257.172 61.5154 258.049Z" fill="white"/>
<path d="M142.153 266.758L130.342 271.182C129.604 271.459 128.775 271.161 128.381 270.479C127.987 269.796 128.144 268.929 128.752 268.428L138.489 260.413C139.554 259.536 141.15 259.826 141.839 261.019L143.302 263.553C143.991 264.747 143.444 266.274 142.153 266.758Z" fill="white"/>
<path d="M126.954 247.868L118.938 257.605C118.438 258.213 117.571 258.37 116.888 257.976C116.206 257.582 115.908 256.753 116.185 256.015L120.609 244.204C121.093 242.913 122.62 242.366 123.814 243.055L126.347 244.518C127.541 245.207 127.831 246.803 126.954 247.868Z" fill="white"/>
</g>
</svg>
