<svg width="42" height="40" viewBox="0 0 42 40" fill="none" xmlns="http://www.w3.org/2000/svg">
<path d="M14.4663 40L10.8496 33.9003L3.96663 32.4167L4.64155 25.3165L0 20L4.64155 14.6835L3.96663 7.58335L10.8496 6.09972L14.4663 0L20.9165 2.72513L27.3667 0L30.9834 6.09972L37.8664 7.58335L37.1915 14.6835L41.833 20L37.1915 25.3165L37.8664 32.4167L30.9834 33.9003L27.3667 40L20.9165 37.2749L14.4663 40ZM18.6415 26.1918L29.3833 15.45L27.8498 13.8916L18.6415 23.1L13.9832 18.4665L12.4497 20L18.6415 26.1918Z" fill="url(#paint0_linear_3195_1534)"/>
<defs>
<linearGradient id="paint0_linear_3195_1534" x1="20.9165" y1="0" x2="20.9165" y2="40" gradientUnits="userSpaceOnUse">
<stop stop-color="#FF541E"/>
<stop offset="1" stop-color="#993212"/>
</linearGradient>
</defs>
</svg>
