<svg width="24" height="24" viewBox="0 0 24 24" fill="none" xmlns="http://www.w3.org/2000/svg">
<mask id="mask0_1421_5862" style="mask-type:alpha" maskUnits="userSpaceOnUse" x="0" y="0" width="24" height="24">
<rect width="24" height="24" fill="#D9D9D9"/>
</mask>
<g mask="url(#mask0_1421_5862)">
<path d="M7 14.5H14.575C14.7417 14.5 14.8667 14.4483 14.95 14.3448C15.0333 14.2414 15.075 14.1277 15.075 14.0035C15.075 13.8793 15.0333 13.7644 14.95 13.6588C14.8667 13.5529 14.7417 13.5 14.575 13.5H7C6.85833 13.5 6.73958 13.548 6.64375 13.644C6.54792 13.74 6.5 13.8589 6.5 14.0008C6.5 14.1426 6.54792 14.2612 6.64375 14.3567C6.73958 14.4522 6.85833 14.5 7 14.5ZM7 10.5H11C11.1417 10.5 11.2604 10.452 11.3562 10.356C11.4521 10.26 11.5 10.1411 11.5 9.99925C11.5 9.85742 11.4521 9.73875 11.3562 9.64325C11.2604 9.54775 11.1417 9.5 11 9.5H7C6.85833 9.5 6.73958 9.548 6.64375 9.644C6.54792 9.74 6.5 9.85892 6.5 10.0008C6.5 10.1426 6.54792 10.2613 6.64375 10.3568C6.73958 10.4523 6.85833 10.5 7 10.5ZM4.6155 18C4.17117 18 3.79083 17.8418 3.4745 17.5255C3.15817 17.2092 3 16.8288 3 16.3845V7.6155C3 7.17117 3.15817 6.79083 3.4745 6.4745C3.79083 6.15817 4.17117 6 4.6155 6H19.3845C19.8288 6 20.2092 6.15817 20.5255 6.4745C20.8418 6.79083 21 7.17117 21 7.6155V9.3845C21 9.52617 20.952 9.64492 20.856 9.74075C20.76 9.83658 20.6411 9.8845 20.4993 9.8845C20.3574 9.8845 20.2388 9.83658 20.1432 9.74075C20.0477 9.64492 20 9.52617 20 9.3845V7.6155C20 7.436 19.9423 7.2885 19.827 7.173C19.7115 7.05767 19.564 7 19.3845 7H4.6155C4.436 7 4.2885 7.05767 4.173 7.173C4.05767 7.2885 4 7.436 4 7.6155V16.3845C4 16.564 4.05767 16.7115 4.173 16.827C4.2885 16.9423 4.436 17 4.6155 17H11.7885C11.9302 17 12.0489 17.048 12.1448 17.144C12.2406 17.24 12.2885 17.3589 12.2885 17.5008C12.2885 17.6426 12.2406 17.7613 12.1448 17.8568C12.0489 17.9523 11.9302 18 11.7885 18H4.6155ZM21.5538 11.9538C21.6243 12.0259 21.6595 12.1052 21.6595 12.1915C21.6595 12.278 21.6233 12.3574 21.551 12.4297L20.7693 13.2115L19.9807 12.423L20.7633 11.6413C20.8358 11.5689 20.9154 11.5328 21.0023 11.5328C21.0893 11.5328 21.168 11.568 21.2385 11.6385L21.5538 11.9538ZM20.2078 13.8115L14.2423 19.777C14.1927 19.8257 14.137 19.8622 14.075 19.8865C14.013 19.9108 13.9489 19.923 13.8828 19.923H13.577C13.5052 19.923 13.4423 19.8961 13.3885 19.8422C13.3347 19.7884 13.3077 19.7256 13.3077 19.6538V19.348C13.3077 19.2818 13.3199 19.2177 13.3443 19.1557C13.3686 19.0937 13.4051 19.038 13.4538 18.9885L19.4193 13.023L20.2078 13.8115Z" fill="#FF541E"/>
</g>
</svg>
