<svg width="34" height="33" viewBox="0 0 34 33" fill="none" xmlns="http://www.w3.org/2000/svg">
<path d="M20.334 3.1475C19.2765 2.885 18.174 2.75 17.0415 2.75C15.909 2.75 14.8065 2.885 13.749 3.1475C13.6965 3.38 13.6665 3.6275 13.6665 3.875C13.6665 3.995 13.674 4.115 13.6815 4.235C13.7565 4.925 14.034 5.555 14.4615 6.0575C15.2865 5.855 16.149 5.75 17.0415 5.75C17.9265 5.75 18.789 5.855 19.614 6.0575C19.8315 5.81 20.0115 5.5175 20.1465 5.21C20.319 4.805 20.4165 4.3475 20.4165 3.875C20.4165 3.6275 20.3865 3.38 20.334 3.1475ZM29.034 19.3625C28.9815 19.3175 28.929 19.2725 28.8765 19.2275C28.8615 19.2125 28.8465 19.205 28.8315 19.19C28.764 19.1375 28.6965 19.085 28.6215 19.04C28.5615 19.0025 28.494 18.9575 28.419 18.92C28.329 18.875 28.239 18.8225 28.1415 18.785C28.0965 18.7625 28.0515 18.74 27.999 18.725C27.9465 18.7025 27.9015 18.6875 27.849 18.6725C27.774 18.6425 27.7065 18.6275 27.6315 18.6125C27.5565 18.59 27.4815 18.575 27.399 18.56C27.3165 18.545 27.2415 18.53 27.159 18.5225C27.039 18.5075 26.9115 18.5 26.7915 18.5C26.6865 18.5 26.5815 18.5075 26.4765 18.515C25.839 20.03 24.789 21.3575 23.454 22.37C23.4765 22.505 23.499 22.6325 23.5365 22.76C23.5665 22.8875 23.6115 23.015 23.6565 23.135C23.694 23.2325 23.739 23.33 23.7915 23.42C23.8215 23.48 23.8515 23.54 23.889 23.5925C23.9265 23.66 23.964 23.7275 24.0165 23.795C24.0165 23.8025 24.024 23.8175 24.0315 23.825C24.099 23.9225 24.174 24.0125 24.249 24.1025L24.2715 24.125C24.354 24.215 24.4365 24.2975 24.5265 24.38C24.534 24.38 24.534 24.38 24.5415 24.3875C24.5865 24.425 24.6315 24.47 24.684 24.5075C24.7365 24.5525 24.789 24.59 24.8415 24.6275C24.9465 24.7025 25.0515 24.77 25.1715 24.83C26.994 23.4725 28.4265 21.6725 29.274 19.6025C29.2065 19.5125 29.124 19.43 29.034 19.3625ZM21.909 3.635C21.9165 3.71 21.9165 3.7925 21.9165 3.875C21.9165 4.535 21.7815 5.2025 21.519 5.81C21.4065 6.065 21.2715 6.305 21.114 6.5375C24.6765 8 27.1665 11.3 27.1665 15.125C27.1665 15.77 27.0915 16.4 26.9565 17.0075C28.029 17.0375 29.0115 17.42 29.7915 18.0425C30.039 17.105 30.1665 16.13 30.1665 15.125C30.1665 9.92 26.7465 5.4575 21.909 3.635ZM22.104 23.24C20.6115 24.0425 18.8865 24.5 17.0415 24.5C15.1965 24.5 13.464 24.0425 11.9715 23.24C11.919 23.435 11.8515 23.6225 11.769 23.81C11.439 24.575 10.914 25.235 10.2765 25.73C12.2565 26.855 14.574 27.5 17.0415 27.5C19.509 27.5 21.819 26.855 23.799 25.73C22.9965 25.115 22.3965 24.245 22.104 23.24ZM7.6065 18.5225V18.515H7.569C7.479 18.5 7.3815 18.5 7.2915 18.5C7.0815 18.5 6.8715 18.5225 6.669 18.56C6.654 18.56 6.6315 18.5675 6.6165 18.5675C6.564 18.575 6.519 18.59 6.4665 18.605C6.444 18.605 6.4215 18.6125 6.399 18.62C6.3615 18.6275 6.3315 18.635 6.294 18.65C6.279 18.6575 6.264 18.6575 6.2565 18.665C6.2265 18.6725 6.204 18.68 6.1815 18.6875C6.159 18.695 6.1365 18.7025 6.114 18.7175C6.0765 18.7325 6.039 18.7475 6.0015 18.755C5.814 18.83 5.6415 18.92 5.4765 19.0325C5.4015 19.0775 5.334 19.13 5.2665 19.1825C5.169 19.25 5.0715 19.325 4.989 19.415C4.9215 19.475 4.8615 19.535 4.809 19.6025C5.6565 21.6725 7.089 23.4725 8.9115 24.83H8.919C8.934 24.8225 8.949 24.815 8.9565 24.8075C9.0615 24.755 9.159 24.6875 9.249 24.62C9.3615 24.545 9.4665 24.4625 9.564 24.365C9.6165 24.32 9.669 24.2675 9.714 24.215C9.744 24.1925 9.7665 24.17 9.7815 24.1475C9.849 24.0725 9.9165 23.9975 9.969 23.9225C9.999 23.8925 10.0215 23.8625 10.044 23.825C10.059 23.8025 10.0815 23.78 10.0965 23.75C10.194 23.6075 10.2765 23.4575 10.3515 23.3C10.3665 23.27 10.3815 23.24 10.3965 23.21C10.4115 23.18 10.4265 23.1425 10.434 23.105C10.4865 22.97 10.5315 22.835 10.569 22.6925C10.569 22.685 10.569 22.6775 10.5765 22.67C10.5765 22.655 10.5765 22.64 10.584 22.6325C10.584 22.6175 10.584 22.6025 10.5915 22.595C10.599 22.55 10.6065 22.505 10.614 22.46C10.6215 22.43 10.629 22.4 10.629 22.37C9.294 21.3575 8.244 20.0375 7.6065 18.5225ZM12.954 6.545C12.5415 5.915 12.2715 5.18 12.189 4.3925V4.3625L12.1815 4.325C12.174 4.175 12.1665 4.025 12.1665 3.875C12.1665 3.7925 12.1665 3.71 12.1815 3.635C7.344 5.4575 3.9165 9.92 3.9165 15.125C3.9165 16.13 4.044 17.105 4.2915 18.0425C5.094 17.3975 6.084 17.0375 7.1265 17.0075C6.9915 16.4 6.9165 15.77 6.9165 15.125C6.9165 11.3 9.399 8.0075 12.954 6.545Z" fill="#FF541E"/>
<path d="M24.1665 12.8826V14.7501H9.9165V12.8826C9.9165 12.8826 11.7315 9.02012 16.4265 8.70512C16.434 8.70512 16.434 8.70512 16.4415 8.70512H16.449C16.6365 8.69012 16.839 8.68262 17.0415 8.68262C17.2515 8.68262 17.4615 8.69012 17.664 8.70512C17.664 8.70512 17.6715 8.70512 17.679 8.70512C18.2865 8.74262 18.8415 8.84762 19.3515 8.99762C22.794 9.96512 24.1665 12.8826 24.1665 12.8826Z" fill="#9CCC65"/>
<path d="M20.4165 3.875C20.4165 4.3475 20.319 4.805 20.1465 5.21C20.0115 5.5175 19.8315 5.81 19.614 6.0575C19.164 6.59 18.5565 6.98 17.859 7.145C17.5965 7.2125 17.3265 7.25 17.0415 7.25C16.0065 7.25 15.084 6.785 14.4615 6.0575C14.034 5.555 13.7565 4.925 13.6815 4.235C13.674 4.115 13.6665 3.995 13.6665 3.875C13.6665 3.6275 13.6965 3.38 13.749 3.1475C13.8915 2.4725 14.244 1.865 14.739 1.415C15.339 0.845 16.149 0.5 17.0415 0.5C18.654 0.5 20.004 1.6325 20.334 3.1475C20.3865 3.38 20.4165 3.6275 20.4165 3.875Z" fill="#FFB940"/>
<path d="M17.0417 8.68262C16.8392 8.68262 16.6367 8.69012 16.4492 8.70512C16.6442 8.73512 16.8392 8.75012 17.0417 8.75012C17.2517 8.75012 17.4542 8.73512 17.6642 8.70512C17.4617 8.69012 17.2517 8.68262 17.0417 8.68262Z" fill="#FFB940"/>
<path d="M30.1665 21.875C30.1665 22.3475 30.069 22.805 29.8965 23.21C29.4765 24.17 28.6365 24.8975 27.609 25.145C27.3465 25.2125 27.0765 25.25 26.7915 25.25C26.709 25.25 26.6265 25.25 26.544 25.235C26.484 25.235 26.4315 25.2275 26.3715 25.22C26.3565 25.22 26.3415 25.22 26.3265 25.2125C26.244 25.205 26.1615 25.19 26.079 25.175C26.0715 25.1675 26.064 25.1675 26.0565 25.1675C25.989 25.1525 25.9215 25.1375 25.8615 25.115C25.749 25.085 25.644 25.0475 25.5465 25.01C25.419 24.9575 25.2915 24.8975 25.1715 24.83C25.0515 24.77 24.9465 24.7025 24.8415 24.6275C24.789 24.59 24.7365 24.5525 24.684 24.5075C24.6315 24.47 24.5865 24.425 24.5415 24.3875C24.534 24.38 24.534 24.38 24.5265 24.38C24.4365 24.2975 24.354 24.215 24.2715 24.125L24.249 24.1025C24.174 24.0125 24.099 23.9225 24.0315 23.825C24.024 23.8175 24.0165 23.8025 24.0165 23.795C23.964 23.7275 23.9265 23.66 23.889 23.5925C23.8515 23.54 23.8215 23.48 23.7915 23.42C23.739 23.33 23.694 23.2325 23.6565 23.135C23.6115 23.015 23.5665 22.8875 23.5365 22.76C23.499 22.6325 23.4765 22.505 23.454 22.37C23.439 22.325 23.439 22.28 23.4315 22.235C23.424 22.115 23.4165 21.995 23.4165 21.875C23.4165 20.9 23.829 20.0225 24.489 19.415C24.564 19.34 24.639 19.2725 24.7215 19.2125C24.804 19.145 24.8865 19.085 24.9765 19.0325C25.044 18.9875 25.1115 18.95 25.179 18.9125C25.2165 18.8975 25.2465 18.875 25.284 18.86C25.3815 18.8075 25.479 18.7625 25.584 18.725C25.6665 18.6875 25.749 18.665 25.8315 18.6425C25.8915 18.62 25.959 18.605 26.0265 18.59C26.0415 18.59 26.049 18.5825 26.064 18.5825C26.109 18.5675 26.1615 18.56 26.2065 18.5525C26.274 18.5375 26.3415 18.53 26.409 18.5225C26.4315 18.5225 26.454 18.515 26.4765 18.515C26.5815 18.5075 26.6865 18.5 26.7915 18.5C26.9115 18.5 27.039 18.5075 27.159 18.5225C27.2415 18.53 27.3165 18.545 27.399 18.56C27.4815 18.575 27.5565 18.59 27.6315 18.6125C27.7065 18.6275 27.774 18.6425 27.849 18.6725C27.9015 18.6875 27.9465 18.7025 27.999 18.725C28.0515 18.74 28.0965 18.7625 28.1415 18.785C28.239 18.8225 28.329 18.875 28.419 18.92C28.494 18.9575 28.5615 19.0025 28.6215 19.04C28.6965 19.085 28.764 19.1375 28.8315 19.19C28.8465 19.205 28.8615 19.2125 28.8765 19.2275C28.929 19.2725 28.9815 19.3175 29.034 19.3625C29.124 19.43 29.2065 19.5125 29.274 19.6025C29.334 19.67 29.4015 19.7375 29.4615 19.8125C29.469 19.8275 29.484 19.8425 29.499 19.865C29.5065 19.8725 29.5065 19.88 29.514 19.8875C29.559 19.9475 29.604 20.0075 29.6415 20.075C29.6865 20.1425 29.724 20.2025 29.7615 20.27C29.814 20.3675 29.8665 20.465 29.904 20.5625L29.9115 20.57C29.934 20.63 29.9565 20.69 29.979 20.7575C29.994 20.81 30.009 20.855 30.024 20.9075C30.054 20.9975 30.0765 21.095 30.099 21.185V21.1925C30.114 21.2675 30.129 21.3425 30.1365 21.4175V21.455C30.144 21.5 30.1515 21.5375 30.1515 21.5825C30.159 21.68 30.1665 21.7775 30.1665 21.875Z" fill="#FFB940"/>
<path d="M10.6665 21.875C10.6665 21.98 10.659 22.0775 10.6515 22.175C10.644 22.2425 10.6365 22.3025 10.629 22.37C10.629 22.4 10.6215 22.43 10.614 22.46C10.6065 22.505 10.599 22.55 10.5915 22.595C10.584 22.6025 10.584 22.6175 10.584 22.6325C10.584 22.6325 10.584 22.64 10.5765 22.64V22.67C10.569 22.6775 10.569 22.685 10.569 22.6925C10.5315 22.835 10.4865 22.97 10.434 23.105C10.4265 23.1425 10.4115 23.18 10.3965 23.21C10.3815 23.24 10.3665 23.27 10.3515 23.3C10.2765 23.4575 10.194 23.6075 10.0965 23.75C10.0815 23.78 10.059 23.8025 10.044 23.825C10.0215 23.8625 9.999 23.8925 9.969 23.9225C9.9165 23.9975 9.849 24.0725 9.7815 24.1475C9.7665 24.17 9.744 24.1925 9.714 24.215C9.669 24.2675 9.6165 24.32 9.564 24.365C9.4665 24.4625 9.3615 24.545 9.249 24.62C9.159 24.6875 9.0615 24.755 8.9565 24.8075C8.949 24.815 8.934 24.8225 8.919 24.83H8.9115L8.904 24.8375C8.8815 24.8525 8.8515 24.8675 8.8215 24.8825C8.7765 24.905 8.7315 24.9275 8.6865 24.9425C8.619 24.98 8.5515 25.0025 8.484 25.0325C8.4765 25.0325 8.469 25.04 8.469 25.04C8.409 25.0625 8.349 25.0775 8.289 25.0925C8.229 25.115 8.169 25.13 8.109 25.145C8.094 25.1525 8.0865 25.1525 8.0715 25.16C8.0565 25.16 8.049 25.1675 8.034 25.1675C7.929 25.19 7.8315 25.2125 7.7265 25.22C7.7115 25.2275 7.704 25.2275 7.6965 25.22H7.689C7.674 25.2275 7.659 25.2275 7.6515 25.2275C7.5315 25.2425 7.4115 25.25 7.2915 25.25C7.164 25.25 7.0365 25.2425 6.9165 25.2275C6.8265 25.22 6.744 25.205 6.6615 25.19C6.639 25.19 6.6165 25.1825 6.594 25.175C6.564 25.175 6.534 25.1675 6.504 25.1525C6.444 25.145 6.3915 25.13 6.3315 25.1075C6.3015 25.1 6.2715 25.0925 6.2415 25.085C6.234 25.085 6.234 25.0775 6.2265 25.0775C6.1965 25.07 6.159 25.055 6.129 25.04C6.1215 25.04 6.1065 25.04 6.099 25.0325C6.084 25.025 6.069 25.025 6.0615 25.0175C6.039 25.01 6.0165 25.0025 6.0015 24.9875C5.994 24.995 5.994 24.995 5.994 24.9875C5.844 24.9275 5.709 24.86 5.574 24.7775C5.5515 24.77 5.529 24.755 5.514 24.74C5.439 24.695 5.364 24.65 5.2965 24.5975C5.259 24.5675 5.2215 24.5375 5.184 24.5075C5.1765 24.5 5.1615 24.4925 5.154 24.485C5.109 24.4475 5.064 24.4175 5.0265 24.38L4.959 24.3125C4.9365 24.2975 4.9215 24.2825 4.9065 24.26L4.8165 24.17C4.7865 24.14 4.764 24.11 4.7415 24.08C4.734 24.0725 4.7265 24.065 4.719 24.0575C4.704 24.0425 4.689 24.0275 4.674 24.005C4.6065 23.9225 4.5465 23.84 4.4865 23.75C4.464 23.72 4.4415 23.6825 4.419 23.645C4.3965 23.615 4.3815 23.5775 4.359 23.54C4.314 23.465 4.2765 23.3825 4.239 23.3075C4.2015 23.2325 4.1715 23.1575 4.1415 23.09C4.1415 23.075 4.134 23.06 4.1265 23.0525C4.1115 23.015 4.104 22.9775 4.089 22.94C4.0815 22.9175 4.074 22.895 4.0665 22.865H4.059C4.059 22.8575 4.059 22.85 4.059 22.85C4.0365 22.7825 4.0215 22.7075 3.999 22.6325C3.984 22.55 3.969 22.4675 3.954 22.385C3.9465 22.3325 3.939 22.2875 3.9315 22.235V22.1675C3.924 22.07 3.9165 21.9725 3.9165 21.875C3.9165 21.6425 3.939 21.4175 3.984 21.1925C4.0065 21.0875 4.029 20.9825 4.0665 20.885C4.0815 20.8325 4.0965 20.78 4.119 20.7275C4.1265 20.69 4.1415 20.66 4.1565 20.63C4.164 20.6 4.179 20.57 4.194 20.54C4.2015 20.51 4.2165 20.48 4.2315 20.4575C4.2315 20.45 4.2315 20.45 4.239 20.4425C4.239 20.4275 4.2465 20.4125 4.254 20.405C4.2615 20.39 4.2615 20.375 4.2765 20.3675C4.299 20.3225 4.3215 20.2775 4.344 20.24C4.3665 20.2025 4.3815 20.1725 4.404 20.1425C4.404 20.12 4.419 20.105 4.434 20.09C4.4415 20.0675 4.4565 20.045 4.4715 20.03C4.494 19.9925 4.5165 19.955 4.5465 19.9175V19.91C4.584 19.8575 4.6215 19.805 4.6665 19.76C4.6665 19.7525 4.674 19.745 4.689 19.7375C4.689 19.73 4.6965 19.73 4.6965 19.73C4.7115 19.7 4.7265 19.685 4.7565 19.6625C4.764 19.64 4.779 19.6175 4.809 19.6025C4.8615 19.535 4.9215 19.475 4.989 19.415C5.0715 19.325 5.169 19.25 5.2665 19.1825C5.334 19.13 5.4015 19.0775 5.4765 19.0325C5.6415 18.92 5.814 18.83 6.0015 18.755C6.039 18.7475 6.0765 18.7325 6.114 18.7175C6.1365 18.7025 6.159 18.695 6.1815 18.6875C6.204 18.68 6.2265 18.6725 6.2565 18.665C6.264 18.6575 6.279 18.6575 6.294 18.65C6.3315 18.635 6.3615 18.6275 6.399 18.62C6.4215 18.6125 6.444 18.605 6.4665 18.605C6.519 18.59 6.564 18.575 6.6165 18.5675C6.6315 18.5675 6.654 18.56 6.669 18.56C6.8715 18.5225 7.0815 18.5 7.2915 18.5C7.3815 18.5 7.479 18.5 7.569 18.515H7.6065C7.629 18.515 7.6515 18.5225 7.6665 18.5225C7.719 18.53 7.779 18.5375 7.8315 18.545C7.869 18.5525 7.914 18.56 7.9515 18.5675C7.9665 18.5675 7.974 18.5675 7.989 18.575C8.0115 18.575 8.0265 18.5825 8.049 18.59C8.094 18.5975 8.1465 18.6125 8.1915 18.6275C8.274 18.6425 8.349 18.6725 8.4315 18.7025C8.5065 18.725 8.5815 18.755 8.6565 18.7925C8.739 18.8225 8.814 18.86 8.8965 18.905C8.994 18.9575 9.084 19.0175 9.174 19.0775C9.2115 19.1 9.2415 19.1225 9.2715 19.145C9.324 19.175 9.369 19.2125 9.4215 19.2575C9.429 19.265 9.429 19.265 9.4365 19.2725C9.459 19.2875 9.489 19.31 9.5115 19.34C9.5415 19.355 9.564 19.385 9.594 19.415C9.6465 19.46 9.699 19.5125 9.744 19.565C9.7965 19.6175 9.849 19.67 9.894 19.73C9.924 19.7675 9.9615 19.8125 9.9915 19.8575C10.0215 19.8875 10.044 19.925 10.0665 19.9625C10.074 19.97 10.0815 19.985 10.0965 20C10.1115 20.0225 10.134 20.06 10.149 20.09C10.179 20.1275 10.2015 20.165 10.224 20.21C10.2315 20.2175 10.239 20.2325 10.2465 20.2475C10.254 20.27 10.269 20.285 10.2765 20.3075C10.299 20.3375 10.314 20.375 10.329 20.4125C10.374 20.495 10.4115 20.5775 10.4415 20.6675C10.4565 20.6975 10.464 20.7275 10.4715 20.7575C10.4865 20.7875 10.5015 20.825 10.509 20.8625C10.524 20.8925 10.5315 20.93 10.539 20.9675C10.5615 21.05 10.584 21.1325 10.599 21.215C10.599 21.23 10.6065 21.245 10.6065 21.26L10.614 21.2675V21.275C10.614 21.29 10.614 21.2975 10.6215 21.3125C10.6215 21.3425 10.629 21.38 10.629 21.41C10.6365 21.4325 10.644 21.4625 10.644 21.485C10.644 21.4925 10.644 21.5 10.644 21.5C10.644 21.5075 10.644 21.515 10.644 21.515C10.6515 21.5225 10.6515 21.53 10.6515 21.53V21.56C10.659 21.665 10.6665 21.77 10.6665 21.875Z" fill="#FFB940"/>
<path d="M10.599 21.2151C10.599 21.2301 10.6065 21.2451 10.6065 21.2601L10.614 21.2676C10.6065 21.2526 10.6065 21.2301 10.599 21.2151ZM10.644 21.5151C10.6515 21.5301 10.6515 21.5451 10.6515 21.5601V21.5301C10.6515 21.5301 10.6515 21.5226 10.644 21.5151ZM4.98898 24.3351C4.98148 24.3276 4.96648 24.3201 4.95898 24.3126L5.02648 24.3801C5.01148 24.3651 5.00398 24.3501 4.98898 24.3351ZM8.10898 25.1451C8.09398 25.1526 8.08648 25.1526 8.07148 25.1601C8.09398 25.1526 8.11648 25.1526 8.13898 25.1451H8.10898ZM10.5765 22.6401V22.6701C10.5765 22.6551 10.5765 22.6401 10.584 22.6326C10.584 22.6326 10.584 22.6401 10.5765 22.6401Z" fill="#FFB940"/>
<path d="M0.166504 30.8786C0.166504 30.8786 2.139 26.6824 7.2915 26.6824C12.4432 26.6824 14.4165 30.8786 14.4165 30.8786V32.7499H0.166504V30.8786Z" fill="#7E8E99"/>
<path d="M10.6665 21.875C10.6665 21.98 10.659 22.0775 10.6515 22.175C10.644 22.2425 10.6365 22.3025 10.629 22.37C10.629 22.4 10.6215 22.43 10.614 22.46C10.6065 22.505 10.599 22.55 10.5915 22.595C10.584 22.6025 10.584 22.6175 10.584 22.6325C10.5765 22.64 10.5765 22.655 10.5765 22.67C10.569 22.6775 10.569 22.685 10.569 22.6925C10.5315 22.835 10.4865 22.97 10.434 23.105C10.4115 23.165 10.3815 23.2325 10.3515 23.3C10.2765 23.4575 10.194 23.6075 10.0965 23.75C10.0815 23.78 10.059 23.8025 10.044 23.825C10.0215 23.8625 9.999 23.8925 9.969 23.9225C9.9165 23.9975 9.849 24.0725 9.7815 24.1475C9.7665 24.17 9.744 24.1925 9.714 24.215C9.669 24.2675 9.6165 24.32 9.564 24.365C9.4665 24.4625 9.3615 24.545 9.249 24.62C9.159 24.6875 9.0615 24.755 8.9565 24.8075C8.949 24.815 8.934 24.8225 8.919 24.83H8.9115L8.904 24.8375C8.8815 24.8525 8.8515 24.8675 8.8215 24.8825C8.7765 24.905 8.7315 24.9275 8.6865 24.9425C8.619 24.98 8.5515 25.0025 8.484 25.0325C8.4765 25.0325 8.469 25.04 8.469 25.04C8.409 25.0625 8.349 25.0775 8.289 25.0925C8.2365 25.115 8.1915 25.13 8.139 25.145C8.1165 25.1525 8.094 25.1525 8.0715 25.16C8.0565 25.16 8.049 25.1675 8.034 25.1675C7.929 25.19 7.8315 25.2125 7.7265 25.22C7.7115 25.2275 7.704 25.2275 7.6965 25.22H7.689C7.674 25.2275 7.659 25.2275 7.6515 25.2275C7.5315 25.2425 7.4115 25.25 7.2915 25.25C7.164 25.25 7.0365 25.2425 6.9165 25.2275C6.8265 25.22 6.744 25.205 6.6615 25.19C6.639 25.19 6.6165 25.1825 6.594 25.175C6.564 25.175 6.534 25.1675 6.504 25.1525C6.444 25.145 6.3915 25.13 6.3315 25.1075C6.3015 25.1 6.2715 25.0925 6.2415 25.085C6.234 25.085 6.234 25.0775 6.2265 25.0775C6.1965 25.07 6.159 25.055 6.129 25.04C6.1215 25.04 6.1065 25.04 6.099 25.0325C6.084 25.025 6.069 25.025 6.0615 25.0175C6.039 25.01 6.0165 25.0025 6.0015 24.9875C5.994 24.995 5.994 24.995 5.994 24.9875C5.844 24.9275 5.709 24.86 5.574 24.7775C5.5515 24.77 5.529 24.755 5.514 24.74C5.439 24.695 5.364 24.65 5.2965 24.5975C5.259 24.5675 5.2215 24.5375 5.184 24.5075C5.1765 24.5 5.1615 24.4925 5.154 24.485C5.094 24.44 5.0415 24.3875 4.989 24.335C4.899 24.2525 4.8165 24.17 4.7415 24.08C4.734 24.0725 4.7265 24.065 4.719 24.0575C4.704 24.0425 4.689 24.0275 4.674 24.005C4.6065 23.9225 4.5465 23.84 4.4865 23.75C4.464 23.72 4.4415 23.6825 4.419 23.645C4.3965 23.615 4.3815 23.5775 4.359 23.54C4.314 23.465 4.2765 23.3825 4.239 23.3075C4.2015 23.2325 4.1715 23.1575 4.1415 23.09C4.1415 23.075 4.134 23.06 4.1265 23.0525C4.1115 23.015 4.104 22.9775 4.089 22.94C4.0815 22.9175 4.074 22.895 4.0665 22.865C4.0665 22.865 4.0665 22.8575 4.059 22.85C4.0365 22.7825 4.0215 22.7075 3.999 22.6325C3.984 22.55 3.969 22.4675 3.954 22.385C3.9465 22.325 3.939 22.2575 3.9315 22.1975V22.1675C3.924 22.07 3.9165 21.9725 3.9165 21.875C3.9165 21.6425 3.939 21.4175 3.984 21.1925C4.0065 21.0875 4.029 20.9825 4.0665 20.885C4.0815 20.8325 4.0965 20.78 4.119 20.7275C4.1265 20.69 4.1415 20.66 4.1565 20.63C4.164 20.6 4.179 20.57 4.194 20.54C4.2015 20.51 4.2165 20.48 4.2315 20.4575C4.2315 20.45 4.2315 20.45 4.239 20.4425C4.239 20.4275 4.2465 20.4125 4.254 20.405C4.2615 20.39 4.2615 20.375 4.2765 20.3675C4.299 20.3225 4.3215 20.2775 4.344 20.24C4.3665 20.2025 4.3815 20.1725 4.404 20.1425C4.404 20.12 4.419 20.105 4.434 20.09C4.4415 20.0675 4.4565 20.045 4.4715 20.03C4.494 19.9925 4.5165 19.955 4.5465 19.9175V19.91C4.584 19.8575 4.6215 19.805 4.6665 19.76C4.6665 19.7525 4.674 19.745 4.689 19.7375V19.73H4.6965C4.7115 19.7 4.7265 19.685 4.7565 19.6625C4.764 19.64 4.779 19.6175 4.809 19.6025C4.8615 19.535 4.9215 19.475 4.989 19.415C5.0715 19.325 5.169 19.25 5.2665 19.1825C5.334 19.13 5.4015 19.0775 5.4765 19.0325C5.6415 18.92 5.814 18.83 6.0015 18.755C6.039 18.7475 6.0765 18.7325 6.114 18.7175C6.1365 18.7025 6.159 18.695 6.1815 18.6875C6.204 18.68 6.2265 18.6725 6.2565 18.665C6.264 18.6575 6.279 18.6575 6.294 18.65C6.3315 18.635 6.3615 18.6275 6.399 18.62C6.4215 18.6125 6.444 18.605 6.4665 18.605C6.519 18.59 6.564 18.575 6.6165 18.5675C6.6315 18.5675 6.654 18.56 6.669 18.56C6.8715 18.5225 7.0815 18.5 7.2915 18.5C7.3815 18.5 7.479 18.5 7.569 18.515C7.5765 18.515 7.5915 18.515 7.6065 18.5225C7.629 18.515 7.644 18.5225 7.6665 18.5225C7.719 18.53 7.779 18.5375 7.8315 18.545C7.869 18.5525 7.914 18.56 7.9515 18.5675C7.9665 18.5675 7.974 18.5675 7.989 18.575C8.0115 18.575 8.0265 18.5825 8.049 18.59C8.094 18.5975 8.1465 18.6125 8.1915 18.6275C8.274 18.6425 8.349 18.6725 8.4315 18.7025C8.5065 18.725 8.5815 18.755 8.6565 18.7925C8.739 18.8225 8.814 18.86 8.8965 18.905C8.994 18.9575 9.084 19.0175 9.174 19.0775C9.2115 19.1 9.2415 19.1225 9.2715 19.145C9.324 19.175 9.369 19.2125 9.4215 19.2575C9.4215 19.2575 9.429 19.265 9.4365 19.265V19.2725C9.459 19.2875 9.489 19.31 9.5115 19.34C9.5415 19.355 9.564 19.385 9.594 19.415C9.6465 19.46 9.699 19.5125 9.744 19.565C9.7965 19.6175 9.849 19.67 9.894 19.73C9.924 19.7675 9.9615 19.8125 9.9915 19.8575C10.0215 19.8875 10.044 19.925 10.0665 19.9625C10.074 19.97 10.0815 19.985 10.0965 20C10.1115 20.0225 10.134 20.06 10.149 20.09C10.179 20.1275 10.2015 20.165 10.224 20.21C10.2315 20.2175 10.239 20.2325 10.2465 20.2475C10.254 20.27 10.269 20.285 10.2765 20.3075C10.299 20.3375 10.314 20.375 10.329 20.4125C10.374 20.495 10.4115 20.5775 10.4415 20.6675C10.4565 20.6975 10.464 20.7275 10.4715 20.7575C10.4865 20.7875 10.5015 20.825 10.509 20.8625C10.524 20.8925 10.5315 20.93 10.539 20.9675C10.5615 21.05 10.584 21.1325 10.599 21.215C10.6065 21.23 10.6065 21.2525 10.614 21.2675V21.275C10.614 21.29 10.614 21.2975 10.6215 21.3125C10.6215 21.3425 10.629 21.38 10.629 21.41C10.6365 21.4325 10.644 21.4625 10.644 21.485C10.644 21.4925 10.644 21.5 10.644 21.5C10.644 21.5075 10.644 21.515 10.644 21.515C10.6515 21.5225 10.6515 21.53 10.6515 21.53V21.56C10.659 21.665 10.6665 21.77 10.6665 21.875Z" fill="#FFB940"/>
<path d="M33.9165 30.8824V32.7499H19.6665V30.8824C19.6665 30.8824 20.004 30.1624 20.7615 29.3224C21.8415 28.1299 23.769 26.6824 26.7915 26.6824C27.6165 26.6824 28.3515 26.7874 29.019 26.9674C29.1315 26.9974 29.2365 27.0274 29.3415 27.0649C30.534 27.4399 31.464 28.0474 32.169 28.6774C32.454 28.9324 32.709 29.1874 32.9115 29.4349C33.609 30.2299 33.9165 30.8824 33.9165 30.8824Z" fill="#7E8E99"/>
</svg>
