<svg width="14" height="14" viewBox="0 0 14 14" fill="none" xmlns="http://www.w3.org/2000/svg">
<path d="M7.00006 11.0625L3.5834 13.1042C3.43062 13.1875 3.28132 13.2222 3.13548 13.2083C2.98965 13.1944 2.86118 13.1458 2.75007 13.0625C2.63895 12.9792 2.55562 12.8646 2.50007 12.7188C2.44451 12.5729 2.43757 12.4236 2.47923 12.2708L3.37507 8.45834L0.354232 5.89584C0.229232 5.78472 0.152843 5.65625 0.125065 5.51042C0.0972873 5.36459 0.104232 5.22222 0.145898 5.08334C0.187565 4.94445 0.263954 4.82986 0.375065 4.73959C0.486176 4.64931 0.625065 4.59722 0.791732 4.58334L4.75007 4.22917L6.31256 0.604169C6.38201 0.451391 6.47923 0.336808 6.60423 0.260419C6.72923 0.18403 6.86118 0.145836 7.00006 0.145836C7.13895 0.145836 7.2709 0.18403 7.3959 0.260419C7.5209 0.336808 7.61812 0.451391 7.68756 0.604169L9.25006 4.25L13.2084 4.58334C13.3751 4.59722 13.514 4.65278 13.6251 4.75C13.7362 4.84723 13.8126 4.96528 13.8542 5.10417C13.8959 5.24306 13.8994 5.38195 13.8646 5.52084C13.8299 5.65972 13.7501 5.78472 13.6251 5.89584L10.6251 8.45834L11.5209 12.2708C11.5626 12.4236 11.5556 12.5729 11.5001 12.7188C11.4445 12.8646 11.3612 12.9792 11.2501 13.0625C11.139 13.1458 11.0105 13.1944 10.8646 13.2083C10.7188 13.2222 10.5695 13.1875 10.4167 13.1042L7.00006 11.0625Z" fill="#FFC531"/>
</svg>
