<svg width="24" height="23" viewBox="0 0 24 23" fill="none" xmlns="http://www.w3.org/2000/svg">
<path d="M16.0784 8.58984L21.2546 8.56528C22.6149 8.55791 23.7297 9.80039 23.7788 11.1214L21.7309 20.7911C21.6425 21.4369 20.5572 22.5419 19.9262 22.5443L6.43086 22.6106L6.39648 9.52783C6.47015 9.37804 7.30256 9.2258 7.54074 9.14232C9.05822 8.60948 10.3572 7.29334 10.9219 5.79305C11.5211 4.2019 10.9318 1.2455 13.343 0.98522C15.4891 0.754405 16.2405 2.4315 16.4369 4.24118C16.5965 5.70465 16.4443 7.17302 16.0784 8.59229V8.58984Z" fill="white"/>
<path d="M1.14413 9.50672C1.74081 9.41832 3.56277 9.4085 4.15945 9.49199C4.60635 9.55583 4.88628 9.78665 5.02378 10.2164L5.09499 21.7596C5.04343 22.2163 4.79542 22.5109 4.34116 22.592C3.76903 22.6951 1.72362 22.7074 1.13676 22.6312C0.751251 22.5797 0.468871 22.3194 0.348553 21.9585L0.277344 10.3514C0.331364 9.85049 0.657943 9.57793 1.14658 9.50672H1.14413Z" fill="white"/>
</svg>
