<svg width="34" height="21" viewBox="0 0 34 21" fill="none" xmlns="http://www.w3.org/2000/svg">
<path d="M8 11.75C5.9285 11.75 4.25 10.0715 4.25 8C4.25 5.9285 5.9285 4.25 8 4.25C10.0715 4.25 11.75 5.9285 11.75 8C11.75 10.0715 10.0715 11.75 8 11.75Z" fill="#FFAC68"/>
<path d="M0.52325 17.8287C0.52325 17.8287 2.5775 13.25 7.99999 13.25C13.4225 13.25 15.5232 17.8287 15.5232 17.8287L15.5 20.75H0.5L0.52325 17.8287ZM33.5 17.75C33.5 17.75 31.4225 13.25 26 13.25C20.5775 13.25 18.5 17.75 18.5 17.75V20.75H33.5V17.75Z" fill="#EB5B09"/>
<path d="M21.5 4.99975C21.5 7.48675 19.484 9.49975 17 9.49975C14.516 9.49975 12.5 7.48675 12.5 4.99975C12.5 2.51275 14.516 0.499756 17 0.499756C19.484 0.499756 21.5 2.51575 21.5 4.99975ZM26 16.9997C26 16.9997 23.4597 11.791 16.9505 11.791C10.4435 11.791 8 16.9997 8 16.9997V20.7497H26V16.9997Z" fill="#FFB940"/>
<path d="M26 11.75C28.0715 11.75 29.75 10.0715 29.75 8C29.75 5.9285 28.0715 4.25 26 4.25C23.9285 4.25 22.25 5.9285 22.25 8C22.25 10.0715 23.9285 11.75 26 11.75Z" fill="#FFAC68"/>
<path d="M8 11.75C5.9285 11.75 4.25 10.0715 4.25 8C4.25 5.9285 5.9285 4.25 8 4.25C10.0715 4.25 11.75 5.9285 11.75 8C11.75 10.0715 10.0715 11.75 8 11.75ZM26 11.75C28.0715 11.75 29.75 10.0715 29.75 8C29.75 5.9285 28.0715 4.25 26 4.25C23.9285 4.25 22.25 5.9285 22.25 8C22.25 10.0715 23.9285 11.75 26 11.75Z" fill="#FFAC68"/>
</svg>
