<svg width="84" height="30" viewBox="0 0 84 30" fill="none" xmlns="http://www.w3.org/2000/svg">
<path d="M12.7542 28.3596C13.7897 28.3596 14.6292 27.5202 14.6292 26.4846V18.9378C14.6292 17.719 14.0432 16.5237 13.0823 15.7737L7.5979 11.555C6.30884 10.5706 5.51196 9.00027 5.48852 7.38308V7.35964V7.31277C5.48852 7.28933 5.48852 7.28933 5.48852 7.26589C5.5354 5.36746 7.05884 3.79714 8.93384 3.75027C9.89477 3.72683 10.7854 4.10183 11.4651 4.75808C12.1448 5.41433 12.5198 6.30496 12.5198 7.26589V7.38308C12.5198 7.96902 12.9885 8.43777 13.5745 8.43777C14.1604 8.43777 14.6292 7.96902 14.6292 7.38308V7.26589C14.6292 5.74246 14.0198 4.31277 12.9182 3.23464C11.8167 2.15652 10.3635 1.59402 8.84009 1.64089C5.84009 1.73464 3.37915 4.31277 3.37915 7.40652V26.4846C3.37915 27.5202 4.21862 28.3596 5.25415 28.3596H12.7542Z" fill="#FF541E"/>
<path d="M5.51466 25.265C5.37065 25.265 5.25391 25.1482 5.25391 25.0042V24.7075C5.25391 24.5635 5.37065 24.4468 5.51466 24.4468H12.4932C12.6372 24.4468 12.7539 24.5635 12.7539 24.7075V25.0042C12.7539 25.1482 12.6372 25.265 12.4932 25.265H5.51466Z" fill="white"/>
<path d="M5.62891 23.6287V23.7771C5.62891 23.9211 5.74565 24.0378 5.88966 24.0378H12.1182C12.2622 24.0378 12.3789 23.9211 12.3789 23.7771V23.6287C12.3789 22.756 12.1352 21.9856 11.6477 21.3174C11.1602 20.6493 10.5291 20.2266 9.75435 20.0493L9.75376 20.0492C9.74433 20.0471 9.29639 19.9469 9.00391 19.9469C8.71301 19.9469 8.26833 20.046 8.25425 20.0491L8.25324 20.0494C7.48479 20.2267 6.85533 20.6494 6.36484 21.3174C5.87422 21.9856 5.62891 22.756 5.62891 23.6287Z" fill="white"/>
<path d="M8.47422 19.1549C8.40819 19.2269 8.357 19.3055 8.32066 19.3906C8.25201 19.5514 8.42308 19.6832 8.59428 19.6478C8.72832 19.6201 8.87959 19.5964 9.00391 19.5964C9.12822 19.5964 9.27949 19.6201 9.41353 19.6478C9.58473 19.6832 9.7558 19.5514 9.68716 19.3906C9.65081 19.3055 9.59962 19.2269 9.53359 19.1549C9.38672 18.9947 9.21016 18.9146 9.00391 18.9146C8.79766 18.9146 8.62109 18.9947 8.47422 19.1549Z" fill="white"/>
<path d="M9.29392 17.2743L9.15569 18.1036C9.14705 18.1554 9.10222 18.1934 9.0497 18.1934C8.99717 18.1934 8.95234 18.1554 8.9437 18.1036L8.80547 17.2743C8.79037 17.1836 8.86027 17.1011 8.95218 17.1011H9.14721C9.23912 17.1011 9.30903 17.1836 9.29392 17.2743Z" fill="white"/>
<path d="M7.69694 17.5227L7.99192 18.31C8.01035 18.3592 7.99051 18.4145 7.94502 18.4408C7.89953 18.4671 7.84172 18.4566 7.80833 18.416L7.27394 17.7669C7.21553 17.6959 7.23481 17.5895 7.3144 17.5436L7.48331 17.446C7.5629 17.4001 7.6647 17.4366 7.69694 17.5227Z" fill="white"/>
<path d="M6.43841 18.536L7.08756 19.0704C7.12811 19.1038 7.13858 19.1616 7.11232 19.2071C7.08605 19.2526 7.03075 19.2725 6.98156 19.254L6.19419 18.9591C6.10813 18.9268 6.07162 18.825 6.11757 18.7454L6.21509 18.5765C6.26104 18.4969 6.36746 18.4776 6.43841 18.536Z" fill="white"/>
<path d="M11.8142 19.1166L11.0269 19.4116C10.9777 19.43 10.9224 19.4102 10.8961 19.3647C10.8699 19.3192 10.8803 19.2614 10.9209 19.228L11.57 18.6936C11.641 18.6352 11.7474 18.6545 11.7933 18.7341L11.8909 18.903C11.9368 18.9826 11.9003 19.0844 11.8142 19.1166Z" fill="white"/>
<path d="M10.8011 17.8578L10.2667 18.507C10.2333 18.5475 10.1755 18.558 10.13 18.5318C10.0845 18.5055 10.0647 18.4502 10.0831 18.401L10.3781 17.6136C10.4103 17.5276 10.5122 17.491 10.5917 17.537L10.7606 17.6345C10.8402 17.6805 10.8595 17.7869 10.8011 17.8578Z" fill="white"/>
<path d="M30.8332 22.1832L27.3772 20.8092V14.5643C27.3772 13.5345 27.1416 12.7665 26.6703 12.2603C26.1991 11.7367 25.562 11.4748 24.7591 11.4748C24.2005 11.4748 23.6682 11.6232 23.162 11.9199C22.6558 12.2167 22.2456 12.6792 21.9314 13.3076C21.6172 13.9359 21.4602 14.765 21.4602 15.7948V22.1832L18.0042 20.8092V1.84082L21.4602 3.3323V13.0981H21.0151C21.1722 11.9287 21.4951 11.021 21.9838 10.3752C22.49 9.71193 23.0747 9.24939 23.738 8.98757C24.4187 8.72575 25.0907 8.59484 25.754 8.59484C27.3249 8.59484 28.5642 9.07484 29.4718 10.0348C30.3794 10.9948 30.8332 12.3912 30.8332 14.2239V22.1832Z" fill="#1A1F24"/>
<path d="M39.2012 22.6021C37.7699 22.6021 36.5045 22.3054 35.4048 21.7119C34.3052 21.101 33.4499 20.2719 32.839 19.2247C32.2281 18.1599 31.9227 16.9556 31.9227 15.6116C31.9227 14.2327 32.2281 13.0196 32.839 11.9723C33.4499 10.925 34.3052 10.1047 35.4048 9.51121C36.5045 8.9003 37.7699 8.59484 39.2012 8.59484C40.6325 8.59484 41.8979 8.9003 42.9976 9.51121C44.0972 10.1047 44.9525 10.925 45.5634 11.9723C46.1743 13.0196 46.4797 14.2239 46.4797 15.5854C46.4797 16.9468 46.1743 18.1599 45.5634 19.2247C44.9525 20.2719 44.0972 21.101 42.9976 21.7119C41.8979 22.3054 40.6325 22.6021 39.2012 22.6021ZM39.2012 19.7221C39.9343 19.7221 40.5801 19.5476 41.1387 19.1985C41.6972 18.8494 42.1336 18.3694 42.4477 17.7585C42.7619 17.1301 42.919 16.4145 42.919 15.6116C42.919 14.7912 42.7619 14.0756 42.4477 13.4647C42.1336 12.8363 41.6972 12.3476 41.1387 11.9985C40.5801 11.6494 39.9343 11.4748 39.2012 11.4748C38.4681 11.4748 37.8223 11.6494 37.2637 11.9985C36.7052 12.3476 36.2688 12.8363 35.9547 13.4647C35.6405 14.0756 35.4834 14.7912 35.4834 15.6116C35.4834 16.4145 35.6405 17.1301 35.9547 17.7585C36.2688 18.3694 36.7052 18.8494 37.2637 19.1985C37.8223 19.5476 38.4681 19.7221 39.2012 19.7221Z" fill="#1A1F24"/>
<path d="M55.1944 22.1832H52.4547C51.2678 22.1832 50.3689 21.8865 49.758 21.293C49.1645 20.6821 48.8678 19.7832 48.8678 18.5963V4.04009L52.3238 5.53157V17.9941C52.3238 18.4654 52.4285 18.8145 52.638 19.0414C52.8474 19.2508 53.1791 19.3556 53.6329 19.3556L55.1944 19.4079V22.1832Z" fill="#1A1F24"/>
<path d="M64.5728 22.1832H61.8331C60.6462 22.1832 59.7473 21.8865 59.1364 21.293C58.5429 20.6821 58.2462 19.7832 58.2462 18.5963V4.04009L61.7022 5.53157V17.9941C61.7022 18.4654 61.8069 18.8145 62.0164 19.0414C62.2259 19.2508 62.5575 19.3556 63.0113 19.3556L64.5728 19.4079V22.1832ZM64.975 12.0021L56.0042 11.9985L55.0042 9.43627L63.9096 9.43989L64.975 12.0021Z" fill="#1A1F24"/>
<path d="M77.2358 18.0727L79.0685 20.1934C78.4053 20.9439 77.55 21.5374 76.5027 21.9737C75.4729 22.3927 74.3296 22.6021 73.0729 22.6021C71.5544 22.6021 70.2191 22.3054 69.0671 21.7119C67.9151 21.1185 67.0162 20.2981 66.3704 19.2508C65.7245 18.2036 65.4016 16.9905 65.4016 15.6116C65.4016 14.2327 65.7071 13.0196 66.318 11.9723C66.9464 10.9076 67.3679 10.4518 68.316 9.7925C69.7104 8.82281 71.1529 8.59484 72.4969 8.59484C73.806 8.59484 74.9667 8.89157 75.9791 9.48502C77.0089 10.061 77.8118 10.8639 78.3878 11.8938C78.9638 12.9236 79.2518 14.1192 79.2518 15.4807V15.6378H75.8744V15.2712C75.8744 14.4683 75.726 13.7701 75.4293 13.1767C75.15 12.5832 74.7573 12.1207 74.2511 11.789C73.7624 11.4574 73.1776 11.2916 72.4969 11.2916C71.7813 11.2916 71.1529 11.4661 70.6118 11.8152C70.0707 12.1468 69.6431 12.6356 69.3289 13.2814C69.0322 13.9098 68.8838 14.6603 68.8838 15.533C68.8838 16.4581 69.0671 17.2523 69.4336 17.9156C69.8176 18.5614 70.3325 19.0588 70.9784 19.4079C71.6416 19.7396 72.4009 19.9054 73.2562 19.9054C74.8271 19.9054 76.1536 19.2945 77.2358 18.0727ZM79.2518 16.6588L69.3954 16.6588C69.3954 16.6588 69.2706 15.9753 69.273 15.533C69.2752 15.1111 69.3954 14.4596 69.3954 14.4596L78.8329 14.4596L79.2518 15.4807V16.6588Z" fill="#1A1F24"/>
<path d="M83.9999 22.1832L80.5439 20.8092V1.84082L83.9999 3.3323V22.1832Z" fill="#1A1F24"/>
<path d="M46.0042 9.43989L47.0695 12.0021L55.5042 11.9985L54.5042 9.43627L46.0042 9.43989Z" fill="#1A1F24"/>
<rect x="18.0042" y="26.4541" width="19.6321" height="0.409091" fill="#1A1F24"/>
<path d="M41.836 25.4165V27.0772C41.836 27.4377 41.7337 27.7189 41.5291 27.9209C41.3272 28.1203 41.0472 28.2201 40.6892 28.2201C40.3338 28.2201 40.0539 28.1203 39.8493 27.9209C39.6448 27.7189 39.5425 27.4377 39.5425 27.0772V25.4165H39.9835V27.0772C39.9835 27.3124 40.0449 27.4965 40.1676 27.6294C40.2929 27.7624 40.4668 27.8289 40.6892 27.8289C40.9142 27.8289 41.0881 27.7624 41.2108 27.6294C41.3361 27.4965 41.3987 27.3124 41.3987 27.0772V25.4165H41.836ZM44.0503 28.1587H43.6208V27.0541C43.6208 26.8828 43.5824 26.755 43.5057 26.6706C43.429 26.5862 43.3255 26.5441 43.1951 26.5441C43.1005 26.5441 43.011 26.5684 42.9266 26.6169C42.8448 26.6655 42.7783 26.7422 42.7272 26.847C42.676 26.9519 42.6505 27.0874 42.6505 27.2536V28.1587H42.2209V26.2449H42.6466V26.8355H42.5891C42.6147 26.6668 42.6645 26.5364 42.7387 26.4443C42.8128 26.3497 42.8998 26.2833 42.9995 26.2449C43.0992 26.204 43.2015 26.1835 43.3063 26.1835C43.5364 26.1835 43.7179 26.2539 43.8509 26.3945C43.9838 26.5351 44.0503 26.7397 44.0503 27.0081V28.1587ZM44.8163 28.1587H44.3868V25.3973H44.8163V28.1587ZM46.1483 28.2201C45.9463 28.2201 45.7661 28.1766 45.6075 28.0897C45.4516 28.0027 45.3289 27.8826 45.2394 27.7291C45.1499 27.5757 45.1051 27.3993 45.1051 27.1999C45.1051 27.003 45.1499 26.8279 45.2394 26.6745C45.3289 26.521 45.4516 26.4009 45.6075 26.3139C45.7661 26.227 45.9463 26.1835 46.1483 26.1835C46.3529 26.1835 46.5331 26.227 46.6891 26.3139C46.8476 26.4009 46.9703 26.521 47.0573 26.6745C47.1467 26.8279 47.1915 27.003 47.1915 27.1999C47.1915 27.3993 47.1467 27.5757 47.0573 27.7291C46.9703 27.8826 46.8476 28.0027 46.6891 28.0897C46.5331 28.1766 46.3529 28.2201 46.1483 28.2201ZM46.1483 27.8595C46.2685 27.8595 46.3733 27.8314 46.4628 27.7752C46.5523 27.7189 46.6213 27.6422 46.6699 27.5451C46.721 27.4453 46.7466 27.3303 46.7466 27.1999C46.7466 27.072 46.721 26.9595 46.6699 26.8624C46.6213 26.7627 46.5523 26.6847 46.4628 26.6284C46.3733 26.5722 46.2685 26.5441 46.1483 26.5441C46.0307 26.5441 45.9271 26.5722 45.8377 26.6284C45.7482 26.6847 45.6779 26.7627 45.6267 26.8624C45.5781 26.9595 45.5539 27.072 45.5539 27.1999C45.5539 27.3303 45.5781 27.4453 45.6267 27.5451C45.6779 27.6422 45.7482 27.7189 45.8377 27.7752C45.9271 27.8314 46.0307 27.8595 46.1483 27.8595ZM48.9746 27.5719L49.2507 27.8404C49.1561 27.958 49.0398 28.0513 48.9017 28.1203C48.7637 28.1868 48.6051 28.2201 48.4262 28.2201C48.2293 28.2201 48.0529 28.1766 47.8969 28.0897C47.7435 28.0002 47.622 27.88 47.5326 27.7291C47.4431 27.5757 47.3983 27.3993 47.3983 27.1999C47.3983 27.003 47.4431 26.8291 47.5326 26.6783C47.622 26.5249 47.7448 26.4047 47.9007 26.3178C48.0593 26.2283 48.2382 26.1835 48.4377 26.1835C48.6115 26.1835 48.7662 26.2168 48.9017 26.2833C49.0398 26.3497 49.1561 26.4431 49.2507 26.5632L48.9746 26.8317C48.9184 26.7448 48.8468 26.6757 48.7598 26.6246C48.6755 26.5709 48.5732 26.5441 48.453 26.5441C48.3354 26.5441 48.2306 26.5722 48.1385 26.6284C48.0465 26.6847 47.9749 26.7627 47.9238 26.8624C47.8726 26.9595 47.847 27.072 47.847 27.1999C47.847 27.3277 47.8726 27.4415 47.9238 27.5412C47.9749 27.6409 48.0465 27.7189 48.1385 27.7752C48.2306 27.8314 48.3354 27.8595 48.453 27.8595C48.5732 27.8595 48.6755 27.8327 48.7598 27.779C48.8468 27.7253 48.9184 27.6563 48.9746 27.5719ZM49.9319 28.1587H49.5023V25.3973H49.9319V28.1587ZM51.4621 28.1587H50.8945L49.8245 27.1654H49.8628L50.8178 26.2449H51.3509L50.3346 27.2037V27.1309L51.4621 28.1587ZM54.167 28.1587V25.4165H54.608V28.1587H54.167ZM52.7595 28.1587H52.3184V25.4165H52.7595V28.1587ZM52.7211 26.9353V26.5556H54.2053V26.9353H52.7211ZM55.9888 28.2201C55.7868 28.2201 55.6066 28.1766 55.448 28.0897C55.2921 28.0027 55.1694 27.8826 55.0799 27.7291C54.9904 27.5757 54.9456 27.3993 54.9456 27.1999C54.9456 27.003 54.9904 26.8279 55.0799 26.6745C55.1694 26.521 55.2921 26.4009 55.448 26.3139C55.6066 26.227 55.7868 26.1835 55.9888 26.1835C56.1934 26.1835 56.3736 26.227 56.5296 26.3139C56.6881 26.4009 56.8108 26.521 56.8978 26.6745C56.9873 26.8279 57.032 27.003 57.032 27.1999C57.032 27.3993 56.9873 27.5757 56.8978 27.7291C56.8108 27.8826 56.6881 28.0027 56.5296 28.0897C56.3736 28.1766 56.1934 28.2201 55.9888 28.2201ZM55.9888 27.8595C56.109 27.8595 56.2138 27.8314 56.3033 27.7752C56.3928 27.7189 56.4618 27.6422 56.5104 27.5451C56.5615 27.4453 56.5871 27.3303 56.5871 27.1999C56.5871 27.072 56.5615 26.9595 56.5104 26.8624C56.4618 26.7627 56.3928 26.6847 56.3033 26.6284C56.2138 26.5722 56.109 26.5441 55.9888 26.5441C55.8712 26.5441 55.7677 26.5722 55.6782 26.6284C55.5887 26.6847 55.5184 26.7627 55.4672 26.8624C55.4186 26.9595 55.3944 27.072 55.3944 27.1999C55.3944 27.3303 55.4186 27.4453 55.4672 27.5451C55.5184 27.6422 55.5887 27.7189 55.6782 27.7752C55.7677 27.8314 55.8712 27.8595 55.9888 27.8595ZM58.4411 28.1587H57.9693C57.8082 28.1587 57.6868 28.1178 57.605 28.036C57.5232 27.9516 57.4822 27.8301 57.4822 27.6716V25.7195H57.9118V27.6064C57.9118 27.6729 57.9271 27.7228 57.9578 27.756C57.9885 27.7867 58.0371 27.802 58.1036 27.802H58.4411V28.1587ZM58.4142 26.5939H57.1256V26.2449H58.4142V26.5939ZM59.3863 28.1587V25.4165H60.3183C60.6098 25.4165 60.8642 25.4753 61.0815 25.5929C61.3014 25.7105 61.4714 25.8729 61.5916 26.08C61.7143 26.2845 61.7757 26.5198 61.7757 26.7857C61.7757 27.0516 61.7143 27.2881 61.5916 27.4952C61.4714 27.7023 61.3014 27.8647 61.0815 27.9823C60.8642 28.0999 60.6098 28.1587 60.3183 28.1587H59.3863ZM59.8274 27.779H60.3183C60.5228 27.779 60.6992 27.7381 60.8475 27.6563C60.9984 27.5719 61.1134 27.4556 61.1927 27.3073C61.2745 27.159 61.3154 26.9851 61.3154 26.7857C61.3154 26.5862 61.2745 26.4124 61.1927 26.2641C61.1134 26.1158 60.9984 26.0007 60.8475 25.9189C60.6992 25.8371 60.5228 25.7962 60.3183 25.7962H59.8274V27.779ZM63.6606 27.5796L63.906 27.848C63.8063 27.9631 63.6823 28.0539 63.534 28.1203C63.3857 28.1868 63.2208 28.2201 63.0393 28.2201C62.8245 28.2201 62.634 28.1766 62.4678 28.0897C62.3042 28.0027 62.175 27.8826 62.0804 27.7291C61.9884 27.5757 61.9424 27.4006 61.9424 27.2037C61.9424 27.0043 61.9871 26.8279 62.0766 26.6745C62.1661 26.521 62.2888 26.4009 62.4448 26.3139C62.6008 26.227 62.7759 26.1835 62.9702 26.1835C63.1594 26.1835 63.3269 26.227 63.4726 26.3139C63.6184 26.3983 63.7334 26.5159 63.8178 26.6668C63.9022 26.8151 63.9444 26.9877 63.9444 27.1845V27.2076H63.5187V27.1654C63.5187 27.0375 63.4944 26.9263 63.4458 26.8317C63.3998 26.7345 63.3358 26.6604 63.254 26.6093C63.1722 26.5556 63.0763 26.5287 62.9664 26.5287C62.8513 26.5287 62.7491 26.5568 62.6596 26.6131C62.5726 26.6668 62.5049 26.7435 62.4563 26.8432C62.4077 26.9404 62.3834 27.058 62.3834 27.196C62.3834 27.3341 62.4116 27.4543 62.4678 27.5566C62.5266 27.6588 62.6059 27.7381 62.7056 27.7943C62.8079 27.848 62.9255 27.8749 63.0584 27.8749C63.3013 27.8749 63.502 27.7764 63.6606 27.5796ZM63.9444 27.338H62.2415V27.0465H63.883L63.9444 27.1884V27.338ZM65.9257 28.1587H65.5307V27.779L65.5115 27.6985V26.9813C65.5115 26.8381 65.4655 26.7269 65.3734 26.6476C65.2814 26.5658 65.1561 26.5249 64.9976 26.5249C64.8825 26.5249 64.7751 26.5479 64.6754 26.5939C64.5782 26.6399 64.4939 26.7039 64.4223 26.7857L64.1768 26.5172C64.2816 26.4124 64.4044 26.3306 64.545 26.2718C64.6856 26.213 64.8416 26.1835 65.0129 26.1835C65.1944 26.1835 65.353 26.2155 65.4885 26.2794C65.6265 26.3408 65.7339 26.4303 65.8106 26.5479C65.8873 26.6655 65.9257 26.8061 65.9257 26.9698V28.1587ZM64.8518 28.2201C64.7061 28.2201 64.577 28.1932 64.4645 28.1395C64.352 28.0858 64.265 28.013 64.2037 27.9209C64.1423 27.8289 64.1116 27.7215 64.1116 27.5987C64.1116 27.4658 64.15 27.3533 64.2267 27.2612C64.3034 27.1666 64.4095 27.0951 64.545 27.0465C64.6831 26.9953 64.8416 26.9698 65.0206 26.9698H65.5575V27.2651H65.0589C64.9081 27.2651 64.7853 27.2919 64.6907 27.3456C64.5987 27.3993 64.5527 27.4786 64.5527 27.5834C64.5527 27.678 64.5885 27.7534 64.6601 27.8097C64.7316 27.8634 64.825 27.8902 64.94 27.8902C65.05 27.8902 65.151 27.8672 65.243 27.8212C65.3351 27.7752 65.4079 27.7125 65.4616 27.6333C65.5179 27.5514 65.5498 27.4581 65.5575 27.3533L65.6956 27.4185C65.6956 27.5745 65.6598 27.7138 65.5882 27.8365C65.5166 27.9567 65.4169 28.0513 65.289 28.1203C65.1612 28.1868 65.0155 28.2201 64.8518 28.2201ZM66.6904 28.1587H66.2609V25.3973H66.6904V28.1587ZM66.9141 27.8672L67.1634 27.5987C67.2503 27.6882 67.3526 27.7585 67.4702 27.8097C67.5903 27.8608 67.7156 27.8864 67.846 27.8864C67.979 27.8864 68.0851 27.8621 68.1643 27.8135C68.2436 27.7624 68.2832 27.6972 68.2832 27.6179C68.2832 27.5463 68.2474 27.4914 68.1759 27.453C68.1068 27.4121 67.9828 27.3801 67.8038 27.3571C67.5226 27.3162 67.318 27.2523 67.1902 27.1654C67.0649 27.0759 67.0023 26.9532 67.0023 26.7972C67.0023 26.6745 67.0381 26.5671 67.1097 26.475C67.1812 26.383 67.2784 26.3114 67.4011 26.2603C67.5239 26.2091 67.6645 26.1835 67.823 26.1835C68.0071 26.1835 68.1695 26.2142 68.3101 26.2756C68.4533 26.337 68.5773 26.4201 68.6821 26.5249L68.4328 26.7972C68.3535 26.7103 68.2628 26.6412 68.1605 26.5901C68.0582 26.5389 67.947 26.5134 67.8268 26.5134C67.7067 26.5134 67.6095 26.5377 67.5354 26.5862C67.4612 26.6323 67.4241 26.6924 67.4241 26.7665C67.4241 26.8279 67.4574 26.8752 67.5239 26.9084C67.5929 26.9391 67.7131 26.9659 67.8844 26.9889C68.1656 27.0299 68.3727 27.0976 68.5057 27.1922C68.6386 27.2843 68.7051 27.4172 68.7051 27.5911C68.7051 27.7164 68.668 27.8263 68.5939 27.9209C68.5197 28.0155 68.4175 28.0897 68.2871 28.1434C68.1567 28.1945 68.0045 28.2201 67.8307 28.2201C67.644 28.2201 67.4727 28.1894 67.3168 28.128C67.1608 28.0641 67.0266 27.9772 66.9141 27.8672ZM71.9364 27.0196L71.5107 27.6103C71.3445 27.8301 71.1783 27.9874 71.0122 28.082C70.8485 28.174 70.6644 28.2201 70.4599 28.2201C70.2707 28.2201 70.1058 28.1868 69.9651 28.1203C69.8271 28.0513 69.7197 27.958 69.643 27.8404C69.5688 27.7202 69.5318 27.5872 69.5318 27.4415C69.5318 27.2318 69.6046 27.0541 69.7504 26.9084C69.8987 26.7627 70.1224 26.6451 70.4215 26.5556L70.5097 26.824C70.3231 26.888 70.1863 26.9698 70.0994 27.0695C70.015 27.1692 69.9728 27.2817 69.9728 27.407C69.9728 27.5374 70.0188 27.6473 70.1109 27.7368C70.2029 27.8263 70.3256 27.871 70.4791 27.871C70.5634 27.871 70.644 27.857 70.7207 27.8289C70.7974 27.8007 70.8754 27.7522 70.9546 27.6831C71.0364 27.6115 71.1208 27.5131 71.2077 27.3878L71.6296 26.801L71.9364 27.0196ZM72.0208 27.9132L71.7523 28.197L70.3218 26.8624L70.2566 26.8049C70.139 26.6975 70.0457 26.6016 69.9766 26.5172C69.9102 26.4303 69.8629 26.3485 69.8347 26.2718C69.8066 26.1925 69.7925 26.112 69.7925 26.0301C69.7925 25.9049 69.8258 25.7911 69.8923 25.6888C69.9613 25.5865 70.0533 25.506 70.1684 25.4472C70.2835 25.3858 70.4126 25.3551 70.5558 25.3551C70.7015 25.3551 70.8319 25.3858 70.947 25.4472C71.062 25.5085 71.1528 25.5904 71.2193 25.6926C71.2857 25.7949 71.319 25.9087 71.319 26.034C71.319 26.1567 71.2857 26.2679 71.2193 26.3676C71.1528 26.4674 71.0607 26.5556 70.9431 26.6323C70.8255 26.7064 70.6925 26.7665 70.5443 26.8125L70.4445 26.5479C70.5954 26.4968 70.7143 26.4303 70.8012 26.3485C70.8881 26.2666 70.9316 26.1682 70.9316 26.0532C70.9316 25.9483 70.8958 25.8614 70.8242 25.7924C70.7552 25.7233 70.667 25.6888 70.5596 25.6888C70.4599 25.6888 70.3742 25.7233 70.3026 25.7924C70.231 25.8588 70.1952 25.9432 70.1952 26.0455C70.1952 26.1043 70.208 26.1631 70.2336 26.2219C70.2592 26.2782 70.3014 26.3395 70.3602 26.406C70.419 26.4699 70.4982 26.5428 70.5979 26.6246L70.6747 26.686L72.0208 27.9132ZM74.7078 28.1587V25.4165H75.1488V28.1587H74.7078ZM73.3003 28.1587H72.8592V25.4165H73.3003V28.1587ZM73.2619 26.9353V26.5556H74.7461V26.9353H73.2619ZM76.5296 28.2201C76.3276 28.2201 76.1474 28.1766 75.9888 28.0897C75.8329 28.0027 75.7101 27.8826 75.6207 27.7291C75.5312 27.5757 75.4864 27.3993 75.4864 27.1999C75.4864 27.003 75.5312 26.8279 75.6207 26.6745C75.7101 26.521 75.8329 26.4009 75.9888 26.3139C76.1474 26.227 76.3276 26.1835 76.5296 26.1835C76.7342 26.1835 76.9144 26.227 77.0704 26.3139C77.2289 26.4009 77.3516 26.521 77.4386 26.6745C77.528 26.8279 77.5728 27.003 77.5728 27.1999C77.5728 27.3993 77.528 27.5757 77.4386 27.7291C77.3516 27.8826 77.2289 28.0027 77.0704 28.0897C76.9144 28.1766 76.7342 28.2201 76.5296 28.2201ZM76.5296 27.8595C76.6498 27.8595 76.7546 27.8314 76.8441 27.7752C76.9336 27.7189 77.0026 27.6422 77.0512 27.5451C77.1023 27.4453 77.1279 27.3303 77.1279 27.1999C77.1279 27.072 77.1023 26.9595 77.0512 26.8624C77.0026 26.7627 76.9336 26.6847 76.8441 26.6284C76.7546 26.5722 76.6498 26.5441 76.5296 26.5441C76.412 26.5441 76.3084 26.5722 76.219 26.6284C76.1295 26.6847 76.0592 26.7627 76.008 26.8624C75.9594 26.9595 75.9351 27.072 75.9351 27.1999C75.9351 27.3303 75.9594 27.4453 76.008 27.5451C76.0592 27.6422 76.1295 27.7189 76.219 27.7752C76.3084 27.8314 76.412 27.8595 76.5296 27.8595ZM78.9818 28.1587H78.5101C78.349 28.1587 78.2276 28.1178 78.1458 28.036C78.0639 27.9516 78.023 27.8301 78.023 27.6716V25.7195H78.4526V27.6064C78.4526 27.6729 78.4679 27.7228 78.4986 27.756C78.5293 27.7867 78.5779 27.802 78.6443 27.802H78.9818V28.1587ZM78.955 26.5939H77.6664V26.2449H78.955V26.5939ZM80.8284 27.5796L81.0739 27.848C80.9742 27.9631 80.8502 28.0539 80.7019 28.1203C80.5536 28.1868 80.3887 28.2201 80.2071 28.2201C79.9924 28.2201 79.8019 28.1766 79.6357 28.0897C79.4721 28.0027 79.3429 27.8826 79.2483 27.7291C79.1563 27.5757 79.1103 27.4006 79.1103 27.2037C79.1103 27.0043 79.155 26.8279 79.2445 26.6745C79.334 26.521 79.4567 26.4009 79.6127 26.3139C79.7686 26.227 79.9438 26.1835 80.1381 26.1835C80.3273 26.1835 80.4948 26.227 80.6405 26.3139C80.7863 26.3983 80.9013 26.5159 80.9857 26.6668C81.0701 26.8151 81.1123 26.9877 81.1123 27.1845V27.2076H80.6865V27.1654C80.6865 27.0375 80.6623 26.9263 80.6137 26.8317C80.5677 26.7345 80.5037 26.6604 80.4219 26.6093C80.3401 26.5556 80.2442 26.5287 80.1343 26.5287C80.0192 26.5287 79.9169 26.5568 79.8275 26.6131C79.7405 26.6668 79.6728 26.7435 79.6242 26.8432C79.5756 26.9404 79.5513 27.058 79.5513 27.196C79.5513 27.3341 79.5794 27.4543 79.6357 27.5566C79.6945 27.6588 79.7738 27.7381 79.8735 27.7943C79.9757 27.848 80.0934 27.8749 80.2263 27.8749C80.4692 27.8749 80.6699 27.7764 80.8284 27.5796ZM81.1123 27.338H79.4094V27.0465H81.0509L81.1123 27.1884V27.338ZM81.8311 28.1587H81.4015V25.3973H81.8311V28.1587ZM82.0547 27.8672L82.304 27.5987C82.3909 27.6882 82.4932 27.7585 82.6108 27.8097C82.7309 27.8608 82.8562 27.8864 82.9866 27.8864C83.1196 27.8864 83.2257 27.8621 83.305 27.8135C83.3842 27.7624 83.4238 27.6972 83.4238 27.6179C83.4238 27.5463 83.3881 27.4914 83.3165 27.453C83.2474 27.4121 83.1234 27.3801 82.9444 27.3571C82.6632 27.3162 82.4586 27.2523 82.3308 27.1654C82.2055 27.0759 82.1429 26.9532 82.1429 26.7972C82.1429 26.6745 82.1787 26.5671 82.2503 26.475C82.3219 26.383 82.419 26.3114 82.5417 26.2603C82.6645 26.2091 82.8051 26.1835 82.9636 26.1835C83.1477 26.1835 83.3101 26.2142 83.4507 26.2756C83.5939 26.337 83.7179 26.4201 83.8227 26.5249L83.5734 26.7972C83.4942 26.7103 83.4034 26.6412 83.3011 26.5901C83.1988 26.5389 83.0876 26.5134 82.9675 26.5134C82.8473 26.5134 82.7501 26.5377 82.676 26.5862C82.6018 26.6323 82.5648 26.6924 82.5648 26.7665C82.5648 26.8279 82.598 26.8752 82.6645 26.9084C82.7335 26.9391 82.8537 26.9659 83.025 26.9889C83.3062 27.0299 83.5133 27.0976 83.6463 27.1922C83.7792 27.2843 83.8457 27.4172 83.8457 27.5911C83.8457 27.7164 83.8086 27.8263 83.7345 27.9209C83.6604 28.0155 83.5581 28.0897 83.4277 28.1434C83.2973 28.1945 83.1452 28.2201 82.9713 28.2201C82.7846 28.2201 82.6133 28.1894 82.4574 28.128C82.3014 28.0641 82.1672 27.9772 82.0547 27.8672Z" fill="#1A1F24"/>
</svg>
