<svg width="24" height="24" viewBox="0 0 24 24" fill="none" xmlns="http://www.w3.org/2000/svg">
<mask id="mask0_165_91" style="mask-type:alpha" maskUnits="userSpaceOnUse" x="0" y="0" width="24" height="24">
<rect width="24" height="24" fill="#D9D9D9"/>
</mask>
<g mask="url(#mask0_165_91)">
<path d="M12 19.2C11.3872 19.2 10.9285 19.3583 10.624 19.675C10.3195 19.9917 9.71794 20.15 8.81927 20.15C7.92061 20.15 7.32319 19.9917 7.02702 19.675C6.73086 19.3583 6.27636 19.2 5.66352 19.2C5.16086 19.2 4.76019 19.3093 4.46152 19.5278C4.16286 19.7464 3.77569 19.9141 3.30002 20.0308C3.13719 20.0679 2.98819 20.0288 2.85302 19.9135C2.71769 19.798 2.65002 19.6506 2.65002 19.4713C2.65002 19.2853 2.71352 19.1247 2.84052 18.9895C2.96736 18.8542 3.12177 18.7474 3.30377 18.6692C3.60644 18.5422 3.91452 18.3823 4.22802 18.1895C4.54136 17.9965 5.01986 17.9 5.66352 17.9C6.53652 17.9 7.12111 18.0583 7.41727 18.375C7.71344 18.6917 8.18077 18.85 8.81927 18.85C9.45777 18.85 9.92928 18.6917 10.2338 18.375C10.5383 18.0583 11.127 17.9 12 17.9C12.8397 17.9 13.4275 18.0583 13.7635 18.375C14.0994 18.6917 14.5782 18.85 15.2 18.85C15.8385 18.85 16.3068 18.6917 16.6048 18.375C16.9029 18.0583 17.4885 17.9 18.3615 17.9C19.0219 17.9 19.5004 17.9965 19.797 18.1895C20.0939 18.3823 20.3936 18.5422 20.6963 18.6692C20.8783 18.7474 21.0327 18.8542 21.1595 18.9895C21.2865 19.1247 21.35 19.2853 21.35 19.4713C21.35 19.6673 21.2782 19.823 21.1345 19.9385C20.991 20.0538 20.8379 20.0846 20.675 20.0308C20.216 19.8974 19.8372 19.7256 19.5385 19.5153C19.2399 19.3051 18.8475 19.2 18.3615 19.2C17.7654 19.2 17.3099 19.3583 16.9953 19.675C16.6804 19.9917 16.082 20.15 15.2 20.15C14.3347 20.15 13.734 19.9917 13.398 19.675C13.0622 19.3583 12.5962 19.2 12 19.2ZM12.025 15.6C11.425 15.6 10.9648 15.7583 10.6443 16.075C10.3238 16.3917 9.72377 16.55 8.84427 16.55C7.96477 16.55 7.36794 16.3917 7.05377 16.075C6.73977 15.7583 6.27636 15.6 5.66352 15.6C5.16086 15.6 4.76852 15.7051 4.48652 15.9152C4.20452 16.1256 3.83402 16.2974 3.37502 16.4308C3.21219 16.4846 3.05486 16.4538 2.90302 16.3385C2.75102 16.223 2.67502 16.0673 2.67502 15.8713C2.67502 15.6853 2.73852 15.5247 2.86552 15.3895C2.99236 15.2542 3.14677 15.1474 3.32877 15.0692C3.63144 14.9422 3.93536 14.7823 4.24052 14.5895C4.54552 14.3965 5.01986 14.3 5.66352 14.3C6.53652 14.3 7.12369 14.4583 7.42502 14.775C7.72636 15.0917 8.19944 15.25 8.84427 15.25C9.48277 15.25 9.95428 15.0917 10.2588 14.775C10.5633 14.4583 11.152 14.3 12.025 14.3C12.8647 14.3 13.4493 14.4583 13.7788 14.775C14.1083 15.0917 14.5839 15.25 15.2058 15.25C15.8443 15.25 16.3116 15.0917 16.6078 14.775C16.9039 14.4583 17.4885 14.3 18.3615 14.3C19.0219 14.3 19.5004 14.3965 19.797 14.5895C20.0939 14.7823 20.3936 14.9422 20.6963 15.0692C20.8783 15.1474 21.0327 15.2542 21.1595 15.3895C21.2865 15.5247 21.35 15.6853 21.35 15.8713C21.35 16.0673 21.2782 16.223 21.1345 16.3385C20.991 16.4538 20.8379 16.4846 20.675 16.4308C20.216 16.2974 19.8372 16.1256 19.5385 15.9152C19.2399 15.7051 18.8475 15.6 18.3615 15.6C17.7654 15.6 17.3093 15.7583 16.9933 16.075C16.6773 16.3917 16.0879 16.55 15.225 16.55C14.366 16.55 13.767 16.3917 13.428 16.075C13.0889 15.7583 12.6212 15.6 12.025 15.6ZM7.19227 11.6595L10.4943 8.35775L9.25002 7.1135C8.83086 6.69416 8.40969 6.38258 7.98652 6.17875C7.56352 5.97492 7.06611 5.83133 6.49427 5.748C6.23144 5.71733 6.00744 5.61258 5.82227 5.43375C5.63694 5.25475 5.54427 5.03392 5.54427 4.77125C5.54427 4.51475 5.63369 4.29867 5.81252 4.123C5.99136 3.9475 6.21219 3.87317 6.47502 3.9C7.29302 3.98333 7.99753 4.1545 8.58853 4.4135C9.17953 4.6725 9.77378 5.10067 10.3713 5.698L16.4828 11.7845C16.2429 11.8962 16.0426 12.0142 15.8818 12.1385C15.7208 12.2628 15.4904 12.325 15.1905 12.325C14.684 12.325 14.2516 12.1667 13.8933 11.85C13.5349 11.5333 12.9039 11.375 12 11.375C11.0629 11.375 10.4276 11.5333 10.0943 11.85C9.76094 12.1667 9.33269 12.325 8.80953 12.325C8.44303 12.325 8.17094 12.2378 7.99328 12.0635C7.81577 11.8892 7.54877 11.7545 7.19227 11.6595ZM16.0653 3.94625C16.6743 3.94625 17.1945 4.16033 17.626 4.5885C18.0574 5.01667 18.273 5.53842 18.273 6.15375C18.273 6.76275 18.0574 7.283 17.626 7.7145C17.1945 8.14583 16.6743 8.3615 16.0653 8.3615C15.4564 8.3615 14.9363 8.14583 14.5048 7.7145C14.0734 7.283 13.8578 6.76275 13.8578 6.15375C13.8578 5.53842 14.0734 5.01667 14.5048 4.5885C14.9363 4.16033 15.4564 3.94625 16.0653 3.94625Z" fill="#1C1B1F"/>
</g>
</svg>
