<svg width="24" height="24" viewBox="0 0 24 24" fill="none" xmlns="http://www.w3.org/2000/svg">
<mask id="mask0_165_85" style="mask-type:alpha" maskUnits="userSpaceOnUse" x="0" y="0" width="24" height="24">
<rect width="24" height="24" fill="#D9D9D9"/>
</mask>
<g mask="url(#mask0_165_85)">
<path d="M7.75003 8.5155V3.3C7.75003 3.11583 7.81186 2.9615 7.93553 2.837C8.05919 2.71233 8.21236 2.65 8.39503 2.65C8.57786 2.65 8.73269 2.71233 8.85953 2.837C8.98653 2.9615 9.05003 3.11583 9.05003 3.3V8.5155H10.3348V3.3C10.3348 3.11583 10.3965 2.9615 10.52 2.837C10.6437 2.71233 10.7969 2.65 10.9798 2.65C11.1624 2.65 11.3173 2.71233 11.4443 2.837C11.5711 2.9615 11.6345 3.11583 11.6345 3.3V8.5155C11.6345 9.32367 11.39 10.018 10.901 10.5985C10.4119 11.179 9.79486 11.5404 9.05003 11.6828V20.7C9.05003 20.8842 8.98819 21.0385 8.86453 21.163C8.74086 21.2877 8.58769 21.35 8.40503 21.35C8.22219 21.35 8.06736 21.2877 7.94053 21.163C7.81353 21.0385 7.75003 20.8842 7.75003 20.7V11.6828C7.00519 11.5404 6.38819 11.179 5.89903 10.5985C5.41003 10.018 5.16553 9.32367 5.16553 8.5155V3.3C5.16553 3.11583 5.22728 2.9615 5.35078 2.837C5.47444 2.71233 5.62769 2.65 5.81053 2.65C5.99319 2.65 6.14803 2.71233 6.27503 2.837C6.40186 2.9615 6.46528 3.11583 6.46528 3.3V8.5155H7.75003ZM17.2653 12.95H15.3398C15.1096 12.95 14.9179 12.873 14.7645 12.719C14.6114 12.5648 14.5348 12.3739 14.5348 12.1463V7.2C14.5348 5.76017 14.8357 4.64192 15.4375 3.84525C16.0394 3.04842 16.7986 2.65 17.7153 2.65C17.9746 2.65 18.1811 2.73825 18.3348 2.91475C18.4884 3.09125 18.5653 3.31459 18.5653 3.58475V20.7C18.5653 20.8842 18.5035 21.0385 18.38 21.163C18.2564 21.2877 18.1031 21.35 17.9203 21.35C17.7376 21.35 17.5828 21.2877 17.4558 21.163C17.3288 21.0385 17.2653 20.8842 17.2653 20.7V12.95Z" fill="#1C1B1F"/>
</g>
</svg>
