<svg width="24" height="24" viewBox="0 0 24 24" fill="none" xmlns="http://www.w3.org/2000/svg">
<mask id="mask0_1421_5856" style="mask-type:alpha" maskUnits="userSpaceOnUse" x="0" y="0" width="24" height="24">
<rect width="24" height="24" fill="#D9D9D9"/>
</mask>
<g mask="url(#mask0_1421_5856)">
<path d="M6.48275 20C6.13792 20 5.81517 19.8859 5.5145 19.6578C5.21383 19.4296 5.018 19.1494 4.927 18.8173C4.51033 17.3404 4.17825 16.1151 3.93075 15.1412C3.68325 14.1676 3.49 13.3445 3.351 12.672C3.21183 11.9997 3.11858 11.4244 3.07125 10.9462C3.02375 10.4679 3 9.98583 3 9.5C3 8.24867 3.43717 7.18583 4.3115 6.3115C5.18583 5.43717 6.24867 5 7.5 5H13C13.45 4.4 13.9792 3.91667 14.5875 3.55C15.1958 3.18333 15.8333 3 16.5 3C16.6347 3 16.7517 3.04967 16.851 3.149C16.9503 3.24833 17 3.36533 17 3.5C17 3.53583 16.9939 3.5685 16.9818 3.598C16.9696 3.6275 16.9597 3.66467 16.952 3.7095C16.8725 3.9185 16.7939 4.15958 16.7163 4.43275C16.6388 4.70575 16.5577 5.08525 16.473 5.57125L19.402 8.5H20.1923C20.4244 8.5 20.6171 8.57658 20.7703 8.72975C20.9234 8.88292 21 9.07558 21 9.30775V13.1538C21 13.3321 20.9503 13.4918 20.851 13.6328C20.7517 13.7738 20.6128 13.8731 20.4345 13.9308L18.3673 14.6115L17.098 18.8443C16.9903 19.2006 16.7936 19.4823 16.5078 19.6895C16.2218 19.8965 15.8987 20 15.5385 20H14.6155C14.168 20 13.7868 19.8427 13.472 19.528C13.1573 19.2132 13 18.832 13 18.3845V18H9V18.3845C9 18.832 8.84267 19.2132 8.528 19.528C8.21317 19.8427 7.832 20 7.3845 20H6.48275ZM6.5 19H7.3845C7.564 19 7.7115 18.9423 7.827 18.827C7.94233 18.7115 8 18.564 8 18.3845V17H14V18.3845C14 18.564 14.0577 18.7115 14.173 18.827C14.2885 18.9423 14.436 19 14.6155 19H15.5385C15.6795 19 15.8045 18.9615 15.9135 18.8845C16.0225 18.8077 16.0962 18.6987 16.1345 18.5577L17.55 13.85L20 13.025V9.5H19L15.5 6C15.5 5.70517 15.524 5.38658 15.572 5.04425C15.6202 4.70192 15.6923 4.39358 15.7885 4.11925C15.3437 4.23975 14.9283 4.4785 14.5423 4.8355C14.1564 5.19267 13.8673 5.58083 13.675 6H7.5C6.53333 6 5.70833 6.34167 5.025 7.025C4.34167 7.70833 4 8.53333 4 9.5C4 10.1577 4.16217 11.2708 4.4865 12.8395C4.81083 14.408 5.2705 16.3013 5.8655 18.5193C5.90383 18.6603 5.98392 18.7757 6.10575 18.8655C6.22758 18.9552 6.359 19 6.5 19ZM16 10.7693C16.2063 10.7693 16.3862 10.6927 16.5395 10.5395C16.6927 10.3862 16.7693 10.2063 16.7693 10C16.7693 9.79367 16.6927 9.61383 16.5395 9.4605C16.3862 9.30733 16.2063 9.23075 16 9.23075C15.7937 9.23075 15.6138 9.30733 15.4605 9.4605C15.3073 9.61383 15.2308 9.79367 15.2308 10C15.2308 10.2063 15.3073 10.3862 15.4605 10.5395C15.6138 10.6927 15.7937 10.7693 16 10.7693ZM12.5 8.5C12.6423 8.5 12.7613 8.45225 12.8568 8.35675C12.9523 8.26125 13 8.14233 13 8C13 7.85767 12.9523 7.73875 12.8568 7.64325C12.7613 7.54775 12.6423 7.5 12.5 7.5H8.5C8.35767 7.5 8.23875 7.54775 8.14325 7.64325C8.04775 7.73875 8 7.85767 8 8C8 8.14233 8.04775 8.26125 8.14325 8.35675C8.23875 8.45225 8.35767 8.5 8.5 8.5H12.5Z" fill="#FF541E"/>
</g>
</svg>
