<svg width="37" height="36" viewBox="0 0 37 36" fill="none" xmlns="http://www.w3.org/2000/svg">
<path d="M22.334 4.1475C21.2765 3.885 20.174 3.75 19.0415 3.75C17.909 3.75 16.8065 3.885 15.749 4.1475C15.6965 4.38 15.6665 4.6275 15.6665 4.875C15.6665 4.995 15.674 5.115 15.6815 5.235C15.7565 5.925 16.034 6.555 16.4615 7.0575C17.2865 6.855 18.149 6.75 19.0415 6.75C19.9265 6.75 20.789 6.855 21.614 7.0575C21.8315 6.81 22.0115 6.5175 22.1465 6.21C22.319 5.805 22.4165 5.3475 22.4165 4.875C22.4165 4.6275 22.3865 4.38 22.334 4.1475ZM31.034 20.3625C30.9815 20.3175 30.929 20.2725 30.8765 20.2275C30.8615 20.2125 30.8465 20.205 30.8315 20.19C30.764 20.1375 30.6965 20.085 30.6215 20.04C30.5615 20.0025 30.494 19.9575 30.419 19.92C30.329 19.875 30.239 19.8225 30.1415 19.785C30.0965 19.7625 30.0515 19.74 29.999 19.725C29.9465 19.7025 29.9015 19.6875 29.849 19.6725C29.774 19.6425 29.7065 19.6275 29.6315 19.6125C29.5565 19.59 29.4815 19.575 29.399 19.56C29.3165 19.545 29.2415 19.53 29.159 19.5225C29.039 19.5075 28.9115 19.5 28.7915 19.5C28.6865 19.5 28.5815 19.5075 28.4765 19.515C27.839 21.03 26.789 22.3575 25.454 23.37C25.4765 23.505 25.499 23.6325 25.5365 23.76C25.5665 23.8875 25.6115 24.015 25.6565 24.135C25.694 24.2325 25.739 24.33 25.7915 24.42C25.8215 24.48 25.8515 24.54 25.889 24.5925C25.9265 24.66 25.964 24.7275 26.0165 24.795C26.0165 24.8025 26.024 24.8175 26.0315 24.825C26.099 24.9225 26.174 25.0125 26.249 25.1025L26.2715 25.125C26.354 25.215 26.4365 25.2975 26.5265 25.38C26.534 25.38 26.534 25.38 26.5415 25.3875C26.5865 25.425 26.6315 25.47 26.684 25.5075C26.7365 25.5525 26.789 25.59 26.8415 25.6275C26.9465 25.7025 27.0515 25.77 27.1715 25.83C28.994 24.4725 30.4265 22.6725 31.274 20.6025C31.2065 20.5125 31.124 20.43 31.034 20.3625ZM23.909 4.635C23.9165 4.71 23.9165 4.7925 23.9165 4.875C23.9165 5.535 23.7815 6.2025 23.519 6.81C23.4065 7.065 23.2715 7.305 23.114 7.5375C26.6765 9 29.1665 12.3 29.1665 16.125C29.1665 16.77 29.0915 17.4 28.9565 18.0075C30.029 18.0375 31.0115 18.42 31.7915 19.0425C32.039 18.105 32.1665 17.13 32.1665 16.125C32.1665 10.92 28.7465 6.4575 23.909 4.635ZM24.104 24.24C22.6115 25.0425 20.8865 25.5 19.0415 25.5C17.1965 25.5 15.464 25.0425 13.9715 24.24C13.919 24.435 13.8515 24.6225 13.769 24.81C13.439 25.575 12.914 26.235 12.2765 26.73C14.2565 27.855 16.574 28.5 19.0415 28.5C21.509 28.5 23.819 27.855 25.799 26.73C24.9965 26.115 24.3965 25.245 24.104 24.24ZM9.6065 19.5225V19.515H9.569C9.479 19.5 9.3815 19.5 9.2915 19.5C9.0815 19.5 8.8715 19.5225 8.669 19.56C8.654 19.56 8.6315 19.5675 8.6165 19.5675C8.564 19.575 8.519 19.59 8.4665 19.605C8.444 19.605 8.4215 19.6125 8.399 19.62C8.3615 19.6275 8.3315 19.635 8.294 19.65C8.279 19.6575 8.264 19.6575 8.2565 19.665C8.2265 19.6725 8.204 19.68 8.1815 19.6875C8.159 19.695 8.1365 19.7025 8.114 19.7175C8.0765 19.7325 8.039 19.7475 8.0015 19.755C7.814 19.83 7.6415 19.92 7.4765 20.0325C7.4015 20.0775 7.334 20.13 7.2665 20.1825C7.169 20.25 7.0715 20.325 6.989 20.415C6.9215 20.475 6.8615 20.535 6.809 20.6025C7.6565 22.6725 9.089 24.4725 10.9115 25.83H10.919C10.934 25.8225 10.949 25.815 10.9565 25.8075C11.0615 25.755 11.159 25.6875 11.249 25.62C11.3615 25.545 11.4665 25.4625 11.564 25.365C11.6165 25.32 11.669 25.2675 11.714 25.215C11.744 25.1925 11.7665 25.17 11.7815 25.1475C11.849 25.0725 11.9165 24.9975 11.969 24.9225C11.999 24.8925 12.0215 24.8625 12.044 24.825C12.059 24.8025 12.0815 24.78 12.0965 24.75C12.194 24.6075 12.2765 24.4575 12.3515 24.3C12.3665 24.27 12.3815 24.24 12.3965 24.21C12.4115 24.18 12.4265 24.1425 12.434 24.105C12.4865 23.97 12.5315 23.835 12.569 23.6925C12.569 23.685 12.569 23.6775 12.5765 23.67C12.5765 23.655 12.5765 23.64 12.584 23.6325C12.584 23.6175 12.584 23.6025 12.5915 23.595C12.599 23.55 12.6065 23.505 12.614 23.46C12.6215 23.43 12.629 23.4 12.629 23.37C11.294 22.3575 10.244 21.0375 9.6065 19.5225ZM14.954 7.545C14.5415 6.915 14.2715 6.18 14.189 5.3925V5.3625L14.1815 5.325C14.174 5.175 14.1665 5.025 14.1665 4.875C14.1665 4.7925 14.1665 4.71 14.1815 4.635C9.344 6.4575 5.9165 10.92 5.9165 16.125C5.9165 17.13 6.044 18.105 6.2915 19.0425C7.094 18.3975 8.084 18.0375 9.1265 18.0075C8.9915 17.4 8.9165 16.77 8.9165 16.125C8.9165 12.3 11.399 9.0075 14.954 7.545Z" fill="#FF541E"/>
<path d="M26.1665 13.8826V15.7501H11.9165V13.8826C11.9165 13.8826 13.7315 10.0201 18.4265 9.70512C18.434 9.70512 18.434 9.70512 18.4415 9.70512H18.449C18.6365 9.69012 18.839 9.68262 19.0415 9.68262C19.2515 9.68262 19.4615 9.69012 19.664 9.70512C19.664 9.70512 19.6715 9.70512 19.679 9.70512C20.2865 9.74262 20.8415 9.84762 21.3515 9.99762C24.794 10.9651 26.1665 13.8826 26.1665 13.8826Z" fill="#9CCC65"/>
<path d="M22.4165 4.875C22.4165 5.3475 22.319 5.805 22.1465 6.21C22.0115 6.5175 21.8315 6.81 21.614 7.0575C21.164 7.59 20.5565 7.98 19.859 8.145C19.5965 8.2125 19.3265 8.25 19.0415 8.25C18.0065 8.25 17.084 7.785 16.4615 7.0575C16.034 6.555 15.7565 5.925 15.6815 5.235C15.674 5.115 15.6665 4.995 15.6665 4.875C15.6665 4.6275 15.6965 4.38 15.749 4.1475C15.8915 3.4725 16.244 2.865 16.739 2.415C17.339 1.845 18.149 1.5 19.0415 1.5C20.654 1.5 22.004 2.6325 22.334 4.1475C22.3865 4.38 22.4165 4.6275 22.4165 4.875Z" fill="#FFB940"/>
<path d="M19.0417 9.68262C18.8392 9.68262 18.6367 9.69012 18.4492 9.70512C18.6442 9.73512 18.8392 9.75012 19.0417 9.75012C19.2517 9.75012 19.4542 9.73512 19.6642 9.70512C19.4617 9.69012 19.2517 9.68262 19.0417 9.68262Z" fill="#FFB940"/>
<path d="M32.1665 22.875C32.1665 23.3475 32.069 23.805 31.8965 24.21C31.4765 25.17 30.6365 25.8975 29.609 26.145C29.3465 26.2125 29.0765 26.25 28.7915 26.25C28.709 26.25 28.6265 26.25 28.544 26.235C28.484 26.235 28.4315 26.2275 28.3715 26.22C28.3565 26.22 28.3415 26.22 28.3265 26.2125C28.244 26.205 28.1615 26.19 28.079 26.175C28.0715 26.1675 28.064 26.1675 28.0565 26.1675C27.989 26.1525 27.9215 26.1375 27.8615 26.115C27.749 26.085 27.644 26.0475 27.5465 26.01C27.419 25.9575 27.2915 25.8975 27.1715 25.83C27.0515 25.77 26.9465 25.7025 26.8415 25.6275C26.789 25.59 26.7365 25.5525 26.684 25.5075C26.6315 25.47 26.5865 25.425 26.5415 25.3875C26.534 25.38 26.534 25.38 26.5265 25.38C26.4365 25.2975 26.354 25.215 26.2715 25.125L26.249 25.1025C26.174 25.0125 26.099 24.9225 26.0315 24.825C26.024 24.8175 26.0165 24.8025 26.0165 24.795C25.964 24.7275 25.9265 24.66 25.889 24.5925C25.8515 24.54 25.8215 24.48 25.7915 24.42C25.739 24.33 25.694 24.2325 25.6565 24.135C25.6115 24.015 25.5665 23.8875 25.5365 23.76C25.499 23.6325 25.4765 23.505 25.454 23.37C25.439 23.325 25.439 23.28 25.4315 23.235C25.424 23.115 25.4165 22.995 25.4165 22.875C25.4165 21.9 25.829 21.0225 26.489 20.415C26.564 20.34 26.639 20.2725 26.7215 20.2125C26.804 20.145 26.8865 20.085 26.9765 20.0325C27.044 19.9875 27.1115 19.95 27.179 19.9125C27.2165 19.8975 27.2465 19.875 27.284 19.86C27.3815 19.8075 27.479 19.7625 27.584 19.725C27.6665 19.6875 27.749 19.665 27.8315 19.6425C27.8915 19.62 27.959 19.605 28.0265 19.59C28.0415 19.59 28.049 19.5825 28.064 19.5825C28.109 19.5675 28.1615 19.56 28.2065 19.5525C28.274 19.5375 28.3415 19.53 28.409 19.5225C28.4315 19.5225 28.454 19.515 28.4765 19.515C28.5815 19.5075 28.6865 19.5 28.7915 19.5C28.9115 19.5 29.039 19.5075 29.159 19.5225C29.2415 19.53 29.3165 19.545 29.399 19.56C29.4815 19.575 29.5565 19.59 29.6315 19.6125C29.7065 19.6275 29.774 19.6425 29.849 19.6725C29.9015 19.6875 29.9465 19.7025 29.999 19.725C30.0515 19.74 30.0965 19.7625 30.1415 19.785C30.239 19.8225 30.329 19.875 30.419 19.92C30.494 19.9575 30.5615 20.0025 30.6215 20.04C30.6965 20.085 30.764 20.1375 30.8315 20.19C30.8465 20.205 30.8615 20.2125 30.8765 20.2275C30.929 20.2725 30.9815 20.3175 31.034 20.3625C31.124 20.43 31.2065 20.5125 31.274 20.6025C31.334 20.67 31.4015 20.7375 31.4615 20.8125C31.469 20.8275 31.484 20.8425 31.499 20.865C31.5065 20.8725 31.5065 20.88 31.514 20.8875C31.559 20.9475 31.604 21.0075 31.6415 21.075C31.6865 21.1425 31.724 21.2025 31.7615 21.27C31.814 21.3675 31.8665 21.465 31.904 21.5625L31.9115 21.57C31.934 21.63 31.9565 21.69 31.979 21.7575C31.994 21.81 32.009 21.855 32.024 21.9075C32.054 21.9975 32.0765 22.095 32.099 22.185V22.1925C32.114 22.2675 32.129 22.3425 32.1365 22.4175V22.455C32.144 22.5 32.1515 22.5375 32.1515 22.5825C32.159 22.68 32.1665 22.7775 32.1665 22.875Z" fill="#FFB940"/>
<path d="M12.6665 22.875C12.6665 22.98 12.659 23.0775 12.6515 23.175C12.644 23.2425 12.6365 23.3025 12.629 23.37C12.629 23.4 12.6215 23.43 12.614 23.46C12.6065 23.505 12.599 23.55 12.5915 23.595C12.584 23.6025 12.584 23.6175 12.584 23.6325C12.584 23.6325 12.584 23.64 12.5765 23.64V23.67C12.569 23.6775 12.569 23.685 12.569 23.6925C12.5315 23.835 12.4865 23.97 12.434 24.105C12.4265 24.1425 12.4115 24.18 12.3965 24.21C12.3815 24.24 12.3665 24.27 12.3515 24.3C12.2765 24.4575 12.194 24.6075 12.0965 24.75C12.0815 24.78 12.059 24.8025 12.044 24.825C12.0215 24.8625 11.999 24.8925 11.969 24.9225C11.9165 24.9975 11.849 25.0725 11.7815 25.1475C11.7665 25.17 11.744 25.1925 11.714 25.215C11.669 25.2675 11.6165 25.32 11.564 25.365C11.4665 25.4625 11.3615 25.545 11.249 25.62C11.159 25.6875 11.0615 25.755 10.9565 25.8075C10.949 25.815 10.934 25.8225 10.919 25.83H10.9115L10.904 25.8375C10.8815 25.8525 10.8515 25.8675 10.8215 25.8825C10.7765 25.905 10.7315 25.9275 10.6865 25.9425C10.619 25.98 10.5515 26.0025 10.484 26.0325C10.4765 26.0325 10.469 26.04 10.469 26.04C10.409 26.0625 10.349 26.0775 10.289 26.0925C10.229 26.115 10.169 26.13 10.109 26.145C10.094 26.1525 10.0865 26.1525 10.0715 26.16C10.0565 26.16 10.049 26.1675 10.034 26.1675C9.929 26.19 9.8315 26.2125 9.7265 26.22C9.7115 26.2275 9.704 26.2275 9.6965 26.22H9.689C9.674 26.2275 9.659 26.2275 9.6515 26.2275C9.5315 26.2425 9.4115 26.25 9.2915 26.25C9.164 26.25 9.0365 26.2425 8.9165 26.2275C8.8265 26.22 8.744 26.205 8.6615 26.19C8.639 26.19 8.6165 26.1825 8.594 26.175C8.564 26.175 8.534 26.1675 8.504 26.1525C8.444 26.145 8.3915 26.13 8.3315 26.1075C8.3015 26.1 8.2715 26.0925 8.2415 26.085C8.234 26.085 8.234 26.0775 8.2265 26.0775C8.1965 26.07 8.159 26.055 8.129 26.04C8.1215 26.04 8.1065 26.04 8.099 26.0325C8.084 26.025 8.069 26.025 8.0615 26.0175C8.039 26.01 8.0165 26.0025 8.0015 25.9875C7.994 25.995 7.994 25.995 7.994 25.9875C7.844 25.9275 7.709 25.86 7.574 25.7775C7.5515 25.77 7.529 25.755 7.514 25.74C7.439 25.695 7.364 25.65 7.2965 25.5975C7.259 25.5675 7.2215 25.5375 7.184 25.5075C7.1765 25.5 7.1615 25.4925 7.154 25.485C7.109 25.4475 7.064 25.4175 7.0265 25.38L6.959 25.3125C6.9365 25.2975 6.9215 25.2825 6.9065 25.26L6.8165 25.17C6.7865 25.14 6.764 25.11 6.7415 25.08C6.734 25.0725 6.7265 25.065 6.719 25.0575C6.704 25.0425 6.689 25.0275 6.674 25.005C6.6065 24.9225 6.5465 24.84 6.4865 24.75C6.464 24.72 6.4415 24.6825 6.419 24.645C6.3965 24.615 6.3815 24.5775 6.359 24.54C6.314 24.465 6.2765 24.3825 6.239 24.3075C6.2015 24.2325 6.1715 24.1575 6.1415 24.09C6.1415 24.075 6.134 24.06 6.1265 24.0525C6.1115 24.015 6.104 23.9775 6.089 23.94C6.0815 23.9175 6.074 23.895 6.0665 23.865H6.059C6.059 23.8575 6.059 23.85 6.059 23.85C6.0365 23.7825 6.0215 23.7075 5.999 23.6325C5.984 23.55 5.969 23.4675 5.954 23.385C5.9465 23.3325 5.939 23.2875 5.9315 23.235V23.1675C5.924 23.07 5.9165 22.9725 5.9165 22.875C5.9165 22.6425 5.939 22.4175 5.984 22.1925C6.0065 22.0875 6.029 21.9825 6.0665 21.885C6.0815 21.8325 6.0965 21.78 6.119 21.7275C6.1265 21.69 6.1415 21.66 6.1565 21.63C6.164 21.6 6.179 21.57 6.194 21.54C6.2015 21.51 6.2165 21.48 6.2315 21.4575C6.2315 21.45 6.2315 21.45 6.239 21.4425C6.239 21.4275 6.2465 21.4125 6.254 21.405C6.2615 21.39 6.2615 21.375 6.2765 21.3675C6.299 21.3225 6.3215 21.2775 6.344 21.24C6.3665 21.2025 6.3815 21.1725 6.404 21.1425C6.404 21.12 6.419 21.105 6.434 21.09C6.4415 21.0675 6.4565 21.045 6.4715 21.03C6.494 20.9925 6.5165 20.955 6.5465 20.9175V20.91C6.584 20.8575 6.6215 20.805 6.6665 20.76C6.6665 20.7525 6.674 20.745 6.689 20.7375C6.689 20.73 6.6965 20.73 6.6965 20.73C6.7115 20.7 6.7265 20.685 6.7565 20.6625C6.764 20.64 6.779 20.6175 6.809 20.6025C6.8615 20.535 6.9215 20.475 6.989 20.415C7.0715 20.325 7.169 20.25 7.2665 20.1825C7.334 20.13 7.4015 20.0775 7.4765 20.0325C7.6415 19.92 7.814 19.83 8.0015 19.755C8.039 19.7475 8.0765 19.7325 8.114 19.7175C8.1365 19.7025 8.159 19.695 8.1815 19.6875C8.204 19.68 8.2265 19.6725 8.2565 19.665C8.264 19.6575 8.279 19.6575 8.294 19.65C8.3315 19.635 8.3615 19.6275 8.399 19.62C8.4215 19.6125 8.444 19.605 8.4665 19.605C8.519 19.59 8.564 19.575 8.6165 19.5675C8.6315 19.5675 8.654 19.56 8.669 19.56C8.8715 19.5225 9.0815 19.5 9.2915 19.5C9.3815 19.5 9.479 19.5 9.569 19.515H9.6065C9.629 19.515 9.6515 19.5225 9.6665 19.5225C9.719 19.53 9.779 19.5375 9.8315 19.545C9.869 19.5525 9.914 19.56 9.9515 19.5675C9.9665 19.5675 9.974 19.5675 9.989 19.575C10.0115 19.575 10.0265 19.5825 10.049 19.59C10.094 19.5975 10.1465 19.6125 10.1915 19.6275C10.274 19.6425 10.349 19.6725 10.4315 19.7025C10.5065 19.725 10.5815 19.755 10.6565 19.7925C10.739 19.8225 10.814 19.86 10.8965 19.905C10.994 19.9575 11.084 20.0175 11.174 20.0775C11.2115 20.1 11.2415 20.1225 11.2715 20.145C11.324 20.175 11.369 20.2125 11.4215 20.2575C11.429 20.265 11.429 20.265 11.4365 20.2725C11.459 20.2875 11.489 20.31 11.5115 20.34C11.5415 20.355 11.564 20.385 11.594 20.415C11.6465 20.46 11.699 20.5125 11.744 20.565C11.7965 20.6175 11.849 20.67 11.894 20.73C11.924 20.7675 11.9615 20.8125 11.9915 20.8575C12.0215 20.8875 12.044 20.925 12.0665 20.9625C12.074 20.97 12.0815 20.985 12.0965 21C12.1115 21.0225 12.134 21.06 12.149 21.09C12.179 21.1275 12.2015 21.165 12.224 21.21C12.2315 21.2175 12.239 21.2325 12.2465 21.2475C12.254 21.27 12.269 21.285 12.2765 21.3075C12.299 21.3375 12.314 21.375 12.329 21.4125C12.374 21.495 12.4115 21.5775 12.4415 21.6675C12.4565 21.6975 12.464 21.7275 12.4715 21.7575C12.4865 21.7875 12.5015 21.825 12.509 21.8625C12.524 21.8925 12.5315 21.93 12.539 21.9675C12.5615 22.05 12.584 22.1325 12.599 22.215C12.599 22.23 12.6065 22.245 12.6065 22.26L12.614 22.2675V22.275C12.614 22.29 12.614 22.2975 12.6215 22.3125C12.6215 22.3425 12.629 22.38 12.629 22.41C12.6365 22.4325 12.644 22.4625 12.644 22.485C12.644 22.4925 12.644 22.5 12.644 22.5C12.644 22.5075 12.644 22.515 12.644 22.515C12.6515 22.5225 12.6515 22.53 12.6515 22.53V22.56C12.659 22.665 12.6665 22.77 12.6665 22.875Z" fill="#FFB940"/>
<path d="M12.599 22.2151C12.599 22.2301 12.6065 22.2451 12.6065 22.2601L12.614 22.2676C12.6065 22.2526 12.6065 22.2301 12.599 22.2151ZM12.644 22.5151C12.6515 22.5301 12.6515 22.5451 12.6515 22.5601V22.5301C12.6515 22.5301 12.6515 22.5226 12.644 22.5151ZM6.98898 25.3351C6.98148 25.3276 6.96648 25.3201 6.95898 25.3126L7.02648 25.3801C7.01148 25.3651 7.00398 25.3501 6.98898 25.3351ZM10.109 26.1451C10.094 26.1526 10.0865 26.1526 10.0715 26.1601C10.094 26.1526 10.1165 26.1526 10.139 26.1451H10.109ZM12.5765 23.6401V23.6701C12.5765 23.6551 12.5765 23.6401 12.584 23.6326C12.584 23.6326 12.584 23.6401 12.5765 23.6401Z" fill="#FFB940"/>
<path d="M2.1665 31.8786C2.1665 31.8786 4.139 27.6824 9.2915 27.6824C14.4432 27.6824 16.4165 31.8786 16.4165 31.8786V33.7499H2.1665V31.8786Z" fill="#7E8E99"/>
<path d="M12.6665 22.875C12.6665 22.98 12.659 23.0775 12.6515 23.175C12.644 23.2425 12.6365 23.3025 12.629 23.37C12.629 23.4 12.6215 23.43 12.614 23.46C12.6065 23.505 12.599 23.55 12.5915 23.595C12.584 23.6025 12.584 23.6175 12.584 23.6325C12.5765 23.64 12.5765 23.655 12.5765 23.67C12.569 23.6775 12.569 23.685 12.569 23.6925C12.5315 23.835 12.4865 23.97 12.434 24.105C12.4115 24.165 12.3815 24.2325 12.3515 24.3C12.2765 24.4575 12.194 24.6075 12.0965 24.75C12.0815 24.78 12.059 24.8025 12.044 24.825C12.0215 24.8625 11.999 24.8925 11.969 24.9225C11.9165 24.9975 11.849 25.0725 11.7815 25.1475C11.7665 25.17 11.744 25.1925 11.714 25.215C11.669 25.2675 11.6165 25.32 11.564 25.365C11.4665 25.4625 11.3615 25.545 11.249 25.62C11.159 25.6875 11.0615 25.755 10.9565 25.8075C10.949 25.815 10.934 25.8225 10.919 25.83H10.9115L10.904 25.8375C10.8815 25.8525 10.8515 25.8675 10.8215 25.8825C10.7765 25.905 10.7315 25.9275 10.6865 25.9425C10.619 25.98 10.5515 26.0025 10.484 26.0325C10.4765 26.0325 10.469 26.04 10.469 26.04C10.409 26.0625 10.349 26.0775 10.289 26.0925C10.2365 26.115 10.1915 26.13 10.139 26.145C10.1165 26.1525 10.094 26.1525 10.0715 26.16C10.0565 26.16 10.049 26.1675 10.034 26.1675C9.929 26.19 9.8315 26.2125 9.7265 26.22C9.7115 26.2275 9.704 26.2275 9.6965 26.22H9.689C9.674 26.2275 9.659 26.2275 9.6515 26.2275C9.5315 26.2425 9.4115 26.25 9.2915 26.25C9.164 26.25 9.0365 26.2425 8.9165 26.2275C8.8265 26.22 8.744 26.205 8.6615 26.19C8.639 26.19 8.6165 26.1825 8.594 26.175C8.564 26.175 8.534 26.1675 8.504 26.1525C8.444 26.145 8.3915 26.13 8.3315 26.1075C8.3015 26.1 8.2715 26.0925 8.2415 26.085C8.234 26.085 8.234 26.0775 8.2265 26.0775C8.1965 26.07 8.159 26.055 8.129 26.04C8.1215 26.04 8.1065 26.04 8.099 26.0325C8.084 26.025 8.069 26.025 8.0615 26.0175C8.039 26.01 8.0165 26.0025 8.0015 25.9875C7.994 25.995 7.994 25.995 7.994 25.9875C7.844 25.9275 7.709 25.86 7.574 25.7775C7.5515 25.77 7.529 25.755 7.514 25.74C7.439 25.695 7.364 25.65 7.2965 25.5975C7.259 25.5675 7.2215 25.5375 7.184 25.5075C7.1765 25.5 7.1615 25.4925 7.154 25.485C7.094 25.44 7.0415 25.3875 6.989 25.335C6.899 25.2525 6.8165 25.17 6.7415 25.08C6.734 25.0725 6.7265 25.065 6.719 25.0575C6.704 25.0425 6.689 25.0275 6.674 25.005C6.6065 24.9225 6.5465 24.84 6.4865 24.75C6.464 24.72 6.4415 24.6825 6.419 24.645C6.3965 24.615 6.3815 24.5775 6.359 24.54C6.314 24.465 6.2765 24.3825 6.239 24.3075C6.2015 24.2325 6.1715 24.1575 6.1415 24.09C6.1415 24.075 6.134 24.06 6.1265 24.0525C6.1115 24.015 6.104 23.9775 6.089 23.94C6.0815 23.9175 6.074 23.895 6.0665 23.865C6.0665 23.865 6.0665 23.8575 6.059 23.85C6.0365 23.7825 6.0215 23.7075 5.999 23.6325C5.984 23.55 5.969 23.4675 5.954 23.385C5.9465 23.325 5.939 23.2575 5.9315 23.1975V23.1675C5.924 23.07 5.9165 22.9725 5.9165 22.875C5.9165 22.6425 5.939 22.4175 5.984 22.1925C6.0065 22.0875 6.029 21.9825 6.0665 21.885C6.0815 21.8325 6.0965 21.78 6.119 21.7275C6.1265 21.69 6.1415 21.66 6.1565 21.63C6.164 21.6 6.179 21.57 6.194 21.54C6.2015 21.51 6.2165 21.48 6.2315 21.4575C6.2315 21.45 6.2315 21.45 6.239 21.4425C6.239 21.4275 6.2465 21.4125 6.254 21.405C6.2615 21.39 6.2615 21.375 6.2765 21.3675C6.299 21.3225 6.3215 21.2775 6.344 21.24C6.3665 21.2025 6.3815 21.1725 6.404 21.1425C6.404 21.12 6.419 21.105 6.434 21.09C6.4415 21.0675 6.4565 21.045 6.4715 21.03C6.494 20.9925 6.5165 20.955 6.5465 20.9175V20.91C6.584 20.8575 6.6215 20.805 6.6665 20.76C6.6665 20.7525 6.674 20.745 6.689 20.7375V20.73H6.6965C6.7115 20.7 6.7265 20.685 6.7565 20.6625C6.764 20.64 6.779 20.6175 6.809 20.6025C6.8615 20.535 6.9215 20.475 6.989 20.415C7.0715 20.325 7.169 20.25 7.2665 20.1825C7.334 20.13 7.4015 20.0775 7.4765 20.0325C7.6415 19.92 7.814 19.83 8.0015 19.755C8.039 19.7475 8.0765 19.7325 8.114 19.7175C8.1365 19.7025 8.159 19.695 8.1815 19.6875C8.204 19.68 8.2265 19.6725 8.2565 19.665C8.264 19.6575 8.279 19.6575 8.294 19.65C8.3315 19.635 8.3615 19.6275 8.399 19.62C8.4215 19.6125 8.444 19.605 8.4665 19.605C8.519 19.59 8.564 19.575 8.6165 19.5675C8.6315 19.5675 8.654 19.56 8.669 19.56C8.8715 19.5225 9.0815 19.5 9.2915 19.5C9.3815 19.5 9.479 19.5 9.569 19.515C9.5765 19.515 9.5915 19.515 9.6065 19.5225C9.629 19.515 9.644 19.5225 9.6665 19.5225C9.719 19.53 9.779 19.5375 9.8315 19.545C9.869 19.5525 9.914 19.56 9.9515 19.5675C9.9665 19.5675 9.974 19.5675 9.989 19.575C10.0115 19.575 10.0265 19.5825 10.049 19.59C10.094 19.5975 10.1465 19.6125 10.1915 19.6275C10.274 19.6425 10.349 19.6725 10.4315 19.7025C10.5065 19.725 10.5815 19.755 10.6565 19.7925C10.739 19.8225 10.814 19.86 10.8965 19.905C10.994 19.9575 11.084 20.0175 11.174 20.0775C11.2115 20.1 11.2415 20.1225 11.2715 20.145C11.324 20.175 11.369 20.2125 11.4215 20.2575C11.4215 20.2575 11.429 20.265 11.4365 20.265V20.2725C11.459 20.2875 11.489 20.31 11.5115 20.34C11.5415 20.355 11.564 20.385 11.594 20.415C11.6465 20.46 11.699 20.5125 11.744 20.565C11.7965 20.6175 11.849 20.67 11.894 20.73C11.924 20.7675 11.9615 20.8125 11.9915 20.8575C12.0215 20.8875 12.044 20.925 12.0665 20.9625C12.074 20.97 12.0815 20.985 12.0965 21C12.1115 21.0225 12.134 21.06 12.149 21.09C12.179 21.1275 12.2015 21.165 12.224 21.21C12.2315 21.2175 12.239 21.2325 12.2465 21.2475C12.254 21.27 12.269 21.285 12.2765 21.3075C12.299 21.3375 12.314 21.375 12.329 21.4125C12.374 21.495 12.4115 21.5775 12.4415 21.6675C12.4565 21.6975 12.464 21.7275 12.4715 21.7575C12.4865 21.7875 12.5015 21.825 12.509 21.8625C12.524 21.8925 12.5315 21.93 12.539 21.9675C12.5615 22.05 12.584 22.1325 12.599 22.215C12.6065 22.23 12.6065 22.2525 12.614 22.2675V22.275C12.614 22.29 12.614 22.2975 12.6215 22.3125C12.6215 22.3425 12.629 22.38 12.629 22.41C12.6365 22.4325 12.644 22.4625 12.644 22.485C12.644 22.4925 12.644 22.5 12.644 22.5C12.644 22.5075 12.644 22.515 12.644 22.515C12.6515 22.5225 12.6515 22.53 12.6515 22.53V22.56C12.659 22.665 12.6665 22.77 12.6665 22.875Z" fill="#FFB940"/>
<path d="M35.9165 31.8824V33.7499H21.6665V31.8824C21.6665 31.8824 22.004 31.1624 22.7615 30.3224C23.8415 29.1299 25.769 27.6824 28.7915 27.6824C29.6165 27.6824 30.3515 27.7874 31.019 27.9674C31.1315 27.9974 31.2365 28.0274 31.3415 28.0649C32.534 28.4399 33.464 29.0474 34.169 29.6774C34.454 29.9324 34.709 30.1874 34.9115 30.4349C35.609 31.2299 35.9165 31.8824 35.9165 31.8824Z" fill="#7E8E99"/>
</svg>
