<svg width="27" height="33" viewBox="0 0 27 33" fill="none" xmlns="http://www.w3.org/2000/svg">
<path d="M21.5835 18.5007V20H5.83349V18.5007L2.0835 8.75C2.0835 5.4365 4.76999 2.75 8.08349 2.75H18.5835C21.897 2.75 24.5835 5.4365 24.5835 8.75L21.5835 18.5007Z" fill="#841507"/>
<path d="M22.3335 18.5H5.08349L0.583496 25.25H26.0835L22.3335 18.5Z" fill="#BC2304"/>
<path d="M21.4837 19.9911C19.662 16.1796 19.3335 18.5009 13.3335 18.5001C8.16823 18.4994 8.08348 16.2501 5.83348 20.0001L3.38623 23.7501H3.77098H23.0835H23.5342L21.4837 19.9911Z" fill="#FFE0B2"/>
<path d="M11.6685 20C11.3092 19.601 11.0835 19.0782 11.0835 18.5C11.0835 17.2595 12.093 16.25 13.3335 16.25C14.574 16.25 15.5835 17.2595 15.5835 18.5C15.5835 19.0782 15.3577 19.601 14.9985 20H16.7655C16.968 19.5402 17.0835 19.034 17.0835 18.5C17.0835 16.4322 15.4012 14.75 13.3335 14.75C11.2657 14.75 9.5835 16.4322 9.5835 18.5C9.5835 19.034 9.699 19.5402 9.9015 20H11.6685Z" fill="#FFB300"/>
<path d="M12.5835 11.75H14.0835L15.5835 13.25L13.3335 15.4992L11.0835 13.25L12.5835 11.75Z" fill="#CFD1D0"/>
<path d="M26.0835 29C26.0835 31.0715 24.405 32.75 22.3335 32.75H4.33349C2.26199 32.75 0.583496 31.0715 0.583496 29V25.25H26.0835V29ZM6.58349 18.5V18.3612L2.88674 8.75H23.7982L20.8665 18.2802L20.859 18.5H22.3687L25.3005 8.9705L25.3335 8.75C25.3335 5.0285 22.3057 2 18.5835 2H8.08349C4.36199 2 1.3335 5.0285 1.3335 8.75V8.8895L5.02949 18.5H6.58349Z" fill="#DD2C00"/>
<path d="M13.3335 28.25C12.9193 28.25 12.5835 28.5858 12.5835 29C12.5835 29.4142 12.9193 29.75 13.3335 29.75C13.7477 29.75 14.0835 29.4142 14.0835 29C14.0835 28.5858 13.7477 28.25 13.3335 28.25ZM16.3335 28.25C15.9193 28.25 15.5835 28.5858 15.5835 29C15.5835 29.4142 15.9193 29.75 16.3335 29.75C16.7477 29.75 17.0835 29.4142 17.0835 29C17.0835 28.5858 16.7477 28.25 16.3335 28.25ZM10.3335 28.25C9.91928 28.25 9.58349 28.5858 9.58349 29C9.58349 29.4142 9.91928 29.75 10.3335 29.75C10.7477 29.75 11.0835 29.4142 11.0835 29C11.0835 28.5858 10.7477 28.25 10.3335 28.25ZM7.33349 28.25C6.91928 28.25 6.58349 28.5858 6.58349 29C6.58349 29.4142 6.91928 29.75 7.33349 29.75C7.7477 29.75 8.08349 29.4142 8.08349 29C8.08349 28.5858 7.7477 28.25 7.33349 28.25ZM4.3335 28.25C3.91929 28.25 3.5835 28.5858 3.5835 29C3.5835 29.4142 3.91929 29.75 4.3335 29.75C4.74771 29.75 5.0835 29.4142 5.0835 29C5.0835 28.5858 4.74771 28.25 4.3335 28.25ZM22.3335 28.25C21.9193 28.25 21.5835 28.5858 21.5835 29C21.5835 29.4142 21.9193 29.75 22.3335 29.75C22.7477 29.75 23.0835 29.4142 23.0835 29C23.0835 28.5858 22.7477 28.25 22.3335 28.25ZM19.3335 28.25C18.9193 28.25 18.5835 28.5858 18.5835 29C18.5835 29.4142 18.9193 29.75 19.3335 29.75C19.7477 29.75 20.0835 29.4142 20.0835 29C20.0835 28.5858 19.7477 28.25 19.3335 28.25ZM13.3335 0.5C12.5055 0.5 11.8335 1.172 11.8335 2H14.8335C14.8335 1.172 14.1615 0.5 13.3335 0.5Z" fill="#FFA726"/>
</svg>
