<svg width="168" height="60" viewBox="0 0 168 60" fill="none" xmlns="http://www.w3.org/2000/svg">
<path d="M25.5 56.7188C27.5711 56.7188 29.25 55.0399 29.25 52.9688V37.8751C29.25 35.4376 28.0781 33.0469 26.1563 31.5469L15.1875 23.1094C12.6094 21.1407 11.0156 18 10.9688 14.7657V14.7188V14.625C10.9688 14.5782 10.9688 14.5782 10.9688 14.5313C11.0625 10.7344 14.1094 7.5938 17.8594 7.50005C19.7812 7.45317 21.5625 8.20317 22.9219 9.51567C24.2813 10.8282 25.0312 12.6094 25.0312 14.5313V14.7657C25.0312 15.9375 25.9688 16.875 27.1406 16.875C28.3125 16.875 29.25 15.9375 29.25 14.7657V14.5313C29.25 11.4844 28.0313 8.62505 25.8281 6.4688C23.625 4.31255 20.7188 3.18755 17.6719 3.2813C11.6719 3.4688 6.75 8.62505 6.75 14.8125V52.9688C6.75 55.0399 8.42893 56.7188 10.5 56.7188H25.5Z" fill="#FF541E"/>
<path d="M11.0216 50.5304C10.7335 50.5304 10.5001 50.2969 10.5001 50.0089V49.4155C10.5001 49.1275 10.7335 48.894 11.0216 48.894H24.9786C25.2666 48.894 25.5001 49.1275 25.5001 49.4155V50.0089C25.5001 50.2969 25.2666 50.5304 24.9786 50.5304H11.0216Z" fill="white"/>
<path d="M11.2501 47.2579V47.5545C11.2501 47.8426 11.4836 48.076 11.7716 48.076H24.2286C24.5166 48.076 24.7501 47.8426 24.7501 47.5545V47.2579C24.7501 45.5124 24.2626 43.9715 23.2876 42.6351C22.3128 41.299 21.0506 40.4536 19.501 40.099L19.4998 40.0987C19.481 40.0945 18.5851 39.8942 18.0001 39.8942C17.4183 39.8942 16.529 40.0923 16.5008 40.0986L16.4988 40.0991C14.9619 40.4538 13.703 41.2992 12.722 42.6351C11.7407 43.9715 11.2501 45.5124 11.2501 47.2579Z" fill="white"/>
<path d="M16.9407 38.3101C16.8087 38.4542 16.7063 38.6114 16.6336 38.7816C16.4963 39.1032 16.8385 39.3668 17.1809 39.2961C17.4489 39.2407 17.7515 39.1931 18.0001 39.1931C18.2487 39.1931 18.5513 39.2407 18.8194 39.2961C19.1618 39.3668 19.5039 39.1032 19.3666 38.7816C19.2939 38.6114 19.1916 38.4542 19.0595 38.3101C18.7657 37.9897 18.4126 37.8295 18.0001 37.8295C17.5876 37.8295 17.2345 37.9897 16.9407 38.3101Z" fill="white"/>
<path d="M18.5794 34.5487L18.303 36.2075C18.2857 36.3111 18.196 36.3871 18.091 36.3871C17.9859 36.3871 17.8963 36.3111 17.879 36.2075L17.6025 34.5487C17.5723 34.3674 17.7121 34.2024 17.8959 34.2024H18.286C18.4698 34.2024 18.6096 34.3674 18.5794 34.5487Z" fill="white"/>
<path d="M15.3857 35.0451L15.9757 36.6198C16.0125 36.7182 15.9728 36.8288 15.8819 36.8813C15.7909 36.9339 15.6753 36.9129 15.6085 36.8318L14.5397 35.5335C14.4229 35.3916 14.4614 35.1788 14.6206 35.0869L14.9584 34.8918C15.1176 34.7999 15.3212 34.873 15.3857 35.0451Z" fill="white"/>
<path d="M12.8682 37.0719L14.1665 38.1406C14.2476 38.2074 14.2686 38.323 14.216 38.414C14.1635 38.505 14.0529 38.5447 13.9545 38.5078L12.3798 37.9179C12.2077 37.8534 12.1346 37.6498 12.2265 37.4906L12.4216 37.1528C12.5135 36.9936 12.7263 36.955 12.8682 37.0719Z" fill="white"/>
<path d="M23.6202 38.2332L22.0454 38.8232C21.9471 38.86 21.8365 38.8204 21.7839 38.7294C21.7314 38.6384 21.7524 38.5228 21.8335 38.456L23.1317 37.3872C23.2737 37.2704 23.4865 37.309 23.5784 37.4681L23.7734 37.806C23.8653 37.9651 23.7923 38.1688 23.6202 38.2332Z" fill="white"/>
<path d="M21.5935 35.7154L20.5247 37.0137C20.4579 37.0948 20.3423 37.1158 20.2513 37.0633C20.1603 37.0107 20.1207 36.9001 20.1575 36.8017L20.7475 35.227C20.812 35.0549 21.0156 34.9819 21.1748 35.0738L21.5126 35.2688C21.6718 35.3607 21.7103 35.5735 21.5935 35.7154Z" fill="white"/>
<path d="M61.6582 44.8667L54.7462 42.1186V29.6288C54.7462 27.5692 54.2749 26.0332 53.3324 25.0208C52.3898 23.9736 51.1156 23.4499 49.5098 23.4499C48.3927 23.4499 47.328 23.7467 46.3156 24.3401C45.3033 24.9336 44.4829 25.8587 43.8545 27.1154C43.2262 28.3721 42.912 30.0303 42.912 32.0899V44.8667L36 42.1186V4.18188L42.912 7.16484V26.6965H42.0218C42.336 24.3576 42.9818 22.5423 43.9593 21.2507C44.9716 19.9241 46.1411 18.999 47.4676 18.4754C48.8291 17.9517 50.1731 17.6899 51.4996 17.6899C54.6415 17.6899 57.12 18.6499 58.9353 20.5699C60.7505 22.4899 61.6582 25.2827 61.6582 28.9481V44.8667Z" fill="white"/>
<path d="M78.3941 45.7045C75.5315 45.7045 73.0006 45.111 70.8014 43.9241C68.6021 42.7023 66.8915 41.0441 65.6697 38.9496C64.4479 36.8201 63.837 34.4114 63.837 31.7234C63.837 28.9656 64.4479 26.5394 65.6697 24.4448C66.8915 22.3503 68.6021 20.7096 70.8014 19.5227C73.0006 18.3008 75.5315 17.6899 78.3941 17.6899C81.2566 17.6899 83.7875 18.3008 85.9868 19.5227C88.1861 20.7096 89.8966 22.3503 91.1185 24.4448C92.3403 26.5394 92.9512 28.9481 92.9512 31.671C92.9512 34.3939 92.3403 36.8201 91.1185 38.9496C89.8966 41.0441 88.1861 42.7023 85.9868 43.9241C83.7875 45.111 81.2566 45.7045 78.3941 45.7045ZM78.3941 39.9445C79.8603 39.9445 81.1519 39.5954 82.269 38.8972C83.3861 38.199 84.2588 37.239 84.8872 36.0172C85.5155 34.7605 85.8297 33.3292 85.8297 31.7234C85.8297 30.0827 85.5155 28.6514 84.8872 27.4296C84.2588 26.1728 83.3861 25.1954 82.269 24.4972C81.1519 23.799 79.8603 23.4499 78.3941 23.4499C76.9279 23.4499 75.6363 23.799 74.5192 24.4972C73.4021 25.1954 72.5294 26.1728 71.901 27.4296C71.2726 28.6514 70.9585 30.0827 70.9585 31.7234C70.9585 33.3292 71.2726 34.7605 71.901 36.0172C72.5294 37.239 73.4021 38.199 74.5192 38.8972C75.6363 39.5954 76.9279 39.9445 78.3941 39.9445Z" fill="white"/>
<path d="M110.381 44.8667H104.901C102.527 44.8667 100.73 44.2732 99.5077 43.0863C98.3208 41.8645 97.7273 40.0667 97.7273 37.6928V8.58043L104.639 11.5634V36.4885C104.639 37.431 104.849 38.1292 105.268 38.583C105.687 39.0019 106.35 39.2114 107.258 39.2114L110.381 39.3161V44.8667Z" fill="white"/>
<path d="M129.137 44.8667H123.658C121.284 44.8667 119.486 44.2732 118.264 43.0863C117.078 41.8645 116.484 40.0667 116.484 37.6928V8.58043L123.396 11.5634V36.4885C123.396 37.431 123.606 38.1292 124.024 38.583C124.443 39.0019 125.107 39.2114 126.014 39.2114L129.137 39.3161V44.8667ZM129.942 24.5044L112 24.4972L110 19.3728L127.811 19.38L129.942 24.5044Z" fill="white"/>
<path d="M154.463 36.6456L158.129 40.887C156.802 42.3881 155.092 43.575 152.997 44.4477C150.937 45.2856 148.651 45.7045 146.137 45.7045C143.1 45.7045 140.43 45.111 138.126 43.9241C135.822 42.7372 134.024 41.0965 132.732 39.0019C131.441 36.9074 130.795 34.4812 130.795 31.7234C130.795 28.9656 131.406 26.5394 132.628 24.4448C133.884 22.3154 134.728 21.4038 136.624 20.0852C139.412 18.1459 142.297 17.6899 144.985 17.6899C147.604 17.6899 149.925 18.2834 151.95 19.4703C154.009 20.6223 155.615 22.2281 156.767 24.2877C157.919 26.3474 158.495 28.7387 158.495 31.4616V31.7757H151.74V31.0427C151.74 29.4368 151.444 28.0405 150.85 26.8536C150.292 25.6667 149.506 24.7416 148.494 24.0783C147.516 23.415 146.347 23.0834 144.985 23.0834C143.554 23.0834 142.298 23.4325 141.215 24.1307C140.133 24.7939 139.278 25.7714 138.65 27.063C138.056 28.3197 137.759 29.8208 137.759 31.5663C137.759 33.4165 138.126 35.0048 138.859 36.3314C139.627 37.623 140.657 38.6179 141.948 39.3161C143.275 39.9794 144.793 40.311 146.504 40.311C149.646 40.311 152.299 39.0892 154.463 36.6456ZM158.495 33.8179L138.783 33.8179C138.783 33.8179 138.533 32.4508 138.538 31.5663C138.542 30.7224 138.783 29.4194 138.783 29.4194L157.657 29.4194L158.495 31.4616V33.8179Z" fill="white"/>
<path d="M167.992 44.8667L161.08 42.1186V4.18188L167.992 7.16484V44.8667Z" fill="white"/>
<path d="M92 19.38L94.1307 24.5044L111 24.4972L109 19.3728L92 19.38Z" fill="white"/>
<rect x="36" y="52.909" width="39.2643" height="0.818182" fill="white"/>
<path d="M83.6635 50.3337V53.655C83.6635 54.3761 83.4589 54.9386 83.0499 55.3425C82.6459 55.7414 82.0859 55.9408 81.37 55.9408C80.6592 55.9408 80.0993 55.7414 79.6902 55.3425C79.2811 54.9386 79.0766 54.3761 79.0766 53.655V50.3337H79.9587V53.655C79.9587 54.1255 80.0814 54.4937 80.3268 54.7596C80.5774 55.0255 80.9251 55.1585 81.37 55.1585C81.82 55.1585 82.1678 55.0255 82.4132 54.7596C82.6638 54.4937 82.7891 54.1255 82.7891 53.655V50.3337H83.6635ZM88.0922 55.8181H87.2331V53.609C87.2331 53.2664 87.1564 53.0107 87.003 52.842C86.8496 52.6732 86.6425 52.5889 86.3817 52.5889C86.1925 52.5889 86.0135 52.6374 85.8448 52.7346C85.6811 52.8318 85.5482 52.9852 85.4459 53.1948C85.3436 53.4045 85.2925 53.6755 85.2925 54.0079V55.8181H84.4334V51.9906H85.2848V53.1718H85.1698C85.2209 52.8343 85.3206 52.5735 85.4689 52.3894C85.6172 52.2002 85.7911 52.0673 85.9905 51.9906C86.1899 51.9087 86.3945 51.8678 86.6042 51.8678C87.0644 51.8678 87.4274 52.0085 87.6934 52.2897C87.9593 52.571 88.0922 52.98 88.0922 53.517V55.8181ZM89.6242 55.8181H88.7651V50.2954H89.6242V55.8181ZM92.2882 55.9408C91.8842 55.9408 91.5237 55.8539 91.2067 55.68C90.8947 55.5062 90.6493 55.2658 90.4703 54.959C90.2913 54.6522 90.2018 54.2994 90.2018 53.9005C90.2018 53.5068 90.2913 53.1565 90.4703 52.8496C90.6493 52.5428 90.8947 52.3025 91.2067 52.1286C91.5237 51.9548 91.8842 51.8678 92.2882 51.8678C92.6973 51.8678 93.0578 51.9548 93.3697 52.1286C93.6868 52.3025 93.9322 52.5428 94.1061 52.8496C94.2851 53.1565 94.3746 53.5068 94.3746 53.9005C94.3746 54.2994 94.2851 54.6522 94.1061 54.959C93.9322 55.2658 93.6868 55.5062 93.3697 55.68C93.0578 55.8539 92.6973 55.9408 92.2882 55.9408ZM92.2882 55.2198C92.5285 55.2198 92.7382 55.1636 92.9172 55.0511C93.0962 54.9386 93.2342 54.7852 93.3314 54.5908C93.4337 54.3914 93.4848 54.1613 93.4848 53.9005C93.4848 53.6448 93.4337 53.4198 93.3314 53.2255C93.2342 53.0261 93.0962 52.8701 92.9172 52.7576C92.7382 52.6451 92.5285 52.5889 92.2882 52.5889C92.053 52.5889 91.8459 52.6451 91.6669 52.7576C91.4879 52.8701 91.3473 53.0261 91.245 53.2255C91.1479 53.4198 91.0993 53.6448 91.0993 53.9005C91.0993 54.1613 91.1479 54.3914 91.245 54.5908C91.3473 54.7852 91.4879 54.9386 91.6669 55.0511C91.8459 55.1636 92.053 55.2198 92.2882 55.2198ZM97.9408 54.6445L98.4931 55.1815C98.3039 55.4167 98.0712 55.6033 97.795 55.7414C97.5189 55.8744 97.2019 55.9408 96.8439 55.9408C96.4502 55.9408 96.0973 55.8539 95.7854 55.68C95.4786 55.5011 95.2357 55.2607 95.0567 54.959C94.8777 54.6522 94.7882 54.2994 94.7882 53.9005C94.7882 53.5068 94.8777 53.159 95.0567 52.8573C95.2357 52.5505 95.4811 52.3102 95.7931 52.1363C96.1101 51.9573 96.4681 51.8678 96.8669 51.8678C97.2146 51.8678 97.524 51.9343 97.795 52.0673C98.0712 52.2002 98.3039 52.3869 98.4931 52.6272L97.9408 53.1641C97.8283 52.9903 97.6851 52.8522 97.5112 52.7499C97.3425 52.6425 97.1379 52.5889 96.8976 52.5889C96.6624 52.5889 96.4527 52.6451 96.2686 52.7576C96.0845 52.8701 95.9414 53.0261 95.8391 53.2255C95.7368 53.4198 95.6857 53.6448 95.6857 53.9005C95.6857 54.1562 95.7368 54.3837 95.8391 54.5832C95.9414 54.7826 96.0845 54.9386 96.2686 55.0511C96.4527 55.1636 96.6624 55.2198 96.8976 55.2198C97.1379 55.2198 97.3425 55.1661 97.5112 55.0587C97.6851 54.9514 97.8283 54.8133 97.9408 54.6445ZM99.8553 55.8181H98.9962V50.2954H99.8553V55.8181ZM102.916 55.8181H101.781L99.6405 53.8315H99.7172L101.627 51.9906H102.693L100.661 53.9082V53.7624L102.916 55.8181ZM108.326 55.8181V50.3337H109.208V55.8181H108.326ZM105.511 55.8181H104.628V50.3337H105.511V55.8181ZM105.434 53.3712V52.6119H108.402V53.3712H105.434ZM111.969 55.9408C111.565 55.9408 111.205 55.8539 110.888 55.68C110.576 55.5062 110.33 55.2658 110.151 54.959C109.972 54.6522 109.883 54.2994 109.883 53.9005C109.883 53.5068 109.972 53.1565 110.151 52.8496C110.33 52.5428 110.576 52.3025 110.888 52.1286C111.205 51.9548 111.565 51.8678 111.969 51.8678C112.378 51.8678 112.739 51.9548 113.051 52.1286C113.368 52.3025 113.613 52.5428 113.787 52.8496C113.966 53.1565 114.056 53.5068 114.056 53.9005C114.056 54.2994 113.966 54.6522 113.787 54.959C113.613 55.2658 113.368 55.5062 113.051 55.68C112.739 55.8539 112.378 55.9408 111.969 55.9408ZM111.969 55.2198C112.21 55.2198 112.419 55.1636 112.598 55.0511C112.777 54.9386 112.915 54.7852 113.012 54.5908C113.115 54.3914 113.166 54.1613 113.166 53.9005C113.166 53.6448 113.115 53.4198 113.012 53.2255C112.915 53.0261 112.777 52.8701 112.598 52.7576C112.419 52.6451 112.21 52.5889 111.969 52.5889C111.734 52.5889 111.527 52.6451 111.348 52.7576C111.169 52.8701 111.028 53.0261 110.926 53.2255C110.829 53.4198 110.78 53.6448 110.78 53.9005C110.78 54.1613 110.829 54.3914 110.926 54.5908C111.028 54.7852 111.169 54.9386 111.348 55.0511C111.527 55.1636 111.734 55.2198 111.969 55.2198ZM116.874 55.8181H115.93C115.608 55.8181 115.365 55.7363 115.202 55.5727C115.038 55.4039 114.956 55.161 114.956 54.844V50.9397H115.815V54.7136C115.815 54.8465 115.846 54.9462 115.907 55.0127C115.969 55.0741 116.066 55.1048 116.199 55.1048H116.874V55.8181ZM116.82 52.6886H114.243V51.9906H116.82V52.6886ZM118.764 55.8181V50.3337H120.628C121.211 50.3337 121.72 50.4514 122.155 50.6866C122.594 50.9218 122.934 51.2465 123.175 51.6607C123.42 52.0698 123.543 52.5403 123.543 53.0721C123.543 53.6039 123.42 54.0769 123.175 54.4911C122.934 54.9053 122.594 55.23 122.155 55.4653C121.72 55.7005 121.211 55.8181 120.628 55.8181H118.764ZM119.646 55.0587H120.628C121.037 55.0587 121.39 54.9769 121.687 54.8133C121.988 54.6445 122.218 54.4119 122.377 54.1153C122.541 53.8187 122.622 53.471 122.622 53.0721C122.622 52.6732 122.541 52.3255 122.377 52.0289C122.218 51.7323 121.988 51.5022 121.687 51.3386C121.39 51.1749 121.037 51.0931 120.628 51.0931H119.646V55.0587ZM127.313 54.6599L127.804 55.1968C127.604 55.4269 127.356 55.6085 127.06 55.7414C126.763 55.8744 126.433 55.9408 126.07 55.9408C125.641 55.9408 125.26 55.8539 124.927 55.68C124.6 55.5062 124.342 55.2658 124.152 54.959C123.968 54.6522 123.876 54.3019 123.876 53.9082C123.876 53.5093 123.966 53.1565 124.145 52.8496C124.324 52.5428 124.569 52.3025 124.881 52.1286C125.193 51.9548 125.543 51.8678 125.932 51.8678C126.31 51.8678 126.645 51.9548 126.937 52.1286C127.228 52.2974 127.458 52.5326 127.627 52.8343C127.796 53.1309 127.88 53.4761 127.88 53.8698V53.9158H127.029V53.8315C127.029 53.5758 126.98 53.3533 126.883 53.1641C126.791 52.9698 126.663 52.8215 126.5 52.7193C126.336 52.6119 126.144 52.5582 125.924 52.5582C125.694 52.5582 125.49 52.6144 125.311 52.7269C125.137 52.8343 125.001 52.9877 124.904 53.1871C124.807 53.3815 124.758 53.6167 124.758 53.8928C124.758 54.169 124.815 54.4093 124.927 54.6139C125.045 54.8184 125.203 54.9769 125.403 55.0894C125.607 55.1968 125.843 55.2505 126.108 55.2505C126.594 55.2505 126.996 55.0536 127.313 54.6599ZM127.88 54.1766H124.475V53.5937H127.758L127.88 53.8775V54.1766ZM131.843 55.8181H131.053V55.0587L131.015 54.8977V53.4633C131.015 53.1769 130.922 52.9545 130.738 52.796C130.554 52.6323 130.304 52.5505 129.987 52.5505C129.757 52.5505 129.542 52.5965 129.342 52.6886C129.148 52.7806 128.979 52.9085 128.836 53.0721L128.345 52.5352C128.555 52.3255 128.8 52.1619 129.082 52.0443C129.363 51.9266 129.675 51.8678 130.017 51.8678C130.38 51.8678 130.697 51.9318 130.969 52.0596C131.245 52.1823 131.459 52.3613 131.613 52.5965C131.766 52.8318 131.843 53.113 131.843 53.4403V55.8181ZM129.695 55.9408C129.404 55.9408 129.145 55.8871 128.92 55.7798C128.695 55.6724 128.522 55.5266 128.399 55.3425C128.276 55.1585 128.215 54.9437 128.215 54.6982C128.215 54.4323 128.292 54.2073 128.445 54.0232C128.598 53.834 128.811 53.6908 129.082 53.5937C129.358 53.4914 129.675 53.4403 130.033 53.4403H131.107V54.0309H130.109C129.808 54.0309 129.562 54.0846 129.373 54.192C129.189 54.2994 129.097 54.4579 129.097 54.6675C129.097 54.8568 129.169 55.0076 129.312 55.1201C129.455 55.2275 129.642 55.2812 129.872 55.2812C130.092 55.2812 130.294 55.2352 130.478 55.1431C130.662 55.0511 130.807 54.9258 130.915 54.7673C131.027 54.6036 131.091 54.417 131.107 54.2073L131.383 54.3377C131.383 54.6496 131.311 54.9283 131.168 55.1738C131.025 55.4141 130.825 55.6033 130.57 55.7414C130.314 55.8744 130.022 55.9408 129.695 55.9408ZM133.372 55.8181H132.513V50.2954H133.372V55.8181ZM133.82 55.2352L134.318 54.6982C134.492 54.8772 134.697 55.0178 134.932 55.1201C135.172 55.2224 135.423 55.2735 135.684 55.2735C135.95 55.2735 136.162 55.2249 136.32 55.1278C136.479 55.0255 136.558 54.8951 136.558 54.7366C136.558 54.5934 136.486 54.4835 136.343 54.4068C136.205 54.3249 135.957 54.261 135.599 54.215C135.037 54.1332 134.628 54.0053 134.372 53.8315C134.121 53.6525 133.996 53.407 133.996 53.0951C133.996 52.8496 134.068 52.6349 134.211 52.4508C134.354 52.2667 134.548 52.1235 134.794 52.0212C135.039 51.919 135.321 51.8678 135.638 51.8678C136.006 51.8678 136.33 51.9292 136.612 52.0519C136.898 52.1746 137.146 52.3408 137.356 52.5505L136.857 53.0951C136.699 52.9212 136.517 52.7832 136.313 52.6809C136.108 52.5786 135.886 52.5275 135.645 52.5275C135.405 52.5275 135.211 52.5761 135.062 52.6732C134.914 52.7653 134.84 52.8854 134.84 53.0337C134.84 53.1565 134.906 53.2511 135.039 53.3175C135.177 53.3789 135.418 53.4326 135.76 53.4786C136.323 53.5604 136.737 53.696 137.003 53.8852C137.269 54.0693 137.402 54.3352 137.402 54.6829C137.402 54.9335 137.328 55.1533 137.179 55.3425C137.031 55.5318 136.827 55.68 136.566 55.7874C136.305 55.8897 136.001 55.9408 135.653 55.9408C135.28 55.9408 134.937 55.8795 134.625 55.7568C134.313 55.6289 134.045 55.455 133.82 55.2352ZM143.864 53.54L143.013 54.7212C142.681 55.161 142.348 55.4755 142.016 55.6647C141.689 55.8488 141.32 55.9408 140.911 55.9408C140.533 55.9408 140.203 55.8744 139.922 55.7414C139.646 55.6033 139.431 55.4167 139.278 55.1815C139.129 54.9411 139.055 54.6752 139.055 54.3837C139.055 53.9644 139.201 53.609 139.492 53.3175C139.789 53.0261 140.236 52.7908 140.835 52.6119L141.011 53.1488C140.638 53.2766 140.364 53.4403 140.19 53.6397C140.022 53.8391 139.937 54.0641 139.937 54.3147C139.937 54.5755 140.029 54.7954 140.213 54.9744C140.397 55.1533 140.643 55.2428 140.95 55.2428C141.118 55.2428 141.28 55.2147 141.433 55.1585C141.586 55.1022 141.742 55.005 141.901 54.867C142.064 54.7238 142.233 54.5269 142.407 54.2764L143.251 53.1028L143.864 53.54ZM144.033 55.3272L143.496 55.8948L140.635 53.2255L140.505 53.1104C140.27 52.8957 140.083 52.7039 139.945 52.5352C139.812 52.3613 139.717 52.1977 139.661 52.0443C139.605 51.8857 139.577 51.7246 139.577 51.561C139.577 51.3104 139.643 51.0829 139.776 50.8783C139.914 50.6738 140.098 50.5127 140.328 50.3951C140.558 50.2724 140.817 50.211 141.103 50.211C141.395 50.211 141.655 50.2724 141.885 50.3951C142.116 50.5178 142.297 50.6815 142.43 50.886C142.563 51.0906 142.63 51.3181 142.63 51.5687C142.63 51.8141 142.563 52.0366 142.43 52.236C142.297 52.4354 142.113 52.6119 141.878 52.7653C141.643 52.9136 141.377 53.0337 141.08 53.1258L140.881 52.5965C141.182 52.4943 141.42 52.3613 141.594 52.1977C141.768 52.034 141.855 51.8371 141.855 51.607C141.855 51.3974 141.783 51.2235 141.64 51.0854C141.502 50.9474 141.326 50.8783 141.111 50.8783C140.911 50.8783 140.74 50.9474 140.597 51.0854C140.454 51.2184 140.382 51.3871 140.382 51.5917C140.382 51.7093 140.408 51.8269 140.459 51.9445C140.51 52.057 140.594 52.1798 140.712 52.3127C140.83 52.4406 140.988 52.5863 141.187 52.7499L141.341 52.8727L144.033 55.3272ZM149.407 55.8181V50.3337H150.289V55.8181H149.407ZM146.592 55.8181H145.71V50.3337H146.592V55.8181ZM146.515 53.3712V52.6119H149.484V53.3712H146.515ZM153.051 55.9408C152.647 55.9408 152.286 55.8539 151.969 55.68C151.657 55.5062 151.412 55.2658 151.233 54.959C151.054 54.6522 150.964 54.2994 150.964 53.9005C150.964 53.5068 151.054 53.1565 151.233 52.8496C151.412 52.5428 151.657 52.3025 151.969 52.1286C152.286 51.9548 152.647 51.8678 153.051 51.8678C153.46 51.8678 153.82 51.9548 154.132 52.1286C154.449 52.3025 154.695 52.5428 154.869 52.8496C155.048 53.1565 155.137 53.5068 155.137 53.9005C155.137 54.2994 155.048 54.6522 154.869 54.959C154.695 55.2658 154.449 55.5062 154.132 55.68C153.82 55.8539 153.46 55.9408 153.051 55.9408ZM153.051 55.2198C153.291 55.2198 153.501 55.1636 153.68 55.0511C153.859 54.9386 153.997 54.7852 154.094 54.5908C154.196 54.3914 154.247 54.1613 154.247 53.9005C154.247 53.6448 154.196 53.4198 154.094 53.2255C153.997 53.0261 153.859 52.8701 153.68 52.7576C153.501 52.6451 153.291 52.5889 153.051 52.5889C152.816 52.5889 152.608 52.6451 152.429 52.7576C152.251 52.8701 152.11 53.0261 152.008 53.2255C151.91 53.4198 151.862 53.6448 151.862 53.9005C151.862 54.1613 151.91 54.3914 152.008 54.5908C152.11 54.7852 152.251 54.9386 152.429 55.0511C152.608 55.1636 152.816 55.2198 153.051 55.2198ZM157.955 55.8181H157.012C156.69 55.8181 156.447 55.7363 156.283 55.5727C156.119 55.4039 156.038 55.161 156.038 54.844V50.9397H156.897V54.7136C156.897 54.8465 156.927 54.9462 156.989 55.0127C157.05 55.0741 157.147 55.1048 157.28 55.1048H157.955V55.8181ZM157.902 52.6886H155.324V51.9906H157.902V52.6886ZM161.648 54.6599L162.139 55.1968C161.94 55.4269 161.692 55.6085 161.395 55.7414C161.099 55.8744 160.769 55.9408 160.406 55.9408C159.976 55.9408 159.595 55.8539 159.263 55.68C158.936 55.5062 158.677 55.2658 158.488 54.959C158.304 54.6522 158.212 54.3019 158.212 53.9082C158.212 53.5093 158.302 53.1565 158.481 52.8496C158.66 52.5428 158.905 52.3025 159.217 52.1286C159.529 51.9548 159.879 51.8678 160.268 51.8678C160.646 51.8678 160.981 51.9548 161.273 52.1286C161.564 52.2974 161.794 52.5326 161.963 52.8343C162.132 53.1309 162.216 53.4761 162.216 53.8698V53.9158H161.365V53.8315C161.365 53.5758 161.316 53.3533 161.219 53.1641C161.127 52.9698 160.999 52.8215 160.835 52.7193C160.672 52.6119 160.48 52.5582 160.26 52.5582C160.03 52.5582 159.825 52.6144 159.646 52.7269C159.473 52.8343 159.337 52.9877 159.24 53.1871C159.143 53.3815 159.094 53.6167 159.094 53.8928C159.094 54.169 159.15 54.4093 159.263 54.6139C159.381 54.8184 159.539 54.9769 159.739 55.0894C159.943 55.1968 160.178 55.2505 160.444 55.2505C160.93 55.2505 161.331 55.0536 161.648 54.6599ZM162.216 54.1766H158.81V53.5937H162.093L162.216 53.8775V54.1766ZM163.654 55.8181H162.795V50.2954H163.654V55.8181ZM164.101 55.2352L164.599 54.6982C164.773 54.8772 164.978 55.0178 165.213 55.1201C165.453 55.2224 165.704 55.2735 165.965 55.2735C166.231 55.2735 166.443 55.2249 166.601 55.1278C166.76 55.0255 166.839 54.8951 166.839 54.7366C166.839 54.5934 166.768 54.4835 166.624 54.4068C166.486 54.3249 166.238 54.261 165.88 54.215C165.318 54.1332 164.909 54.0053 164.653 53.8315C164.403 53.6525 164.277 53.407 164.277 53.0951C164.277 52.8496 164.349 52.6349 164.492 52.4508C164.635 52.2667 164.83 52.1235 165.075 52.0212C165.321 51.919 165.602 51.8678 165.919 51.8678C166.287 51.8678 166.612 51.9292 166.893 52.0519C167.179 52.1746 167.427 52.3408 167.637 52.5505L167.138 53.0951C166.98 52.9212 166.798 52.7832 166.594 52.6809C166.389 52.5786 166.167 52.5275 165.926 52.5275C165.686 52.5275 165.492 52.5761 165.344 52.6732C165.195 52.7653 165.121 52.8854 165.121 53.0337C165.121 53.1565 165.188 53.2511 165.321 53.3175C165.459 53.3789 165.699 53.4326 166.042 53.4786C166.604 53.5604 167.018 53.696 167.284 53.8852C167.55 54.0693 167.683 54.3352 167.683 54.6829C167.683 54.9335 167.609 55.1533 167.461 55.3425C167.312 55.5318 167.108 55.68 166.847 55.7874C166.586 55.8897 166.282 55.9408 165.934 55.9408C165.561 55.9408 165.218 55.8795 164.906 55.7568C164.594 55.6289 164.326 55.455 164.101 55.2352Z" fill="white"/>
</svg>
