<svg width="492" height="64" viewBox="0 0 492 64" fill="none" xmlns="http://www.w3.org/2000/svg">
<g clip-path="url(#clip0_1873_18188)">
<g opacity="0.25">
<g clip-path="url(#clip1_1873_18188)">
<rect x="476.592" y="16.1289" width="60" height="60" rx="4" transform="rotate(59.0619 476.592 16.1289)" fill="#FFFCEA"/>
<line x1="470.955" y1="17.0213" x2="485.218" y2="24.2721" stroke="#FDB759" stroke-width="0.5"/>
<line x1="470.939" y1="19.2574" x2="483.419" y2="25.6018" stroke="#FDB759" stroke-width="0.5"/>
<line x1="470.926" y1="21.4932" x2="481.623" y2="26.9313" stroke="#FDB759" stroke-width="0.5"/>
<line x1="470.91" y1="23.7293" x2="479.824" y2="28.2611" stroke="#FDB759" stroke-width="0.5"/>
<line x1="470.895" y1="25.9654" x2="478.026" y2="29.5908" stroke="#FDB759" stroke-width="0.5"/>
<line x1="492.162" y1="49.8615" x2="477.899" y2="42.6107" stroke="#FDB759" stroke-width="0.5"/>
<line x1="492.178" y1="47.6254" x2="479.698" y2="41.281" stroke="#FDB759" stroke-width="0.5"/>
<line x1="492.191" y1="45.3896" x2="481.494" y2="39.9515" stroke="#FDB759" stroke-width="0.5"/>
<line x1="492.207" y1="43.1535" x2="483.293" y2="38.6218" stroke="#FDB759" stroke-width="0.5"/>
<line x1="492.223" y1="40.9174" x2="485.091" y2="37.292" stroke="#FDB759" stroke-width="0.5"/>
<line x1="503.643" y1="70.9609" x2="489.38" y2="63.7101" stroke="#FDB759" stroke-width="0.5"/>
<line x1="503.658" y1="68.7248" x2="491.178" y2="62.3803" stroke="#FDB759" stroke-width="0.5"/>
<line x1="430.615" y1="40.9506" x2="443.852" y2="31.9625" stroke="#FDB759" stroke-width="0.5"/>
<line x1="432.567" y1="42.0434" x2="444.149" y2="34.1788" stroke="#FDB759" stroke-width="0.5"/>
<line x1="434.518" y1="43.1364" x2="444.445" y2="36.3953" stroke="#FDB759" stroke-width="0.5"/>
<line x1="436.467" y1="44.2292" x2="444.74" y2="38.6116" stroke="#FDB759" stroke-width="0.5"/>
<line x1="438.418" y1="45.322" x2="445.037" y2="40.8279" stroke="#FDB759" stroke-width="0.5"/>
<line x1="459.422" y1="57.0057" x2="446.185" y2="65.9938" stroke="#FDB759" stroke-width="0.5"/>
<line x1="457.471" y1="55.9129" x2="445.888" y2="63.7775" stroke="#FDB759" stroke-width="0.5"/>
<line x1="455.519" y1="54.8199" x2="445.592" y2="61.561" stroke="#FDB759" stroke-width="0.5"/>
<line x1="453.57" y1="53.7271" x2="445.297" y2="59.3447" stroke="#FDB759" stroke-width="0.5"/>
<line x1="451.619" y1="52.6343" x2="445.001" y2="57.1284" stroke="#FDB759" stroke-width="0.5"/>
<line x1="477.467" y1="25.9422" x2="491.73" y2="33.193" stroke="#FDB759" stroke-width="0.5"/>
<line x1="477.451" y1="28.1783" x2="489.931" y2="34.5227" stroke="#FDB759" stroke-width="0.5"/>
<line x1="477.438" y1="30.4141" x2="488.135" y2="35.8522" stroke="#FDB759" stroke-width="0.5"/>
<line x1="477.422" y1="32.6502" x2="486.336" y2="37.1819" stroke="#FDB759" stroke-width="0.5"/>
<line x1="477.406" y1="34.8863" x2="484.538" y2="38.5117" stroke="#FDB759" stroke-width="0.5"/>
<line x1="498.674" y1="58.7824" x2="484.411" y2="51.5316" stroke="#FDB759" stroke-width="0.5"/>
<line x1="498.689" y1="56.5463" x2="486.21" y2="50.2019" stroke="#FDB759" stroke-width="0.5"/>
<line x1="498.703" y1="54.3105" x2="488.006" y2="48.8724" stroke="#FDB759" stroke-width="0.5"/>
<line x1="498.719" y1="52.0744" x2="489.805" y2="47.5427" stroke="#FDB759" stroke-width="0.5"/>
<line x1="498.734" y1="49.8383" x2="491.603" y2="46.2129" stroke="#FDB759" stroke-width="0.5"/>
<line x1="441.559" y1="42.4377" x2="454.796" y2="33.4496" stroke="#FDB759" stroke-width="0.5"/>
<line x1="443.51" y1="43.5305" x2="455.092" y2="35.6659" stroke="#FDB759" stroke-width="0.5"/>
<line x1="445.461" y1="44.6235" x2="455.389" y2="37.8824" stroke="#FDB759" stroke-width="0.5"/>
<line x1="447.41" y1="45.7163" x2="455.683" y2="40.0987" stroke="#FDB759" stroke-width="0.5"/>
<line x1="449.362" y1="46.809" x2="455.98" y2="42.315" stroke="#FDB759" stroke-width="0.5"/>
<line x1="470.367" y1="58.4927" x2="457.13" y2="67.4808" stroke="#FDB759" stroke-width="0.5"/>
<line x1="468.416" y1="57.3999" x2="456.834" y2="65.2645" stroke="#FDB759" stroke-width="0.5"/>
<line x1="466.465" y1="56.3069" x2="456.537" y2="63.048" stroke="#FDB759" stroke-width="0.5"/>
<line x1="464.515" y1="55.2141" x2="456.242" y2="60.8317" stroke="#FDB759" stroke-width="0.5"/>
<line x1="462.564" y1="54.1214" x2="455.946" y2="58.6154" stroke="#FDB759" stroke-width="0.5"/>
<line x1="459.805" y1="23.7046" x2="474.067" y2="30.9554" stroke="#FDB759" stroke-width="0.5"/>
<line x1="459.789" y1="25.9407" x2="472.269" y2="32.2852" stroke="#FDB759" stroke-width="0.5"/>
<line x1="459.775" y1="28.1766" x2="470.472" y2="33.6147" stroke="#FDB759" stroke-width="0.5"/>
<line x1="459.76" y1="30.4126" x2="468.674" y2="34.9444" stroke="#FDB759" stroke-width="0.5"/>
<line x1="459.744" y1="32.6487" x2="466.876" y2="36.2741" stroke="#FDB759" stroke-width="0.5"/>
<line x1="481.012" y1="56.5449" x2="466.749" y2="49.2941" stroke="#FDB759" stroke-width="0.5"/>
<line x1="481.027" y1="54.3088" x2="468.547" y2="47.9643" stroke="#FDB759" stroke-width="0.5"/>
<line x1="481.041" y1="52.073" x2="470.344" y2="46.6348" stroke="#FDB759" stroke-width="0.5"/>
<line x1="481.057" y1="49.8369" x2="472.142" y2="45.3051" stroke="#FDB759" stroke-width="0.5"/>
<line x1="481.072" y1="47.6008" x2="473.941" y2="43.9754" stroke="#FDB759" stroke-width="0.5"/>
<line x1="427.705" y1="53.6203" x2="440.942" y2="44.6322" stroke="#FDB759" stroke-width="0.5"/>
<line x1="429.656" y1="54.7131" x2="441.239" y2="46.8485" stroke="#FDB759" stroke-width="0.5"/>
<line x1="431.608" y1="55.8061" x2="441.535" y2="49.065" stroke="#FDB759" stroke-width="0.5"/>
<line x1="433.557" y1="56.8989" x2="441.83" y2="51.2813" stroke="#FDB759" stroke-width="0.5"/>
<line x1="435.508" y1="57.9917" x2="442.126" y2="53.4976" stroke="#FDB759" stroke-width="0.5"/>
<line x1="451.229" y1="23.0149" x2="465.491" y2="30.2658" stroke="#FDB759" stroke-width="0.5"/>
<line x1="451.213" y1="25.251" x2="463.693" y2="31.5955" stroke="#FDB759" stroke-width="0.5"/>
<line x1="451.199" y1="27.4869" x2="461.896" y2="32.925" stroke="#FDB759" stroke-width="0.5"/>
<line x1="451.184" y1="29.7229" x2="460.098" y2="34.2547" stroke="#FDB759" stroke-width="0.5"/>
<line x1="451.168" y1="31.959" x2="458.299" y2="35.5844" stroke="#FDB759" stroke-width="0.5"/>
<line x1="472.436" y1="55.8552" x2="458.173" y2="48.6044" stroke="#FDB759" stroke-width="0.5"/>
<line x1="472.451" y1="53.6191" x2="459.971" y2="47.2746" stroke="#FDB759" stroke-width="0.5"/>
<line x1="472.465" y1="51.3833" x2="461.768" y2="45.9451" stroke="#FDB759" stroke-width="0.5"/>
<line x1="472.48" y1="49.1472" x2="463.566" y2="44.6154" stroke="#FDB759" stroke-width="0.5"/>
<line x1="472.496" y1="46.9111" x2="465.365" y2="43.2857" stroke="#FDB759" stroke-width="0.5"/>
<line x1="469.234" y1="29.7115" x2="483.497" y2="36.9623" stroke="#FDB759" stroke-width="0.5"/>
<line x1="469.219" y1="31.9476" x2="481.699" y2="38.292" stroke="#FDB759" stroke-width="0.5"/>
<line x1="469.205" y1="34.1834" x2="479.902" y2="39.6215" stroke="#FDB759" stroke-width="0.5"/>
<line x1="469.189" y1="36.4195" x2="478.104" y2="40.9512" stroke="#FDB759" stroke-width="0.5"/>
<line x1="469.174" y1="38.6556" x2="476.305" y2="42.281" stroke="#FDB759" stroke-width="0.5"/>
<line x1="490.441" y1="62.5517" x2="476.179" y2="55.3009" stroke="#FDB759" stroke-width="0.5"/>
<line x1="490.457" y1="60.3156" x2="477.977" y2="53.9712" stroke="#FDB759" stroke-width="0.5"/>
<line x1="490.471" y1="58.0798" x2="479.774" y2="52.6417" stroke="#FDB759" stroke-width="0.5"/>
<line x1="490.486" y1="55.8437" x2="481.572" y2="51.3119" stroke="#FDB759" stroke-width="0.5"/>
<line x1="490.502" y1="53.6076" x2="483.371" y2="49.9822" stroke="#FDB759" stroke-width="0.5"/>
<line x1="438.57" y1="50.9875" x2="451.807" y2="41.9994" stroke="#FDB759" stroke-width="0.5"/>
<line x1="440.522" y1="52.0803" x2="452.104" y2="44.2157" stroke="#FDB759" stroke-width="0.5"/>
<line x1="442.473" y1="53.1733" x2="452.4" y2="46.4322" stroke="#FDB759" stroke-width="0.5"/>
<line x1="444.422" y1="54.2661" x2="452.695" y2="48.6485" stroke="#FDB759" stroke-width="0.5"/>
<line x1="446.373" y1="55.3588" x2="452.992" y2="50.8648" stroke="#FDB759" stroke-width="0.5"/>
<line x1="461.527" y1="63.764" x2="453.254" y2="69.3815" stroke="#FDB759" stroke-width="0.5"/>
<line x1="459.576" y1="62.6712" x2="452.958" y2="67.1652" stroke="#FDB759" stroke-width="0.5"/>
<line x1="480.092" y1="35.1627" x2="480.354" y2="51.1605" stroke="#FDB759" stroke-width="0.5"/>
<line x1="478.109" y1="36.1954" x2="478.339" y2="50.1935" stroke="#FDB759" stroke-width="0.5"/>
<line x1="476.125" y1="37.2278" x2="476.321" y2="49.2262" stroke="#FDB759" stroke-width="0.5"/>
<line x1="474.143" y1="38.2606" x2="474.306" y2="48.2592" stroke="#FDB759" stroke-width="0.5"/>
<line x1="472.158" y1="39.293" x2="472.289" y2="47.292" stroke="#FDB759" stroke-width="0.5"/>
<line x1="482.65" y1="69.3107" x2="482.388" y2="53.3129" stroke="#FDB759" stroke-width="0.5"/>
<line x1="484.633" y1="68.278" x2="484.404" y2="54.2799" stroke="#FDB759" stroke-width="0.5"/>
<line x1="486.617" y1="67.2455" x2="486.421" y2="55.2472" stroke="#FDB759" stroke-width="0.5"/>
<line x1="488.6" y1="66.2128" x2="488.436" y2="56.2142" stroke="#FDB759" stroke-width="0.5"/>
<line x1="490.584" y1="65.1804" x2="490.453" y2="57.1814" stroke="#FDB759" stroke-width="0.5"/>
<line x1="447.963" y1="45.6307" x2="462.098" y2="53.1267" stroke="#FDB759" stroke-width="0.5"/>
<line x1="447.91" y1="47.866" x2="460.279" y2="54.425" stroke="#FDB759" stroke-width="0.5"/>
<line x1="447.855" y1="50.1016" x2="458.457" y2="55.7236" stroke="#FDB759" stroke-width="0.5"/>
<line x1="447.803" y1="52.337" x2="456.637" y2="57.022" stroke="#FDB759" stroke-width="0.5"/>
<line x1="447.748" y1="54.5723" x2="454.816" y2="58.3203" stroke="#FDB759" stroke-width="0.5"/>
<line x1="452.098" y1="43.3434" x2="465.822" y2="35.1176" stroke="#FDB759" stroke-width="0.5"/>
<line x1="453.985" y1="44.5448" x2="465.993" y2="37.3473" stroke="#FDB759" stroke-width="0.5"/>
<line x1="455.87" y1="45.746" x2="466.162" y2="39.5767" stroke="#FDB759" stroke-width="0.5"/>
<line x1="457.756" y1="46.9474" x2="466.333" y2="41.8063" stroke="#FDB759" stroke-width="0.5"/>
<line x1="459.641" y1="48.1489" x2="466.503" y2="44.036" stroke="#FDB759" stroke-width="0.5"/>
<line x1="480.988" y1="60.4205" x2="467.264" y2="68.6463" stroke="#FDB759" stroke-width="0.5"/>
<line x1="479.101" y1="59.2191" x2="467.093" y2="66.4166" stroke="#FDB759" stroke-width="0.5"/>
<line x1="477.216" y1="58.0179" x2="466.924" y2="64.1872" stroke="#FDB759" stroke-width="0.5"/>
<line x1="475.33" y1="56.8165" x2="466.752" y2="61.9576" stroke="#FDB759" stroke-width="0.5"/>
<line x1="473.445" y1="55.6151" x2="466.583" y2="59.728" stroke="#FDB759" stroke-width="0.5"/>
<line x1="438.549" y1="71.7263" x2="437.973" y2="55.7367" stroke="#FDB759" stroke-width="0.5"/>
<line x1="440.512" y1="70.655" x2="440.008" y2="56.6641" stroke="#FDB759" stroke-width="0.5"/>
<line x1="442.475" y1="69.5835" x2="442.043" y2="57.5912" stroke="#FDB759" stroke-width="0.5"/>
<line x1="444.438" y1="68.5122" x2="444.078" y2="58.5187" stroke="#FDB759" stroke-width="0.5"/>
<line x1="446.401" y1="67.4409" x2="446.113" y2="59.4461" stroke="#FDB759" stroke-width="0.5"/>
<line x1="469.067" y1="65.8173" x2="482.79" y2="57.5915" stroke="#FDB759" stroke-width="0.5"/>
<line x1="470.954" y1="67.0187" x2="482.962" y2="59.8212" stroke="#FDB759" stroke-width="0.5"/>
<line x1="472.838" y1="68.2199" x2="483.131" y2="62.0506" stroke="#FDB759" stroke-width="0.5"/>
<line x1="466.51" y1="75.0698" x2="465.934" y2="59.0802" stroke="#FDB759" stroke-width="0.5"/>
<line x1="468.473" y1="73.9985" x2="467.969" y2="60.0076" stroke="#FDB759" stroke-width="0.5"/>
<line x1="470.436" y1="72.927" x2="470.004" y2="60.9347" stroke="#FDB759" stroke-width="0.5"/>
<line x1="472.399" y1="71.8557" x2="472.039" y2="61.8622" stroke="#FDB759" stroke-width="0.5"/>
<line x1="474.361" y1="70.7844" x2="474.073" y2="62.7896" stroke="#FDB759" stroke-width="0.5"/>
</g>
</g>
<g opacity="0.25">
<g clip-path="url(#clip2_1873_18188)">
<rect x="440" y="-10" width="60" height="60" rx="4" transform="rotate(-30 440 -10)" fill="#FFFCEA"/>
<line x1="464.066" y1="36.3773" x2="455.296" y2="22.9951" stroke="#FDB759" stroke-width="0.5"/>
<line x1="465.191" y1="34.4447" x2="457.517" y2="22.7352" stroke="#FDB759" stroke-width="0.5"/>
<line x1="466.316" y1="32.512" x2="459.739" y2="22.4754" stroke="#FDB759" stroke-width="0.5"/>
<line x1="467.439" y1="30.5792" x2="461.958" y2="22.2153" stroke="#FDB759" stroke-width="0.5"/>
<line x1="468.564" y1="28.6466" x2="464.179" y2="21.9555" stroke="#FDB759" stroke-width="0.5"/>
<line x1="480.59" y1="7.83635" x2="489.36" y2="21.2186" stroke="#FDB759" stroke-width="0.5"/>
<line x1="479.465" y1="9.76897" x2="487.139" y2="21.4784" stroke="#FDB759" stroke-width="0.5"/>
<line x1="478.34" y1="11.7016" x2="484.918" y2="21.7382" stroke="#FDB759" stroke-width="0.5"/>
<line x1="477.217" y1="13.6345" x2="482.698" y2="21.9983" stroke="#FDB759" stroke-width="0.5"/>
<line x1="476.092" y1="15.5671" x2="480.477" y2="22.2582" stroke="#FDB759" stroke-width="0.5"/>
<line x1="465.732" y1="25.4583" x2="456.962" y2="12.0761" stroke="#FDB759" stroke-width="0.5"/>
<line x1="466.857" y1="23.5257" x2="459.183" y2="11.8163" stroke="#FDB759" stroke-width="0.5"/>
<line x1="467.982" y1="21.5931" x2="461.405" y2="11.5564" stroke="#FDB759" stroke-width="0.5"/>
<line x1="469.105" y1="19.6602" x2="463.624" y2="11.2963" stroke="#FDB759" stroke-width="0.5"/>
<line x1="470.23" y1="17.7276" x2="465.845" y2="11.0365" stroke="#FDB759" stroke-width="0.5"/>
<line x1="482.256" y1="-3.08259" x2="491.026" y2="10.2996" stroke="#FDB759" stroke-width="0.5"/>
<line x1="481.131" y1="-1.14997" x2="488.805" y2="10.5595" stroke="#FDB759" stroke-width="0.5"/>
<line x1="480.006" y1="0.782643" x2="486.584" y2="10.8193" stroke="#FDB759" stroke-width="0.5"/>
<line x1="478.883" y1="2.7155" x2="484.364" y2="11.0794" stroke="#FDB759" stroke-width="0.5"/>
<line x1="477.758" y1="4.64812" x2="482.143" y2="11.3392" stroke="#FDB759" stroke-width="0.5"/>
<line x1="447.301" y1="6.90968" x2="454.784" y2="-7.23243" stroke="#FDB759" stroke-width="0.5"/>
<line x1="449.537" y1="6.9612" x2="456.085" y2="-5.41315" stroke="#FDB759" stroke-width="0.5"/>
<line x1="451.771" y1="7.01271" x2="457.384" y2="-3.59387" stroke="#FDB759" stroke-width="0.5"/>
<line x1="454.008" y1="7.06422" x2="458.685" y2="-1.7746" stroke="#FDB759" stroke-width="0.5"/>
<line x1="456.242" y1="7.11574" x2="459.984" y2="0.0446826" stroke="#FDB759" stroke-width="0.5"/>
<line x1="480.483" y1="-13.7566" x2="472.999" y2="0.385504" stroke="#FDB759" stroke-width="0.5"/>
<line x1="476.685" y1="39.4945" x2="467.915" y2="26.1122" stroke="#FDB759" stroke-width="0.5"/>
<line x1="477.81" y1="37.5618" x2="470.137" y2="25.8524" stroke="#FDB759" stroke-width="0.5"/>
<line x1="478.935" y1="35.6292" x2="472.358" y2="25.5926" stroke="#FDB759" stroke-width="0.5"/>
<line x1="480.058" y1="33.6964" x2="474.577" y2="25.3325" stroke="#FDB759" stroke-width="0.5"/>
<line x1="481.183" y1="31.7637" x2="476.798" y2="25.0726" stroke="#FDB759" stroke-width="0.5"/>
<line x1="492.086" y1="12.8859" x2="499.76" y2="24.5953" stroke="#FDB759" stroke-width="0.5"/>
<line x1="490.961" y1="14.8185" x2="497.539" y2="24.8552" stroke="#FDB759" stroke-width="0.5"/>
<line x1="489.838" y1="16.7514" x2="495.319" y2="25.1153" stroke="#FDB759" stroke-width="0.5"/>
<line x1="488.713" y1="18.684" x2="493.098" y2="25.3751" stroke="#FDB759" stroke-width="0.5"/>
<line x1="446.47" y1="15.4717" x2="453.954" y2="1.32958" stroke="#FDB759" stroke-width="0.5"/>
<line x1="448.707" y1="15.5232" x2="455.255" y2="3.14886" stroke="#FDB759" stroke-width="0.5"/>
<line x1="450.941" y1="15.5747" x2="456.554" y2="4.96814" stroke="#FDB759" stroke-width="0.5"/>
<line x1="453.177" y1="15.6262" x2="457.855" y2="6.78742" stroke="#FDB759" stroke-width="0.5"/>
<line x1="455.412" y1="15.6778" x2="459.154" y2="8.60669" stroke="#FDB759" stroke-width="0.5"/>
<line x1="479.653" y1="-5.1946" x2="472.169" y2="8.94752" stroke="#FDB759" stroke-width="0.5"/>
<line x1="477.416" y1="-5.24611" x2="470.868" y2="7.12824" stroke="#FDB759" stroke-width="0.5"/>
<line x1="475.182" y1="-5.29762" x2="469.569" y2="5.30896" stroke="#FDB759" stroke-width="0.5"/>
<line x1="472.946" y1="-5.34914" x2="468.268" y2="3.48968" stroke="#FDB759" stroke-width="0.5"/>
<line x1="470.711" y1="-5.40065" x2="466.97" y2="1.67041" stroke="#FDB759" stroke-width="0.5"/>
<line x1="474.232" y1="28.5865" x2="465.462" y2="15.2043" stroke="#FDB759" stroke-width="0.5"/>
<line x1="475.357" y1="26.6539" x2="467.683" y2="14.9444" stroke="#FDB759" stroke-width="0.5"/>
<line x1="476.482" y1="24.7213" x2="469.905" y2="14.6846" stroke="#FDB759" stroke-width="0.5"/>
<line x1="477.605" y1="22.7884" x2="472.124" y2="14.4245" stroke="#FDB759" stroke-width="0.5"/>
<line x1="478.73" y1="20.8558" x2="474.345" y2="14.1647" stroke="#FDB759" stroke-width="0.5"/>
<line x1="490.756" y1="0.0455828" x2="499.526" y2="13.4278" stroke="#FDB759" stroke-width="0.5"/>
<line x1="489.631" y1="1.9782" x2="497.305" y2="13.6876" stroke="#FDB759" stroke-width="0.5"/>
<line x1="488.506" y1="3.91082" x2="495.084" y2="13.9475" stroke="#FDB759" stroke-width="0.5"/>
<line x1="487.383" y1="5.84368" x2="492.864" y2="14.2076" stroke="#FDB759" stroke-width="0.5"/>
<line x1="486.258" y1="7.7763" x2="490.643" y2="14.4674" stroke="#FDB759" stroke-width="0.5"/>
<line x1="469.029" y1="19.1088" x2="476.756" y2="5.09795" stroke="#FDB759" stroke-width="0.5"/>
<line x1="471.264" y1="19.1989" x2="478.024" y2="6.93939" stroke="#FDB759" stroke-width="0.5"/>
<line x1="473.498" y1="19.2889" x2="479.293" y2="8.78083" stroke="#FDB759" stroke-width="0.5"/>
<line x1="475.732" y1="19.379" x2="480.561" y2="10.6223" stroke="#FDB759" stroke-width="0.5"/>
<line x1="477.967" y1="19.4694" x2="481.83" y2="12.464" stroke="#FDB759" stroke-width="0.5"/>
<line x1="497.916" y1="-1.47742" x2="492.121" y2="9.03069" stroke="#FDB759" stroke-width="0.5"/>
<line x1="495.682" y1="-1.56751" x2="490.853" y2="7.18925" stroke="#FDB759" stroke-width="0.5"/>
<line x1="493.447" y1="-1.65784" x2="489.584" y2="5.34757" stroke="#FDB759" stroke-width="0.5"/>
<line x1="466.809" y1="14.9358" x2="458.809" y2="1.07938" stroke="#FDB759" stroke-width="0.5"/>
<line x1="468.041" y1="13.0698" x2="461.041" y2="0.945469" stroke="#FDB759" stroke-width="0.5"/>
<line x1="469.274" y1="11.2039" x2="463.274" y2="0.811553" stroke="#FDB759" stroke-width="0.5"/>
<line x1="470.504" y1="9.33765" x2="465.504" y2="0.677393" stroke="#FDB759" stroke-width="0.5"/>
<line x1="471.737" y1="7.47168" x2="467.737" y2="0.543477" stroke="#FDB759" stroke-width="0.5"/>
<line x1="484.357" y1="-13.6704" x2="492.357" y2="0.185996" stroke="#FDB759" stroke-width="0.5"/>
<line x1="483.125" y1="-11.8044" x2="490.125" y2="0.319912" stroke="#FDB759" stroke-width="0.5"/>
<line x1="481.892" y1="-9.93848" x2="487.892" y2="0.453828" stroke="#FDB759" stroke-width="0.5"/>
<line x1="480.662" y1="-8.07227" x2="485.662" y2="0.587988" stroke="#FDB759" stroke-width="0.5"/>
<line x1="479.429" y1="-6.2063" x2="483.429" y2="0.721904" stroke="#FDB759" stroke-width="0.5"/>
<line x1="494.968" y1="28.9475" x2="478.971" y2="29.2616" stroke="#FDB759" stroke-width="0.5"/>
<line x1="493.929" y1="26.9675" x2="479.931" y2="27.2424" stroke="#FDB759" stroke-width="0.5"/>
<line x1="492.89" y1="24.9875" x2="480.892" y2="25.2231" stroke="#FDB759" stroke-width="0.5"/>
<line x1="491.851" y1="23.0075" x2="481.853" y2="23.2039" stroke="#FDB759" stroke-width="0.5"/>
<line x1="490.812" y1="21.0275" x2="482.813" y2="21.1846" stroke="#FDB759" stroke-width="0.5"/>
<line x1="498.769" y1="1.04634" x2="482.772" y2="1.3605" stroke="#FDB759" stroke-width="0.5"/>
</g>
</g>
</g>
<defs>
<clipPath id="clip0_1873_18188">
<rect width="492" height="64" rx="8" fill="white"/>
</clipPath>
<clipPath id="clip1_1873_18188">
<rect x="476.592" y="16.1289" width="60" height="60" rx="4" transform="rotate(59.0619 476.592 16.1289)" fill="white"/>
</clipPath>
<clipPath id="clip2_1873_18188">
<rect x="440" y="-10" width="60" height="60" rx="4" transform="rotate(-30 440 -10)" fill="white"/>
</clipPath>
</defs>
</svg>
