<svg width="492" height="64" viewBox="0 0 492 64" fill="none" xmlns="http://www.w3.org/2000/svg">
<g clip-path="url(#clip0_1873_19763)">
<rect width="492" height="64" rx="8" fill="white"/>
<g opacity="0.25">
<g clip-path="url(#clip1_1873_19763)">
<rect x="481.59" y="20.1289" width="60" height="60" rx="4" transform="rotate(59.0619 481.59 20.1289)" fill="white"/>
<line x1="475.953" y1="21.0213" x2="490.216" y2="28.2721" stroke="#EB3136" stroke-width="0.5"/>
<line x1="475.938" y1="23.2574" x2="488.417" y2="29.6018" stroke="#EB3136" stroke-width="0.5"/>
<line x1="475.924" y1="25.4932" x2="486.621" y2="30.9313" stroke="#EB3136" stroke-width="0.5"/>
<line x1="475.908" y1="27.7293" x2="484.822" y2="32.2611" stroke="#EB3136" stroke-width="0.5"/>
<line x1="475.893" y1="29.9654" x2="483.024" y2="33.5908" stroke="#EB3136" stroke-width="0.5"/>
<line x1="497.16" y1="53.8615" x2="482.897" y2="46.6107" stroke="#EB3136" stroke-width="0.5"/>
<line x1="497.176" y1="51.6254" x2="484.696" y2="45.281" stroke="#EB3136" stroke-width="0.5"/>
<line x1="497.189" y1="49.3896" x2="486.492" y2="43.9515" stroke="#EB3136" stroke-width="0.5"/>
<line x1="497.205" y1="47.1535" x2="488.291" y2="42.6218" stroke="#EB3136" stroke-width="0.5"/>
<line x1="497.221" y1="44.9174" x2="490.089" y2="41.292" stroke="#EB3136" stroke-width="0.5"/>
<line x1="435.613" y1="44.9506" x2="448.85" y2="35.9625" stroke="#EB3136" stroke-width="0.5"/>
<line x1="437.565" y1="46.0434" x2="449.147" y2="38.1788" stroke="#EB3136" stroke-width="0.5"/>
<line x1="439.516" y1="47.1364" x2="449.443" y2="40.3953" stroke="#EB3136" stroke-width="0.5"/>
<line x1="441.465" y1="48.2292" x2="449.738" y2="42.6116" stroke="#EB3136" stroke-width="0.5"/>
<line x1="443.416" y1="49.322" x2="450.035" y2="44.8279" stroke="#EB3136" stroke-width="0.5"/>
<line x1="464.42" y1="61.0057" x2="451.183" y2="69.9938" stroke="#EB3136" stroke-width="0.5"/>
<line x1="462.469" y1="59.9129" x2="450.886" y2="67.7775" stroke="#EB3136" stroke-width="0.5"/>
<line x1="460.517" y1="58.8199" x2="450.59" y2="65.561" stroke="#EB3136" stroke-width="0.5"/>
<line x1="458.568" y1="57.7271" x2="450.295" y2="63.3447" stroke="#EB3136" stroke-width="0.5"/>
<line x1="456.617" y1="56.6343" x2="449.999" y2="61.1284" stroke="#EB3136" stroke-width="0.5"/>
<line x1="482.465" y1="29.9422" x2="496.728" y2="37.193" stroke="#EB3136" stroke-width="0.5"/>
<line x1="482.449" y1="32.1783" x2="494.929" y2="38.5227" stroke="#EB3136" stroke-width="0.5"/>
<line x1="482.436" y1="34.4141" x2="493.133" y2="39.8522" stroke="#EB3136" stroke-width="0.5"/>
<line x1="482.42" y1="36.6502" x2="491.334" y2="41.1819" stroke="#EB3136" stroke-width="0.5"/>
<line x1="482.404" y1="38.8863" x2="489.536" y2="42.5117" stroke="#EB3136" stroke-width="0.5"/>
<line x1="503.672" y1="62.7824" x2="489.409" y2="55.5316" stroke="#EB3136" stroke-width="0.5"/>
<line x1="503.687" y1="60.5463" x2="491.208" y2="54.2019" stroke="#EB3136" stroke-width="0.5"/>
<line x1="446.557" y1="46.4377" x2="459.794" y2="37.4496" stroke="#EB3136" stroke-width="0.5"/>
<line x1="448.508" y1="47.5305" x2="460.09" y2="39.6659" stroke="#EB3136" stroke-width="0.5"/>
<line x1="450.459" y1="48.6235" x2="460.387" y2="41.8824" stroke="#EB3136" stroke-width="0.5"/>
<line x1="452.408" y1="49.7163" x2="460.681" y2="44.0987" stroke="#EB3136" stroke-width="0.5"/>
<line x1="454.36" y1="50.809" x2="460.978" y2="46.315" stroke="#EB3136" stroke-width="0.5"/>
<line x1="475.365" y1="62.4927" x2="462.128" y2="71.4808" stroke="#EB3136" stroke-width="0.5"/>
<line x1="473.414" y1="61.3999" x2="461.832" y2="69.2645" stroke="#EB3136" stroke-width="0.5"/>
<line x1="471.463" y1="60.3069" x2="461.535" y2="67.048" stroke="#EB3136" stroke-width="0.5"/>
<line x1="469.513" y1="59.2141" x2="461.24" y2="64.8317" stroke="#EB3136" stroke-width="0.5"/>
<line x1="467.562" y1="58.1214" x2="460.944" y2="62.6154" stroke="#EB3136" stroke-width="0.5"/>
<line x1="464.803" y1="27.7046" x2="479.065" y2="34.9554" stroke="#EB3136" stroke-width="0.5"/>
<line x1="464.787" y1="29.9407" x2="477.267" y2="36.2852" stroke="#EB3136" stroke-width="0.5"/>
<line x1="464.773" y1="32.1766" x2="475.47" y2="37.6147" stroke="#EB3136" stroke-width="0.5"/>
<line x1="464.758" y1="34.4126" x2="473.672" y2="38.9444" stroke="#EB3136" stroke-width="0.5"/>
<line x1="464.742" y1="36.6487" x2="471.874" y2="40.2741" stroke="#EB3136" stroke-width="0.5"/>
<line x1="486.01" y1="60.5449" x2="471.747" y2="53.2941" stroke="#EB3136" stroke-width="0.5"/>
<line x1="486.025" y1="58.3088" x2="473.545" y2="51.9643" stroke="#EB3136" stroke-width="0.5"/>
<line x1="486.039" y1="56.073" x2="475.342" y2="50.6348" stroke="#EB3136" stroke-width="0.5"/>
<line x1="486.055" y1="53.8369" x2="477.14" y2="49.3051" stroke="#EB3136" stroke-width="0.5"/>
<line x1="486.07" y1="51.6008" x2="478.939" y2="47.9754" stroke="#EB3136" stroke-width="0.5"/>
<line x1="432.703" y1="57.6203" x2="445.94" y2="48.6322" stroke="#EB3136" stroke-width="0.5"/>
<line x1="434.654" y1="58.7131" x2="446.237" y2="50.8485" stroke="#EB3136" stroke-width="0.5"/>
<line x1="436.606" y1="59.8061" x2="446.533" y2="53.065" stroke="#EB3136" stroke-width="0.5"/>
<line x1="438.555" y1="60.8989" x2="446.828" y2="55.2813" stroke="#EB3136" stroke-width="0.5"/>
<line x1="440.506" y1="61.9917" x2="447.124" y2="57.4976" stroke="#EB3136" stroke-width="0.5"/>
<line x1="456.227" y1="27.0149" x2="470.489" y2="34.2658" stroke="#EB3136" stroke-width="0.5"/>
<line x1="456.211" y1="29.251" x2="468.691" y2="35.5955" stroke="#EB3136" stroke-width="0.5"/>
<line x1="456.197" y1="31.4869" x2="466.894" y2="36.925" stroke="#EB3136" stroke-width="0.5"/>
<line x1="456.182" y1="33.7229" x2="465.096" y2="38.2547" stroke="#EB3136" stroke-width="0.5"/>
<line x1="456.166" y1="35.959" x2="463.297" y2="39.5844" stroke="#EB3136" stroke-width="0.5"/>
<line x1="477.434" y1="59.8552" x2="463.171" y2="52.6044" stroke="#EB3136" stroke-width="0.5"/>
<line x1="477.449" y1="57.6191" x2="464.969" y2="51.2746" stroke="#EB3136" stroke-width="0.5"/>
<line x1="477.463" y1="55.3833" x2="466.766" y2="49.9451" stroke="#EB3136" stroke-width="0.5"/>
<line x1="477.479" y1="53.1472" x2="468.564" y2="48.6154" stroke="#EB3136" stroke-width="0.5"/>
<line x1="477.494" y1="50.9111" x2="470.363" y2="47.2857" stroke="#EB3136" stroke-width="0.5"/>
<line x1="474.232" y1="33.7115" x2="488.495" y2="40.9623" stroke="#EB3136" stroke-width="0.5"/>
<line x1="474.217" y1="35.9476" x2="486.697" y2="42.292" stroke="#EB3136" stroke-width="0.5"/>
<line x1="474.203" y1="38.1834" x2="484.9" y2="43.6215" stroke="#EB3136" stroke-width="0.5"/>
<line x1="474.188" y1="40.4195" x2="483.102" y2="44.9512" stroke="#EB3136" stroke-width="0.5"/>
<line x1="474.172" y1="42.6556" x2="481.303" y2="46.281" stroke="#EB3136" stroke-width="0.5"/>
<line x1="495.439" y1="66.5517" x2="481.177" y2="59.3009" stroke="#EB3136" stroke-width="0.5"/>
<line x1="495.455" y1="64.3156" x2="482.975" y2="57.9712" stroke="#EB3136" stroke-width="0.5"/>
<line x1="495.469" y1="62.0798" x2="484.772" y2="56.6417" stroke="#EB3136" stroke-width="0.5"/>
<line x1="495.484" y1="59.8437" x2="486.57" y2="55.3119" stroke="#EB3136" stroke-width="0.5"/>
<line x1="495.5" y1="57.6076" x2="488.369" y2="53.9822" stroke="#EB3136" stroke-width="0.5"/>
<line x1="443.569" y1="54.9875" x2="456.805" y2="45.9994" stroke="#EB3136" stroke-width="0.5"/>
<line x1="445.52" y1="56.0803" x2="457.102" y2="48.2157" stroke="#EB3136" stroke-width="0.5"/>
<line x1="447.471" y1="57.1733" x2="457.398" y2="50.4322" stroke="#EB3136" stroke-width="0.5"/>
<line x1="449.42" y1="58.2661" x2="457.693" y2="52.6485" stroke="#EB3136" stroke-width="0.5"/>
<line x1="451.371" y1="59.3588" x2="457.99" y2="54.8648" stroke="#EB3136" stroke-width="0.5"/>
<line x1="485.09" y1="39.1627" x2="485.352" y2="55.1605" stroke="#EB3136" stroke-width="0.5"/>
<line x1="483.107" y1="40.1954" x2="483.337" y2="54.1935" stroke="#EB3136" stroke-width="0.5"/>
<line x1="481.123" y1="41.2278" x2="481.319" y2="53.2262" stroke="#EB3136" stroke-width="0.5"/>
<line x1="479.141" y1="42.2606" x2="479.304" y2="52.2592" stroke="#EB3136" stroke-width="0.5"/>
<line x1="477.156" y1="43.293" x2="477.287" y2="51.292" stroke="#EB3136" stroke-width="0.5"/>
<line x1="487.648" y1="73.3107" x2="487.387" y2="57.3129" stroke="#EB3136" stroke-width="0.5"/>
<line x1="489.631" y1="72.278" x2="489.402" y2="58.2799" stroke="#EB3136" stroke-width="0.5"/>
<line x1="491.615" y1="71.2455" x2="491.419" y2="59.2472" stroke="#EB3136" stroke-width="0.5"/>
<line x1="452.961" y1="49.6307" x2="467.096" y2="57.1267" stroke="#EB3136" stroke-width="0.5"/>
<line x1="452.908" y1="51.866" x2="465.277" y2="58.425" stroke="#EB3136" stroke-width="0.5"/>
<line x1="452.853" y1="54.1016" x2="463.455" y2="59.7236" stroke="#EB3136" stroke-width="0.5"/>
<line x1="452.801" y1="56.337" x2="461.635" y2="61.022" stroke="#EB3136" stroke-width="0.5"/>
<line x1="452.746" y1="58.5723" x2="459.814" y2="62.3203" stroke="#EB3136" stroke-width="0.5"/>
<line x1="457.096" y1="47.3434" x2="470.82" y2="39.1176" stroke="#EB3136" stroke-width="0.5"/>
<line x1="458.983" y1="48.5448" x2="470.991" y2="41.3473" stroke="#EB3136" stroke-width="0.5"/>
<line x1="460.868" y1="49.746" x2="471.16" y2="43.5767" stroke="#EB3136" stroke-width="0.5"/>
<line x1="462.754" y1="50.9474" x2="471.332" y2="45.8063" stroke="#EB3136" stroke-width="0.5"/>
<line x1="464.639" y1="52.1489" x2="471.501" y2="48.036" stroke="#EB3136" stroke-width="0.5"/>
<line x1="484.099" y1="63.2191" x2="472.091" y2="70.4166" stroke="#EB3136" stroke-width="0.5"/>
<line x1="482.214" y1="62.0179" x2="471.922" y2="68.1872" stroke="#EB3136" stroke-width="0.5"/>
<line x1="480.328" y1="60.8165" x2="471.751" y2="65.9576" stroke="#EB3136" stroke-width="0.5"/>
<line x1="478.443" y1="59.6151" x2="471.581" y2="63.728" stroke="#EB3136" stroke-width="0.5"/>
<line x1="443.547" y1="75.7263" x2="442.971" y2="59.7367" stroke="#EB3136" stroke-width="0.5"/>
<line x1="445.51" y1="74.655" x2="445.006" y2="60.6641" stroke="#EB3136" stroke-width="0.5"/>
<line x1="447.473" y1="73.5835" x2="447.041" y2="61.5912" stroke="#EB3136" stroke-width="0.5"/>
<line x1="449.436" y1="72.5122" x2="449.076" y2="62.5187" stroke="#EB3136" stroke-width="0.5"/>
<line x1="451.399" y1="71.4409" x2="451.111" y2="63.4461" stroke="#EB3136" stroke-width="0.5"/>
<line x1="474.065" y1="69.8173" x2="487.788" y2="61.5915" stroke="#EB3136" stroke-width="0.5"/>
<line x1="475.952" y1="71.0187" x2="487.96" y2="63.8212" stroke="#EB3136" stroke-width="0.5"/>
<line x1="471.508" y1="79.0698" x2="470.932" y2="63.0802" stroke="#EB3136" stroke-width="0.5"/>
<line x1="473.471" y1="77.9985" x2="472.967" y2="64.0076" stroke="#EB3136" stroke-width="0.5"/>
</g>
</g>
<g opacity="0.25">
<g clip-path="url(#clip2_1873_19763)">
<rect x="440" y="-10" width="60" height="60" rx="4" transform="rotate(-30 440 -10)" fill="white"/>
<line x1="464.066" y1="36.3773" x2="455.296" y2="22.9951" stroke="#EB3136" stroke-width="0.5"/>
<line x1="465.191" y1="34.4447" x2="457.517" y2="22.7352" stroke="#EB3136" stroke-width="0.5"/>
<line x1="466.316" y1="32.512" x2="459.739" y2="22.4754" stroke="#EB3136" stroke-width="0.5"/>
<line x1="467.439" y1="30.5792" x2="461.958" y2="22.2153" stroke="#EB3136" stroke-width="0.5"/>
<line x1="468.564" y1="28.6466" x2="464.179" y2="21.9555" stroke="#EB3136" stroke-width="0.5"/>
<line x1="480.59" y1="7.83635" x2="489.36" y2="21.2186" stroke="#EB3136" stroke-width="0.5"/>
<line x1="479.465" y1="9.76897" x2="487.139" y2="21.4784" stroke="#EB3136" stroke-width="0.5"/>
<line x1="478.34" y1="11.7016" x2="484.918" y2="21.7382" stroke="#EB3136" stroke-width="0.5"/>
<line x1="477.217" y1="13.6345" x2="482.698" y2="21.9983" stroke="#EB3136" stroke-width="0.5"/>
<line x1="476.092" y1="15.5671" x2="480.477" y2="22.2582" stroke="#EB3136" stroke-width="0.5"/>
<line x1="465.732" y1="25.4583" x2="456.962" y2="12.0761" stroke="#EB3136" stroke-width="0.5"/>
<line x1="466.857" y1="23.5257" x2="459.183" y2="11.8163" stroke="#EB3136" stroke-width="0.5"/>
<line x1="467.982" y1="21.5931" x2="461.405" y2="11.5564" stroke="#EB3136" stroke-width="0.5"/>
<line x1="469.105" y1="19.6602" x2="463.624" y2="11.2963" stroke="#EB3136" stroke-width="0.5"/>
<line x1="470.23" y1="17.7276" x2="465.845" y2="11.0365" stroke="#EB3136" stroke-width="0.5"/>
<line x1="482.256" y1="-3.08259" x2="491.026" y2="10.2996" stroke="#EB3136" stroke-width="0.5"/>
<line x1="481.131" y1="-1.14997" x2="488.805" y2="10.5595" stroke="#EB3136" stroke-width="0.5"/>
<line x1="480.006" y1="0.782643" x2="486.584" y2="10.8193" stroke="#EB3136" stroke-width="0.5"/>
<line x1="478.883" y1="2.7155" x2="484.364" y2="11.0794" stroke="#EB3136" stroke-width="0.5"/>
<line x1="477.758" y1="4.64812" x2="482.143" y2="11.3392" stroke="#EB3136" stroke-width="0.5"/>
<line x1="447.301" y1="6.90968" x2="454.784" y2="-7.23243" stroke="#EB3136" stroke-width="0.5"/>
<line x1="449.537" y1="6.9612" x2="456.085" y2="-5.41315" stroke="#EB3136" stroke-width="0.5"/>
<line x1="451.771" y1="7.01271" x2="457.384" y2="-3.59387" stroke="#EB3136" stroke-width="0.5"/>
<line x1="454.008" y1="7.06422" x2="458.685" y2="-1.7746" stroke="#EB3136" stroke-width="0.5"/>
<line x1="456.242" y1="7.11574" x2="459.984" y2="0.0446826" stroke="#EB3136" stroke-width="0.5"/>
<line x1="480.483" y1="-13.7566" x2="472.999" y2="0.385504" stroke="#EB3136" stroke-width="0.5"/>
<line x1="476.685" y1="39.4945" x2="467.915" y2="26.1122" stroke="#EB3136" stroke-width="0.5"/>
<line x1="477.81" y1="37.5618" x2="470.137" y2="25.8524" stroke="#EB3136" stroke-width="0.5"/>
<line x1="478.935" y1="35.6292" x2="472.358" y2="25.5926" stroke="#EB3136" stroke-width="0.5"/>
<line x1="480.058" y1="33.6964" x2="474.577" y2="25.3325" stroke="#EB3136" stroke-width="0.5"/>
<line x1="481.183" y1="31.7637" x2="476.798" y2="25.0726" stroke="#EB3136" stroke-width="0.5"/>
<line x1="492.086" y1="12.8859" x2="499.76" y2="24.5953" stroke="#EB3136" stroke-width="0.5"/>
<line x1="490.961" y1="14.8185" x2="497.539" y2="24.8552" stroke="#EB3136" stroke-width="0.5"/>
<line x1="489.838" y1="16.7514" x2="495.319" y2="25.1153" stroke="#EB3136" stroke-width="0.5"/>
<line x1="488.713" y1="18.684" x2="493.098" y2="25.3751" stroke="#EB3136" stroke-width="0.5"/>
<line x1="446.47" y1="15.4717" x2="453.954" y2="1.32958" stroke="#EB3136" stroke-width="0.5"/>
<line x1="448.707" y1="15.5232" x2="455.255" y2="3.14886" stroke="#EB3136" stroke-width="0.5"/>
<line x1="450.941" y1="15.5747" x2="456.554" y2="4.96814" stroke="#EB3136" stroke-width="0.5"/>
<line x1="453.177" y1="15.6262" x2="457.855" y2="6.78742" stroke="#EB3136" stroke-width="0.5"/>
<line x1="455.412" y1="15.6778" x2="459.154" y2="8.60669" stroke="#EB3136" stroke-width="0.5"/>
<line x1="479.653" y1="-5.1946" x2="472.169" y2="8.94752" stroke="#EB3136" stroke-width="0.5"/>
<line x1="477.416" y1="-5.24611" x2="470.868" y2="7.12824" stroke="#EB3136" stroke-width="0.5"/>
<line x1="475.182" y1="-5.29762" x2="469.569" y2="5.30896" stroke="#EB3136" stroke-width="0.5"/>
<line x1="472.946" y1="-5.34914" x2="468.268" y2="3.48968" stroke="#EB3136" stroke-width="0.5"/>
<line x1="470.711" y1="-5.40065" x2="466.97" y2="1.67041" stroke="#EB3136" stroke-width="0.5"/>
<line x1="474.232" y1="28.5865" x2="465.462" y2="15.2043" stroke="#EB3136" stroke-width="0.5"/>
<line x1="475.357" y1="26.6539" x2="467.683" y2="14.9444" stroke="#EB3136" stroke-width="0.5"/>
<line x1="476.482" y1="24.7213" x2="469.905" y2="14.6846" stroke="#EB3136" stroke-width="0.5"/>
<line x1="477.605" y1="22.7884" x2="472.124" y2="14.4245" stroke="#EB3136" stroke-width="0.5"/>
<line x1="478.73" y1="20.8558" x2="474.345" y2="14.1647" stroke="#EB3136" stroke-width="0.5"/>
<line x1="490.756" y1="0.0455828" x2="499.526" y2="13.4278" stroke="#EB3136" stroke-width="0.5"/>
<line x1="489.631" y1="1.9782" x2="497.305" y2="13.6876" stroke="#EB3136" stroke-width="0.5"/>
<line x1="488.506" y1="3.91082" x2="495.084" y2="13.9475" stroke="#EB3136" stroke-width="0.5"/>
<line x1="487.383" y1="5.84368" x2="492.864" y2="14.2076" stroke="#EB3136" stroke-width="0.5"/>
<line x1="486.258" y1="7.7763" x2="490.643" y2="14.4674" stroke="#EB3136" stroke-width="0.5"/>
<line x1="469.029" y1="19.1088" x2="476.756" y2="5.09795" stroke="#EB3136" stroke-width="0.5"/>
<line x1="471.264" y1="19.1989" x2="478.024" y2="6.93939" stroke="#EB3136" stroke-width="0.5"/>
<line x1="473.498" y1="19.2889" x2="479.293" y2="8.78083" stroke="#EB3136" stroke-width="0.5"/>
<line x1="475.732" y1="19.379" x2="480.561" y2="10.6223" stroke="#EB3136" stroke-width="0.5"/>
<line x1="477.967" y1="19.4694" x2="481.83" y2="12.464" stroke="#EB3136" stroke-width="0.5"/>
<line x1="497.916" y1="-1.47742" x2="492.121" y2="9.03069" stroke="#EB3136" stroke-width="0.5"/>
<line x1="495.682" y1="-1.56751" x2="490.853" y2="7.18925" stroke="#EB3136" stroke-width="0.5"/>
<line x1="493.447" y1="-1.65784" x2="489.584" y2="5.34757" stroke="#EB3136" stroke-width="0.5"/>
<line x1="466.809" y1="14.9358" x2="458.809" y2="1.07938" stroke="#EB3136" stroke-width="0.5"/>
<line x1="468.041" y1="13.0698" x2="461.041" y2="0.945469" stroke="#EB3136" stroke-width="0.5"/>
<line x1="469.274" y1="11.2039" x2="463.274" y2="0.811553" stroke="#EB3136" stroke-width="0.5"/>
<line x1="470.504" y1="9.33765" x2="465.504" y2="0.677393" stroke="#EB3136" stroke-width="0.5"/>
<line x1="471.737" y1="7.47168" x2="467.737" y2="0.543477" stroke="#EB3136" stroke-width="0.5"/>
<line x1="484.357" y1="-13.6704" x2="492.357" y2="0.185996" stroke="#EB3136" stroke-width="0.5"/>
<line x1="483.125" y1="-11.8044" x2="490.125" y2="0.319912" stroke="#EB3136" stroke-width="0.5"/>
<line x1="481.892" y1="-9.93848" x2="487.892" y2="0.453828" stroke="#EB3136" stroke-width="0.5"/>
<line x1="480.662" y1="-8.07227" x2="485.662" y2="0.587988" stroke="#EB3136" stroke-width="0.5"/>
<line x1="479.429" y1="-6.2063" x2="483.429" y2="0.721904" stroke="#EB3136" stroke-width="0.5"/>
<line x1="494.968" y1="28.9475" x2="478.971" y2="29.2616" stroke="#EB3136" stroke-width="0.5"/>
<line x1="493.929" y1="26.9675" x2="479.931" y2="27.2424" stroke="#EB3136" stroke-width="0.5"/>
<line x1="492.89" y1="24.9875" x2="480.892" y2="25.2231" stroke="#EB3136" stroke-width="0.5"/>
<line x1="491.851" y1="23.0075" x2="481.853" y2="23.2039" stroke="#EB3136" stroke-width="0.5"/>
<line x1="490.812" y1="21.0275" x2="482.813" y2="21.1846" stroke="#EB3136" stroke-width="0.5"/>
<line x1="498.769" y1="1.04634" x2="482.772" y2="1.3605" stroke="#EB3136" stroke-width="0.5"/>
</g>
</g>
</g>
<defs>
<clipPath id="clip0_1873_19763">
<rect width="492" height="64" rx="8" fill="white"/>
</clipPath>
<clipPath id="clip1_1873_19763">
<rect x="481.59" y="20.1289" width="60" height="60" rx="4" transform="rotate(59.0619 481.59 20.1289)" fill="white"/>
</clipPath>
<clipPath id="clip2_1873_19763">
<rect x="440" y="-10" width="60" height="60" rx="4" transform="rotate(-30 440 -10)" fill="white"/>
</clipPath>
</defs>
</svg>
