<svg width="100" height="100" viewBox="0 0 100 100" fill="none" xmlns="http://www.w3.org/2000/svg">
<rect width="100" height="100" rx="8" fill="white"/>
<path d="M65.5 92C66.8807 92 68 90.8807 68 89.5V62.7345C68 58.949 66.18 55.2362 63.1952 52.9066L46.1601 39.8027C42.1561 36.7451 39.6809 31.8675 39.6081 26.8443V26.7715V26.6259C39.6081 26.5531 39.6081 26.5531 39.6081 26.4803C39.7537 20.5836 44.4857 15.706 50.3097 15.5604C53.2945 15.4876 56.0609 16.6524 58.1721 18.6908C60.2832 20.7292 61.448 23.4955 61.448 26.4803V26.8443C61.448 28.6643 62.904 30.1203 64.724 30.1203C66.544 30.1203 68 28.6643 68 26.8443V26.4803C68 21.7484 66.1072 17.3076 62.6856 13.9588C59.264 10.61 54.7505 8.86282 50.0185 9.00842C40.7001 9.29962 33.0562 17.3076 33.0562 26.9171V89.5C33.0562 90.8807 34.1755 92 35.5562 92H65.5Z" fill="#FF541E"/>
<path d="M39.2305 82.3891C39.0385 82.3891 38.8828 82.2334 38.8828 82.0414V80.1954C38.8828 80.0034 39.0385 79.8477 39.2305 79.8477H61.831C62.023 79.8477 62.1787 80.0034 62.1787 80.1954V82.0414C62.1787 82.2334 62.023 82.3891 61.831 82.3891H39.2305Z" fill="white"/>
<path d="M40.0449 77.3067V78.2297C40.0449 78.4217 40.2006 78.5774 40.3926 78.5774H60.6635C60.8556 78.5774 61.0112 78.4217 61.0112 78.2297V77.3067C61.0112 74.5959 60.2541 72.2028 58.7399 70.1273C57.2258 68.0521 55.2652 66.7391 52.8582 66.1884L52.8576 66.1882C52.8449 66.1854 51.4421 65.8706 50.5281 65.8706C49.6162 65.8706 48.2177 66.1839 48.1987 66.1882L48.1976 66.1884C45.8102 66.7392 43.8546 68.0522 42.3308 70.1273C40.8069 72.2028 40.0449 74.5959 40.0449 77.3067Z" fill="white"/>
<path d="M48.8828 63.4104C48.5315 63.7937 48.3154 64.2366 48.2347 64.7391C48.1977 64.9693 48.4235 65.1396 48.6493 65.082C49.1398 64.9569 49.9333 64.7817 50.5281 64.7817C51.1229 64.7817 51.9163 64.9569 52.4068 65.082C52.6327 65.1396 52.8585 64.9693 52.8215 64.7391C52.7407 64.2366 52.5247 63.7937 52.1733 63.4104C51.7171 62.9127 51.1687 62.6639 50.5281 62.6639C49.8874 62.6639 49.339 62.9127 48.8828 63.4104Z" fill="white"/>
</svg>
