<svg width="20" height="21" viewBox="0 0 20 21" fill="none" xmlns="http://www.w3.org/2000/svg">
<path d="M19.8055 8.70824H19V8.66674H9.99999V12.6667H15.6515C14.827 14.9952 12.6115 16.6667 9.99999 16.6667C6.6865 16.6667 4 13.9802 4 10.6667C4 7.35324 6.6865 4.66675 9.99999 4.66675C11.5295 4.66675 12.921 5.24375 13.9805 6.18624L16.809 3.35775C15.023 1.69325 12.634 0.666748 9.99999 0.666748C4.4775 0.666748 0 5.14425 0 10.6667C0 16.1892 4.4775 20.6667 9.99999 20.6667C15.5225 20.6667 20 16.1892 20 10.6667C20 9.99624 19.931 9.34174 19.8055 8.70824Z" fill="#FFC107"/>
<path d="M1.15234 6.01224L4.43784 8.42174C5.32684 6.22075 7.47984 4.66675 9.99934 4.66675C11.5288 4.66675 12.9203 5.24375 13.9798 6.18624L16.8083 3.35775C15.0223 1.69325 12.6333 0.666748 9.99934 0.666748C6.15834 0.666748 2.82734 2.83525 1.15234 6.01224Z" fill="#FF3D00"/>
<path d="M10.0002 20.6667C12.5831 20.6667 14.9301 19.6782 16.7046 18.0707L13.6096 15.4517C12.6056 16.2122 11.3576 16.6667 10.0002 16.6667C7.39915 16.6667 5.19065 15.0082 4.35865 12.6937L1.09766 15.2062C2.75266 18.4447 6.11365 20.6667 10.0002 20.6667Z" fill="#4CAF50"/>
<path d="M19.8055 8.70825H19V8.66675H10V12.6667H15.6515C15.2555 13.7852 14.536 14.7497 13.608 15.4522C13.6085 15.4517 13.609 15.4517 13.6095 15.4512L16.7045 18.0702C16.4855 18.2692 20 15.6667 20 10.6667C20 9.99625 19.931 9.34175 19.8055 8.70825Z" fill="#1976D2"/>
</svg>
