<svg width="377" height="240" viewBox="0 0 377 240" fill="none" xmlns="http://www.w3.org/2000/svg">
<rect width="377" height="240" fill="#F2F2F2"/>
<g clip-path="url(#clip0_2764_11927)">
<path d="M288 20H88V220H288V20Z" fill="#F2F2F2"/>
<path d="M131.543 184.5V180.463L128.498 175.808H129.536L132.196 179.857H131.823L134.471 175.808H135.509L132.476 180.463V184.5H131.543ZM138.303 184.64C137.712 184.64 137.175 184.5 136.693 184.22C136.211 183.932 135.826 183.543 135.538 183.053C135.258 182.556 135.118 181.992 135.118 181.362C135.118 180.739 135.258 180.183 135.538 179.693C135.818 179.203 136.195 178.818 136.67 178.538C137.152 178.251 137.696 178.107 138.303 178.107C138.91 178.107 139.45 178.247 139.925 178.527C140.407 178.807 140.784 179.192 141.056 179.682C141.336 180.172 141.476 180.732 141.476 181.362C141.476 181.999 141.332 182.567 141.045 183.065C140.757 183.555 140.372 183.94 139.89 184.22C139.415 184.5 138.886 184.64 138.303 184.64ZM138.303 183.765C138.723 183.765 139.1 183.66 139.435 183.45C139.777 183.24 140.045 182.952 140.24 182.587C140.442 182.221 140.543 181.813 140.543 181.362C140.543 180.911 140.442 180.506 140.24 180.148C140.045 179.791 139.777 179.507 139.435 179.297C139.1 179.087 138.723 178.982 138.303 178.982C137.883 178.982 137.502 179.087 137.16 179.297C136.825 179.507 136.557 179.791 136.355 180.148C136.152 180.506 136.051 180.911 136.051 181.362C136.051 181.813 136.152 182.221 136.355 182.587C136.557 182.952 136.825 183.24 137.16 183.45C137.502 183.66 137.883 183.765 138.303 183.765ZM145.236 184.64C144.801 184.64 144.404 184.539 144.046 184.337C143.688 184.127 143.404 183.839 143.194 183.473C142.992 183.1 142.891 182.672 142.891 182.19V178.247H143.766V182.085C143.766 182.419 143.832 182.715 143.964 182.972C144.104 183.221 144.295 183.415 144.536 183.555C144.785 183.695 145.069 183.765 145.388 183.765C145.707 183.765 145.991 183.695 146.239 183.555C146.488 183.407 146.683 183.201 146.823 182.937C146.963 182.664 147.033 182.342 147.033 181.968V178.247H147.908V184.5H147.033V183.287L147.231 183.333C147.083 183.738 146.831 184.057 146.473 184.29C146.115 184.523 145.703 184.64 145.236 184.64ZM151.69 184.5V175.668H152.565V179.46L152.366 179.413C152.522 179.009 152.775 178.69 153.125 178.457C153.482 178.223 153.895 178.107 154.361 178.107C154.805 178.107 155.201 178.208 155.551 178.41C155.909 178.612 156.189 178.892 156.391 179.25C156.601 179.6 156.706 179.997 156.706 180.44V184.5H155.831V180.778C155.831 180.397 155.761 180.074 155.621 179.81C155.481 179.546 155.287 179.343 155.038 179.203C154.797 179.056 154.521 178.982 154.21 178.982C153.899 178.982 153.619 179.056 153.37 179.203C153.121 179.343 152.922 179.549 152.775 179.822C152.635 180.086 152.565 180.405 152.565 180.778V184.5H151.69ZM160.186 184.64C159.789 184.64 159.435 184.566 159.124 184.418C158.813 184.263 158.568 184.053 158.389 183.788C158.21 183.524 158.121 183.221 158.121 182.878C158.121 182.552 158.191 182.256 158.331 181.992C158.471 181.719 158.689 181.49 158.984 181.303C159.28 181.117 159.657 180.984 160.116 180.907L162.566 180.498V181.292L160.326 181.665C159.875 181.743 159.548 181.887 159.346 182.097C159.151 182.307 159.054 182.556 159.054 182.843C159.054 183.123 159.163 183.361 159.381 183.555C159.606 183.749 159.894 183.847 160.244 183.847C160.672 183.847 161.045 183.757 161.364 183.578C161.683 183.392 161.932 183.143 162.111 182.832C162.29 182.521 162.379 182.174 162.379 181.793V180.207C162.379 179.833 162.243 179.53 161.971 179.297C161.699 179.063 161.345 178.947 160.909 178.947C160.528 178.947 160.194 179.044 159.906 179.238C159.618 179.425 159.404 179.67 159.264 179.973L158.471 179.542C158.588 179.277 158.77 179.036 159.019 178.818C159.276 178.601 159.568 178.429 159.894 178.305C160.221 178.173 160.559 178.107 160.909 178.107C161.368 178.107 161.773 178.196 162.123 178.375C162.48 178.554 162.756 178.803 162.951 179.122C163.153 179.433 163.254 179.794 163.254 180.207V184.5H162.379V183.252L162.508 183.38C162.399 183.613 162.228 183.827 161.994 184.022C161.769 184.208 161.5 184.36 161.189 184.477C160.886 184.586 160.551 184.64 160.186 184.64ZM166.608 184.5L164.17 178.247H165.15L167.203 183.73H166.888L168.953 178.247H169.945L167.483 184.5H166.608ZM173.7 184.64C173.116 184.64 172.588 184.5 172.113 184.22C171.646 183.932 171.277 183.539 171.005 183.042C170.733 182.544 170.596 181.98 170.596 181.35C170.596 180.72 170.729 180.164 170.993 179.682C171.258 179.192 171.615 178.807 172.066 178.527C172.525 178.247 173.039 178.107 173.606 178.107C174.058 178.107 174.458 178.192 174.808 178.363C175.166 178.527 175.469 178.752 175.718 179.04C175.967 179.32 176.158 179.639 176.29 179.997C176.422 180.347 176.488 180.708 176.488 181.082C176.488 181.159 176.484 181.249 176.476 181.35C176.469 181.443 176.457 181.541 176.441 181.642H171.156V180.825H175.94L175.52 181.175C175.59 180.747 175.539 180.366 175.368 180.032C175.205 179.689 174.968 179.421 174.656 179.227C174.345 179.024 173.995 178.923 173.606 178.923C173.218 178.923 172.856 179.024 172.521 179.227C172.195 179.429 171.938 179.713 171.751 180.078C171.565 180.436 171.491 180.864 171.53 181.362C171.491 181.859 171.569 182.295 171.763 182.668C171.965 183.034 172.238 183.318 172.58 183.52C172.93 183.722 173.303 183.823 173.7 183.823C174.159 183.823 174.544 183.714 174.855 183.497C175.166 183.279 175.419 183.007 175.613 182.68L176.36 183.077C176.235 183.357 176.045 183.617 175.788 183.858C175.531 184.092 175.224 184.282 174.866 184.43C174.516 184.57 174.128 184.64 173.7 184.64ZM180.013 184.5V178.247H180.888V179.46L180.69 179.413C180.845 179.009 181.098 178.69 181.448 178.457C181.806 178.223 182.218 178.107 182.685 178.107C183.128 178.107 183.525 178.208 183.875 178.41C184.233 178.612 184.513 178.892 184.715 179.25C184.925 179.6 185.03 179.997 185.03 180.44V184.5H184.155V180.778C184.155 180.397 184.085 180.074 183.945 179.81C183.813 179.546 183.622 179.343 183.373 179.203C183.132 179.056 182.852 178.982 182.533 178.982C182.214 178.982 181.93 179.056 181.682 179.203C181.433 179.343 181.238 179.549 181.098 179.822C180.958 180.086 180.888 180.405 180.888 180.778V184.5H180.013ZM189.629 184.64C189.038 184.64 188.502 184.5 188.019 184.22C187.537 183.932 187.152 183.543 186.864 183.053C186.584 182.556 186.444 181.992 186.444 181.362C186.444 180.739 186.584 180.183 186.864 179.693C187.144 179.203 187.522 178.818 187.996 178.538C188.478 178.251 189.023 178.107 189.629 178.107C190.236 178.107 190.777 178.247 191.251 178.527C191.733 178.807 192.111 179.192 192.383 179.682C192.663 180.172 192.803 180.732 192.803 181.362C192.803 181.999 192.659 182.567 192.371 183.065C192.083 183.555 191.698 183.94 191.216 184.22C190.742 184.5 190.213 184.64 189.629 184.64ZM189.629 183.765C190.049 183.765 190.427 183.66 190.761 183.45C191.103 183.24 191.372 182.952 191.566 182.587C191.768 182.221 191.869 181.813 191.869 181.362C191.869 180.911 191.768 180.506 191.566 180.148C191.372 179.791 191.103 179.507 190.761 179.297C190.427 179.087 190.049 178.982 189.629 178.982C189.209 178.982 188.828 179.087 188.486 179.297C188.152 179.507 187.883 179.791 187.681 180.148C187.479 180.506 187.378 180.911 187.378 181.362C187.378 181.813 187.479 182.221 187.681 182.587C187.883 182.952 188.152 183.24 188.486 183.45C188.828 183.66 189.209 183.765 189.629 183.765ZM196.328 186.833V178.247H197.203V179.647L197.063 179.402C197.312 179.005 197.643 178.69 198.055 178.457C198.475 178.223 198.953 178.107 199.49 178.107C200.081 178.107 200.606 178.251 201.065 178.538C201.532 178.818 201.897 179.203 202.162 179.693C202.434 180.183 202.57 180.743 202.57 181.373C202.57 181.996 202.434 182.556 202.162 183.053C201.897 183.543 201.532 183.932 201.065 184.22C200.606 184.5 200.081 184.64 199.49 184.64C198.953 184.64 198.467 184.519 198.032 184.278C197.604 184.029 197.281 183.679 197.063 183.228L197.203 183.1V186.833H196.328ZM199.443 183.765C199.863 183.765 200.237 183.66 200.563 183.45C200.898 183.24 201.158 182.956 201.345 182.598C201.539 182.233 201.637 181.824 201.637 181.373C201.637 180.914 201.539 180.506 201.345 180.148C201.158 179.791 200.898 179.507 200.563 179.297C200.237 179.087 199.863 178.982 199.443 178.982C199.023 178.982 198.642 179.087 198.3 179.297C197.966 179.507 197.697 179.794 197.495 180.16C197.301 180.518 197.203 180.922 197.203 181.373C197.203 181.824 197.301 182.233 197.495 182.598C197.697 182.956 197.966 183.24 198.3 183.45C198.642 183.66 199.023 183.765 199.443 183.765ZM204.11 184.5V175.668H204.985V179.46L204.787 179.413C204.942 179.009 205.195 178.69 205.545 178.457C205.903 178.223 206.315 178.107 206.782 178.107C207.225 178.107 207.622 178.208 207.972 178.41C208.329 178.612 208.609 178.892 208.812 179.25C209.022 179.6 209.127 179.997 209.127 180.44V184.5H208.252V180.778C208.252 180.397 208.182 180.074 208.042 179.81C207.902 179.546 207.707 179.343 207.458 179.203C207.217 179.056 206.941 178.982 206.63 178.982C206.319 178.982 206.039 179.056 205.79 179.203C205.541 179.343 205.343 179.549 205.195 179.822C205.055 180.086 204.985 180.405 204.985 180.778V184.5H204.11ZM213.726 184.64C213.135 184.64 212.598 184.5 212.116 184.22C211.634 183.932 211.249 183.543 210.961 183.053C210.681 182.556 210.541 181.992 210.541 181.362C210.541 180.739 210.681 180.183 210.961 179.693C211.241 179.203 211.618 178.818 212.093 178.538C212.575 178.251 213.119 178.107 213.726 178.107C214.333 178.107 214.873 178.247 215.348 178.527C215.83 178.807 216.207 179.192 216.479 179.682C216.759 180.172 216.899 180.732 216.899 181.362C216.899 181.999 216.756 182.567 216.468 183.065C216.18 183.555 215.795 183.94 215.313 184.22C214.838 184.5 214.309 184.64 213.726 184.64ZM213.726 183.765C214.146 183.765 214.523 183.66 214.858 183.45C215.2 183.24 215.468 182.952 215.663 182.587C215.865 182.221 215.966 181.813 215.966 181.362C215.966 180.911 215.865 180.506 215.663 180.148C215.468 179.791 215.2 179.507 214.858 179.297C214.523 179.087 214.146 178.982 213.726 178.982C213.306 178.982 212.925 179.087 212.583 179.297C212.248 179.507 211.98 179.791 211.778 180.148C211.576 180.506 211.474 180.911 211.474 181.362C211.474 181.813 211.576 182.221 211.778 182.587C211.98 182.952 212.248 183.24 212.583 183.45C212.925 183.66 213.306 183.765 213.726 183.765ZM220.72 184.57C220.16 184.57 219.729 184.407 219.425 184.08C219.122 183.753 218.97 183.287 218.97 182.68V179.122H217.815V178.247H218.107C218.371 178.247 218.581 178.161 218.737 177.99C218.893 177.811 218.97 177.589 218.97 177.325V176.8H219.845V178.247H221.222V179.122H219.845V182.68C219.845 182.89 219.876 183.077 219.939 183.24C220.001 183.396 220.106 183.52 220.254 183.613C220.409 183.707 220.615 183.753 220.872 183.753C220.934 183.753 221.008 183.749 221.094 183.742C221.179 183.734 221.253 183.726 221.315 183.718V184.5C221.222 184.523 221.117 184.539 221 184.547C220.884 184.562 220.79 184.57 220.72 184.57ZM225.552 184.64C224.961 184.64 224.424 184.5 223.942 184.22C223.46 183.932 223.075 183.543 222.787 183.053C222.507 182.556 222.367 181.992 222.367 181.362C222.367 180.739 222.507 180.183 222.787 179.693C223.067 179.203 223.444 178.818 223.919 178.538C224.401 178.251 224.946 178.107 225.552 178.107C226.159 178.107 226.699 178.247 227.174 178.527C227.656 178.807 228.033 179.192 228.306 179.682C228.586 180.172 228.726 180.732 228.726 181.362C228.726 181.999 228.582 182.567 228.294 183.065C228.006 183.555 227.621 183.94 227.139 184.22C226.664 184.5 226.136 184.64 225.552 184.64ZM225.552 183.765C225.972 183.765 226.349 183.66 226.684 183.45C227.026 183.24 227.294 182.952 227.489 182.587C227.691 182.221 227.792 181.813 227.792 181.362C227.792 180.911 227.691 180.506 227.489 180.148C227.294 179.791 227.026 179.507 226.684 179.297C226.349 179.087 225.972 178.982 225.552 178.982C225.132 178.982 224.751 179.087 224.409 179.297C224.074 179.507 223.806 179.791 223.604 180.148C223.402 180.506 223.301 180.911 223.301 181.362C223.301 181.813 223.402 182.221 223.604 182.587C223.806 182.952 224.074 183.24 224.409 183.45C224.751 183.66 225.132 183.765 225.552 183.765ZM232.439 184.64C231.84 184.64 231.315 184.488 230.864 184.185C230.413 183.882 230.086 183.469 229.884 182.948L230.619 182.598C230.798 182.979 231.047 183.283 231.365 183.508C231.692 183.734 232.05 183.847 232.439 183.847C232.812 183.847 233.127 183.757 233.384 183.578C233.64 183.392 233.769 183.151 233.769 182.855C233.769 182.637 233.707 182.466 233.582 182.342C233.458 182.209 233.314 182.108 233.15 182.038C232.987 181.968 232.843 181.918 232.719 181.887L231.82 181.63C231.245 181.467 230.829 181.237 230.572 180.942C230.315 180.646 230.187 180.304 230.187 179.915C230.187 179.549 230.28 179.231 230.467 178.958C230.654 178.686 230.907 178.476 231.225 178.328C231.544 178.181 231.898 178.107 232.287 178.107C232.816 178.107 233.294 178.247 233.722 178.527C234.158 178.799 234.465 179.18 234.644 179.67L233.897 180.02C233.742 179.67 233.516 179.398 233.22 179.203C232.933 179.001 232.61 178.9 232.252 178.9C231.902 178.9 231.622 178.989 231.412 179.168C231.202 179.347 231.097 179.573 231.097 179.845C231.097 180.055 231.152 180.222 231.26 180.347C231.369 180.471 231.494 180.564 231.634 180.627C231.782 180.689 231.91 180.736 232.019 180.767L233.057 181.07C233.563 181.218 233.955 181.447 234.235 181.758C234.523 182.069 234.667 182.435 234.667 182.855C234.667 183.197 234.57 183.504 234.375 183.777C234.189 184.049 233.928 184.263 233.594 184.418C233.259 184.566 232.874 184.64 232.439 184.64ZM238.315 187.067C238.191 187.067 238.063 187.055 237.93 187.032C237.806 187.016 237.682 186.985 237.557 186.938V186.122C237.635 186.129 237.732 186.141 237.849 186.157C237.973 186.18 238.098 186.192 238.222 186.192C238.603 186.192 238.895 186.11 239.097 185.947C239.299 185.791 239.498 185.488 239.692 185.037L240.089 184.103L240.065 184.873L237.417 178.247H238.362L240.532 183.718H240.287L242.445 178.247H243.414L240.555 185.293C240.431 185.597 240.272 185.884 240.077 186.157C239.89 186.429 239.653 186.647 239.365 186.81C239.078 186.981 238.728 187.067 238.315 187.067ZM247.175 184.64C246.591 184.64 246.062 184.5 245.588 184.22C245.121 183.932 244.752 183.539 244.48 183.042C244.207 182.544 244.071 181.98 244.071 181.35C244.071 180.72 244.204 180.164 244.468 179.682C244.732 179.192 245.09 178.807 245.541 178.527C246 178.247 246.514 178.107 247.081 178.107C247.532 178.107 247.933 178.192 248.283 178.363C248.641 178.527 248.944 178.752 249.193 179.04C249.442 179.32 249.632 179.639 249.765 179.997C249.897 180.347 249.963 180.708 249.963 181.082C249.963 181.159 249.959 181.249 249.951 181.35C249.944 181.443 249.932 181.541 249.916 181.642H244.631V180.825H249.415L248.995 181.175C249.065 180.747 249.014 180.366 248.843 180.032C248.68 179.689 248.442 179.421 248.131 179.227C247.82 179.024 247.47 178.923 247.081 178.923C246.692 178.923 246.331 179.024 245.996 179.227C245.67 179.429 245.413 179.713 245.226 180.078C245.04 180.436 244.966 180.864 245.005 181.362C244.966 181.859 245.044 182.295 245.238 182.668C245.44 183.034 245.712 183.318 246.055 183.52C246.405 183.722 246.778 183.823 247.175 183.823C247.634 183.823 248.019 183.714 248.33 183.497C248.641 183.279 248.894 183.007 249.088 182.68L249.835 183.077C249.71 183.357 249.52 183.617 249.263 183.858C249.006 184.092 248.699 184.282 248.341 184.43C247.991 184.57 247.602 184.64 247.175 184.64ZM253.897 184.57C253.337 184.57 252.906 184.407 252.602 184.08C252.299 183.753 252.147 183.287 252.147 182.68V179.122H250.992V178.247H251.284C251.549 178.247 251.759 178.161 251.914 177.99C252.07 177.811 252.147 177.589 252.147 177.325V176.8H253.022V178.247H254.399V179.122H253.022V182.68C253.022 182.89 253.054 183.077 253.116 183.24C253.178 183.396 253.283 183.52 253.431 183.613C253.586 183.707 253.792 183.753 254.049 183.753C254.111 183.753 254.185 183.749 254.271 183.742C254.356 183.734 254.43 183.726 254.492 183.718V184.5C254.399 184.523 254.294 184.539 254.177 184.547C254.061 184.562 253.967 184.57 253.897 184.57Z" fill="#A0A0A0"/>
<path d="M156.082 162.333V152.4H157.496L162.962 159.76L162.229 159.907V152.4H164.042V162.333H162.616L157.229 154.92L157.896 154.773V162.333H156.082ZM169.365 162.493C168.654 162.493 168.005 162.329 167.419 162C166.841 161.671 166.379 161.222 166.032 160.653C165.694 160.085 165.525 159.436 165.525 158.707C165.525 157.978 165.694 157.329 166.032 156.76C166.379 156.191 166.841 155.742 167.419 155.413C167.996 155.085 168.645 154.92 169.365 154.92C170.076 154.92 170.721 155.085 171.299 155.413C171.876 155.742 172.334 156.191 172.672 156.76C173.019 157.32 173.192 157.969 173.192 158.707C173.192 159.436 173.019 160.085 172.672 160.653C172.325 161.222 171.863 161.671 171.285 162C170.707 162.329 170.067 162.493 169.365 162.493ZM169.365 160.893C169.756 160.893 170.099 160.8 170.392 160.613C170.694 160.427 170.93 160.169 171.099 159.84C171.276 159.502 171.365 159.125 171.365 158.707C171.365 158.28 171.276 157.907 171.099 157.587C170.93 157.258 170.694 157 170.392 156.813C170.099 156.618 169.756 156.52 169.365 156.52C168.965 156.52 168.614 156.618 168.312 156.813C168.01 157 167.77 157.258 167.592 157.587C167.423 157.907 167.339 158.28 167.339 158.707C167.339 159.125 167.423 159.502 167.592 159.84C167.77 160.169 168.01 160.427 168.312 160.613C168.614 160.8 168.965 160.893 169.365 160.893ZM177.033 162.333V152.4H178.846V162.333H177.033ZM180.61 162.333V155.08H182.25V156.76L182.064 156.48C182.197 155.956 182.464 155.565 182.864 155.307C183.264 155.049 183.735 154.92 184.277 154.92C184.872 154.92 185.397 155.076 185.85 155.387C186.304 155.698 186.597 156.107 186.73 156.613L186.237 156.653C186.459 156.076 186.792 155.645 187.237 155.36C187.681 155.067 188.192 154.92 188.77 154.92C189.286 154.92 189.744 155.036 190.144 155.267C190.552 155.498 190.872 155.822 191.104 156.24C191.335 156.649 191.45 157.125 191.45 157.667V162.333H189.704V158.08C189.704 157.76 189.646 157.485 189.53 157.253C189.415 157.022 189.255 156.845 189.05 156.72C188.846 156.587 188.597 156.52 188.304 156.52C188.028 156.52 187.784 156.587 187.57 156.72C187.357 156.845 187.192 157.022 187.077 157.253C186.961 157.485 186.904 157.76 186.904 158.08V162.333H185.157V158.08C185.157 157.76 185.099 157.485 184.984 157.253C184.868 157.022 184.704 156.845 184.49 156.72C184.286 156.587 184.041 156.52 183.757 156.52C183.481 156.52 183.237 156.587 183.024 156.72C182.81 156.845 182.646 157.022 182.53 157.253C182.415 157.485 182.357 157.76 182.357 158.08V162.333H180.61ZM195.128 162.493C194.621 162.493 194.181 162.409 193.808 162.24C193.435 162.071 193.146 161.831 192.941 161.52C192.737 161.2 192.635 160.831 192.635 160.413C192.635 160.013 192.723 159.658 192.901 159.347C193.079 159.027 193.355 158.76 193.728 158.547C194.101 158.333 194.572 158.182 195.141 158.093L197.515 157.707V159.04L195.475 159.387C195.128 159.449 194.87 159.56 194.701 159.72C194.532 159.88 194.448 160.089 194.448 160.347C194.448 160.596 194.541 160.796 194.728 160.947C194.923 161.089 195.163 161.16 195.448 161.16C195.812 161.16 196.132 161.085 196.408 160.933C196.692 160.773 196.91 160.556 197.061 160.28C197.221 160.005 197.301 159.702 197.301 159.373V157.507C197.301 157.196 197.177 156.938 196.928 156.733C196.688 156.52 196.368 156.413 195.968 156.413C195.595 156.413 195.261 156.516 194.968 156.72C194.683 156.916 194.475 157.178 194.341 157.507L192.915 156.813C193.057 156.431 193.279 156.102 193.581 155.827C193.892 155.542 194.257 155.32 194.675 155.16C195.092 155 195.546 154.92 196.035 154.92C196.63 154.92 197.155 155.031 197.608 155.253C198.061 155.467 198.412 155.769 198.661 156.16C198.919 156.542 199.048 156.991 199.048 157.507V162.333H197.395V161.093L197.768 161.067C197.581 161.378 197.359 161.64 197.101 161.853C196.843 162.058 196.55 162.218 196.221 162.333C195.892 162.44 195.528 162.493 195.128 162.493ZM204.182 165.267C203.64 165.267 203.138 165.178 202.676 165C202.213 164.822 201.813 164.573 201.476 164.253C201.147 163.942 200.907 163.573 200.756 163.147L202.382 162.533C202.489 162.871 202.698 163.142 203.009 163.347C203.329 163.56 203.72 163.667 204.182 163.667C204.538 163.667 204.849 163.6 205.116 163.467C205.391 163.333 205.605 163.138 205.756 162.88C205.907 162.631 205.982 162.329 205.982 161.973V160.32L206.316 160.72C206.067 161.156 205.733 161.485 205.316 161.707C204.898 161.929 204.422 162.04 203.889 162.04C203.213 162.04 202.609 161.885 202.076 161.573C201.542 161.262 201.125 160.836 200.822 160.293C200.52 159.751 200.369 159.142 200.369 158.467C200.369 157.782 200.52 157.173 200.822 156.64C201.125 156.107 201.538 155.689 202.062 155.387C202.587 155.076 203.182 154.92 203.849 154.92C204.391 154.92 204.867 155.036 205.276 155.267C205.693 155.489 206.04 155.813 206.316 156.24L206.076 156.68V155.08H207.729V161.973C207.729 162.605 207.573 163.169 207.262 163.667C206.96 164.165 206.542 164.556 206.009 164.84C205.485 165.125 204.876 165.267 204.182 165.267ZM204.102 160.427C204.476 160.427 204.8 160.347 205.076 160.187C205.36 160.018 205.582 159.787 205.742 159.493C205.902 159.2 205.982 158.862 205.982 158.48C205.982 158.107 205.898 157.773 205.729 157.48C205.569 157.178 205.347 156.942 205.062 156.773C204.787 156.605 204.467 156.52 204.102 156.52C203.738 156.52 203.409 156.605 203.116 156.773C202.822 156.942 202.591 157.178 202.422 157.48C202.262 157.773 202.182 158.107 202.182 158.48C202.182 158.853 202.262 159.187 202.422 159.48C202.591 159.773 202.818 160.005 203.102 160.173C203.396 160.342 203.729 160.427 204.102 160.427ZM212.8 162.493C212.054 162.493 211.4 162.325 210.84 161.987C210.28 161.649 209.845 161.191 209.534 160.613C209.222 160.036 209.067 159.396 209.067 158.693C209.067 157.965 209.222 157.32 209.534 156.76C209.854 156.191 210.285 155.742 210.827 155.413C211.378 155.085 211.991 154.92 212.667 154.92C213.236 154.92 213.734 155.013 214.16 155.2C214.596 155.387 214.965 155.645 215.267 155.973C215.569 156.302 215.8 156.68 215.96 157.107C216.12 157.525 216.2 157.978 216.2 158.467C216.2 158.591 216.191 158.72 216.174 158.853C216.165 158.987 216.142 159.102 216.107 159.2H210.507V157.867H215.12L214.294 158.493C214.374 158.085 214.351 157.72 214.227 157.4C214.111 157.08 213.916 156.827 213.64 156.64C213.374 156.453 213.049 156.36 212.667 156.36C212.302 156.36 211.978 156.453 211.694 156.64C211.409 156.818 211.191 157.085 211.04 157.44C210.898 157.787 210.845 158.209 210.88 158.707C210.845 159.151 210.902 159.547 211.054 159.893C211.214 160.231 211.445 160.493 211.747 160.68C212.058 160.867 212.414 160.96 212.814 160.96C213.214 160.96 213.551 160.876 213.827 160.707C214.111 160.538 214.334 160.311 214.494 160.027L215.907 160.72C215.765 161.067 215.542 161.373 215.24 161.64C214.938 161.907 214.578 162.116 214.16 162.267C213.751 162.418 213.298 162.493 212.8 162.493Z" fill="#939090"/>
<path d="M201.408 87.1175C195.782 87.1175 190.055 86.889 184.697 85.3966C179.44 83.938 174.614 81.1079 170.312 77.8342C167.495 75.7034 164.934 74.0093 161.277 74.2648C157.699 74.4551 154.277 75.7914 151.516 78.0763C146.865 82.1499 147.564 89.692 149.426 94.9824C152.222 102.962 160.732 108.514 167.966 112.117C176.321 116.291 185.504 118.711 194.706 120.11C202.773 121.333 213.138 122.227 220.129 116.957C226.549 112.117 228.31 101.066 226.737 93.6042C226.356 91.3979 225.182 89.4068 223.436 88.0047C218.926 84.7109 212.197 86.909 207.129 87.0233C205.246 87.0637 203.331 87.1042 201.408 87.1175Z" fill="#F2F2F2"/>
<path d="M187.642 133.184C201.27 133.184 212.319 132.495 212.319 131.644C212.319 130.794 201.27 130.105 187.642 130.105C174.013 130.105 162.965 130.794 162.965 131.644C162.965 132.495 174.013 133.184 187.642 133.184Z" fill="#F2F2F2"/>
<path d="M218.436 66.1514C218.8 66.1514 219.095 65.8565 219.095 65.4927C219.095 65.1289 218.8 64.834 218.436 64.834C218.072 64.834 217.777 65.129 217.777 65.4927C217.777 65.8565 218.072 66.1514 218.436 66.1514Z" fill="#CFCFCF"/>
<path d="M174.616 60.6324C174.98 60.6324 175.274 60.3374 175.274 59.9737C175.274 59.6098 174.979 59.3149 174.616 59.3149C174.252 59.3149 173.957 59.61 173.957 59.9737C173.957 60.3374 174.252 60.6324 174.616 60.6324Z" fill="#CFCFCF"/>
<path d="M182.583 123.357C182.946 123.357 183.241 123.061 183.241 122.698C183.241 122.334 182.946 122.039 182.583 122.039C182.219 122.039 181.924 122.334 181.924 122.698C181.924 123.061 182.219 123.357 182.583 123.357Z" fill="#CFCFCF"/>
<path d="M200.168 57.5V60.3905" stroke="#BABABA" stroke-width="4.07083" stroke-linecap="round" stroke-linejoin="round"/>
<path d="M198.723 58.9453H201.613" stroke="#BABABA" stroke-width="4.07083" stroke-linecap="round" stroke-linejoin="round"/>
<path d="M153.068 69.6665V72.557" stroke="#BABABA" stroke-width="4.07083" stroke-linecap="round" stroke-linejoin="round"/>
<path d="M151.613 71.1123H154.51" stroke="#BABABA" stroke-width="4.07083" stroke-linecap="round" stroke-linejoin="round"/>
<path d="M155.246 109.939V112.836" stroke="#BABABA" stroke-width="4.07083" stroke-linecap="round" stroke-linejoin="round"/>
<path d="M153.799 111.384H156.696" stroke="#BABABA" stroke-width="4.07083" stroke-linecap="round" stroke-linejoin="round"/>
<path d="M214.973 80.3013V83.1917" stroke="#BABABA" stroke-width="4.07083" stroke-linecap="round" stroke-linejoin="round"/>
<path d="M213.527 81.7461H216.418" stroke="#BABABA" stroke-width="4.07083" stroke-linecap="round" stroke-linejoin="round"/>
<path d="M194.828 63.4373L161.087 67.8678C158.901 68.155 157.361 70.1607 157.648 72.3474L162.791 111.511C163.078 113.698 165.083 115.238 167.27 114.951L201.01 110.52C203.197 110.233 204.737 108.228 204.45 106.041L199.308 66.8768C199.02 64.6901 197.015 63.1501 194.828 63.4373Z" fill="#D2D2D2"/>
<path d="M204.655 69.1841H170.574C168.365 69.1841 166.574 70.9748 166.574 73.1838V112.743C166.574 114.952 168.365 116.743 170.574 116.743H204.655C206.864 116.743 208.655 114.952 208.655 112.743V73.1838C208.655 70.9748 206.864 69.1841 204.655 69.1841Z" fill="white" stroke="#BABABA" stroke-width="4.07083" stroke-linecap="round" stroke-linejoin="round"/>
<path d="M171.66 100.481L178.476 89.3689C178.543 89.2066 178.657 89.0679 178.803 88.9701C178.949 88.8724 179.121 88.8204 179.297 88.8204C179.472 88.8204 179.644 88.8726 179.79 88.9701C179.936 89.0679 180.05 89.2066 180.117 89.3689L183.982 95.6675C184.048 95.8304 184.16 95.9698 184.306 96.0681C184.452 96.1663 184.623 96.2188 184.799 96.2188C184.974 96.2188 185.146 96.1663 185.291 96.0681C185.437 95.9698 185.55 95.8303 185.616 95.6675L192.23 84.9121C192.296 84.7492 192.409 84.6098 192.554 84.5115C192.7 84.4133 192.871 84.3608 193.047 84.3608C193.222 84.3608 193.394 84.4134 193.54 84.5115C193.685 84.6098 193.798 84.7493 193.864 84.9121L203.57 100.729L171.66 100.481Z" fill="white" stroke="#BABABA" stroke-width="4.07083" stroke-linecap="round" stroke-linejoin="round"/>
<path d="M185.254 87.8776C186.438 87.8776 187.398 86.9175 187.398 85.7332C187.398 84.549 186.438 83.5889 185.254 83.5889C184.069 83.5889 183.109 84.549 183.109 85.7332C183.109 86.9176 184.069 87.8776 185.254 87.8776Z" fill="white" stroke="#BABABA" stroke-width="4.07083" stroke-linecap="round" stroke-linejoin="round"/>
</g>
<defs>
<clipPath id="clip0_2764_11927">
<rect width="200" height="200" fill="white" transform="translate(88 20)"/>
</clipPath>
</defs>
</svg>
