<svg width="48" height="48" viewBox="0 0 48 48" fill="none" xmlns="http://www.w3.org/2000/svg">
<rect width="48" height="48" rx="8" fill="#F2F2F2"/>
<g clip-path="url(#clip0_875_4597)">
<path d="M35.9173 14.2415L35.8263 24.1562L35.6075 24.6853L22.0283 38.2645L21.4931 38.7997L20.958 38.2645L9.71873 27.0253L9.18359 26.4901L9.71873 25.955L23.2979 12.3758L23.8272 12.157L33.812 12.0654L33.9036 12.1602L35.8255 14.1467L35.9173 14.2415Z" fill="#989898"/>
<path d="M35.9172 14.2414L35.8783 18.4844L35.8263 24.156L35.6075 24.6852L22.0283 38.2644L21.4931 38.7996L20.958 38.2644L9.71873 27.0252L9.18359 26.49L9.71873 25.9549L23.2979 12.3757L23.8272 12.1569L29.4988 12.1049L33.8119 12.0653L33.9036 12.1601L30.1704 15.8934C29.9575 15.8398 29.7393 15.8129 29.5211 15.8129C28.8432 15.8129 28.1653 16.0716 27.648 16.5889L27.6479 16.5889C27.1307 17.1062 26.872 17.7842 26.872 18.462C26.872 19.1399 27.1306 19.8178 27.6479 20.3352L27.648 20.3352L27.648 20.3352C28.1653 20.8525 28.8432 21.1112 29.5211 21.1112C30.199 21.1112 30.8769 20.8525 31.3942 20.3352L31.3943 20.3352C31.9116 19.8179 32.1702 19.1399 32.1702 18.462C32.1702 18.263 32.1479 18.0639 32.1033 17.8688L35.8255 14.1466L35.9172 14.2414Z" fill="#FFD452"/>
<path d="M29.5886 17.3287C29.5664 17.3274 29.5442 17.3268 29.522 17.3268C29.2314 17.3268 28.9408 17.4376 28.7192 17.6592L28.7192 17.6593C28.4976 17.8809 28.3867 18.1715 28.3867 18.4621C28.3867 18.7527 28.4976 19.0433 28.7192 19.2649L28.7192 19.2649L28.7192 19.265C28.9408 19.4866 29.2314 19.5974 29.522 19.5974C29.8126 19.5974 30.1032 19.4866 30.3249 19.265L30.3249 19.2649C30.5465 19.0433 30.6573 18.7527 30.6573 18.4621V18.4611L30.6583 18.4621L38.3764 10.744L37.2748 9.64246L29.5885 17.3287L29.5886 17.3287Z" fill="#616161"/>
<path d="M27.1988 25.4235L29.001 23.6213L28.3817 23.002L27.2607 24.123L23.5449 20.4071L22.8636 21.0884L27.1988 25.4235ZM22.0895 23.3984L24.6101 25.2625L23.9536 25.919L22.0895 23.3984ZM21.8541 22.0978L20.857 23.0949L24.4986 28.1238L25.1241 27.4983L24.4552 26.5941L25.2913 25.758L26.1955 26.4268L26.883 25.7394L21.8541 22.0978ZM19.3645 25.8261L20.5412 24.6494L19.9219 24.0301L18.0639 25.888L22.3991 30.2232L24.2571 28.3653L23.6377 27.746L22.461 28.9227L21.1914 27.6531L22.1266 26.7179L21.5073 26.0986L20.5721 27.0338L19.3645 25.8261ZM17.2217 27.969C17.2929 27.8957 17.3682 27.8471 17.4487 27.8224C17.5282 27.7986 17.6118 27.8038 17.7016 27.8379C17.7904 27.8729 17.8864 27.9401 17.9896 28.0432L20.2439 30.2976C20.3471 30.4008 20.4142 30.4968 20.4493 30.5855C20.4834 30.6753 20.4885 30.7589 20.4648 30.8384C20.44 30.9189 20.3915 30.9943 20.3182 31.0655L19.9342 31.4495L16.8377 28.3529L17.2217 27.969ZM19.8723 32.75L20.9499 31.6724C21.2895 31.3308 21.4516 30.985 21.4382 30.633C21.4237 30.2821 21.242 29.9332 20.8942 29.5854L18.7018 27.393C18.3539 27.0451 18.0051 26.8635 17.6541 26.849C17.3021 26.8356 16.9564 26.9976 16.6147 27.3372L15.5371 28.4148L19.8723 32.75Z" fill="#FFFFFE"/>
</g>
<defs>
<clipPath id="clip0_875_4597">
<rect width="40" height="40" fill="white" transform="translate(4 4)"/>
</clipPath>
</defs>
</svg>
