<svg width="17" height="16" viewBox="0 0 17 16" fill="none" xmlns="http://www.w3.org/2000/svg">
<mask id="mask0_1441_8652" style="mask-type:alpha" maskUnits="userSpaceOnUse" x="0" y="0" width="17" height="16">
<rect x="0.5" width="16" height="16" fill="#D9D9D9"/>
</mask>
<g mask="url(#mask0_1441_8652)">
<path d="M7.53311 13.991C6.80399 13.8696 6.12666 13.6299 5.50111 13.2718C4.87544 12.9137 4.33611 12.4694 3.88311 11.939C3.43011 11.4086 3.07522 10.8063 2.81844 10.132C2.56155 9.45764 2.43311 8.74697 2.43311 7.99997C2.43311 7.05897 2.62972 6.18758 3.02294 5.38581C3.41605 4.58414 3.97799 3.88119 4.70877 3.27697H3.14977V2.41031H6.33311V5.59364H5.46644V3.77814C4.76988 4.28158 4.23461 4.90064 3.86061 5.63531C3.48672 6.36986 3.29977 7.15808 3.29977 7.99997C3.29977 9.26408 3.69744 10.3724 4.49277 11.325C5.28799 12.2775 6.30144 12.8718 7.53311 13.1076V13.991ZM7.64977 10.1691L5.61394 8.13964L6.23311 7.52047L7.64977 8.93714L10.7664 5.83714L11.3856 6.43331L7.64977 10.1691ZM10.6664 13.5961V10.4128H11.5331V12.2281C12.2254 11.7248 12.7596 11.1047 13.1356 10.368C13.5117 9.63119 13.6998 8.84186 13.6998 7.99997C13.6998 6.73586 13.3021 5.62753 12.5068 4.67497C11.7115 3.72242 10.6981 3.12819 9.46644 2.89231V2.00897C10.94 2.25597 12.1584 2.93719 13.1216 4.05264C14.0848 5.16797 14.5664 6.48375 14.5664 7.99997C14.5664 8.94097 14.3698 9.81342 13.9766 10.6173C13.5835 11.4211 13.0216 12.1251 12.2908 12.7295H13.8498V13.5961H10.6664Z" fill="#E91111"/>
</g>
</svg>
