<svg width="17" height="16" viewBox="0 0 17 16" fill="none" xmlns="http://www.w3.org/2000/svg">
<mask id="mask0_1441_8630" style="mask-type:alpha" maskUnits="userSpaceOnUse" x="0" y="0" width="17" height="16">
<rect x="0.5" width="16" height="16" fill="#D9D9D9"/>
</mask>
<g mask="url(#mask0_1441_8630)">
<path d="M8.50094 14.0667C7.66938 14.0667 6.88488 13.9089 6.14744 13.5931C5.40999 13.2773 4.76455 12.8428 4.21111 12.2896C3.65766 11.7364 3.22294 11.0912 2.90694 10.3541C2.59105 9.61697 2.43311 8.83269 2.43311 8.00124C2.43311 7.15858 2.59105 6.3713 2.90694 5.63941C3.22272 4.90752 3.65727 4.26485 4.21061 3.71141C4.76394 3.15797 5.40922 2.72324 6.14644 2.40724C6.88366 2.09135 7.66811 1.93341 8.49977 1.93341C9.17977 1.93341 9.82755 2.03897 10.4431 2.25008C11.0587 2.46119 11.6224 2.76119 12.1344 3.15008L11.5113 3.77324C11.0916 3.45436 10.625 3.21247 10.1114 3.04758C9.59788 2.88258 9.06066 2.80008 8.49977 2.80008C7.05533 2.80008 5.82755 3.30563 4.81644 4.31674C3.80533 5.32786 3.29977 6.55563 3.29977 8.00008C3.29977 9.44452 3.80533 10.6723 4.81644 11.6834C5.82755 12.6945 7.05533 13.2001 8.49977 13.2001C9.94422 13.2001 11.172 12.6945 12.1831 11.6834C13.1942 10.6723 13.6998 9.44452 13.6998 8.00008C13.6998 7.73252 13.6788 7.47035 13.6369 7.21358C13.595 6.9568 13.5378 6.70358 13.4651 6.45391L14.1394 5.77324C14.2839 6.11591 14.3912 6.47402 14.4613 6.84758C14.5314 7.22102 14.5664 7.60519 14.5664 8.00008C14.5664 8.83174 14.4085 9.61619 14.0928 10.3534C13.777 11.0906 13.3425 11.7359 12.7893 12.2892C12.236 12.8426 11.5937 13.2771 10.8621 13.5929C10.1305 13.9088 9.34349 14.0667 8.50094 14.0667ZM7.57027 10.6526L5.11777 8.20008L5.75361 7.56424L7.58694 9.39758L13.9473 3.04374L14.5664 3.66291L7.57027 10.6526Z" fill="#13A422"/>
</g>
</svg>
