<svg width="17" height="16" viewBox="0 0 17 16" fill="none" xmlns="http://www.w3.org/2000/svg">
<mask id="mask0_1441_8608" style="mask-type:alpha" maskUnits="userSpaceOnUse" x="0" y="0" width="17" height="16">
<rect x="0.5" width="16" height="16" fill="#D9D9D9"/>
</mask>
<g mask="url(#mask0_1441_8608)">
<path d="M7.79997 10.1192L11.2358 6.66665L10.623 6.05382L7.79997 8.89365L6.37047 7.46415L5.75763 8.07698L7.79997 10.1192ZM8.49997 14.0538C7.10252 13.6828 5.94208 12.8711 5.01863 11.6187C4.09508 10.3661 3.6333 8.96543 3.6333 7.41665V3.83082L8.49997 1.95898L13.3666 3.83082V7.41665C13.3666 8.96543 12.9049 10.3661 11.9813 11.6187C11.0579 12.8711 9.89741 13.6828 8.49997 14.0538ZM8.49997 13.15C9.65552 12.7917 10.6111 12.075 11.3666 11C12.1222 9.92498 12.5 8.73054 12.5 7.41665V4.41665L8.49997 2.88965L4.49997 4.41665V7.41665C4.49997 8.73054 4.87775 9.92498 5.6333 11C6.38886 12.075 7.34441 12.7917 8.49997 13.15Z" fill="#1A1F24"/>
</g>
</svg>
