<svg width="501" height="300" viewBox="0 0 501 300" fill="none" xmlns="http://www.w3.org/2000/svg">
<ellipse cx="250" cy="261" rx="222" ry="19" fill="#F5F5F5"/>
<path fill-rule="evenodd" clip-rule="evenodd" d="M347.882 191.351L347.535 192.469C351.844 193.763 355.233 196.94 357.714 202.042C359.936 206.616 360.31 211.415 358.859 216.446C358.859 216.446 358.859 217.089 358.859 218.377C359.278 218.379 359.488 218.381 359.488 218.381C361.607 212.491 361.375 206.865 358.786 201.538C356.219 196.257 352.667 192.874 348.14 191.43L347.882 191.351Z" fill="#E2E5EA"/>
<path d="M347.536 194.857C349.506 194.857 351.102 193.287 351.102 191.35C351.102 189.413 349.506 187.843 347.536 187.843C345.567 187.843 343.971 189.413 343.971 191.35C343.971 193.287 345.567 194.857 347.536 194.857Z" fill="#FF6C6C"/>
<path d="M373.942 263.541C419.387 263.541 458.635 241.73 458.635 202.074C458.635 175.637 441.421 159.114 416.633 151.843V150.521C440.044 140.607 451.749 125.406 451.749 105.248C451.749 67.2438 420.764 46.0942 372.565 46.0942C345.711 46.0942 322.989 56.0079 301.643 73.1926L331.251 107.561C345.023 96.325 355.351 90.3768 369.811 90.3768C384.615 90.3768 392.533 96.9861 392.533 109.544C392.533 124.084 381.516 133.337 345.023 133.337V172.993C390.812 172.993 399.419 182.246 399.419 198.109C399.419 211.327 387.025 217.937 367.745 217.937C352.252 217.937 336.416 210.005 322.989 198.109L296.135 233.799C312.66 252.305 338.481 263.541 373.942 263.541Z" fill="url(#paint0_linear_2660_12617)"/>
<path fill-rule="evenodd" clip-rule="evenodd" d="M373.942 263.541C419.387 263.541 458.635 241.73 458.635 202.074C458.635 175.637 441.421 159.114 416.633 151.843V150.521C440.044 140.607 451.749 125.406 451.749 105.248C451.749 67.2438 420.764 46.0942 372.565 46.0942C345.711 46.0942 322.989 56.0079 301.643 73.1926L331.251 107.561C345.023 96.325 355.351 90.3768 369.811 90.3768C384.615 90.3768 392.533 96.9861 392.533 109.544C392.533 124.084 381.516 133.337 345.023 133.337V172.993C390.812 172.993 399.419 182.246 399.419 198.109C399.419 211.327 387.025 217.937 367.745 217.937C352.252 217.937 336.416 210.005 322.989 198.109L296.135 233.799C312.66 252.305 338.481 263.541 373.942 263.541Z" fill="black" fill-opacity="0.5"/>
<path fill-rule="evenodd" clip-rule="evenodd" d="M244.652 115.355C251.454 125.485 254.536 135.488 253.885 145.345C257.48 142.934 261.815 141.948 266.884 142.401L267.266 142.437L267.143 143.6C261.835 143.054 257.374 144.143 253.753 146.886C253.423 150.012 252.716 153.123 251.633 156.218C244.602 176.303 242.448 191.36 244.742 205.466C246.27 214.859 249.409 224.742 254.16 235.112L254.487 235.82L253.406 236.306C248.429 225.585 245.149 215.367 243.569 205.651C241.24 191.33 243.42 176.089 250.509 155.837C251.418 153.239 252.055 150.63 252.418 148.009C248.477 151.664 245.658 157.536 243.947 165.652C240.76 180.776 241.459 200.49 246.054 224.787C246.294 225.3 246.537 225.819 246.785 226.341L247.051 226.896L246.449 226.837C246.554 227.373 246.661 227.911 246.769 228.451L247.096 230.049L245.931 230.281C245.683 229.081 245.444 227.892 245.215 226.713L241.476 226.341C242.783 222.208 243.365 221.863 242.821 220.497C236.301 204.137 233.622 193.699 235.025 185.588L235.075 185.307C236.741 176.361 236.766 164.593 235.145 150.01L235.069 149.335L236.25 149.205L236.401 150.56C237.934 164.711 237.909 176.22 236.321 185.097L236.244 185.518C234.772 193.42 237.364 205.035 244.041 220.328C240.19 198.023 239.768 179.721 242.783 165.414C244.679 156.42 247.962 150.028 252.618 146.277C253.526 136.486 250.634 126.536 243.931 116.407L243.66 116L244.652 115.355Z" fill="#E2E5EA"/>
<path d="M248.591 44.3403C261.71 44.3403 273.576 46.6393 284.187 51.2372C294.798 55.8352 304.252 62.832 312.548 72.2278C320.845 81.4231 327.066 92.7684 331.215 106.262C335.363 119.756 337.437 135.399 337.437 153.191C337.437 172.582 335.363 189.325 331.215 203.418C327.066 217.511 320.941 228.956 312.838 237.752C304.734 246.348 295.522 252.796 285.2 257.094C274.878 261.392 263.447 263.54 250.906 263.54C236.051 263.54 223.028 261.092 211.837 256.194C200.648 251.296 191.387 243.949 184.055 234.154C176.531 224.159 170.936 212.414 167.27 198.92C163.605 185.426 161.771 170.183 161.771 153.191V152.591V151.736C161.839 134.098 163.961 118.591 168.138 105.212C172.383 91.6186 178.749 80.3242 187.238 71.3282C195.728 62.3323 205.085 55.585 215.31 51.087C225.536 46.589 236.629 44.3403 248.591 44.3403ZM250.906 86.9207H248.591L248.24 86.923C242.99 86.9914 238.525 88.5895 234.845 91.7185C231.083 94.9171 228.044 99.7149 225.729 106.112C223.413 112.709 221.677 119.906 220.519 127.702L220.402 128.511C219.361 135.815 218.823 143.725 218.785 152.242L218.783 152.834L218.785 153.48C218.814 163.819 219.361 173.085 220.427 181.278L220.519 181.978C221.677 190.574 223.51 198.07 226.018 204.467C228.333 211.064 231.372 215.962 235.134 219.161C238.897 222.359 243.382 223.959 248.591 223.959C255.344 223.959 260.842 222.409 265.087 219.311C269.332 216.212 272.129 211.564 273.479 205.367C275.023 199.17 276.18 191.723 276.952 183.027C277.724 174.331 278.11 164.385 278.11 153.191C278.11 143.195 277.628 134.149 276.663 126.053C275.698 117.956 274.155 110.91 272.033 104.913C270.103 98.9153 267.354 94.4173 263.785 91.4187C260.215 88.42 255.923 86.9207 250.906 86.9207Z" fill="url(#paint1_linear_2660_12617)"/>
<path fill-rule="evenodd" clip-rule="evenodd" d="M248.591 44.3403C261.71 44.3403 273.576 46.6393 284.187 51.2372C294.798 55.8352 304.252 62.832 312.548 72.2278C320.845 81.4231 327.066 92.7684 331.215 106.262C335.363 119.756 337.437 135.399 337.437 153.191C337.437 172.582 335.363 189.325 331.215 203.418C327.066 217.511 320.941 228.956 312.838 237.752C304.734 246.348 295.522 252.796 285.2 257.094C274.878 261.392 263.447 263.54 250.906 263.54C236.051 263.54 223.028 261.092 211.837 256.194C200.648 251.296 191.387 243.949 184.055 234.154C176.531 224.159 170.936 212.414 167.27 198.92C163.605 185.426 161.771 170.183 161.771 153.191V152.591V151.736C161.839 134.098 163.961 118.591 168.138 105.212C172.383 91.6186 178.749 80.3242 187.238 71.3282C195.728 62.3323 205.085 55.585 215.31 51.087C225.536 46.589 236.629 44.3403 248.591 44.3403ZM250.906 86.9207H248.591L248.24 86.923C242.99 86.9914 238.525 88.5895 234.845 91.7185C231.083 94.9171 228.044 99.7149 225.729 106.112C223.413 112.709 221.677 119.906 220.519 127.702L220.402 128.511C219.361 135.815 218.823 143.725 218.785 152.242L218.783 152.834L218.785 153.48C218.814 163.819 219.361 173.085 220.427 181.278L220.519 181.978C221.677 190.574 223.51 198.07 226.018 204.467C228.333 211.064 231.372 215.962 235.134 219.161C238.897 222.359 243.382 223.959 248.591 223.959C255.344 223.959 260.842 222.409 265.087 219.311C269.332 216.212 272.129 211.564 273.479 205.367C275.023 199.17 276.18 191.723 276.952 183.027C277.724 174.331 278.11 164.385 278.11 153.191C278.11 143.195 277.628 134.149 276.663 126.053C275.698 117.956 274.155 110.91 272.033 104.913C270.103 98.9153 267.354 94.4173 263.785 91.4187C260.215 88.42 255.923 86.9207 250.906 86.9207Z" fill="black" fill-opacity="0.2"/>
<path d="M180.111 50.77V178.389H212.234V218.626H180.111V263.302H123.389V218.626H27.5977V180.791L113.543 50.77H180.111ZM125.415 105.121L79.9789 178.389H125.415V105.121Z" fill="url(#paint2_linear_2660_12617)"/>
<path d="M274.379 203.567C276.473 190.971 292.411 176.176 303.535 167.536C319.287 155.3 294.983 131.448 296.433 110.942C297.883 90.4367 270.492 125.048 273.215 143.591C275.937 162.134 274.801 166.718 252.64 177.926C243.177 182.712 237.571 195.646 245.869 223.778C249.105 224.429 261.845 224.429 268.657 216.038C271.635 212.37 274.163 204.867 274.379 203.567Z" fill="url(#paint3_linear_2660_12617)"/>
<path d="M274.379 203.567C276.473 190.971 292.411 176.176 303.535 167.536C319.287 155.3 294.983 131.447 296.433 110.942C297.883 90.4371 270.492 125.048 273.215 143.591C275.937 162.134 274.801 166.719 252.64 177.926C243.177 182.712 237.571 195.646 245.869 223.778C249.105 224.429 261.845 224.429 268.657 216.038C271.635 212.37 274.163 204.867 274.379 203.567Z" fill="white" fill-opacity="0.5"/>
<path d="M288.222 115.17C288.207 114.758 288.532 114.409 288.948 114.388C289.365 114.37 289.714 114.687 289.729 115.099C290.832 145.745 286.943 164.497 277.88 171.42C262.743 182.984 252.838 202.757 254.876 223.243C254.885 223.337 254.899 223.477 254.919 223.665L253.432 223.955C253.416 223.809 253.404 223.7 253.397 223.627C251.234 202.738 261.169 182.577 276.481 170.62L276.967 170.244C285.495 163.729 289.307 145.349 288.222 115.17Z" fill="#FFA6A0" fill-opacity="0.6"/>
<path d="M102.331 163.553C100.098 152.514 85.5921 139.962 75.5206 132.688C61.258 122.387 81.9482 100.612 80.0391 82.5798C78.1294 64.5481 103.34 94.2162 101.512 110.646C99.6829 127.076 100.825 131.083 120.706 140.281C122.445 141.085 124.067 142.317 125.429 143.803C125.429 143.803 125.407 158.366 125.434 178.377C124.918 178.81 114.023 181.558 107.76 174.371C105.022 171.229 102.562 164.693 102.331 163.553Z" fill="url(#paint4_linear_2660_12617)"/>
<path d="M102.331 163.552C100.098 152.514 85.5921 139.962 75.5206 132.688C61.258 122.386 81.9482 100.611 80.0391 82.5791C78.1294 64.548 103.34 94.2154 101.512 110.646C99.6829 127.076 100.825 131.083 120.706 140.28C122.445 141.085 124.067 142.317 125.429 143.803C125.429 143.803 125.407 158.366 125.434 178.377C124.918 178.81 114.023 181.558 107.76 174.37C105.022 171.229 102.562 164.692 102.331 163.552Z" fill="white" fill-opacity="0.5"/>
<path d="M87.636 86.0911C87.6366 85.7281 87.3384 85.4305 86.9714 85.4258C86.6037 85.4218 86.3048 85.7123 86.3048 86.0753C86.2763 113.126 90.2822 129.536 98.4837 135.36C112.824 145.543 122.387 163.83 120.126 182.881C120.083 183.241 120.345 183.571 120.709 183.617C121.075 183.663 121.405 183.409 121.448 183.048C123.747 163.683 114.164 145.12 99.6931 134.611L99.253 134.295C91.5342 128.815 87.6079 112.729 87.636 86.0911Z" fill="#FEBAB5" fill-opacity="0.3"/>
<path fill-rule="evenodd" clip-rule="evenodd" d="M98.7466 170.601C105.401 170.601 114.205 172.947 125.176 177.633L125.454 177.766L125.417 178.389L124.078 178.641C113.478 174.157 105.109 171.77 98.7466 171.77C92.343 171.77 85.1936 175.02 77.3082 181.552L76.9546 181.847L76.1836 180.957C84.4051 174.064 91.9222 170.601 98.7466 170.601Z" fill="#E2E5EA"/>
<path d="M106.972 178.975C112.189 176.905 118.373 176.71 125.523 178.389C124.78 178.733 124.231 178.969 123.876 179.099C115.491 182.16 109.824 184.452 106.839 186.212C103.664 188.084 97.1438 188.985 87.2775 188.916C95.1897 184.359 101.754 181.045 106.972 178.975ZM79.3915 100.474C83.6241 109.24 85.5496 115.434 85.1667 119.055C84.799 122.532 85.0095 128.804 85.7974 137.869C90.151 142.206 93.7506 146.123 96.5961 149.622C94.3643 145.767 93.1468 141.943 92.9428 138.15C92.6446 132.624 92.9235 125.371 93.7786 116.391C98.0118 125.158 99.9367 131.352 99.5544 134.972C99.1809 138.502 99.403 144.91 100.221 154.197C102.909 157.438 105.918 160.539 108.95 163.248C106.104 158.861 104.564 154.512 104.332 150.203C104.034 144.677 104.313 137.424 105.168 128.445C109.401 137.212 111.326 143.405 110.943 147.026C110.581 150.455 110.78 156.601 111.541 165.463C116.74 169.706 121.756 172.574 125.077 172.779L125.419 172.791L125.414 174.715C125.018 174.713 124.602 174.677 124.169 174.61L124.197 174.631C114.343 173.944 107.579 173.82 103.906 174.26C100.232 174.7 93.9026 172.914 84.9177 168.904C94.03 167.907 101.397 167.506 107.019 167.702C108.761 167.763 110.512 168.026 112.273 168.493C110.142 166.887 107.968 165.036 105.84 163.021C97.3642 160.667 91.4089 159.341 87.9742 159.042C84.2882 158.72 78.4744 155.679 70.5329 149.919C79.6575 150.807 86.9484 151.922 92.4062 153.263C94.8127 153.856 97.1514 154.853 99.4235 156.256C98.6525 155.35 97.9037 154.431 97.183 153.505L96.7153 152.897C95.6322 151.476 94.4076 149.974 93.0398 148.393C84.5389 146.032 78.5691 144.701 75.1279 144.401C71.4419 144.08 65.6281 141.039 57.6866 135.279C66.8112 136.166 74.1021 137.281 79.5604 138.623C82.1593 139.262 84.6804 140.375 87.1226 141.961C83.7667 138.498 79.8743 134.734 75.4471 130.669C68.3111 127.186 62.0963 123.747 56.8011 120.351C50.5992 116.372 44.7269 111.856 39.1855 106.801C52.6965 109.197 62.2676 113.48 67.8984 119.652C70.9725 123.022 73.4912 125.825 75.4535 128.061L75.3956 128.008C78.1991 130.557 80.8008 132.994 83.2009 135.319C80.3367 130.917 78.7883 126.554 78.555 122.232C78.2575 116.706 78.5363 109.453 79.3915 100.474Z" fill="#679368"/>
<path d="M106.974 178.975C112.191 176.905 118.375 176.71 125.525 178.39C124.782 178.733 124.233 178.97 123.878 179.1C115.493 182.161 109.825 184.452 106.841 186.212C103.666 188.084 97.1458 188.985 87.2794 188.916C95.1917 184.359 101.756 181.045 106.974 178.975ZM79.3935 100.474C83.6261 109.241 85.5515 115.435 85.1687 119.055C84.801 122.533 85.0114 128.804 85.7994 137.869C90.153 142.206 93.752 146.123 96.598 149.622C94.3663 145.767 93.1487 141.943 92.9447 138.15C92.6466 132.624 92.9254 125.371 93.7806 116.392C98.0138 125.158 99.9387 131.352 99.5558 134.973C99.1829 138.502 99.405 144.91 100.223 154.198C102.911 157.438 105.92 160.539 108.952 163.249C106.105 158.861 104.566 154.513 104.334 150.203C104.036 144.677 104.314 137.424 105.17 128.445C109.403 137.212 111.328 143.406 110.945 147.026C110.583 150.455 110.782 156.601 111.543 165.464C116.742 169.706 121.758 172.574 125.079 172.78L125.421 172.792L125.416 174.716C125.02 174.713 124.604 174.678 124.17 174.611L124.199 174.632C114.345 173.945 107.581 173.821 103.908 174.26C100.234 174.7 93.9045 172.915 84.9196 168.905C94.0319 167.907 101.399 167.506 107.021 167.703C108.763 167.763 110.514 168.027 112.275 168.493C110.144 166.887 107.97 165.036 105.842 163.022C97.3661 160.668 91.4109 159.341 87.9762 159.042C84.2895 158.721 78.4757 155.68 70.5349 149.92C79.6594 150.807 86.9503 151.922 92.4081 153.264C94.8146 153.856 97.1533 154.853 99.4254 156.257C98.6544 155.351 97.9056 154.432 97.1849 153.505L96.7167 152.898C95.6341 151.477 94.409 149.975 93.0417 148.394C84.5409 146.032 78.571 144.701 75.1299 144.401C71.4438 144.08 65.63 141.04 57.6886 135.28C66.8131 136.167 74.104 137.282 79.5618 138.624C82.1612 139.263 84.6817 140.376 87.1245 141.961C83.7687 138.499 79.8763 134.734 75.449 130.67C68.3131 127.187 62.0977 123.747 56.803 120.351C50.6011 116.373 44.7289 111.857 39.1875 106.802C52.6984 109.197 62.269 113.481 67.9004 119.653C70.9744 123.023 73.4932 125.825 75.4549 128.061L75.3976 128.008C78.201 130.558 80.8028 132.995 83.2029 135.32C80.3381 130.917 78.7902 126.555 78.557 122.232C78.2595 116.706 78.5377 109.453 79.3935 100.474Z" fill="white" fill-opacity="0.12"/>
<path d="M247.358 207.678C247.682 212.778 246.256 218.181 243.106 223.84L243.084 223.834C243.026 223.816 242.864 223.767 242.683 223.709L242.543 223.663C242.305 223.585 242.072 223.496 242.072 223.496C241.775 214.736 241.259 208.661 240.516 205.315C239.717 201.718 240.875 195.238 243.989 185.876C245.878 194.809 247.001 202.076 247.358 207.678ZM336.639 203.451C326.993 204.767 320.507 204.684 317.182 203.201C313.989 201.777 307.96 200.04 299.095 197.988C293.627 200.787 288.791 203 284.584 204.625C288.937 203.695 292.949 203.719 296.619 204.696C301.966 206.12 308.779 208.627 317.054 212.215C307.409 213.532 300.923 213.449 297.598 211.966C294.355 210.52 288.191 208.751 279.104 206.659C275.109 208.237 271.155 210.159 267.593 212.221C272.728 210.816 277.408 210.677 281.636 211.803C286.984 213.228 293.795 215.734 302.071 219.322C292.425 220.639 285.94 220.556 282.614 219.073C279.453 217.663 273.513 215.946 264.794 213.921C259.241 217.464 255.045 221.243 253.833 224.312C253.325 224.37 252.951 224.409 252.713 224.43C252.471 224.451 252.124 224.474 251.673 224.499C251.814 224.073 252.004 223.635 252.24 223.188L252.181 223.23C255.88 214.071 258.087 207.676 258.805 204.046C259.522 200.417 263.175 194.948 269.766 187.642C267.899 196.617 266.004 203.748 264.079 209.034C263.473 210.699 262.665 212.308 261.655 213.863C263.869 212.295 266.337 210.761 268.946 209.328C273.822 201.967 276.936 196.697 278.285 193.515C279.73 190.108 284.418 185.519 292.35 179.746C288.686 188.15 285.373 194.74 282.41 199.516C281.102 201.625 279.427 203.544 277.386 205.273C278.49 204.815 279.599 204.384 280.705 203.985L281.428 203.727C283.114 203.137 284.92 202.436 286.847 201.624C291.72 194.269 294.83 189.002 296.178 185.822C297.623 182.415 302.311 177.826 310.244 172.053C306.58 180.457 303.266 187.047 300.304 191.822C298.892 194.098 297.055 196.152 294.79 197.985C299.12 195.864 303.902 193.326 309.136 190.372C314.655 184.66 319.848 179.811 324.715 175.824C330.415 171.155 335.553 166.761 340.13 162.644C335.62 175.162 329.56 183.145 321.95 186.594C317.8 188.474 314.36 190.001 311.629 191.176L311.687 191.142C308.397 193.02 305.276 194.741 302.324 196.306C307.395 194.942 312.021 194.818 316.203 195.932C321.551 197.356 328.363 199.862 336.639 203.451Z" fill="#679368"/>
<path d="M247.358 207.678C247.682 212.778 246.256 218.182 243.106 223.841L243.084 223.834C243.026 223.817 242.864 223.767 242.683 223.709L242.543 223.663C242.305 223.585 242.072 223.496 242.072 223.496C241.775 214.736 241.259 208.661 240.516 205.316C239.717 201.718 240.875 195.238 243.989 185.876C245.878 194.809 247.001 202.077 247.358 207.678ZM336.639 203.451C326.993 204.768 320.507 204.685 317.182 203.202C313.989 201.778 307.96 200.04 299.095 197.988C293.627 200.788 288.791 203 284.584 204.625C288.937 203.695 292.949 203.719 296.619 204.697C301.966 206.121 308.779 208.628 317.054 212.215C307.409 213.532 300.923 213.449 297.598 211.966C294.355 210.52 288.191 208.751 279.104 206.659C275.109 208.238 271.155 210.159 267.593 212.221C272.728 210.817 277.408 210.678 281.636 211.803C286.984 213.228 293.795 215.734 302.071 219.323C292.425 220.639 285.94 220.556 282.614 219.073C279.453 217.663 273.513 215.946 264.794 213.922C259.241 217.464 255.045 221.244 253.833 224.313C253.325 224.37 252.951 224.409 252.713 224.43C252.471 224.451 252.124 224.474 251.673 224.5C251.814 224.074 252.004 223.636 252.24 223.188L252.181 223.23C255.88 214.071 258.087 207.676 258.805 204.047C259.522 200.417 263.175 194.949 269.766 187.643C267.899 196.618 266.004 203.748 264.079 209.034C263.473 210.699 262.665 212.308 261.655 213.863C263.869 212.295 266.337 210.762 268.946 209.328C273.822 201.968 276.936 196.697 278.285 193.516C279.73 190.109 284.418 185.519 292.35 179.747C288.686 188.15 285.373 194.74 282.41 199.516C281.102 201.625 279.427 203.544 277.386 205.273C278.49 204.816 279.599 204.385 280.705 203.985L281.428 203.728C283.114 203.138 284.92 202.436 286.847 201.624C291.72 194.269 294.83 189.002 296.178 185.822C297.623 182.415 302.311 177.826 310.244 172.053C306.58 180.457 303.266 187.047 300.304 191.823C298.892 194.098 297.055 196.152 294.79 197.986C299.12 195.864 303.902 193.326 309.136 190.372C314.655 184.661 319.848 179.811 324.715 175.824C330.415 171.155 335.553 166.761 340.13 162.644C335.62 175.162 329.56 183.146 321.95 186.594C317.8 188.474 314.36 190.001 311.629 191.176L311.687 191.143C308.397 193.021 305.276 194.742 302.324 196.306C307.395 194.942 312.021 194.818 316.203 195.932C321.551 197.357 328.363 199.863 336.639 203.451Z" fill="white" fill-opacity="0.15"/>
<path d="M395.917 125.575C394.692 135.233 392.933 141.476 390.64 144.305C388.438 147.021 385.199 152.394 380.924 160.425C382.212 166.431 383.097 171.675 383.578 176.158C383.806 171.713 384.868 167.845 386.762 164.554C389.522 159.757 393.706 153.826 399.314 146.761C398.089 156.419 396.33 162.662 394.037 165.49C391.801 168.248 388.496 173.747 384.121 181.985C384.614 186.352 385.448 190.822 386.522 194.946C386.436 189.447 387.512 184.754 389.749 180.866C392.509 176.069 396.693 170.138 402.301 163.073C401.076 172.731 399.317 178.974 397.024 181.802C394.827 184.511 391.599 189.865 387.339 197.863C389.101 203.716 391.338 208.56 393.716 210.906L393.699 210.921C393.637 210.972 393.418 211.154 393.192 211.333C392.923 211.548 392.643 211.758 392.643 211.758L392.611 211.726C392.532 211.742 392.455 211.737 392.416 211.713C384.918 206.092 379.562 202.492 376.347 200.912C373.027 199.28 368.69 194.335 363.339 186.078C371.525 190.204 377.922 193.881 382.53 197.108C383.96 198.109 385.288 199.287 386.513 200.64C385.585 198.105 384.753 195.339 384.054 192.461C378.217 185.858 373.937 181.493 371.217 179.369C368.3 177.092 365.08 171.376 361.557 162.22C368.726 167.933 374.234 172.839 378.08 176.938C379.778 178.746 381.198 180.859 382.339 183.277C382.184 182.093 382.056 180.912 381.956 179.741L381.894 178.976C381.761 177.195 381.551 175.269 381.266 173.198C375.422 166.588 371.139 162.22 368.417 160.094C365.5 157.817 362.28 152.101 358.757 142.945C365.926 148.658 371.434 153.564 375.281 157.663C377.113 159.615 378.622 161.922 379.807 164.585C378.878 159.853 377.664 154.576 376.165 148.756C372.077 141.946 368.737 135.675 366.145 129.942C363.11 123.228 360.197 117.128 357.404 111.641C368.329 119.238 374.472 127.158 375.832 135.401C376.575 139.897 377.16 143.616 377.588 146.559L377.57 146.491C378.532 150.154 379.387 153.615 380.133 156.871C380.129 151.62 381.207 147.119 383.365 143.368C386.125 138.571 390.309 132.64 395.917 125.575Z" fill="#679368"/>
<path d="M395.915 125.576C394.69 135.233 392.931 141.477 390.638 144.305C388.436 147.021 385.198 152.394 380.922 160.426C382.21 166.432 383.095 171.675 383.576 176.159C383.805 171.713 384.866 167.845 386.76 164.554C389.52 159.757 393.704 153.826 399.312 146.761C398.087 156.419 396.328 162.662 394.035 165.491C391.799 168.248 388.494 173.747 384.12 181.986C384.612 186.352 385.446 190.822 386.52 194.946C386.434 189.448 387.51 184.754 389.747 180.866C392.507 176.069 396.691 170.138 402.299 163.073C401.074 172.731 399.315 178.974 397.022 181.803C394.825 184.511 391.598 189.865 387.337 197.863C389.099 203.717 391.336 208.56 393.714 210.906L393.697 210.921C393.635 210.973 393.416 211.154 393.19 211.334C392.921 211.548 392.641 211.758 392.641 211.758L392.609 211.725C392.53 211.742 392.453 211.738 392.414 211.713C384.916 206.092 379.56 202.492 376.345 200.912C373.025 199.28 368.689 194.335 363.337 186.078C371.523 190.204 377.92 193.881 382.529 197.108C383.958 198.109 385.286 199.287 386.511 200.64C385.583 198.106 384.752 195.339 384.052 192.462C378.215 185.857 373.935 181.494 371.215 179.37C368.298 177.092 365.078 171.376 361.555 162.22C368.724 167.933 374.232 172.839 378.078 176.938C379.776 178.747 381.196 180.86 382.337 183.277C382.182 182.094 382.054 180.912 381.954 179.741L381.893 178.976C381.759 177.195 381.549 175.269 381.264 173.199C375.42 166.588 371.137 162.22 368.415 160.094C365.498 157.817 362.279 152.101 358.756 142.945C365.924 148.658 371.432 153.564 375.279 157.663C377.111 159.615 378.62 161.923 379.805 164.585C378.876 159.853 377.662 154.576 376.164 148.756C372.075 141.947 368.735 135.676 366.143 129.942C363.109 123.228 360.195 117.128 357.402 111.642C368.327 119.238 374.47 127.157 375.83 135.401C376.573 139.897 377.158 143.616 377.586 146.559L377.568 146.491C378.53 150.155 379.385 153.615 380.131 156.871C380.127 151.62 381.205 147.119 383.363 143.368C386.123 138.572 390.307 132.641 395.915 125.576Z" fill="white" fill-opacity="0.15"/>
<path fill-rule="evenodd" clip-rule="evenodd" d="M210.551 140.942C220.864 155.723 226.086 168.971 226.196 180.695L226.198 181.072C226.198 191.773 231.249 204.62 241.37 219.597L241.475 221.863C229.186 204.402 225.125 192.742 225.011 181.428L225.01 181.072C225.01 169.646 219.979 156.645 209.898 142.075L209.57 141.604L210.551 140.942Z" fill="#E2E5EA"/>
<path d="M209.571 143.127C211.54 143.127 213.137 141.557 213.137 139.62C213.137 137.683 211.54 136.113 209.571 136.113C207.602 136.113 206.006 137.683 206.006 139.62C206.006 141.557 207.602 143.127 209.571 143.127ZM235.565 152.187C237.534 152.187 239.13 150.617 239.13 148.68C239.13 146.743 237.534 145.173 235.565 145.173C233.595 145.173 231.999 146.743 231.999 148.68C231.999 150.617 233.595 152.187 235.565 152.187ZM267.748 146.634C269.718 146.634 271.313 145.064 271.313 143.127C271.313 141.19 269.718 139.62 267.748 139.62C265.779 139.62 264.183 141.19 264.183 143.127C264.183 145.064 265.779 146.634 267.748 146.634ZM245.04 118.863C247.01 118.863 248.606 117.292 248.606 115.356C248.606 113.419 247.01 111.849 245.04 111.849C243.071 111.849 241.475 113.419 241.475 115.356C241.475 117.292 243.071 118.863 245.04 118.863Z" fill="#FF6C6C"/>
<path fill-rule="evenodd" clip-rule="evenodd" d="M202.018 187.831C203.881 188.926 205.651 188.981 209.933 188.379L211.607 188.141C211.963 188.092 212.254 188.055 212.57 188.018C215.19 187.712 217.136 187.772 218.969 188.364C222.864 189.623 229.079 199.899 237.929 219.459L238.937 221.729C238.511 221.497 238.192 221.318 237.98 221.194C237.788 221.081 237.502 220.904 237.12 220.661C228.318 201.141 222.042 190.588 218.598 189.475C217.03 188.969 215.322 188.897 213.015 189.145L212.71 189.179C212.248 189.233 211.836 189.288 211.183 189.381L210.085 189.539C205.623 190.165 203.666 190.118 201.539 188.91L201.408 188.835L202.018 187.831Z" fill="#E2E5EA"/>
<path d="M202.441 192.427C204.41 192.427 206.006 190.857 206.006 188.92C206.006 186.983 204.41 185.413 202.441 185.413C200.471 185.413 198.875 186.983 198.875 188.92C198.875 190.857 200.471 192.427 202.441 192.427Z" fill="#FF6C6C"/>
<path fill-rule="evenodd" clip-rule="evenodd" d="M112.3 108.048C117.732 115.818 119.705 126.647 118.246 140.52L118.194 141.006C117.126 150.68 119.423 160.364 125.095 170.064C125.185 170.217 125.291 170.412 125.415 170.652V172.916C125.23 172.584 125.084 172.333 124.978 172.161C118.608 161.892 115.933 151.603 116.967 141.304L117.012 140.879C118.523 127.19 116.678 116.56 111.504 108.977L111.32 108.71L112.3 108.048Z" fill="#E2E5EA"/>
<path fill-rule="evenodd" clip-rule="evenodd" d="M136.328 95.2261C138.131 104.534 135.528 115.229 128.552 127.31L128.308 127.732C121.606 139.201 120.662 153.269 125.417 169.897C125.417 169.897 125.419 170.256 125.423 170.972L124.62 171.253C119.069 153.51 120.081 139.734 127.066 127.506L127.279 127.136C134.228 115.244 136.866 104.783 135.224 95.751L135.164 95.433L136.328 95.2261Z" fill="#E2E5EA"/>
<path d="M111.319 111.555C113.288 111.555 114.885 109.985 114.885 108.047C114.885 106.11 113.288 104.54 111.319 104.54C109.35 104.54 107.754 106.11 107.754 108.047C107.754 109.985 109.35 111.555 111.319 111.555ZM136.723 98.408C138.693 98.408 140.289 96.8379 140.289 94.9008C140.289 92.9636 138.693 91.3936 136.723 91.3936C134.755 91.3936 133.158 92.9636 133.158 94.9008C133.158 96.8379 134.755 98.408 136.723 98.408ZM76.1809 185.354C78.1502 185.354 79.7465 183.784 79.7465 181.847C79.7465 179.911 78.1502 178.34 76.1809 178.34C74.2116 178.34 72.6152 179.911 72.6152 181.847C72.6152 183.784 74.2116 185.354 76.1809 185.354Z" fill="#FF6C6C"/>
<path fill-rule="evenodd" clip-rule="evenodd" d="M405.073 185.482L405.42 186.6C401.111 187.894 397.721 191.071 395.241 196.174C393.019 200.747 392.645 205.546 394.096 210.577C394.096 210.577 393.595 211.038 392.903 211.559C391.196 206.073 391.744 200.66 394.169 195.67C396.736 190.388 400.288 187.005 404.816 185.561L405.073 185.482Z" fill="#E2E5EA"/>
<path fill-rule="evenodd" clip-rule="evenodd" d="M389.915 159.078L393.855 145.98C394.642 143.345 395.259 141.23 395.79 139.338L396.156 138.021L396.414 137.073C397.995 131.193 398.617 127.627 398.234 126.355L398.213 126.29L399.329 125.918C399.869 127.459 399.254 131.085 397.564 137.367L397.153 138.868C396.57 140.973 395.891 143.31 394.99 146.328L391.049 159.426L390.173 162.398C388.262 168.942 386.91 173.993 385.926 178.421L385.68 179.558C384.6 184.644 384.142 188.497 384.367 191.076C385.086 199.339 388.034 206.087 393.193 211.333C392.747 211.674 392.663 211.746 392.243 212.041C386.946 206.607 383.927 199.638 383.189 191.159C382.941 188.308 383.467 184.108 384.685 178.542L384.919 177.494C386.046 172.534 387.625 166.784 389.915 159.078Z" fill="#E2E5EA"/>
<path d="M399.947 128.506C401.916 128.506 403.512 126.935 403.512 124.998C403.512 123.061 401.916 121.491 399.947 121.491C397.977 121.491 396.381 123.061 396.381 124.998C396.381 126.935 397.977 128.506 399.947 128.506ZM407.077 190.599C409.047 190.599 410.643 189.029 410.643 187.092C410.643 185.155 409.047 183.584 407.077 183.584C405.108 183.584 403.512 185.155 403.512 187.092C403.512 189.029 405.108 190.599 407.077 190.599Z" fill="#FF6C6C"/>
<path d="M215.299 190.818C215.917 190.818 216.421 191.315 216.429 191.934L217.217 252.616H220.272V277.605C220.272 277.772 218.146 277.908 215.487 277.914L215.3 277.914C212.554 277.914 210.328 277.776 210.328 277.605V252.616H213.38L214.169 191.934C214.177 191.315 214.681 190.818 215.299 190.818ZM288.267 190.818C288.886 190.818 289.389 191.315 289.397 191.934L290.186 252.616H293.231V277.605C293.231 277.772 291.105 277.908 288.446 277.914L288.259 277.914C285.514 277.914 283.287 277.776 283.287 277.605V252.616H286.349L287.138 191.934C287.146 191.315 287.649 190.818 288.267 190.818Z" fill="#FF541E"/>
<path d="M209.766 247.67C209.766 247.358 210.017 247.105 210.327 247.105H292.329C292.639 247.105 292.89 247.358 292.89 247.67C292.89 247.981 292.639 248.234 292.329 248.234H210.327C210.017 248.234 209.766 247.981 209.766 247.67Z" fill="#FF541E"/>
<path fill-rule="evenodd" clip-rule="evenodd" d="M288.267 190.818C288.885 190.818 289.388 191.315 289.397 191.934L290.113 247.105L292.329 247.105C292.639 247.105 292.89 247.358 292.89 247.67C292.89 247.982 292.639 248.234 292.329 248.234L290.128 248.234L290.185 252.616H293.231V277.605C293.231 277.772 291.105 277.908 288.445 277.914L288.259 277.914C285.513 277.914 283.287 277.776 283.287 277.605V252.616H286.348L286.405 248.234H217.159L217.216 252.616H220.271V277.605C220.271 277.772 218.146 277.908 215.486 277.914L215.299 277.914C212.553 277.914 210.327 277.776 210.327 277.605V252.616H213.379L213.436 248.234L210.327 248.234C210.017 248.234 209.766 247.982 209.766 247.67C209.766 247.358 210.017 247.105 210.327 247.105L213.451 247.105L214.168 191.934C214.177 191.315 214.68 190.818 215.298 190.818C215.917 190.818 216.42 191.315 216.428 191.934L217.144 247.105H286.42L287.137 191.934C287.145 191.315 287.648 190.818 288.267 190.818Z" fill="black" fill-opacity="0.4"/>
<path fill-rule="evenodd" clip-rule="evenodd" d="M286.439 244.013L286.585 232.823L289.951 232.778L290.099 244.179L286.439 244.013Z" fill="black" fill-opacity="0.15"/>
<path fill-rule="evenodd" clip-rule="evenodd" d="M286.736 222.492L286.882 211.284L289.644 211.247L289.792 222.63L286.736 222.492Z" fill="black" fill-opacity="0.15"/>
<path fill-rule="evenodd" clip-rule="evenodd" d="M213.514 242.969L213.604 236.06L216.995 236.014L217.088 243.13L213.514 242.969Z" fill="black" fill-opacity="0.15"/>
<path fill-rule="evenodd" clip-rule="evenodd" d="M213.783 221.446L213.873 214.521L216.719 214.483L216.812 221.583L213.783 221.446Z" fill="black" fill-opacity="0.15"/>
<path d="M201.521 226.878H306.109V241.854H201.521V226.878Z" fill="#FF541E"/>
<path d="M214.432 226.878H207.943L201.518 238.053V241.854H205.822L214.432 226.878ZM227.724 241.854H221.234L229.844 226.878H236.334L227.724 241.854ZM249.625 241.854H243.135L251.746 226.878H258.236L249.625 241.854ZM271.526 241.854H265.036L273.647 226.878H280.137L271.526 241.854ZM293.428 241.854H286.937L295.549 226.878H302.038L293.428 241.854Z" fill="white" fill-opacity="0.5"/>
<path d="M201.521 205.609H306.109V220.585H201.521V205.609Z" fill="#FF541E"/>
<path d="M212.781 205.609H206.291L201.518 213.911V220.585H204.17L212.781 205.609ZM226.071 220.585H219.582L228.192 205.609H234.682L226.071 220.585ZM247.973 220.585H241.483L250.094 205.609H256.584L247.973 220.585ZM269.874 220.585H263.384L271.995 205.609H278.485L269.874 220.585ZM291.776 220.585H285.286L293.897 205.609H300.386L291.776 220.585Z" fill="white" fill-opacity="0.5"/>
<path d="M327.718 241.33L318.572 274.556H343.81L334.663 241.33H327.718ZM315.633 275.725C315.633 275.079 316.156 274.556 316.802 274.556H345.587C346.232 274.556 346.756 275.079 346.756 275.725V276.127C346.756 276.773 346.232 277.296 345.587 277.296H316.802C316.156 277.296 315.633 276.773 315.633 276.127V275.725ZM172.958 241.33L163.812 274.556H189.05L179.904 241.33H172.958ZM160.873 275.725C160.873 275.079 161.396 274.556 162.042 274.556H190.827C191.473 274.556 191.996 275.079 191.996 275.725V276.127C191.996 276.773 191.473 277.296 190.827 277.296H162.042C161.396 277.296 160.873 276.773 160.873 276.127V275.725Z" fill="#FF541E"/>
<path d="M334.666 241.338C334.667 241.337 334.667 241.335 334.667 241.334V241.33C334.667 241.094 333.111 240.903 331.192 240.903C329.272 240.903 327.716 241.094 327.716 241.33V241.332L326.986 243.984H335.393L334.666 241.342C334.666 241.341 334.666 241.339 334.666 241.338ZM326.184 246.898L324.336 253.609H338.042L336.195 246.898H326.184ZM321.687 263.234L323.534 256.523H338.844L340.692 263.234H321.687ZM320.885 266.148L319.037 272.859H343.342L341.494 266.148H320.885ZM180.633 243.984L179.902 241.33H179.818C179.462 241.14 178.081 240.999 176.432 240.999C174.783 240.999 173.402 241.14 173.046 241.33H172.957L172.226 243.984H180.633ZM169.577 253.609L171.424 246.898H181.435L183.283 253.609H169.577ZM168.774 256.523L166.927 263.234H185.932L184.085 256.523H168.774ZM164.277 272.859L166.125 266.148H186.734L188.582 272.859H164.277Z" fill="white" fill-opacity="0.5"/>
<path d="M356.143 103.855C348.84 103.855 342.894 109.666 342.676 116.916C341.602 115.896 340.151 115.27 338.552 115.27C335.691 115.27 333.298 117.278 332.705 119.962C331.719 119.247 330.506 118.826 329.196 118.826C327.22 118.826 325.467 119.783 324.376 121.259H407.553C407.644 121.146 407.732 121.031 407.818 120.914C407.807 121.028 407.799 121.143 407.793 121.258H423.13C422.932 117.194 419.575 113.96 415.462 113.96C413.085 113.96 410.961 115.04 409.553 116.736C409.627 116.258 409.665 115.769 409.665 115.27C409.665 109.999 405.392 105.726 400.121 105.726C394.85 105.726 390.577 109.999 390.577 115.27C390.577 115.686 390.604 116.095 390.655 116.497C389.757 115.958 388.706 115.649 387.583 115.649C385.65 115.649 383.932 116.564 382.837 117.985C381.967 114.701 378.976 112.281 375.419 112.281C373.003 112.281 370.847 113.397 369.441 115.143C368.397 108.741 362.841 103.855 356.143 103.855ZM438.618 89.1094C435.559 89.1094 433.078 91.5214 433.078 94.4969C433.078 94.7316 433.094 94.9627 433.124 95.1894C432.602 94.8855 431.992 94.7108 431.34 94.7108C430.218 94.7108 429.221 95.2275 428.585 96.0295C428.081 94.1759 426.344 92.8093 424.279 92.8093C421.819 92.8093 419.825 94.7485 419.825 97.1405C419.825 97.3916 419.847 97.6378 419.89 97.8772L442.932 97.8774C442.985 97.8137 443.037 97.7489 443.086 97.683C443.08 97.7473 443.075 97.8121 443.072 97.8772H451.975C451.86 95.5831 449.911 93.7574 447.523 93.7574C446.144 93.7574 444.911 94.3668 444.093 95.3239C444.136 95.0544 444.159 94.7781 444.159 94.4969C444.159 91.5214 441.678 89.1094 438.618 89.1094ZM403.494 94.9547C401.834 94.9547 400.447 95.9346 400.103 97.2444C399.532 96.8957 398.829 96.69 398.069 96.69C396.923 96.69 395.907 97.1571 395.275 97.8774H406.966C406.966 96.2632 405.411 94.9547 403.494 94.9547Z" fill="#EAEAEA"/>
<path d="M250.4 129.442C247.34 129.442 244.859 131.854 244.859 134.83C244.859 135.065 244.875 135.296 244.905 135.522C244.384 135.218 243.773 135.044 243.121 135.044C242 135.044 241.002 135.561 240.366 136.363C239.862 134.509 238.125 133.142 236.06 133.142C233.601 133.142 231.607 135.081 231.607 137.474C231.607 137.725 231.629 137.971 231.671 138.21L254.714 138.21C254.766 138.147 254.818 138.082 254.868 138.016C254.861 138.08 254.857 138.145 254.853 138.21H263.756C263.641 135.916 261.692 134.09 259.305 134.09C257.925 134.09 256.692 134.7 255.875 135.657C255.918 135.387 255.94 135.111 255.94 134.83C255.94 131.854 253.459 129.442 250.4 129.442Z" fill="#EBEBEB"/>
<path d="M243.206 74.4961C246.266 74.4961 248.746 76.9082 248.746 79.8836C248.746 80.1183 248.731 80.3494 248.701 80.5762C249.222 80.2722 249.832 80.0975 250.484 80.0975C251.606 80.0975 252.603 80.6143 253.239 81.4163C253.743 79.5626 255.48 78.196 257.545 78.196C260.005 78.196 261.999 80.1352 261.999 82.5272C261.999 82.7783 261.977 83.0245 261.935 83.264L238.892 83.2641C238.839 83.2005 238.788 83.1357 238.738 83.0697C238.744 83.134 238.749 83.1988 238.752 83.2639H229.85C229.964 80.9698 231.913 79.1442 234.301 79.1442C235.68 79.1442 236.913 79.7536 237.731 80.7106C237.688 80.4411 237.666 80.1649 237.666 79.8836C237.666 76.9082 240.146 74.4961 243.206 74.4961Z" fill="#F5F5F5"/>
<path d="M137.462 48.9084C144.765 48.9084 150.712 54.7194 150.93 61.9701C152.004 60.9497 153.455 60.3239 155.053 60.3239C157.915 60.3239 160.308 62.3316 160.901 65.0154C161.887 64.3007 163.099 63.8795 164.41 63.8795C166.386 63.8795 168.138 64.8365 169.229 66.3124H86.0527C85.9617 66.1997 85.8733 66.0849 85.7874 65.968C85.7982 66.0819 85.8064 66.1967 85.8121 66.3122H70.4757C70.6733 62.2482 74.0309 59.0139 78.1439 59.0139C80.5203 59.0139 82.6447 60.0937 84.0529 61.7894C83.9787 61.3117 83.9405 60.8223 83.9405 60.3239C83.9405 55.0528 88.2135 50.7798 93.4845 50.7798C98.7556 50.7798 103.029 55.0528 103.029 60.3239C103.029 60.7395 103.002 61.1489 102.951 61.5505C103.848 61.0121 104.9 60.7029 106.023 60.7029C107.955 60.7029 109.674 61.6182 110.769 63.0389C111.638 59.7551 114.629 57.3343 118.187 57.3343C120.603 57.3343 122.758 58.451 124.165 60.1963C125.209 53.7945 130.765 48.9084 137.462 48.9084ZM54.9871 34.1631C58.0468 34.1631 60.5272 36.5752 60.5272 39.5506C60.5272 39.7853 60.5118 40.0164 60.4819 40.2432C61.0031 39.9392 61.6132 39.7645 62.2654 39.7645C63.3871 39.7645 64.3847 40.2813 65.0204 41.0833C65.5247 39.2296 67.2614 37.863 69.3263 37.863C71.7861 37.863 73.7802 39.8022 73.7802 42.1942C73.7802 42.4453 73.7582 42.6915 73.716 42.931L50.6731 42.9311C50.6202 42.8675 50.5689 42.8027 50.5191 42.7367C50.5253 42.801 50.5301 42.8658 50.5333 42.9309H41.6309C41.7456 40.6368 43.6946 38.8112 46.0821 38.8112C47.4615 38.8112 48.6945 39.4206 49.512 40.3776C49.4691 40.1081 49.4469 39.8319 49.4469 39.5506C49.4469 36.5752 51.9274 34.1631 54.9871 34.1631ZM90.1118 40.0084C91.7711 40.0084 93.1586 40.9883 93.502 42.2981C94.0734 41.9494 94.7765 41.7438 95.5366 41.7438C96.6822 41.7438 97.6983 42.2108 98.3306 42.9311H86.6399C86.6399 41.3169 88.1944 40.0084 90.1118 40.0084Z" fill="#D8D8D8"/>
<defs>
<linearGradient id="paint0_linear_2660_12617" x1="377.385" y1="46.0942" x2="377.385" y2="263.541" gradientUnits="userSpaceOnUse">
<stop stop-color="#B2B2B2"/>
<stop offset="1" stop-color="#3E3E3E"/>
</linearGradient>
<linearGradient id="paint1_linear_2660_12617" x1="249.604" y1="44.3403" x2="249.604" y2="263.54" gradientUnits="userSpaceOnUse">
<stop stop-color="#B2B2B2"/>
<stop offset="1" stop-color="#3E3E3E"/>
</linearGradient>
<linearGradient id="paint2_linear_2660_12617" x1="119.916" y1="50.77" x2="119.916" y2="263.302" gradientUnits="userSpaceOnUse">
<stop stop-color="#B2B2B2"/>
<stop offset="1" stop-color="#3E3E3E"/>
</linearGradient>
<linearGradient id="paint3_linear_2660_12617" x1="275.35" y1="104.652" x2="275.35" y2="224.031" gradientUnits="userSpaceOnUse">
<stop stop-color="#FFE9E7"/>
<stop offset="1" stop-color="#FF4537"/>
</linearGradient>
<linearGradient id="paint4_linear_2660_12617" x1="97.9533" y1="76.9561" x2="97.9533" y2="179.252" gradientUnits="userSpaceOnUse">
<stop stop-color="#FFE9E7"/>
<stop offset="1" stop-color="#FF4537"/>
</linearGradient>
</defs>
</svg>
