<svg width="519" height="300" viewBox="0 0 519 300" fill="none" xmlns="http://www.w3.org/2000/svg">
<ellipse cx="259" cy="269" rx="222" ry="19" fill="#F5F5F5"/>
<path d="M128.873 30.5721C136.825 30.5721 143.299 36.899 143.536 44.7934C144.705 43.6825 146.286 43.001 148.026 43.001C151.142 43.001 153.747 45.187 154.393 48.1091C155.466 47.331 156.786 46.8724 158.213 46.8724C160.364 46.8724 162.273 47.9144 163.461 49.5213H72.8991C72.8 49.3986 72.7037 49.2736 72.6102 49.1463C72.6219 49.2703 72.6309 49.3953 72.637 49.521H55.939C56.1542 45.0962 59.8099 41.5748 64.2881 41.5748C66.8755 41.5748 69.1884 42.7504 70.7217 44.5967C70.6409 44.0766 70.5993 43.5437 70.5993 43.001C70.5993 37.262 75.2517 32.6096 80.9907 32.6096C86.7298 32.6096 91.3821 37.262 91.3821 43.001C91.3821 43.4536 91.3529 43.8993 91.2974 44.3366C92.2744 43.7504 93.4194 43.4137 94.6419 43.4137C96.7464 43.4137 98.6173 44.4103 99.8097 45.9572C100.756 42.3817 104.013 39.7461 107.886 39.7461C110.516 39.7461 112.863 40.9619 114.395 42.8622C115.532 35.892 121.581 30.5721 128.873 30.5721ZM39.0753 14.5176C42.4067 14.5176 45.1073 17.1438 45.1073 20.3834C45.1073 20.6389 45.0905 20.8906 45.058 21.1375C45.6254 20.8065 46.2897 20.6163 46.9997 20.6163C48.2211 20.6163 49.3073 21.179 49.9994 22.0522C50.5485 20.0339 52.4394 18.546 54.6876 18.546C57.3658 18.546 59.5369 20.6573 59.5369 23.2618C59.5369 23.5352 59.513 23.8032 59.467 24.0639L34.3782 24.0641C34.3207 23.9948 34.2648 23.9242 34.2106 23.8524C34.2174 23.9224 34.2225 23.9929 34.2261 24.0638H24.5332C24.6581 21.5661 26.7802 19.5783 29.3796 19.5783C30.8815 19.5783 32.224 20.2418 33.114 21.2839C33.0674 20.9904 33.0432 20.6897 33.0432 20.3834C33.0432 17.1438 35.7439 14.5176 39.0753 14.5176ZM77.3186 20.8819C79.1252 20.8819 80.6358 21.9488 81.0098 23.3749C81.6319 22.9952 82.3974 22.7713 83.225 22.7713C84.4723 22.7713 85.5786 23.2798 86.267 24.0641H73.5384C73.5384 22.3066 75.2308 20.8819 77.3186 20.8819Z" fill="#D8D8D8"/>
<path d="M244.003 58.4307C247.334 58.4307 250.035 61.0569 250.035 64.2965C250.035 64.552 250.018 64.8037 249.986 65.0506C250.553 64.7196 251.217 64.5294 251.927 64.5294C253.149 64.5294 254.235 65.092 254.927 65.9652C255.476 63.947 257.367 62.4591 259.615 62.4591C262.294 62.4591 264.465 64.5704 264.465 67.1748C264.465 67.4483 264.441 67.7163 264.395 67.977L239.306 67.9771C239.248 67.9079 239.193 67.8373 239.138 67.7655C239.145 67.8355 239.15 67.906 239.154 67.9769H229.461C229.586 65.4792 231.708 63.4914 234.307 63.4914C235.809 63.4914 237.152 64.1549 238.042 65.197C237.995 64.9035 237.971 64.6027 237.971 64.2965C237.971 61.0569 240.672 58.4307 244.003 58.4307Z" fill="#D8D8D8"/>
<path d="M431.006 57.2622V185.47H463.278V225.893H431.006V266.316H374.023V225.893H277.789V187.883L364.719 57.2622H431.006ZM376.057 111.864L330.412 185.47H376.057V111.864Z" fill="url(#paint0_linear_2660_12492)"/>
<path fill-rule="evenodd" clip-rule="evenodd" d="M431.006 57.2622V185.47H463.278V225.893H431.006V266.316H374.023V225.893H277.789V187.883L364.719 57.2622H431.006ZM376.057 111.864L330.412 185.47H376.057V111.864Z" fill="black" fill-opacity="0.5"/>
<path d="M247.189 50.8032C260.369 50.8032 272.289 53.1128 282.95 57.7319C293.61 62.351 303.107 69.3801 311.441 78.8192C319.776 88.0574 326.027 99.4545 330.194 113.011C334.361 126.567 336.445 142.282 336.445 160.156C336.445 179.637 334.361 196.456 330.194 210.615C326.027 224.774 319.873 236.271 311.732 245.108C303.592 253.743 294.337 260.22 283.967 264.538C273.598 268.856 262.113 271.015 249.515 271.015C234.591 271.015 221.508 268.554 210.266 263.634C199.025 258.714 189.721 251.333 182.356 241.493C174.796 231.451 169.175 219.652 165.493 206.096C161.811 192.54 159.969 177.226 159.969 160.156V159.553L159.971 158.694C160.037 140.975 162.169 125.396 166.365 111.957C170.629 98.3 177.025 86.9528 185.554 77.9155C194.082 68.8781 203.482 62.1 213.755 57.5813C224.027 53.0625 235.172 50.8032 247.189 50.8032ZM249.515 93.5803H247.189L246.837 93.5828C241.562 93.6509 237.077 95.2566 233.379 98.4C229.6 101.613 226.547 106.434 224.222 112.86C221.895 119.487 220.151 126.717 218.988 134.55L218.87 135.363C217.824 142.7 217.283 150.647 217.246 159.203L217.244 159.797L217.245 160.446C217.275 170.833 217.825 180.142 218.895 188.373L218.988 189.076C220.151 197.711 221.992 205.243 224.512 211.669C226.838 218.297 229.891 223.217 233.67 226.43C237.45 229.644 241.956 231.25 247.189 231.25C253.973 231.25 259.497 229.694 263.761 226.581C268.025 223.468 270.836 218.799 272.193 212.573C273.743 206.347 274.906 198.866 275.682 190.13C276.457 181.394 276.844 171.402 276.844 160.156C276.844 150.114 276.36 141.027 275.391 132.893C274.421 124.759 272.871 117.68 270.739 111.655C268.8 105.63 266.038 101.111 262.453 98.0989C258.867 95.0867 254.555 93.5803 249.515 93.5803Z" fill="url(#paint1_linear_2660_12492)"/>
<path fill-rule="evenodd" clip-rule="evenodd" d="M247.189 50.8032C260.369 50.8032 272.289 53.1128 282.95 57.7319C293.61 62.351 303.107 69.3801 311.441 78.8192C319.776 88.0574 326.027 99.4545 330.194 113.011C334.361 126.567 336.445 142.282 336.445 160.156C336.445 179.637 334.361 196.456 330.194 210.615C326.027 224.774 319.873 236.271 311.732 245.108C303.592 253.743 294.337 260.22 283.967 264.538C273.598 268.856 262.113 271.015 249.515 271.015C234.591 271.015 221.508 268.554 210.266 263.634C199.025 258.714 189.721 251.333 182.356 241.493C174.796 231.451 169.175 219.652 165.493 206.096C161.811 192.54 159.969 177.226 159.969 160.156V159.553L159.971 158.694C160.037 140.975 162.169 125.396 166.365 111.957C170.629 98.3 177.025 86.9528 185.554 77.9155C194.082 68.8781 203.482 62.1 213.755 57.5813C224.027 53.0625 235.172 50.8032 247.189 50.8032ZM249.515 93.5803H247.189L246.837 93.5828C241.562 93.6509 237.077 95.2566 233.379 98.4C229.6 101.613 226.547 106.434 224.222 112.86C221.895 119.487 220.151 126.717 218.988 134.55L218.87 135.363C217.824 142.7 217.283 150.647 217.246 159.203L217.244 159.797L217.245 160.446C217.275 170.833 217.825 180.142 218.895 188.373L218.988 189.076C220.151 197.711 221.992 205.243 224.512 211.669C226.838 218.297 229.891 223.217 233.67 226.43C237.45 229.644 241.956 231.25 247.189 231.25C253.973 231.25 259.497 229.694 263.761 226.581C268.025 223.468 270.836 218.799 272.193 212.573C273.743 206.347 274.906 198.866 275.682 190.13C276.457 181.394 276.844 171.402 276.844 160.156C276.844 150.114 276.36 141.027 275.391 132.893C274.421 124.759 272.871 117.68 270.739 111.655C268.8 105.63 266.038 101.111 262.453 98.0989C258.867 95.0867 254.555 93.5803 249.515 93.5803Z" fill="black" fill-opacity="0.2"/>
<path d="M178.391 57.2622V185.47H210.662V225.893H178.391V266.316H121.407V225.893H25.1738V187.883L111.516 57.2622H178.391ZM123.442 111.864L77.7969 185.47H123.442V111.864Z" fill="url(#paint2_linear_2660_12492)"/>
<g clip-path="url(#clip0_2660_12492)">
<path d="M213.629 192.091C214.302 192.091 214.85 192.632 214.859 193.305L215.717 259.376H219.044V286.583C219.044 286.765 216.729 286.912 213.833 286.919L213.63 286.919C210.64 286.919 208.217 286.769 208.217 286.583V259.376H211.54L212.399 193.305C212.408 192.632 212.956 192.091 213.629 192.091ZM293.076 192.091C293.749 192.091 294.297 192.632 294.306 193.305L295.165 259.376H298.481V286.583C298.481 286.765 296.166 286.912 293.27 286.919L293.067 286.919C290.078 286.919 287.654 286.769 287.654 286.583V259.376H290.987L291.846 193.305C291.855 192.632 292.403 192.091 293.076 192.091Z" fill="#FF541E"/>
<path d="M207.604 253.988C207.604 253.648 207.877 253.373 208.215 253.373H297.497C297.835 253.373 298.109 253.648 298.109 253.988C298.109 254.327 297.835 254.602 297.497 254.602H208.215C207.877 254.602 207.604 254.327 207.604 253.988Z" fill="#FF541E"/>
<path fill-rule="evenodd" clip-rule="evenodd" d="M293.074 192.091C293.748 192.091 294.296 192.632 294.305 193.305L295.085 253.375L297.497 253.375C297.835 253.375 298.109 253.65 298.109 253.99C298.109 254.329 297.835 254.604 297.497 254.604L295.101 254.604L295.163 259.376H298.479V286.583C298.479 286.765 296.164 286.912 293.268 286.919L293.065 286.919C290.076 286.919 287.652 286.769 287.652 286.583V259.376H290.986L291.047 254.604H215.653L215.715 259.376H219.042V286.583C219.042 286.765 216.727 286.912 213.832 286.919L213.629 286.919C210.639 286.919 208.215 286.769 208.215 286.583V259.376H211.538L211.6 254.604L208.215 254.604C207.877 254.604 207.604 254.329 207.604 253.99C207.604 253.65 207.877 253.375 208.215 253.375L211.616 253.375L212.397 193.305C212.406 192.632 212.954 192.091 213.627 192.091C214.301 192.091 214.849 192.632 214.858 193.305L215.637 253.375H291.064L291.844 193.305C291.853 192.632 292.401 192.091 293.074 192.091Z" fill="black" fill-opacity="0.4"/>
<path fill-rule="evenodd" clip-rule="evenodd" d="M291.09 250.007L291.248 237.824L294.913 237.774L295.074 250.187L291.09 250.007Z" fill="black" fill-opacity="0.15"/>
<path fill-rule="evenodd" clip-rule="evenodd" d="M291.406 226.577L291.565 214.375L294.572 214.334L294.733 226.728L291.406 226.577Z" fill="black" fill-opacity="0.15"/>
<path fill-rule="evenodd" clip-rule="evenodd" d="M211.689 248.873L211.787 241.351L215.479 241.301L215.581 249.049L211.689 248.873Z" fill="black" fill-opacity="0.15"/>
<path fill-rule="evenodd" clip-rule="evenodd" d="M211.98 225.437L212.078 217.898L215.177 217.856L215.278 225.587L211.98 225.437Z" fill="black" fill-opacity="0.15"/>
<path d="M198.639 231.354H312.512V247.659H198.639V231.354Z" fill="#FF541E"/>
<path d="M212.696 231.354H205.631L198.635 243.521V247.659H203.321L212.696 231.354ZM227.168 247.659H220.101L229.476 231.354H236.543L227.168 247.659ZM251.013 247.659H243.947L253.322 231.354H260.389L251.013 247.659ZM274.859 247.659H267.793L277.168 231.354H284.234L274.859 247.659ZM298.705 247.659H291.639L301.015 231.354H308.08L298.705 247.659Z" fill="white" fill-opacity="0.5"/>
<path d="M198.639 208.197H312.512V224.502H198.639V208.197Z" fill="#FF541E"/>
<path d="M210.898 208.197H203.832L198.635 217.235V224.502H201.523L210.898 208.197ZM225.368 224.502H218.303L227.678 208.197H234.744L225.368 224.502ZM249.215 224.502H242.148L251.524 208.197H258.59L249.215 224.502ZM273.061 224.502H265.994L275.37 208.197H282.436L273.061 224.502ZM296.906 224.502H289.84L299.216 208.197H306.282L296.906 224.502Z" fill="white" fill-opacity="0.5"/>
<path d="M336.029 247.087L326.071 283.263H353.55L343.591 247.087H336.029ZM322.871 284.536C322.871 283.832 323.441 283.263 324.144 283.263H355.484C356.188 283.263 356.757 283.832 356.757 284.536V284.974C356.757 285.677 356.188 286.247 355.484 286.247H324.144C323.441 286.247 322.871 285.677 322.871 284.974V284.536ZM167.529 247.087L157.571 283.263H185.05L175.091 247.087H167.529ZM154.371 284.536C154.371 283.832 154.941 283.263 155.644 283.263H186.985C187.687 283.263 188.257 283.832 188.257 284.536V284.974C188.257 285.677 187.687 286.247 186.985 286.247H155.644C154.941 286.247 154.371 285.677 154.371 284.974V284.536Z" fill="#FF541E"/>
<path d="M343.601 247.094C343.601 247.092 343.601 247.091 343.601 247.089V247.085C343.601 246.828 341.907 246.62 339.818 246.62C337.728 246.62 336.034 246.828 336.034 247.085V247.087L335.239 249.975H344.392L343.6 247.098C343.6 247.097 343.601 247.095 343.601 247.094ZM334.365 253.147L332.354 260.454H347.277L345.265 253.147H334.365ZM329.469 270.934L331.481 263.627H348.15L350.162 270.934H329.469ZM328.596 274.106L326.584 281.413H353.047L351.035 274.106H328.596ZM175.892 249.975L175.096 247.085H175.004C174.616 246.878 173.113 246.725 171.317 246.725C169.522 246.725 168.018 246.878 167.631 247.085H167.534L166.738 249.975H175.892ZM163.854 260.454L165.865 253.147H176.765L178.777 260.454H163.854ZM162.98 263.627L160.969 270.934H181.661L179.65 263.627H162.98ZM158.084 281.413L160.095 274.106H182.535L184.546 281.413H158.084Z" fill="white" fill-opacity="0.5"/>
</g>
<path d="M366.975 97.4031C359.023 97.4031 352.549 103.73 352.311 111.624C351.142 110.514 349.562 109.832 347.822 109.832C344.706 109.832 342.101 112.018 341.455 114.94C340.382 114.162 339.061 113.703 337.634 113.703C335.483 113.703 333.575 114.745 332.387 116.352H422.949C423.048 116.23 423.144 116.105 423.237 115.977C423.226 116.101 423.217 116.226 423.211 116.352H439.909C439.693 111.927 436.038 108.406 431.56 108.406C428.972 108.406 426.659 109.581 425.126 111.428C425.207 110.908 425.248 110.375 425.248 109.832C425.248 104.093 420.596 99.4406 414.857 99.4406C409.118 99.4406 404.466 104.093 404.466 109.832C404.466 110.285 404.495 110.73 404.55 111.168C403.573 110.581 402.428 110.245 401.206 110.245C399.101 110.245 397.23 111.241 396.038 112.788C395.092 109.213 391.835 106.577 387.962 106.577C385.331 106.577 382.984 107.793 381.453 109.693C380.316 102.723 374.267 97.4031 366.975 97.4031ZM456.772 81.3486C453.441 81.3486 450.74 83.9749 450.74 87.2145C450.74 87.47 450.757 87.7217 450.79 87.9685C450.222 87.6376 449.558 87.4474 448.848 87.4474C447.627 87.4474 446.54 88.01 445.848 88.8832C445.299 86.865 443.408 85.3771 441.16 85.3771C438.482 85.3771 436.311 87.4884 436.311 90.0928C436.311 90.3662 436.335 90.6343 436.381 90.895L461.469 90.8951C461.527 90.8258 461.583 90.7553 461.637 90.6834C461.63 90.7535 461.625 90.824 461.622 90.8949H471.314C471.19 88.3972 469.067 86.4094 466.468 86.4094C464.966 86.4094 463.624 87.0729 462.734 88.1149C462.78 87.8215 462.804 87.5207 462.804 87.2145C462.804 83.9749 460.104 81.3486 456.772 81.3486ZM418.529 87.7129C416.722 87.7129 415.212 88.7798 414.838 90.206C414.216 89.8262 413.45 89.6024 412.623 89.6024C411.375 89.6024 410.269 90.1109 409.581 90.8951H422.309C422.309 89.1376 420.617 87.7129 418.529 87.7129Z" fill="#EAEAEA"/>
<path d="M251.839 125.262C248.507 125.262 245.807 127.888 245.807 131.128C245.807 131.383 245.824 131.635 245.856 131.882C245.289 131.551 244.624 131.36 243.914 131.36C242.693 131.36 241.607 131.923 240.915 132.796C240.366 130.778 238.475 129.29 236.226 129.29C233.548 129.29 231.377 131.401 231.377 134.006C231.377 134.279 231.401 134.547 231.447 134.808L256.536 134.808C256.593 134.739 256.649 134.668 256.704 134.597C256.697 134.667 256.692 134.737 256.688 134.808H266.381C266.256 132.31 264.134 130.322 261.534 130.322C260.033 130.322 258.69 130.986 257.8 132.028C257.847 131.735 257.871 131.434 257.871 131.128C257.871 127.888 255.17 125.262 251.839 125.262Z" fill="#EBEBEB"/>
<defs>
<linearGradient id="paint0_linear_2660_12492" x1="370.533" y1="57.2622" x2="370.533" y2="266.316" gradientUnits="userSpaceOnUse">
<stop stop-color="#B2B2B2"/>
<stop offset="1" stop-color="#3E3E3E"/>
</linearGradient>
<linearGradient id="paint1_linear_2660_12492" x1="248.207" y1="50.8032" x2="248.207" y2="271.015" gradientUnits="userSpaceOnUse">
<stop stop-color="#B2B2B2"/>
<stop offset="1" stop-color="#3E3E3E"/>
</linearGradient>
<linearGradient id="paint2_linear_2660_12492" x1="117.918" y1="57.2622" x2="117.918" y2="266.316" gradientUnits="userSpaceOnUse">
<stop stop-color="#B2B2B2"/>
<stop offset="1" stop-color="#3E3E3E"/>
</linearGradient>
<clipPath id="clip0_2660_12492">
<rect width="222.751" height="222.751" fill="white" transform="translate(144.188 64.1685)"/>
</clipPath>
</defs>
</svg>
