<svg width="497" height="300" viewBox="0 0 497 300" fill="none" xmlns="http://www.w3.org/2000/svg">
<ellipse cx="248" cy="264" rx="222" ry="19" fill="#F5F5F5"/>
<path d="M128.936 22.315C136.499 22.315 142.657 28.3326 142.882 35.8411C143.994 34.7845 145.497 34.1363 147.152 34.1363C150.116 34.1363 152.594 36.2154 153.208 38.9947C154.229 38.2546 155.485 37.8184 156.842 37.8184C158.888 37.8184 160.703 38.8094 161.833 40.3378H75.6986C75.6043 40.2211 75.5128 40.1022 75.4238 39.9811C75.435 40.0991 75.4435 40.218 75.4494 40.3376H59.5677C59.7723 36.1291 63.2493 32.7798 67.5085 32.7798C69.9695 32.7798 72.1694 33.898 73.6277 35.654C73.5508 35.1593 73.5112 34.6525 73.5112 34.1363C73.5112 28.6779 77.9361 24.2529 83.3946 24.2529C88.8531 24.2529 93.278 28.6779 93.278 34.1363C93.278 34.5667 93.2502 34.9907 93.1974 35.4066C94.1267 34.8491 95.2157 34.5288 96.3784 34.5288C98.38 34.5288 100.159 35.4767 101.294 36.948C102.194 33.5473 105.291 31.0405 108.975 31.0405C111.477 31.0405 113.709 32.1969 115.166 34.0042C116.247 27.3748 122 22.315 128.936 22.315ZM43.5284 7.04541C46.6969 7.04541 49.2655 9.54324 49.2655 12.6245C49.2655 12.8675 49.2496 13.1069 49.2186 13.3417C49.7583 13.0269 50.3901 12.846 51.0654 12.846C52.227 12.846 53.2602 13.3811 53.9184 14.2116C54.4407 12.292 56.2392 10.8769 58.3774 10.8769C60.9247 10.8769 62.9897 12.885 62.9897 15.3621C62.9897 15.6221 62.9669 15.8771 62.9232 16.125L39.061 16.1252C39.0063 16.0593 38.9531 15.9922 38.9015 15.9238C38.908 15.9905 38.9129 16.0575 38.9163 16.125H29.6973C29.8161 13.7493 31.8344 11.8587 34.3068 11.8587C35.7352 11.8587 37.0121 12.4898 37.8586 13.4809C37.8142 13.2018 37.7913 12.9157 37.7913 12.6245C37.7913 9.54324 40.3599 7.04541 43.5284 7.04541ZM79.902 13.0986C81.6203 13.0986 83.0571 14.1133 83.4128 15.4697C84.0045 15.1085 84.7326 14.8956 85.5196 14.8956C86.706 14.8956 87.7582 15.3793 88.413 16.1252H76.3067C76.3067 14.4536 77.9163 13.0986 79.902 13.0986Z" fill="#D8D8D8"/>
<path fill-rule="evenodd" clip-rule="evenodd" d="M357.682 114.121C364.726 124.611 367.918 134.969 367.245 145.177C370.968 142.681 375.457 141.659 380.705 142.128L381.102 142.166L380.973 143.37C375.476 142.805 370.857 143.933 367.107 146.774C366.765 150.01 366.033 153.232 364.912 156.437C357.632 177.236 355.4 192.829 357.777 207.436C359.359 217.164 362.609 227.397 367.53 238.137L367.867 238.87L366.748 239.372C361.594 228.271 358.198 217.689 356.561 207.627C354.149 192.798 356.407 177.015 363.748 156.043C364.69 153.352 365.349 150.65 365.725 147.936C361.644 151.722 358.724 157.802 356.953 166.206C353.652 181.869 354.376 202.284 359.135 227.443C359.383 227.976 359.635 228.513 359.892 229.053L360.167 229.628L359.544 229.567C359.653 230.122 359.763 230.679 359.876 231.238L360.213 232.893L359.007 233.134C358.751 231.891 358.503 230.659 358.265 229.438L354.394 229.053C355.748 224.773 356.35 224.417 355.787 223.001C349.035 206.06 346.261 195.251 347.713 186.851L347.765 186.561C349.491 177.297 349.517 165.11 347.838 150.009L347.759 149.309L348.983 149.174L349.138 150.578C350.726 165.231 350.7 177.15 349.056 186.343L348.976 186.779C347.452 194.962 350.136 206.989 357.05 222.827C353.062 199.729 352.626 180.776 355.748 165.96C357.711 156.646 361.11 150.027 365.932 146.143C366.872 136.004 363.878 125.7 356.937 115.211L356.656 114.789L357.682 114.121Z" fill="#E2E5EA"/>
<path d="M361.765 40.5815C375.35 40.5815 387.638 42.9623 398.626 47.7237C409.615 52.4851 419.405 59.7307 427.995 69.4606C436.587 78.9835 443.03 90.7314 447.325 104.705C451.621 118.679 453.768 134.878 453.768 153.302C453.768 173.383 451.621 190.721 447.325 205.315C443.03 219.91 436.686 231.762 428.295 240.87C419.904 249.772 410.364 256.448 399.675 260.899C388.986 265.35 377.148 267.575 364.162 267.575C348.777 267.575 335.292 265.04 323.704 259.968C312.116 254.896 302.526 247.288 294.934 237.144C287.142 226.793 281.348 214.631 277.552 200.657C273.756 186.684 271.857 170.898 271.857 153.302V152.681V151.796C271.928 133.531 274.125 117.472 278.451 103.618C282.846 89.5408 289.439 77.8449 298.23 68.529C307.021 59.2132 316.711 52.226 327.3 47.5687C337.889 42.9108 349.377 40.5815 361.765 40.5815ZM364.162 84.6765H361.765L361.401 84.6783C355.964 84.7491 351.34 86.404 347.529 89.6443C343.633 92.9566 340.486 97.925 338.089 104.55C335.691 111.381 333.893 118.834 332.694 126.908L332.573 127.745C331.495 135.309 330.937 143.5 330.898 152.319L330.896 152.933L330.898 153.601C330.928 164.308 331.495 173.904 332.599 182.388L332.694 183.112C333.893 192.014 335.791 199.777 338.388 206.402C340.786 213.234 343.932 218.306 347.829 221.618C351.725 224.93 356.37 226.586 361.765 226.586C368.757 226.586 374.451 224.982 378.847 221.773C383.242 218.564 386.139 213.751 387.538 207.334C389.136 200.916 390.334 193.205 391.134 184.2C391.933 175.194 392.332 164.895 392.332 153.302C392.332 142.952 391.833 133.584 390.834 125.199C389.835 116.816 388.237 109.518 386.039 103.308C384.041 97.0969 381.194 92.439 377.498 89.3338C373.802 86.2285 369.356 84.6765 364.162 84.6765Z" fill="#6B5C8B"/>
<path d="M361.765 40.5815C375.35 40.5815 387.638 42.9623 398.626 47.7237C409.615 52.4851 419.405 59.7307 427.995 69.4606C436.587 78.9835 443.03 90.7314 447.325 104.705C451.621 118.679 453.768 134.878 453.768 153.302C453.768 173.383 451.621 190.721 447.325 205.315C443.03 219.91 436.686 231.762 428.295 240.87C419.904 249.772 410.364 256.448 399.675 260.899C388.986 265.35 377.148 267.575 364.162 267.575C348.777 267.575 335.292 265.04 323.704 259.968C312.116 254.896 302.526 247.288 294.934 237.144C287.142 226.793 281.348 214.631 277.552 200.657C273.756 186.684 271.857 170.898 271.857 153.302V152.681V151.796C271.928 133.531 274.125 117.472 278.451 103.618C282.846 89.5408 289.439 77.8449 298.23 68.529C307.021 59.2132 316.711 52.226 327.3 47.5687C337.889 42.9108 349.377 40.5815 361.765 40.5815ZM364.162 84.6765H361.765L361.401 84.6783C355.964 84.7491 351.34 86.404 347.529 89.6443C343.633 92.9566 340.486 97.925 338.089 104.55C335.691 111.381 333.893 118.834 332.694 126.908L332.573 127.745C331.495 135.309 330.937 143.5 330.898 152.319L330.896 152.933L330.898 153.601C330.928 164.308 331.495 173.904 332.599 182.388L332.694 183.112C333.893 192.014 335.791 199.777 338.388 206.402C340.786 213.234 343.932 218.306 347.829 221.618C351.725 224.93 356.37 226.586 361.765 226.586C368.757 226.586 374.451 224.982 378.847 221.773C383.242 218.564 386.139 213.751 387.538 207.334C389.136 200.916 390.334 193.205 391.134 184.2C391.933 175.194 392.332 164.895 392.332 153.302C392.332 142.952 391.833 133.584 390.834 125.199C389.835 116.816 388.237 109.518 386.039 103.308C384.041 97.0969 381.194 92.439 377.498 89.3338C373.802 86.2285 369.356 84.6765 364.162 84.6765Z" fill="url(#paint0_linear_2660_12778)"/>
<path fill-rule="evenodd" clip-rule="evenodd" d="M361.765 40.5815C375.35 40.5815 387.638 42.9623 398.626 47.7237C409.615 52.4851 419.405 59.7307 427.995 69.4606C436.587 78.9835 443.03 90.7314 447.325 104.705C451.621 118.679 453.768 134.878 453.768 153.302C453.768 173.383 451.621 190.721 447.325 205.315C443.03 219.91 436.686 231.762 428.295 240.87C419.904 249.772 410.364 256.448 399.675 260.899C388.986 265.35 377.148 267.575 364.162 267.575C348.777 267.575 335.292 265.04 323.704 259.968C312.116 254.896 302.526 247.288 294.934 237.144C287.142 226.793 281.348 214.631 277.552 200.657C273.756 186.684 271.857 170.898 271.857 153.302V152.681V151.796C271.928 133.531 274.125 117.472 278.451 103.618C282.846 89.5408 289.439 77.8449 298.23 68.529C307.021 59.2132 316.711 52.226 327.3 47.5687C337.889 42.9108 349.377 40.5815 361.765 40.5815ZM364.162 84.6765H361.765L361.401 84.6783C355.964 84.7491 351.34 86.404 347.529 89.6443C343.633 92.9566 340.486 97.925 338.089 104.55C335.691 111.381 333.893 118.834 332.694 126.908L332.573 127.745C331.495 135.309 330.937 143.5 330.898 152.319L330.896 152.933L330.898 153.601C330.928 164.308 331.495 173.904 332.599 182.388L332.694 183.112C333.893 192.014 335.791 199.777 338.388 206.402C340.786 213.234 343.932 218.306 347.829 221.618C351.725 224.93 356.37 226.586 361.765 226.586C368.757 226.586 374.451 224.982 378.847 221.773C383.242 218.564 386.139 213.751 387.538 207.334C389.136 200.916 390.334 193.205 391.134 184.2C391.933 175.194 392.332 164.895 392.332 153.302C392.332 142.952 391.833 133.584 390.834 125.199C389.835 116.816 388.237 109.518 386.039 103.308C384.041 97.0969 381.194 92.439 377.498 89.3338C373.802 86.2285 369.356 84.6765 364.162 84.6765Z" fill="black" fill-opacity="0.5"/>
<path d="M388.467 205.469C390.636 192.426 407.141 177.105 418.66 168.157C434.972 155.486 409.804 130.786 411.306 109.551C412.807 88.3166 384.443 124.158 387.262 143.361C390.081 162.563 388.904 167.31 365.956 178.917C356.157 183.873 350.351 197.266 358.944 226.399C362.295 227.073 375.489 227.073 382.542 218.384C385.625 214.586 388.243 206.815 388.467 205.469Z" fill="url(#paint1_linear_2660_12778)"/>
<path d="M388.467 205.469C390.636 192.426 407.141 177.104 418.66 168.157C434.972 155.486 409.804 130.786 411.306 109.551C412.807 88.3166 384.443 124.159 387.262 143.36C390.081 162.563 388.904 167.31 365.956 178.917C356.157 183.873 350.351 197.267 358.944 226.399C362.295 227.073 375.489 227.073 382.542 218.384C385.625 214.586 388.243 206.816 388.467 205.469Z" fill="white" fill-opacity="0.4"/>
<path d="M402.808 113.929C402.793 113.503 403.13 113.141 403.561 113.12C403.992 113.101 404.354 113.43 404.369 113.856C405.511 145.592 401.484 165.01 392.099 172.18C376.423 184.155 366.166 204.631 368.277 225.845C368.286 225.942 368.301 226.087 368.322 226.282L366.781 226.583C366.765 226.431 366.753 226.317 366.745 226.242C364.505 204.611 374.793 183.733 390.65 171.35L391.153 170.962C399.985 164.215 403.932 145.181 402.808 113.929Z" fill="#FF5858" fill-opacity="0.2"/>
<path d="M360.485 209.727C360.82 215.008 359.344 220.604 356.081 226.464L356.058 226.457C355.999 226.439 355.831 226.388 355.643 226.327L355.5 226.28C355.253 226.199 355.011 226.107 355.011 226.107C354.704 217.036 354.169 210.744 353.4 207.28C352.572 203.555 353.772 196.844 356.996 187.15C358.953 196.4 360.116 203.926 360.485 209.727ZM452.94 205.35C442.951 206.713 436.235 206.627 432.791 205.091C429.485 203.617 423.241 201.817 414.062 199.692C408.399 202.591 403.391 204.882 399.034 206.565C403.543 205.602 407.697 205.627 411.498 206.639C417.036 208.114 424.089 210.71 432.659 214.426C422.671 215.789 415.955 215.703 412.511 214.167C409.154 212.67 402.77 210.838 393.36 208.671C389.223 210.306 385.129 212.296 381.439 214.431C386.756 212.977 391.604 212.833 395.982 213.999C401.52 215.474 408.573 218.069 417.143 221.785C407.154 223.149 400.438 223.062 396.995 221.527C393.721 220.067 387.57 218.289 378.541 216.192C372.791 219.861 368.445 223.774 367.19 226.953C366.664 227.013 366.277 227.053 366.03 227.074C365.78 227.096 365.421 227.12 364.953 227.146C365.099 226.705 365.296 226.252 365.541 225.789L365.48 225.832C369.309 216.347 371.596 209.725 372.338 205.966C373.081 202.207 376.865 196.545 383.689 188.979C381.757 198.273 379.794 205.657 377.801 211.132C377.174 212.855 376.337 214.522 375.29 216.131C377.584 214.508 380.139 212.92 382.84 211.436C387.891 203.813 391.114 198.355 392.512 195.06C394.008 191.533 398.863 186.78 407.077 180.802C403.283 189.504 399.852 196.329 396.784 201.275C395.429 203.459 393.695 205.446 391.58 207.236C392.724 206.762 393.873 206.316 395.018 205.902L395.767 205.636C397.512 205.025 399.383 204.298 401.378 203.458C406.424 195.841 409.645 190.387 411.041 187.094C412.538 183.566 417.393 178.813 425.607 172.836C421.813 181.538 418.382 188.362 415.314 193.307C413.852 195.664 411.949 197.791 409.604 199.689C414.088 197.493 419.04 194.865 424.459 191.805C430.175 185.89 435.552 180.869 440.593 176.74C446.495 171.905 451.816 167.355 456.556 163.092C451.886 176.055 445.61 184.322 437.729 187.893C433.432 189.84 429.87 191.422 427.042 192.638L427.101 192.603C423.695 194.548 420.462 196.33 417.406 197.95C422.657 196.538 427.447 196.41 431.778 197.563C437.316 199.038 444.37 201.634 452.94 205.35Z" fill="#679368"/>
<path d="M360.485 209.727C360.82 215.009 359.344 220.604 356.081 226.464L356.058 226.457C355.999 226.439 355.831 226.388 355.643 226.327L355.5 226.281C355.253 226.199 355.011 226.107 355.011 226.107C354.704 217.036 354.169 210.745 353.4 207.28C352.572 203.555 353.772 196.845 356.996 187.15C358.953 196.401 360.116 203.926 360.485 209.727ZM452.94 205.35C442.951 206.713 436.235 206.627 432.791 205.092C429.485 203.617 423.241 201.817 414.062 199.693C408.399 202.592 403.391 204.882 399.034 206.565C403.543 205.602 407.697 205.627 411.498 206.639C417.036 208.115 424.089 210.71 432.659 214.426C422.671 215.789 415.955 215.704 412.511 214.168C409.154 212.67 402.77 210.839 393.36 208.672C389.223 210.306 385.129 212.296 381.439 214.431C386.756 212.977 391.604 212.833 395.982 213.999C401.52 215.474 408.573 218.07 417.143 221.786C407.154 223.149 400.438 223.063 396.995 221.527C393.721 220.067 387.57 218.289 378.541 216.192C372.791 219.861 368.445 223.775 367.19 226.953C366.664 227.013 366.277 227.053 366.03 227.074C365.78 227.096 365.421 227.12 364.953 227.147C365.099 226.706 365.296 226.252 365.541 225.789L365.48 225.832C369.309 216.347 371.596 209.725 372.338 205.966C373.081 202.207 376.865 196.545 383.689 188.979C381.757 198.273 379.794 205.657 377.801 211.132C377.174 212.856 376.337 214.522 375.29 216.131C377.584 214.508 380.139 212.92 382.84 211.436C387.891 203.814 391.114 198.355 392.512 195.061C394.008 191.533 398.863 186.78 407.077 180.802C403.283 189.505 399.852 196.329 396.784 201.275C395.429 203.459 393.695 205.446 391.58 207.237C392.724 206.763 393.873 206.317 395.018 205.903L395.767 205.636C397.512 205.025 399.383 204.299 401.378 203.458C406.424 195.841 409.645 190.387 411.041 187.094C412.538 183.566 417.393 178.814 425.607 172.836C421.813 181.538 418.382 188.362 415.314 193.308C413.852 195.664 411.949 197.791 409.604 199.69C414.088 197.493 419.04 194.865 424.459 191.806C430.175 185.891 435.552 180.869 440.593 176.74C446.495 171.905 451.816 167.356 456.556 163.092C451.886 176.055 445.61 184.323 437.729 187.893C433.432 189.84 429.87 191.422 427.042 192.639L427.101 192.604C423.695 194.548 420.462 196.33 417.406 197.95C422.657 196.539 427.447 196.41 431.778 197.563C437.316 199.039 444.37 201.634 452.94 205.35Z" fill="white" fill-opacity="0.15"/>
<path fill-rule="evenodd" clip-rule="evenodd" d="M322.372 140.618C333.052 155.924 338.461 169.643 338.574 181.784L338.576 182.175C338.576 193.256 343.807 206.56 354.287 222.07L354.396 224.416C341.671 206.334 337.465 194.26 337.347 182.543L337.345 182.175C337.345 170.343 332.136 156.879 321.696 141.791L321.357 141.303L322.372 140.618Z" fill="#E2E5EA"/>
<path d="M321.356 142.88C323.396 142.88 325.049 141.254 325.049 139.248C325.049 137.242 323.396 135.617 321.356 135.617C319.317 135.617 317.664 137.242 317.664 139.248C317.664 141.254 319.317 142.88 321.356 142.88ZM348.277 152.263C350.315 152.263 351.969 150.637 351.969 148.631C351.969 146.625 350.315 144.999 348.277 144.999C346.237 144.999 344.584 146.625 344.584 148.631C344.584 150.637 346.237 152.263 348.277 152.263ZM381.604 146.512C383.644 146.512 385.297 144.886 385.297 142.88C385.297 140.874 383.644 139.248 381.604 139.248C379.565 139.248 377.912 140.874 377.912 142.88C377.912 144.886 379.565 146.512 381.604 146.512ZM358.087 117.753C360.126 117.753 361.779 116.127 361.779 114.121C361.779 112.116 360.126 110.489 358.087 110.489C356.048 110.489 354.395 112.116 354.395 114.121C354.395 116.127 356.048 117.753 358.087 117.753Z" fill="#FF5858"/>
<path fill-rule="evenodd" clip-rule="evenodd" d="M313.534 189.174C315.463 190.308 317.296 190.364 321.731 189.742L323.464 189.495C323.832 189.444 324.135 189.406 324.461 189.368C327.175 189.051 329.19 189.113 331.088 189.726C335.12 191.03 341.557 201.671 350.723 221.926L351.766 224.277C351.325 224.036 350.994 223.852 350.775 223.723C350.577 223.606 350.279 223.423 349.885 223.172C340.769 202.957 334.27 192.03 330.703 190.877C329.081 190.352 327.311 190.277 324.922 190.534L324.607 190.57C324.128 190.625 323.701 190.682 323.026 190.779L321.888 190.943C317.267 191.591 315.241 191.542 313.037 190.291L312.902 190.213L313.534 189.174Z" fill="#E2E5EA"/>
<path d="M313.972 193.933C316.01 193.933 317.664 192.307 317.664 190.301C317.664 188.296 316.01 186.669 313.972 186.669C311.932 186.669 310.279 188.296 310.279 190.301C310.279 192.307 311.932 193.933 313.972 193.933Z" fill="#FF5858"/>
<path fill-rule="evenodd" clip-rule="evenodd" d="M221.956 114.121C229 124.611 232.191 134.969 231.518 145.177C235.241 142.681 239.73 141.659 244.978 142.128L245.375 142.166L245.247 143.37C239.75 142.805 235.13 143.933 231.381 146.774C231.039 150.01 230.307 153.232 229.185 156.437C221.905 177.236 219.674 192.829 222.05 207.436C223.632 217.164 226.883 227.397 231.803 238.137L232.141 238.87L231.021 239.372C225.868 228.271 222.471 217.689 220.834 207.627C218.422 192.798 220.681 177.015 228.021 156.043C228.963 153.352 229.622 150.65 229.999 147.936C225.917 151.722 222.997 157.802 221.226 166.206C217.926 181.869 218.65 202.284 223.408 227.443C223.656 227.976 223.909 228.513 224.165 229.053L224.44 229.628L223.817 229.567C223.926 230.122 224.037 230.679 224.149 231.238L224.486 232.893L223.28 233.134C223.024 231.891 222.777 230.659 222.538 229.438L218.668 229.053C220.021 224.773 220.624 224.417 220.06 223.001C213.308 206.06 210.534 195.251 211.987 186.851L212.039 186.561C213.764 177.297 213.79 165.11 212.111 150.009L212.032 149.309L213.256 149.174L213.412 150.578C214.999 165.231 214.974 177.15 213.329 186.343L213.25 186.779C211.726 194.962 214.409 206.989 221.323 222.827C217.336 199.729 216.899 180.776 220.021 165.96C221.984 156.646 225.384 150.027 230.205 146.143C231.146 136.004 228.151 125.7 221.21 115.211L220.929 114.789L221.956 114.121Z" fill="#E2E5EA"/>
<path d="M226.037 40.5815C239.623 40.5815 251.91 42.9623 262.899 47.7237C273.888 52.4851 283.677 59.7307 292.269 69.4606C300.859 78.9835 307.303 90.7314 311.598 104.705C315.894 118.679 318.042 134.878 318.042 153.302C318.042 173.383 315.894 190.721 311.598 205.315C307.303 219.91 300.959 231.762 292.568 240.87C284.177 249.772 274.637 256.448 263.948 260.899C253.259 265.35 241.422 267.575 228.435 267.575C213.051 267.575 199.565 265.04 187.977 259.968C176.389 254.896 166.799 247.288 159.207 237.144C151.414 226.793 145.621 214.631 141.824 200.657C138.029 186.684 136.131 170.898 136.131 153.302V152.681V151.796C136.201 133.531 138.398 117.472 142.724 103.618C147.119 89.5408 153.712 77.8449 162.503 68.529C171.294 59.2132 180.984 52.226 191.573 47.5687C202.162 42.9108 213.65 40.5815 226.037 40.5815ZM228.435 84.6765H226.037L225.674 84.6783C220.237 84.7491 215.613 86.404 211.802 89.6443C207.906 92.9566 204.759 97.925 202.362 104.55C199.965 111.381 198.166 118.834 196.968 126.908L196.845 127.745C195.768 135.309 195.21 143.5 195.172 152.319L195.17 152.933V153.601C195.201 164.308 195.769 173.904 196.871 182.388L196.968 183.112C198.166 192.014 200.064 199.777 202.662 206.402C205.059 213.234 208.206 218.306 212.102 221.618C215.998 224.93 220.643 226.586 226.037 226.586C233.03 226.586 238.724 224.982 243.119 221.773C247.515 218.564 250.412 213.751 251.811 207.334C253.409 200.916 254.608 193.205 255.407 184.2C256.206 175.194 256.606 164.895 256.606 153.302C256.606 142.952 256.106 133.584 255.107 125.199C254.108 116.816 252.51 109.518 250.312 103.308C248.314 97.0969 245.467 92.439 241.771 89.3338C238.075 86.2285 233.629 84.6765 228.435 84.6765Z" fill="#6B5C8B"/>
<path d="M226.037 40.5815C239.623 40.5815 251.91 42.9623 262.899 47.7237C273.888 52.4851 283.677 59.7307 292.269 69.4606C300.859 78.9835 307.303 90.7314 311.598 104.705C315.894 118.679 318.042 134.878 318.042 153.302C318.042 173.383 315.894 190.721 311.598 205.315C307.303 219.91 300.959 231.762 292.568 240.87C284.177 249.772 274.637 256.448 263.948 260.899C253.259 265.35 241.422 267.575 228.435 267.575C213.051 267.575 199.565 265.04 187.977 259.968C176.389 254.896 166.799 247.288 159.207 237.144C151.414 226.793 145.621 214.631 141.824 200.657C138.029 186.684 136.131 170.898 136.131 153.302V152.681V151.796C136.201 133.531 138.398 117.472 142.724 103.618C147.119 89.5408 153.712 77.8449 162.503 68.529C171.294 59.2132 180.984 52.226 191.573 47.5687C202.162 42.9108 213.65 40.5815 226.037 40.5815ZM228.435 84.6765H226.037L225.674 84.6783C220.237 84.7491 215.613 86.404 211.802 89.6443C207.906 92.9566 204.759 97.925 202.362 104.55C199.965 111.381 198.166 118.834 196.968 126.908L196.845 127.745C195.768 135.309 195.21 143.5 195.172 152.319L195.17 152.933V153.601C195.201 164.308 195.769 173.904 196.871 182.388L196.968 183.112C198.166 192.014 200.064 199.777 202.662 206.402C205.059 213.234 208.206 218.306 212.102 221.618C215.998 224.93 220.643 226.586 226.037 226.586C233.03 226.586 238.724 224.982 243.119 221.773C247.515 218.564 250.412 213.751 251.811 207.334C253.409 200.916 254.608 193.205 255.407 184.2C256.206 175.194 256.606 164.895 256.606 153.302C256.606 142.952 256.106 133.584 255.107 125.199C254.108 116.816 252.51 109.518 250.312 103.308C248.314 97.0969 245.467 92.439 241.771 89.3338C238.075 86.2285 233.629 84.6765 228.435 84.6765Z" fill="url(#paint2_linear_2660_12778)"/>
<path fill-rule="evenodd" clip-rule="evenodd" d="M226.037 40.5815C239.623 40.5815 251.91 42.9623 262.899 47.7237C273.888 52.4851 283.677 59.7307 292.269 69.4606C300.859 78.9835 307.303 90.7314 311.598 104.705C315.894 118.679 318.042 134.878 318.042 153.302C318.042 173.383 315.894 190.721 311.598 205.315C307.303 219.91 300.959 231.762 292.568 240.87C284.177 249.772 274.637 256.448 263.948 260.899C253.259 265.35 241.422 267.575 228.435 267.575C213.051 267.575 199.565 265.04 187.977 259.968C176.389 254.896 166.799 247.288 159.207 237.144C151.414 226.793 145.621 214.631 141.824 200.657C138.029 186.684 136.131 170.898 136.131 153.302V152.681V151.796C136.201 133.531 138.398 117.472 142.724 103.618C147.119 89.5408 153.712 77.8449 162.503 68.529C171.294 59.2132 180.984 52.226 191.573 47.5687C202.162 42.9108 213.65 40.5815 226.037 40.5815ZM228.435 84.6765H226.037L225.674 84.6783C220.237 84.7491 215.613 86.404 211.802 89.6443C207.906 92.9566 204.759 97.925 202.362 104.55C199.965 111.381 198.166 118.834 196.968 126.908L196.845 127.745C195.768 135.309 195.21 143.5 195.172 152.319L195.17 152.933V153.601C195.201 164.308 195.769 173.904 196.871 182.388L196.968 183.112C198.166 192.014 200.064 199.777 202.662 206.402C205.059 213.234 208.206 218.306 212.102 221.618C215.998 224.93 220.643 226.586 226.037 226.586C233.03 226.586 238.724 224.982 243.119 221.773C247.515 218.564 250.412 213.751 251.811 207.334C253.409 200.916 254.608 193.205 255.407 184.2C256.206 175.194 256.606 164.895 256.606 153.302C256.606 142.952 256.106 133.584 255.107 125.199C254.108 116.816 252.51 109.518 250.312 103.308C248.314 97.0969 245.467 92.439 241.771 89.3338C238.075 86.2285 233.629 84.6765 228.435 84.6765Z" fill="black" fill-opacity="0.2"/>
<path fill-rule="evenodd" clip-rule="evenodd" d="M92.3803 191.447C99.2718 191.447 108.388 193.878 119.75 198.729L120.038 198.868L119.999 199.513L118.613 199.773C107.635 195.131 98.9691 192.658 92.3803 192.658C85.7496 192.658 78.3454 196.024 70.1803 202.789L69.814 203.094L69.0156 202.173C77.5288 195.034 85.3138 191.447 92.3803 191.447Z" fill="#E2E5EA"/>
<path d="M69.0166 206.726C71.056 206.726 72.7085 205.099 72.7085 203.094C72.7085 201.088 71.056 199.462 69.0166 199.462C66.9773 199.462 65.3242 201.088 65.3242 203.094C65.3242 205.099 66.9773 206.726 69.0166 206.726Z" fill="#FF5858"/>
<path d="M97.386 262.733C140.781 262.733 178.12 235.148 178.12 187.381C178.12 142.305 146.499 121.449 109.496 121.449C102.432 121.449 96.7129 122.121 89.3123 124.812L92.0036 93.8643H168.701V45.4238H42.2174L36.8356 155.087L61.7286 171.234C74.5111 163.161 79.8936 161.142 91.331 161.142C108.15 161.142 120.26 170.562 120.26 188.727C120.26 207.565 108.824 216.311 88.6398 216.311C73.1655 216.311 58.3643 207.565 45.5818 196.127L20.0156 232.458C37.5081 249.95 62.4011 262.733 97.386 262.733Z" fill="#6B5C8B"/>
<path d="M97.386 262.733C140.781 262.733 178.12 235.148 178.12 187.381C178.12 142.305 146.499 121.449 109.496 121.449C102.432 121.449 96.7129 122.121 89.3123 124.812L92.0036 93.8643H168.701V45.4238H42.2174L36.8356 155.087L61.7286 171.234C74.5111 163.161 79.8936 161.142 91.331 161.142C108.15 161.142 120.26 170.562 120.26 188.727C120.26 207.565 108.824 216.311 88.6398 216.311C73.1655 216.311 58.3643 207.565 45.5818 196.127L20.0156 232.458C37.5081 249.95 62.4011 262.733 97.386 262.733Z" fill="url(#paint3_linear_2660_12778)"/>
<path d="M96.8924 190.834C92.2436 180.323 79.5574 166.405 69.1278 158.872C54.358 148.204 75.7844 125.655 73.8069 106.982C71.8293 88.3091 97.9372 119.032 96.0432 136.046C94.1497 153.06 95.9457 149.864 112.331 165.875C114.699 168.189 116.918 173.667 118.309 177.158C119.7 180.649 122.654 194.079 116.94 203.574C116.405 204.023 100.559 199.126 96.8924 190.834Z" fill="url(#paint4_linear_2660_12778)"/>
<path d="M96.8963 190.834C92.2475 180.323 79.5613 166.405 69.1317 158.872C54.3619 148.204 75.7883 125.655 73.8108 106.982C71.8332 88.3095 97.9411 119.032 96.0471 136.046C94.1536 153.061 95.9496 149.864 112.335 165.875C114.703 168.189 116.921 173.668 118.312 177.159C119.704 180.649 122.658 194.079 116.944 203.574C116.409 204.022 100.563 199.126 96.8963 190.834Z" fill="white" fill-opacity="0.4"/>
<path d="M81.6755 110.619C81.6761 110.243 81.3674 109.934 80.9866 109.93C80.6065 109.925 80.297 110.226 80.297 110.602C80.2675 138.614 84.4158 155.608 92.909 161.639C107.759 172.184 117.662 191.122 115.321 210.85C115.276 211.223 115.547 211.564 115.925 211.612C116.303 211.659 116.645 211.396 116.689 211.023C119.07 190.969 109.147 171.745 94.1614 160.864L93.7056 160.537C85.7124 154.861 81.6464 138.203 81.6755 110.619Z" fill="#FF5858" fill-opacity="0.2"/>
<path d="M97.7219 204.235C103.125 202.092 109.529 201.89 116.933 203.629C116.163 203.985 115.595 204.23 115.228 204.364C106.544 207.534 100.675 209.907 97.5845 211.73C94.297 213.667 87.5447 214.601 77.3275 214.53C85.5211 209.81 92.3188 206.379 97.7219 204.235ZM71.4148 123.786C75.7985 132.865 77.7918 139.279 77.3953 143.028C77.0152 146.629 77.2325 153.123 78.0491 162.511C82.5575 167.002 86.2844 171.058 89.2311 174.682C86.9206 170.69 85.6597 166.73 85.4479 162.802C85.1392 157.079 85.4279 149.568 86.3141 140.27C90.6972 149.348 92.6911 155.762 92.2946 159.511C91.9084 163.167 92.1384 169.803 92.9853 179.42C95.7691 182.775 98.8847 185.987 102.025 188.793C99.0766 184.249 97.4822 179.746 97.2419 175.283C96.9338 169.561 97.2219 162.05 98.1081 152.752C102.491 161.83 104.485 168.244 104.089 171.994C103.713 175.544 103.92 181.909 104.708 191.086C110.091 195.48 115.286 198.45 118.725 198.663L119.083 198.713C118.803 199.647 118.574 200.287 118.395 200.634C118.196 200.616 117.992 200.591 117.784 200.558L117.814 200.58C107.61 199.869 100.605 199.741 96.8006 200.196C92.9962 200.651 86.4418 198.802 77.1375 194.65C86.5738 193.617 94.2032 193.201 100.026 193.405C101.828 193.468 103.642 193.741 105.466 194.224C103.259 192.56 101.008 190.643 98.8042 188.557C90.0265 186.12 83.8595 184.746 80.3027 184.436C76.4856 184.104 70.4651 180.955 62.2412 174.99C71.6902 175.909 79.2403 177.063 84.8928 178.453C87.3843 179.066 89.8068 180.099 92.1602 181.553C91.3606 180.614 90.5852 179.662 89.8395 178.703L89.3546 178.073C88.2335 176.602 86.9648 175.047 85.5484 173.409C76.7452 170.964 70.5631 169.586 67.0002 169.275C63.1825 168.943 57.162 165.794 48.9388 159.829C58.3872 160.748 65.9379 161.902 71.5898 163.292C74.281 163.954 76.8917 165.106 79.4207 166.748C75.9456 163.163 71.9154 159.264 67.3307 155.056C59.941 151.449 53.5047 147.887 48.0211 144.37C41.5987 140.25 35.5183 135.573 29.7793 130.339C43.7706 132.819 53.6821 137.255 59.5131 143.647C62.697 147.136 65.3047 150.039 67.3368 152.354L67.2769 152.299C70.18 154.939 72.8742 157.463 75.3597 159.871C72.3936 155.312 70.7901 150.794 70.5486 146.318C70.2405 140.595 70.5292 133.085 71.4148 123.786Z" fill="#679368"/>
<path d="M97.7238 204.235C103.127 202.091 109.531 201.889 116.935 203.628C116.165 203.984 115.597 204.229 115.23 204.363C106.546 207.534 100.677 209.907 97.5864 211.729C94.299 213.667 87.5467 214.6 77.3295 214.529C85.5231 209.81 92.3208 206.378 97.7238 204.235ZM71.4168 123.785C75.8005 132.864 77.7938 139.278 77.3973 143.028C77.0166 146.629 77.2345 153.122 78.0504 162.51C82.5594 167.002 86.2864 171.058 89.2331 174.681C86.9226 170.689 85.6617 166.729 85.4498 162.801C85.1411 157.078 85.4299 149.567 86.3154 140.269C90.6991 149.347 92.6931 155.762 92.2966 159.511C91.9098 163.166 92.1404 169.802 92.9866 179.419C95.7711 182.775 98.8867 185.986 102.027 188.793C99.0785 184.248 97.4841 179.745 97.2438 175.283C96.9351 169.56 97.2239 162.05 98.11 152.751C102.493 161.829 104.487 168.243 104.091 171.993C103.715 175.544 103.922 181.908 104.71 191.086C110.093 195.479 115.288 198.449 118.727 198.662L119.085 198.713C118.805 199.647 118.576 200.286 118.397 200.633C118.197 200.615 117.993 200.59 117.786 200.558L117.816 200.58C107.611 199.868 100.607 199.74 96.8026 200.196C92.9981 200.651 86.4438 198.802 77.1394 194.649C86.5757 193.616 94.2051 193.201 100.027 193.404C101.83 193.467 103.644 193.74 105.467 194.223C103.261 192.56 101.01 190.643 98.8061 188.556C90.0284 186.119 83.8615 184.745 80.3046 184.435C76.4875 184.103 70.467 180.954 62.2432 174.99C71.6922 175.908 79.2423 177.063 84.8941 178.453C87.3862 179.065 89.8087 180.098 92.1616 181.552C91.3626 180.614 90.5872 179.662 89.8408 178.703L89.3565 178.073C88.2355 176.601 86.9668 175.046 85.5503 173.408C76.7472 170.963 70.5651 169.585 67.0022 169.275C63.1845 168.942 57.164 165.793 48.9407 159.828C58.3891 160.748 65.9393 161.902 71.5917 163.291C74.2829 163.953 76.8937 165.105 79.4227 166.748C75.9476 163.162 71.9168 159.264 67.3327 155.055C59.943 151.448 53.5066 147.886 48.0231 144.369C41.6007 140.25 35.5203 135.572 29.7812 130.338C43.7725 132.819 53.684 137.255 59.515 143.646C62.699 147.135 65.3067 150.038 67.3387 152.354L67.2788 152.299C70.1819 154.939 72.8762 157.463 75.3616 159.87C72.3956 155.311 70.7921 150.794 70.5506 146.317C70.2425 140.595 70.5312 133.084 71.4168 123.785Z" fill="white" fill-opacity="0.15"/>
<path d="M228.62 212.432C232.23 215.393 235.056 219.554 237.087 224.875C237.087 224.875 235.435 225.623 234.571 225.623C228.902 220.772 224.704 217.537 221.999 215.945C218.71 214.01 214.62 208.556 209.729 199.585C217.829 204.464 224.126 208.746 228.62 212.432ZM288.473 141.829C282.658 150.064 278.014 154.918 274.543 156.389C271.209 157.802 265.635 161.141 257.821 166.405C256.079 172.524 254.339 177.749 252.598 182.082C254.969 178.128 257.82 175.107 261.153 173.018C266.008 169.974 272.717 166.585 281.279 162.852C275.464 171.087 270.821 175.94 267.349 177.411C263.965 178.845 258.272 182.264 250.27 187.668C248.662 191.774 247.342 196.096 246.397 200.229C248.952 195.392 252.138 191.777 255.954 189.385C260.809 186.34 267.518 182.952 276.08 179.218C270.265 187.454 265.622 192.307 262.15 193.778C258.855 195.175 253.372 198.452 245.7 203.611C244.463 210.375 244.37 216.282 245.845 219.378C245.538 219.684 245.29 219.936 245.1 220.134C244.911 220.331 244.627 220.589 244.25 220.908C243.977 220.408 243.743 219.842 243.548 219.214C239.35 210.248 236.152 204.243 233.954 201.198C231.711 198.092 230.151 191.463 229.272 181.311C234.751 189.063 238.812 195.535 241.457 200.726C242.255 202.293 242.884 203.965 243.343 205.742C243.738 203.002 244.333 200.101 245.096 197.164C242.975 188.317 241.188 182.265 239.736 179.007C238.176 175.507 238.011 168.714 239.241 158.63C243.019 167.34 245.669 174.503 247.194 180.12C247.866 182.597 248.137 185.216 248.007 187.979C248.441 186.824 248.897 185.685 249.374 184.568L249.69 183.839C250.434 182.145 251.178 180.282 251.925 178.249C249.795 169.364 248.003 163.289 246.547 160.022C244.987 156.521 244.822 149.729 246.052 139.645C249.83 148.354 252.48 155.518 254.005 161.135C254.731 163.811 254.989 166.654 254.778 169.663C256.23 164.886 257.685 159.472 259.144 153.422C258.716 145.208 258.711 137.85 259.128 131.348C259.618 123.734 259.92 116.739 260.033 110.365C266.329 122.622 268.096 132.85 265.332 141.048C263.826 145.519 262.553 149.203 261.513 152.101L261.53 152.034C260.628 155.852 259.727 159.431 258.827 162.771C261.375 157.968 264.548 154.376 268.346 151.995C273.201 148.951 279.911 145.563 288.473 141.829Z" fill="#679368"/>
<path d="M228.62 212.432C232.23 215.393 235.056 219.554 237.087 224.875C237.087 224.875 235.435 225.623 234.571 225.623C228.902 220.772 224.704 217.537 221.999 215.945C218.71 214.009 214.62 208.556 209.729 199.585C217.829 204.464 224.126 208.746 228.62 212.432ZM288.473 141.829C282.658 150.064 278.014 154.918 274.543 156.389C271.209 157.802 265.635 161.14 257.821 166.405C256.079 172.523 254.339 177.749 252.598 182.083C254.969 178.128 257.82 175.107 261.153 173.018C266.008 169.974 272.717 166.585 281.279 162.852C275.464 171.087 270.821 175.94 267.349 177.411C263.965 178.845 258.272 182.264 250.27 187.668C248.662 191.774 247.342 196.096 246.397 200.229C248.952 195.392 252.138 191.777 255.954 189.385C260.809 186.34 267.518 182.952 276.08 179.218C270.265 187.454 265.622 192.307 262.15 193.778C258.855 195.174 253.372 198.452 245.7 203.611C244.463 210.375 244.37 216.282 245.845 219.378C245.538 219.684 245.29 219.935 245.1 220.133C244.911 220.331 244.627 220.59 244.25 220.908C243.977 220.408 243.743 219.842 243.548 219.215C239.35 210.248 236.152 204.243 233.954 201.198C231.711 198.091 230.151 191.463 229.272 181.311C234.751 189.064 238.812 195.535 241.457 200.726C242.255 202.293 242.884 203.965 243.343 205.742C243.738 203.002 244.333 200.101 245.096 197.163C242.975 188.317 241.188 182.265 239.736 179.007C238.176 175.506 238.011 168.715 239.241 158.63C243.019 167.34 245.669 174.503 247.194 180.12C247.866 182.597 248.137 185.216 248.007 187.979C248.441 186.825 248.897 185.685 249.374 184.568L249.69 183.839C250.434 182.145 251.178 180.282 251.925 178.249C249.795 169.364 248.003 163.289 246.547 160.022C244.987 156.521 244.822 149.73 246.052 139.645C249.83 148.355 252.48 155.518 254.005 161.135C254.731 163.811 254.989 166.654 254.778 169.663C256.23 164.886 257.685 159.472 259.144 153.421C258.716 145.208 258.711 137.85 259.128 131.348C259.618 123.734 259.92 116.739 260.033 110.365C266.329 122.622 268.096 132.85 265.332 141.049C263.826 145.519 262.553 149.203 261.513 152.101L261.53 152.033C260.628 155.852 259.727 159.431 258.827 162.771C261.375 157.968 264.548 154.377 268.346 151.996C273.201 148.952 279.911 145.563 288.473 141.829Z" fill="white" fill-opacity="0.15"/>
<path d="M212.546 152.263C214.585 152.263 216.238 150.637 216.238 148.631C216.238 146.625 214.585 144.999 212.546 144.999C210.507 144.999 208.854 146.625 208.854 148.631C208.854 150.637 210.507 152.263 212.546 152.263ZM245.877 146.512C247.915 146.512 249.568 144.886 249.568 142.88C249.568 140.874 247.915 139.248 245.877 139.248C243.837 139.248 242.184 140.874 242.184 142.88C242.184 144.886 243.837 146.512 245.877 146.512ZM222.359 117.753C224.398 117.753 226.051 116.127 226.051 114.121C226.051 112.116 224.398 110.489 222.359 110.489C220.319 110.489 218.666 112.116 218.666 114.121C218.666 116.127 220.319 117.753 222.359 117.753Z" fill="#FF5858"/>
<path fill-rule="evenodd" clip-rule="evenodd" d="M177.806 189.174C179.734 190.308 181.568 190.364 186.002 189.742L187.736 189.495C188.104 189.444 188.406 189.406 188.734 189.368C191.447 189.051 193.462 189.113 195.359 189.726C199.392 191.03 205.83 201.671 214.994 221.926L216.038 224.277C215.596 224.036 215.266 223.852 215.047 223.723C214.848 223.606 214.552 223.423 214.156 223.172C205.041 202.957 198.542 192.03 194.975 190.877C193.352 190.352 191.583 190.277 189.194 190.534L188.878 190.57C188.4 190.625 187.973 190.682 187.297 190.779L186.16 190.943C181.539 191.591 179.513 191.542 177.309 190.291L177.174 190.213L177.806 189.174Z" fill="#E2E5EA"/>
<path d="M178.243 193.933C180.283 193.933 181.936 192.307 181.936 190.301C181.936 188.296 180.283 186.669 178.243 186.669C176.204 186.669 174.551 188.296 174.551 190.301C174.551 192.307 176.204 193.933 178.243 193.933Z" fill="#FF5858"/>
<path fill-rule="evenodd" clip-rule="evenodd" d="M106.458 133.173C112.083 141.219 114.126 152.433 112.615 166.8L112.561 167.302C111.467 177.213 113.783 187.132 119.519 197.069C119.519 197.069 119.136 198.692 119.077 198.731C112.848 188.374 110.248 177.998 111.291 167.611L111.337 167.172C112.902 152.995 110.991 141.987 105.634 134.134L105.443 133.859L106.458 133.173Z" fill="#E2E5EA"/>
<path fill-rule="evenodd" clip-rule="evenodd" d="M131.254 118.958C133.121 128.597 130.426 139.672 123.202 152.183L122.948 152.62C116.086 164.365 115.054 178.741 119.793 195.711C119.819 195.803 119.581 197.044 119.34 197.688C119.278 197.855 119.208 197.855 119.13 197.688C113.381 179.315 114.429 165.049 121.662 152.385L121.884 152.003C129.079 139.688 131.811 128.855 130.111 119.502L130.049 119.172L131.254 118.958Z" fill="#E2E5EA"/>
<path d="M105.442 136.805C107.481 136.805 109.134 135.178 109.134 133.173C109.134 131.167 107.481 129.541 105.442 129.541C103.403 129.541 101.75 131.167 101.75 133.173C101.75 135.178 103.403 136.805 105.442 136.805ZM130.194 122.178C132.233 122.178 133.886 120.552 133.886 118.546C133.886 116.54 132.233 114.914 130.194 114.914C128.155 114.914 126.501 116.54 126.501 118.546C126.501 120.552 128.155 122.178 130.194 122.178Z" fill="#FF5858"/>
<path d="M209.542 192.27C210.183 192.27 210.704 192.785 210.712 193.425L211.528 256.265H214.692V282.143C214.692 282.315 212.491 282.456 209.736 282.462L209.543 282.462C206.7 282.462 204.395 282.319 204.395 282.143V256.265H207.555L208.372 193.425C208.381 192.785 208.902 192.27 209.542 192.27ZM285.105 192.27C285.745 192.27 286.267 192.785 286.275 193.425L287.092 256.265H290.245V282.143C290.245 282.315 288.044 282.456 285.29 282.462L285.097 282.462C282.253 282.462 279.948 282.319 279.948 282.143V256.265H283.118L283.935 193.425C283.943 192.785 284.465 192.27 285.105 192.27Z" fill="#FF541E"/>
<path d="M203.812 251.143C203.812 250.82 204.073 250.559 204.394 250.559H289.311C289.633 250.559 289.893 250.82 289.893 251.143C289.893 251.466 289.633 251.727 289.311 251.727H204.394C204.073 251.727 203.812 251.466 203.812 251.143Z" fill="#FF541E"/>
<path fill-rule="evenodd" clip-rule="evenodd" d="M285.105 192.27C285.745 192.27 286.266 192.785 286.275 193.425L287.017 250.558L289.311 250.558C289.633 250.558 289.893 250.82 289.893 251.143C289.893 251.466 289.633 251.727 289.311 251.727L287.033 251.727L287.091 256.265H290.245V282.143C290.245 282.315 288.044 282.456 285.289 282.462L285.096 282.462C282.253 282.462 279.947 282.319 279.947 282.143V256.265H283.118L283.177 251.727H211.469L211.528 256.265H214.692V282.143C214.692 282.315 212.49 282.456 209.736 282.462L209.543 282.462C206.699 282.462 204.394 282.319 204.394 282.143V256.265H207.555L207.613 251.727L204.394 251.727C204.073 251.727 203.812 251.466 203.812 251.143C203.812 250.82 204.073 250.558 204.394 250.558L207.628 250.558L208.372 193.425C208.38 192.785 208.901 192.27 209.542 192.27C210.182 192.27 210.703 192.785 210.712 193.425L211.453 250.558H283.193L283.935 193.425C283.943 192.785 284.464 192.27 285.105 192.27Z" fill="black" fill-opacity="0.4"/>
<path fill-rule="evenodd" clip-rule="evenodd" d="M283.211 247.356L283.362 235.768L286.847 235.722L287 247.528L283.211 247.356Z" fill="black" fill-opacity="0.15"/>
<path fill-rule="evenodd" clip-rule="evenodd" d="M283.521 225.069L283.672 213.463L286.532 213.425L286.685 225.212L283.521 225.069Z" fill="black" fill-opacity="0.15"/>
<path fill-rule="evenodd" clip-rule="evenodd" d="M207.693 246.274L207.787 239.12L211.298 239.073L211.394 246.442L207.693 246.274Z" fill="black" fill-opacity="0.15"/>
<path fill-rule="evenodd" clip-rule="evenodd" d="M207.973 223.987L208.066 216.816L211.013 216.776L211.109 224.129L207.973 223.987Z" fill="black" fill-opacity="0.15"/>
<path d="M195.275 229.612H303.582V245.12H195.275V229.612Z" fill="#FF541E"/>
<path d="M208.648 229.612H201.927L195.273 241.184V245.12H199.731L208.648 229.612ZM222.411 245.12H215.69L224.607 229.612H231.328L222.411 245.12ZM245.091 245.12H238.37L247.287 229.612H254.008L245.091 245.12ZM267.771 245.12H261.05L269.967 229.612H276.688L267.771 245.12ZM290.451 245.12H283.73L292.648 229.612H299.368L290.451 245.12Z" fill="white" fill-opacity="0.5"/>
<path d="M195.275 207.587H303.582V223.095H195.275V207.587Z" fill="#FF541E"/>
<path d="M206.937 207.587H200.217L195.273 216.184V223.095H198.02L206.937 207.587ZM220.7 223.095H213.98L222.897 207.587H229.618L220.7 223.095ZM243.381 223.095H236.66L245.577 207.587H252.298L243.381 223.095ZM266.061 223.095H259.34L268.257 207.587H274.978L266.061 223.095ZM288.741 223.095H282.02L290.937 207.587H297.658L288.741 223.095Z" fill="white" fill-opacity="0.5"/>
<path d="M325.959 244.578L316.487 278.984H342.623L333.151 244.578H325.959ZM313.444 280.195C313.444 279.526 313.986 278.984 314.655 278.984H344.463C345.132 278.984 345.673 279.526 345.673 280.195V280.612C345.673 281.281 345.132 281.823 344.463 281.823H314.655C313.986 281.823 313.444 281.281 313.444 280.612V280.195ZM165.696 244.578L156.225 278.984H182.36L172.889 244.578H165.696ZM153.182 280.195C153.182 279.526 153.724 278.984 154.392 278.984H184.201C184.869 278.984 185.411 279.526 185.411 280.195V280.612C185.411 281.281 184.869 281.823 184.201 281.823H154.392C153.724 281.823 153.182 281.281 153.182 280.612V280.195Z" fill="#FF541E"/>
<path d="M333.154 244.586C333.155 244.584 333.155 244.583 333.155 244.582V244.578C333.155 244.333 331.543 244.135 329.556 244.135C327.568 244.135 325.957 244.333 325.957 244.578V244.58L325.201 247.326H333.906L333.153 244.59C333.153 244.589 333.154 244.587 333.154 244.586ZM324.37 250.344L322.457 257.294H336.65L334.737 250.344H324.37ZM319.713 267.261L321.626 260.311H337.481L339.394 267.261H319.713ZM318.883 270.278L316.969 277.228H342.138L340.225 270.278H318.883ZM173.644 247.326L172.887 244.578H172.8C172.431 244.381 171.001 244.235 169.294 244.235C167.586 244.235 166.156 244.381 165.787 244.578H165.695L164.938 247.326H173.644ZM162.195 257.294L164.108 250.344H174.475L176.388 257.294H162.195ZM161.364 260.311L159.451 267.261H179.132L177.219 260.311H161.364ZM156.707 277.228L158.62 270.278H179.963L181.876 277.228H156.707Z" fill="white" fill-opacity="0.5"/>
<path d="M355.39 102.214C347.827 102.214 341.67 108.232 341.444 115.74C340.332 114.684 338.829 114.036 337.174 114.036C334.21 114.036 331.732 116.115 331.118 118.894C330.097 118.154 328.842 117.718 327.484 117.718C325.438 117.718 323.623 118.709 322.493 120.237H408.628C408.722 120.121 408.813 120.002 408.902 119.881C408.891 119.999 408.883 120.117 408.877 120.237H424.759C424.554 116.029 421.077 112.679 416.818 112.679C414.357 112.679 412.157 113.797 410.699 115.553C410.775 115.059 410.815 114.552 410.815 114.036C410.815 108.577 406.39 104.152 400.932 104.152C395.473 104.152 391.048 108.577 391.048 114.036C391.048 114.466 391.076 114.89 391.129 115.306C390.199 114.748 389.11 114.428 387.948 114.428C385.946 114.428 384.167 115.376 383.033 116.847C382.132 113.447 379.035 110.94 375.351 110.94C372.849 110.94 370.617 112.096 369.161 113.904C368.079 107.274 362.326 102.214 355.39 102.214ZM440.798 86.9448C437.629 86.9448 435.061 89.4427 435.061 92.5239C435.061 92.7669 435.077 93.0063 435.108 93.2411C434.568 92.9263 433.936 92.7454 433.261 92.7454C432.099 92.7454 431.066 93.2805 430.408 94.111C429.885 92.1915 428.087 90.7763 425.949 90.7763C423.401 90.7763 421.336 92.7844 421.336 95.2615C421.336 95.5215 421.359 95.7765 421.403 96.0244L445.265 96.0246C445.32 95.9587 445.373 95.8916 445.425 95.8233C445.418 95.8899 445.413 95.9569 445.41 96.0244H454.629C454.51 93.6487 452.492 91.7582 450.019 91.7582C448.591 91.7582 447.314 92.3892 446.468 93.3803C446.512 93.1012 446.535 92.8152 446.535 92.5239C446.535 89.4427 443.966 86.9448 440.798 86.9448ZM404.424 92.998C402.706 92.998 401.269 94.0127 400.913 95.3691C400.322 95.008 399.594 94.795 398.807 94.795C397.62 94.795 396.568 95.2787 395.913 96.0246H408.02C408.02 94.353 406.41 92.998 404.424 92.998Z" fill="#EAEAEA"/>
<path d="M235.886 98.7119C232.717 98.7119 230.149 101.21 230.149 104.291C230.149 104.534 230.164 104.773 230.195 105.008C229.656 104.693 229.024 104.513 228.349 104.513C227.187 104.513 226.154 105.048 225.496 105.878C224.973 103.959 223.175 102.543 221.037 102.543C218.489 102.543 216.424 104.552 216.424 107.029C216.424 107.289 216.447 107.544 216.491 107.792L240.353 107.792C240.408 107.726 240.461 107.659 240.513 107.59C240.506 107.657 240.501 107.724 240.498 107.791H249.717C249.598 105.416 247.58 103.525 245.107 103.525C243.679 103.525 242.402 104.156 241.555 105.147C241.6 104.868 241.623 104.582 241.623 104.291C241.623 101.21 239.054 98.7119 235.886 98.7119Z" fill="#EBEBEB"/>
<defs>
<linearGradient id="paint0_linear_2660_12778" x1="362.813" y1="40.5815" x2="362.813" y2="267.575" gradientUnits="userSpaceOnUse">
<stop stop-color="#B2B2B2"/>
<stop offset="1" stop-color="#3E3E3E"/>
</linearGradient>
<linearGradient id="paint1_linear_2660_12778" x1="389.473" y1="103.037" x2="389.473" y2="226.661" gradientUnits="userSpaceOnUse">
<stop stop-color="#FFE9E7"/>
<stop offset="1" stop-color="#FF4537"/>
</linearGradient>
<linearGradient id="paint2_linear_2660_12778" x1="227.086" y1="40.5815" x2="227.086" y2="267.575" gradientUnits="userSpaceOnUse">
<stop stop-color="#B2B2B2"/>
<stop offset="1" stop-color="#3E3E3E"/>
</linearGradient>
<linearGradient id="paint3_linear_2660_12778" x1="99.0676" y1="45.4238" x2="99.0676" y2="262.733" gradientUnits="userSpaceOnUse">
<stop stop-color="#B2B2B2"/>
<stop offset="1" stop-color="#3E3E3E"/>
</linearGradient>
<linearGradient id="paint4_linear_2660_12778" x1="92.1104" y1="101.158" x2="92.1104" y2="203.603" gradientUnits="userSpaceOnUse">
<stop stop-color="#FFE9E7"/>
<stop offset="1" stop-color="#FF4537"/>
</linearGradient>
</defs>
</svg>
