<?xml version="1.0" standalone="no"?>
<!DOCTYPE svg PUBLIC "-//W3C//DTD SVG 1.1//EN" "http://www.w3.org/Graphics/SVG/1.1/DTD/svg11.dtd">
<svg xmlns="http://www.w3.org/2000/svg">
<metadata>Copyright (C) 2024 by original authors @ fontello.com</metadata>
<defs>
<font id="fontello" horiz-adv-x="1000" >
<font-face font-family="fontello" font-weight="400" font-stretch="normal" units-per-em="1000" ascent="850" descent="-150" />
<missing-glyph horiz-adv-x="1000" />
<glyph glyph-name="manage-accounts" unicode="&#xe800;" d="M877-89l-14 79c-18 4-34 11-50 20-15 9-29 19-42 31l-76-26-33 56 59 55c-7 16-10 34-10 54 1 19 4 37 10 53l-58 54 33 59 74-26c12 13 26 24 42 34 16 9 33 15 51 19l16 78h65l15-78c18-5 35-11 51-20 16-8 31-19 42-32l75 23 32-55-56-53c5-18 7-37 7-56 0-19-3-37-8-54l58-53-33-57-76 25c-12-12-26-22-42-32-16-9-32-16-50-19l-16-79h-66z m-845 60v111c0 25 6 46 18 65 11 18 28 33 49 45 57 33 115 58 174 75 59 16 121 25 189 25 10 0 19 0 29-1 9 0 19-1 30-1-17-44-23-98-17-162 6-64 22-116 48-157h-520z m879 101c30 0 56 11 77 32 21 21 32 47 32 77 0 31-11 56-32 78-21 21-47 31-77 31-31 0-56-10-78-31-21-22-31-47-31-78 0-30 10-56 31-77 22-21 47-32 78-32z m-449 336c-56 0-103 19-141 58-39 38-58 85-58 141 0 55 19 102 58 141 38 38 85 58 141 58 55 0 102-20 141-58 38-39 57-86 57-141 0-56-19-103-57-141-39-39-86-58-141-58z" horiz-adv-x="1231" />

<glyph glyph-name="dashboard" unicode="&#xe801;" d="M160 690h280v-280h-280v280z m400 0h280v-280h-280v280z m-400-400h280v-280h-280v280z m513 0h54v-113h113v-54h-113v-113h-54v113h-113v54h113v113z" horiz-adv-x="1000" />

<glyph glyph-name="th-list" unicode="&#xe802;" d="M860 90q43 0 73-31t31-74q0-43-31-73t-73-31l-365 0q-44 0-74 31t-31 73 31 74 74 31l365 0z m0 364q43 0 73-31t31-73-31-73-73-31l-365 0q-44 0-74 31t-31 73 31 73 74 31l365 0z m0 365q43 0 73-31t31-73q0-44-31-74t-73-31l-365 0q-42 0-74 31t-31 74 31 73 74 31l365 0z m-860-834q0 130 130 130t130-130-130-130-130 130z m0 365q0 130 130 130t130-130-130-130-130 130z m0 365q0 130 130 130t130-130-130-130-130 130z" horiz-adv-x="964" />

<glyph glyph-name="receipt-long" unicode="&#xe803;" d="M125-124c-33 0-58 8-74 24-17 16-25 41-25 75v162h125v677l69-60 70 60 70-60 70 60 70-60 70 60 70-60 70 60 70-60 69 60v-823c0-34-11-62-33-83-21-21-49-32-82-32h-609z m609 68c14 0 26 4 34 12 9 8 13 20 13 35v703h-562v-557h469v-146c0-15 5-27 13-35 8-8 20-12 33-12z m-443 575v68h265v-68h-265z m0-156v68h265v-68h-265z m378 149c-10 0-20 4-28 12-9 8-13 18-13 29 0 11 4 21 13 29 8 8 18 12 29 12 10 0 19-4 28-12 8-8 12-17 12-29 0-11-4-20-12-29-8-8-18-12-29-12z m0-156c-10 0-20 4-28 12-9 8-13 17-13 29 0 11 4 21 13 29 8 8 18 12 29 12 10 0 19-4 28-12 8-8 12-18 12-29 0-11-4-21-12-29-8-8-18-12-29-12z" horiz-adv-x="875" />

<glyph glyph-name="lock-open" unicode="&#xe804;" d="M103 473h397v117c0 41-14 76-43 104-28 29-63 43-104 43-41 0-76-14-104-43-29-28-43-63-43-104h-64c0 59 21 109 62 150 41 41 91 61 149 61 59 0 109-20 149-61 41-41 62-91 62-150v-117h39c21 0 40-8 55-24 16-15 23-34 23-55v-441c0-21-7-40-23-55-15-16-34-24-55-24h-500c-22 0-40 8-55 24-16 15-23 34-23 55v441c0 21 7 40 23 55 15 16 34 24 55 24z m250-375c21 0 39 7 54 22 15 15 22 33 22 54 0 21-7 39-22 54-15 14-33 22-54 22-21 0-39-8-54-23-15-14-22-32-22-54 0-21 7-39 22-53 15-15 33-22 54-22z" horiz-adv-x="706" />

<glyph glyph-name="find-in-page" unicode="&#xe805;" d="M608-94l56-56h-546c-26 0-47 9-64 26-18 17-26 38-26 64v820c0 26 8 47 26 64 17 17 38 26 64 26h440l248-297v-613c0-9-3-17-7-26-5-8-11-16-19-23l-267 267c-16-11-31-18-47-23-15-5-32-7-49-7-46 0-85 16-118 49-33 32-49 72-49 117 0 46 16 86 49 118 33 33 72 49 118 49 46 0 85-16 117-49 33-32 49-72 49-118 0-19-2-36-7-51-5-16-13-30-23-45l197-200v535l-219 261h-413c-9 0-17-3-24-10-7-7-11-15-11-24v-820c0-9 4-17 11-24 7-7 15-10 24-10h490z m-191 277c30 0 56 11 78 33 22 22 33 48 33 78 0 31-11 57-33 79-22 22-48 33-78 33-31 0-57-11-79-33-22-22-32-48-32-79 0-30 10-56 32-78 22-22 48-33 79-33z" horiz-adv-x="833" />

<glyph glyph-name="network-node" unicode="&#xe806;" d="M228-25c-28 0-52 10-73 30-20 21-30 45-30 73 0 28 10 52 30 72 21 20 45 30 73 30 12 0 23-2 34-6 12-4 22-10 31-18l186 187v179c-23 5-42 17-58 35-16 19-24 41-24 65 0 28 11 53 31 73 20 20 44 30 72 30 28 0 52-10 72-30 21-20 31-45 31-73 0-24-8-46-24-65-15-18-35-30-58-35v-179l187-187c9 8 19 14 30 18 11 4 22 6 34 6 28 0 53-10 73-30 20-20 30-44 30-72 0-28-10-52-30-73-20-20-45-30-73-30-28 0-52 10-72 30-20 21-30 45-30 73 0 8 1 16 3 24 1 7 4 15 8 21l-181 182-181-182c4-6 7-14 8-21 2-8 3-16 3-24 0-28-10-52-30-73-20-20-44-30-72-30z m544 42c17 0 32 6 44 17 11 12 17 27 17 44 0 16-6 31-17 43-12 12-27 18-43 18-17 0-32-6-44-18-11-12-17-26-17-43 0-17 6-32 17-43 12-12 27-18 43-18z m-272 545c17 0 31 6 43 17 12 12 18 27 18 43 0 17-6 32-18 44-12 11-26 17-43 17-17 0-31-6-43-17-12-12-18-27-18-43 0-17 6-32 18-44 12-11 26-17 43-17z m-272-545c16 0 31 6 43 17 12 12 18 27 18 44 0 16-6 31-18 43-12 12-26 18-43 18-17 0-32-6-43-18-12-12-18-26-18-43 0-17 6-32 17-43 12-12 27-18 44-18z" horiz-adv-x="1000" />

<glyph glyph-name="tenancy" unicode="&#xe807;" d="M161-4c-29 0-54 10-75 31-20 20-31 45-31 75 0 29 11 54 31 75 21 20 46 30 75 30 7 0 14 0 21-2 7-1 14-3 20-6l188 258c-12 13-21 28-27 45-7 17-10 35-10 54 0 41 14 76 43 104 28 29 63 43 104 43 41 0 76-14 105-43 28-28 42-63 42-104 0-19-3-37-10-54-7-17-16-32-28-45l188-259c7 3 14 5 21 7 6 2 14 2 21 2 29 0 54-10 75-30 20-21 31-46 31-75 0-30-11-55-31-75-21-21-46-31-75-31-29 0-54 10-75 31-20 20-31 45-31 75 0 14 3 27 8 40 6 12 13 23 22 33l-186 256c-9-5-17-10-27-13-9-4-19-6-29-8v-204c24-5 44-17 61-36 16-20 24-42 24-68 0-29-10-54-31-74-21-21-46-31-75-31-29 0-54 10-75 31-20 20-31 45-31 74 0 26 8 48 25 68 16 19 36 31 60 36v204c-10 2-20 4-29 8-10 3-18 8-27 13l-187-256c9-10 17-21 22-33 6-13 9-26 9-40 0-30-10-55-31-75-21-21-46-31-75-31z m0 42c18 0 33 6 45 18 13 13 19 28 19 46 0 17-6 32-19 45-12 12-27 19-45 19-18 0-33-7-45-19-13-13-19-28-19-45 0-18 6-33 19-46 12-12 27-18 45-18z m339 0c18 0 33 7 45 19 13 13 19 28 19 45 0 18-6 33-19 46-12 12-27 19-45 19-18 0-33-7-45-19-13-13-19-28-19-46 0-17 6-32 19-45 12-12 27-19 45-19z m339 0c18 0 33 6 45 18 13 13 19 28 19 46 0 17-6 32-19 45-12 12-27 19-45 19-18 0-33-7-45-19-13-13-19-28-19-45 0-18 6-33 19-46 12-12 27-18 45-18z m-339 412c29 0 54 11 75 31 20 21 31 46 31 75 0 29-11 54-31 75-21 20-46 31-75 31-29 0-54-11-75-31-20-21-31-46-31-75 0-29 11-54 31-75 21-20 46-31 75-31z" horiz-adv-x="1000" />

<glyph glyph-name="database" unicode="&#xe808;" d="M500-135c-142 0-258 18-349 54-90 36-136 83-136 140v594c0 50 47 93 142 129 95 35 209 53 343 53 134 0 249-18 343-53 95-36 142-79 142-129v-594c0-57-45-104-136-140-91-36-207-54-349-54z m0 674c87 0 174 12 263 36 88 24 140 50 158 79-17 30-69 58-156 83-87 25-176 37-265 37-88 0-176-12-265-36-88-24-141-51-158-79 16-31 68-58 156-83 88-25 177-37 267-37z m0-305c42 0 83 2 123 6 40 4 78 10 115 18 37 8 71 17 102 29 32 12 60 26 84 41v248c-24-15-52-29-84-40-31-12-65-22-102-30-37-8-75-14-115-18-40-4-81-6-123-6-43 0-85 2-126 6-41 5-79 11-115 19-37 8-70 18-101 29-31 12-58 25-82 40v-248c24-15 51-29 82-40 31-12 64-21 101-29 36-8 74-14 115-19 41-4 83-6 126-6z m0-308c52 0 101 3 148 9 47 5 89 14 126 25 38 11 69 23 95 38 27 16 45 32 55 49v220c-24-15-52-28-84-40-31-12-65-22-102-30-37-8-75-14-115-18-40-4-81-6-123-6-43 0-85 2-126 7-41 4-79 10-115 18-37 8-70 18-101 29-31 12-58 25-82 40v-220c10-18 29-35 55-49 26-15 57-27 94-38 38-11 80-20 127-25 47-6 96-9 148-9z" horiz-adv-x="1000" />

<glyph glyph-name="pallet" unicode="&#xe809;" d="M8-111v116h941v-116h-103v58h-316v-58h-103v58h-317v-58h-102z m170 232c-13 0-24 4-33 13-9 9-13 21-13 34v602c0 13 4 24 13 33 9 9 20 14 33 14h600c13 0 25-5 34-14 9-9 13-20 13-33v-593c0-16-5-29-15-40-11-11-23-16-38-16h-594z m12 58h577v580h-577v-580z m114 372h348v58h-348v-58z" horiz-adv-x="957" />

<glyph glyph-name="domain-add" unicode="&#xe80a;" d="M25-30v872h461v-205h489v-426h-51v375h-438v-154h123v-51h-123v-154h123v-51h-123v-154h245v-52h-706z m51 52h154v154h-154v-154z m0 205h154v154h-154v-154z m0 205h154v154h-154v-154z m0 205h154v154h-154v-154z m205-615h154v154h-154v-154z m0 205h154v154h-154v-154z m0 205h154v154h-154v-154z m0 205h154v154h-154v-154z m643-769v102h-102v52h102v102h51v-102h103v-52h-103v-102h-51z m-193 513v51h51v-51h-51z m0-205v51h51v-51h-51z" horiz-adv-x="1115" />

<glyph glyph-name="orders" unicode="&#xe80b;" d="M208 58v455l-73 161 38 17 81-176h493l80 176 38-17-73-161v-455h-584z m209 271h166c6 0 11 2 15 6 4 4 6 9 6 15 0 6-2 11-6 15-4 4-9 6-15 6h-166c-6 0-11-2-15-6-4-4-6-9-6-15 0-6 2-11 6-15 4-4 9-6 15-6z m-167-229h500v373h-500v-373z" horiz-adv-x="1000" />

<glyph glyph-name="forklift" unicode="&#xe80c;" d="M164-120c-42 0-77 15-107 45-29 29-44 65-44 107 0 24 5 46 16 67 10 21 25 39 44 54v273h139v333h370l264-617c5-13 9-26 13-39 3-13 5-26 5-41 0-51-18-94-53-129-35-35-78-53-129-53-39 0-74 11-106 33-31 23-53 52-66 89h-198c-7-36-24-65-52-88-28-22-60-34-96-34z m760 61v909h61v-848h184v-61h-245z m-760 0c25 0 47 9 65 27 17 17 26 39 26 64 0 25-9 46-26 64-18 18-40 27-65 27-25 0-46-9-64-27-18-18-27-39-27-64 0-25 9-47 27-64 18-18 39-27 64-27z m518 0c33 0 61 12 85 36 24 24 36 52 36 85 0 33-12 62-36 86-24 23-52 35-85 35-33 0-62-12-86-35-23-24-35-53-35-86 0-33 12-61 35-85 24-24 53-36 86-36z m-370 121h188c-1 23 3 45 12 66 9 21 21 40 38 55h-126l-177 182h-113v-186c5 1 10 2 15 3 5 1 10 1 15 1 36 0 68-11 96-34 28-22 45-51 52-87z m138 182h234c10 0 20-1 30-4 9-2 19-5 28-10l-200 469h-269v-273l177-182z m-26-61l-28 29c-19 19-39 40-60 63-22 23-42 43-61 62l-28 28 177-182z" horiz-adv-x="1182" />

<glyph glyph-name="troubleshoot" unicode="&#xe80d;" d="M878-21l-219 219c-30-25-62-44-94-57-33-13-70-20-111-20-56 0-107 13-153 40-47 26-84 62-111 106h51c26-32 57-57 93-76 37-19 77-28 120-28 75 0 139 26 192 79 53 53 79 117 79 191 0 75-26 139-79 192-53 53-117 79-192 79-71 0-132-24-184-72-51-49-80-108-85-178h-42c5 83 38 152 97 208 59 56 131 84 214 84 88 0 161-30 222-91 61-61 91-134 91-222 0-41-7-78-20-110-13-33-32-65-57-95l218-219-30-30z m-460 301l-73 244-64-182h-189v37h163l69 198h44l72-243 56 170h44l63-125h34v-37h-57l-59 119-60-181h-43z" horiz-adv-x="1000" />

<glyph glyph-name="receipt_long-1" unicode="&#xe80e;" d="M125-150c-31 0-58 11-79 32-21 21-32 48-32 79v111h167v757l70-49 73 49 72-49 73 49 73-49 72 49 73-49 73 49 72-49 71 49v-868c0-31-11-58-32-79-22-21-48-32-79-32h-667z m667 56c15 0 29 5 39 15 11 11 16 24 16 40v778h-611v-667h500v-111c0-16 5-29 16-40 11-10 24-15 40-15z m-479 638v56h297v-56h-297z m0-166v55h297v-55h-297z m417 152c-12 0-22 4-30 12-9 9-13 19-13 30 0 12 4 22 13 30 8 9 18 13 30 13 11 0 21-4 30-13 8-8 12-18 12-30 0-11-4-21-12-30-9-8-19-12-30-12z m0-167c-12 0-22 4-30 13-9 8-13 18-13 30 0 11 4 21 13 30 8 8 18 12 30 12 11 0 21-4 30-12 8-9 12-19 12-30 0-12-4-22-12-30-9-9-19-13-30-13z m-605-457h556v111h-612v-56c0-16 6-29 16-40 11-10 24-15 40-15z" horiz-adv-x="917" />

<glyph glyph-name="flowsheet" unicode="&#xe80f;" d="M671-62c21 0 39 7 54 22 15 15 22 33 22 54 0 21-7 39-22 54-15 14-33 22-54 22-21 0-39-8-53-22-15-15-23-33-23-54 0-21 8-39 23-54 14-15 32-22 53-22z m315 477c20 0 38 8 53 23 15 14 22 32 22 53 0 21-7 39-22 54-15 14-33 22-53 22-21 0-39-8-54-22-15-15-22-33-22-54 0-21 7-39 22-53 15-15 33-23 54-23z m-783 87h305v58h-305v-58z m0-232h305v58h-305v-58z m-109-261c-27 0-49 9-67 27-18 18-27 40-27 67v624c0 27 9 49 27 67 18 18 40 27 67 27h856c27 0 49-9 67-27 18-18 27-40 27-67h-58c0 9-4 18-12 25-7 7-15 11-24 11h-856c-9 0-17-4-25-11-7-7-11-16-11-25v-624c0-9 4-17 11-24 8-8 16-12 25-12h327v-58h-327z m577-129c-37 0-69 13-95 39-26 26-39 58-39 95 0 32 10 61 30 85 20 24 45 39 75 45v137h315v80c-31 6-56 21-75 45-20 24-30 53-30 85 0 37 13 69 39 95 26 26 57 39 95 39 37 0 68-13 94-39 26-26 39-58 39-95 0-32-10-61-29-85-20-24-45-39-75-45v-137h-315v-80c30-6 55-21 75-45 20-24 30-53 30-85 0-37-13-69-39-95-26-26-58-39-95-39z" horiz-adv-x="1130" />

<glyph glyph-name="forms_add_on" unicode="&#xe810;" d="M673 10v113h-113v54h113v113h54v-113h113v-54h-113v-113h-54z m-513 50v55h55v-55h-55z m130 0v55h171c3-10 5-19 8-29 3-9 6-17 11-26h-190z m-130 175v55h55v-55h-55z m130 0v55h214c-4-9-8-18-12-27-3-9-6-18-9-28h-193z m-130 175v55h55v-55h-55z m130 0v55h550v-55h-550z m-130 175v55h55v-55h-55z m130 0v55h550v-55h-550z" horiz-adv-x="1000" />

<glyph glyph-name="beenhere" unicode="&#xe811;" d="M412-95l-327 251c-11 8-18 18-23 28-5 11-8 22-8 35v552c0 23 8 41 23 56 15 15 33 23 56 23h558c22 0 41-8 56-23 15-15 23-33 23-56v-552c0-13-3-24-8-35-5-10-13-20-23-28l-327-251z m-52 398l253 254-46 45-207-209-105 106-44-46 149-150z" horiz-adv-x="824" />

<glyph glyph-name="frame" unicode="&#xe812;" d="M485 850h-138c-181 0-328-224-328-500 0-276 147-500 328-500h138c181 0 207 224 207 500 0 276-26 500-207 500z m-138-1000c181 0 328 224 328 500 0 276-147 500-328 500-181 0-328-224-328-500 0-276 147-500 328-500z m0 86c133 0 241 186 241 414 0 229-108 414-241 414-133 0-241-185-241-414 0-228 108-414 241-414z m328 414c0 276-147 500-328 500h138c181 0 328-224 328-500 0-276-147-500-328-500h-138c181 0 328 224 328 500z m-129-397h138c-55-64-124-103-199-103h-138c75 0 144 39 199 103z m260 294c-9-63-25-121-48-173h-138c23 52 39 110 48 173h138z m-48 379c23-52 39-110 47-173h-137c-9 63-25 121-48 173h138z m-212 121c-55 64-124 103-199 103h138c75 0 144-39 199-103h-138z" horiz-adv-x="813" />

<glyph glyph-name="forms_add_on-1" unicode="&#xe813;" d="M805-134v173h-174v83h174v174h83v-174h173v-83h-173v-173h-83z m-789 77v83h83v-83h-83z m199 0v83h264c4-14 8-29 12-43 4-14 10-28 17-40h-293z m-199 269v84h83v-84h-83z m199 0v84h330c-7-14-13-28-18-42-6-13-11-27-15-42h-297z m-199 269v84h83v-84h-83z m199 0v84h846v-84h-846z m-199 270v83h83v-83h-83z m199 0v83h846v-83h-846z" horiz-adv-x="1077" />

<glyph glyph-name="Iinr-rupee" unicode="&#xe814;" d="M331-99c-89 0-156 24-202 73-44 50-66 119-66 207v192c85 0 153 2 204 8 51 6 89 17 114 34 26 18 43 44 51 79 8 35 12 81 12 139v169h105v-169c0-64-6-118-18-162-12-43-32-78-62-105-28-26-67-44-117-56-49-11-110-16-184-16v-117c0-57 12-103 37-138 25-33 67-50 127-50 55 0 95 16 120 48 26 32 39 76 39 132h104c-1-88-25-155-71-200-45-46-110-68-193-68z m-327 634v80h723v-80h-723z m0 234v81h723v-81h-723z" horiz-adv-x="733" />

<glyph glyph-name="check" unicode="&#xe815;" d="M497-98l-428 427 132 132 296-296 636 636 131-132-767-767z" horiz-adv-x="1333" />

<glyph glyph-name="cached" unicode="&#xe816;" d="M667-133c-134 0-249 48-345 143-95 96-141 212-138 350v43l-116-117-65 65 226 226 226-226-64-65-117 117v-43c-2-113 36-209 113-286 77-78 171-116 280-116 24 0 47 2 70 6 23 3 45 9 67 17l66-66c-30-14-62-25-96-34-34-9-70-14-107-14z m437 256l-226 226 65 65 116-116v42c2 113-35 209-113 286-77 78-170 116-279 116-23 0-47-2-70-6-24-4-46-9-68-17l-66 66c30 14 62 25 97 34 35 9 70 14 107 14 135 0 250-48 345-143 95-95 141-212 137-350v-42l117 116 64-65-226-226z" horiz-adv-x="1333" />

<glyph glyph-name="www" unicode="&#xe817;" d="M825-13l-121 121v-100h-54v192h192v-54h-99l120-121-38-38z m-325-16c-52 0-101 10-147 29-46 20-86 47-121 82-35 35-62 75-82 121-19 46-29 95-29 147 0 53 10 102 29 148 20 45 47 86 82 120 35 35 75 62 121 82 46 19 95 29 147 29 53 0 102-10 148-29 45-20 85-47 120-82 35-34 62-75 82-120 19-46 29-95 29-148 0-11 0-22-2-33-1-12-2-23-4-34h-56c3 11 4 22 6 34 1 11 2 22 2 33 0 14-1 28-3 41-2 14-5 28-8 41h-181c2-13 3-26 3-40 1-13 1-27 1-40 0-12 0-23-1-34 0-12-1-23-1-35h-55c0 12 1 24 1 35 1 12 1 23 1 35 0 13 0 26-1 40 0 13-2 26-3 39h-155c-2-13-4-27-4-41-1-14-1-27-1-41 0-14 0-28 1-41 0-14 2-28 4-41h110v-54h-105c6-34 15-68 26-100 11-32 26-62 46-90 11 0 23 0 34 2 12 1 23 3 33 6v-55c-10-3-21-5-33-6-11 0-23 0-34 0z m-314 297h181c-2 13-3 26-3 40-1 14-1 27-1 40 0 15 0 29 1 42 0 14 1 28 3 42h-181c-3-13-6-27-8-41-2-14-3-27-3-41 0-14 1-28 3-41 2-14 5-28 8-41z m19 218h168c5 33 12 64 21 95 10 31 23 60 39 88-50-11-95-32-135-64-40-32-71-71-93-119z m229-455c-17 28-30 58-39 89-9 30-17 62-22 94h-168c22-47 53-87 93-119 40-32 85-53 136-64z m-6 455h145c-7 34-15 66-26 98-12 32-27 61-47 89-20-27-35-57-46-89-11-31-20-64-26-98z m199 0h168c-22 48-53 87-93 120-40 32-85 53-135 63 16-28 28-58 37-89 9-30 17-62 23-94z" horiz-adv-x="1000" />

<glyph glyph-name="checklist" unicode="&#xe818;" d="M227-76l-195 195 59 59 135-137 272 273 61-59-332-331z m0 475l-195 195 59 59 136-136 271 272 61-59-332-331z m466-367v84h506v-84h-506z m0 476v83h506v-83h-506z" horiz-adv-x="1231" />

<glyph glyph-name="password" unicode="&#xe819;" d="M121-129v108h1558v-108h-1558z m64 488l-107 63 65 112h-130v124h130l-65 112 107 62 65-112 65 112 107-62-65-112h130v-124h-130l65-112-107-63-65 113-65-113z m650 0l-107 63 65 112h-130v124h130l-65 112 107 62 65-112 65 112 107-62-65-112h130v-124h-130l65-112-107-63-65 113-65-113z m650 0l-107 63 65 112h-130v124h130l-65 112 107 62 65-112 65 112 107-62-65-112h130v-124h-130l65-112-107-63-65 113-65-113z" horiz-adv-x="1800" />

<glyph glyph-name="edit" unicode="&#xe81a;" d="M58-93v177l687 686c7 7 16 13 26 17 9 4 19 6 30 6 10 0 20-2 30-6 10-4 18-10 26-18l64-64c8-8 13-16 17-26 3-10 5-20 5-29 0-11-2-21-5-30-4-10-10-19-17-27l-687-686h-176z m731 667l76 75-66 66-74-76 64-65z" horiz-adv-x="1000" />

<glyph glyph-name="dots" unicode="&#xe81b;" d="M477 753c-50-13-80-64-68-113 13-50 64-81 114-68 37 9 64 40 69 78 10 65-52 120-115 103z m0-312c-50-14-80-65-68-113 13-50 64-81 114-69 37 10 64 41 69 79 10 64-52 120-115 103z m0-313c-50-13-80-64-68-113 13-50 64-81 114-68 37 9 64 40 69 78 10 65-52 120-115 103z" horiz-adv-x="1000" />

<glyph glyph-name="drizzle" unicode="&#xe81c;" d="M781 74q-21 0-37 16t-15 37 15 36 37 15q65 0 111 46t46 110-46 111-111 46q-22 0-42-7l-56-16-9 58q-14 75-71 124t-134 49q-86 0-148-61t-61-147q0-14 5-42l13-62-74 0q-40 0-70-31t-30-73q0-44 30-74t75-31q21 0 36-15t15-36-15-37-36-16q-86 0-148 62t-61 147q0 73 44 128t112 73l0 7q0 128 92 220t221 92q101 0 181-57t113-152q113 9 196-68t82-192q0-107-76-183t-184-77z m-338 0l52 157 53-157q7-21-4-42t-31-28q-29-10-55 13t-15 57z m156-104l52 157 52-157q7-21-3-41t-31-29q-29-10-55 13t-15 57z m-313 0l53 157 51-157q8-21-2-41t-32-29q-28-10-55 13t-15 57z" horiz-adv-x="1041" />

<glyph glyph-name="bhim-upi" unicode="&#xe81d;" d="M456 785l-181-658 343 337-162 321z m-121 16l-179-676 347 334-168 342z" horiz-adv-x="774" />

<glyph glyph-name="add_card" unicode="&#xe81e;" d="M192 58c-19 0-35 7-48 20-13 13-19 29-19 48v448c0 20 6 36 19 48 13 13 29 20 48 20h616c19 0 35-7 48-20 13-12 19-28 19-48v-157c0-9-3-17-9-23-6-7-14-10-23-10h-676v-258c0-7 2-13 8-18 5-5 11-8 17-8h359c6 0 11-2 15-6 4-4 6-9 6-15 0-6-2-11-6-15-4-4-9-6-15-6h-359z m-25 425h666v91c0 7-2 13-8 18-5 5-11 8-17 8h-616c-6 0-12-3-17-8-6-5-8-11-8-18v-91z m646-404h-105c-6 0-10 2-14 6-4 4-6 9-6 15 0 6 2 11 6 15 4 4 8 6 14 6h105v104c0 6 2 11 6 15 4 4 9 6 14 6 6 0 11-2 15-6 4-4 6-9 6-15v-104h104c6 0 11-2 15-6 4-4 6-9 6-15 0-6-2-11-6-15-4-4-9-6-15-6h-104v-104c0-6-2-11-6-15-4-4-9-6-15-6-6 0-10 2-14 6-4 4-6 9-6 15v104z" horiz-adv-x="1000" />

<glyph glyph-name="assured_workload" unicode="&#xe81f;" d="M271 163v291c0 6 2 11 6 15 4 4 9 6 15 6 6 0 11-2 15-6 4-4 6-9 6-15v-291c0-6-2-11-6-15-4-4-9-6-15-6-6 0-11 2-15 6-4 4-6 9-6 15z m208 0v291c0 6 2 11 6 15 4 4 9 6 15 6 6 0 11-2 15-6 4-4 6-9 6-15v-291c0-6-2-11-6-15-4-4-9-6-15-6-6 0-11 2-15 6-4 4-6 9-6 15z m356 395h-672c-4 0-8 2-11 5-3 3-5 7-5 11v10c0 3 1 6 3 8 2 2 4 4 6 6l315 150c9 4 19 7 29 7 10 0 20-3 29-7l314-149c2-2 5-4 7-7 2-3 3-6 3-9v-7c0-5-2-10-5-13-3-3-8-5-13-5z m-577 42h484l-231 110c-3 1-7 2-11 2-4 0-7-1-11-2l-231-110z m-90-583c-6 0-11 2-15 6-4 4-6 9-6 15 0 5 2 10 6 14 4 4 9 6 15 6h421c6 0 11-2 15-6 4-4 6-9 6-14 0-6-2-11-6-15-4-4-9-6-15-6h-421z m540 249c-6 0-10 2-14 6-4 4-6 9-6 15v167c0 6 2 11 6 15 4 4 9 6 14 6 6 0 11-2 15-6 4-4 6-9 6-15v-167c0-6-2-11-6-15-4-4-9-6-15-6z m-16-192v69c0 6 2 12 5 17 4 6 8 10 14 13l108 54c4 2 9 3 14 3 6 0 11-1 15-3l108-54c6-3 10-7 13-13 4-5 5-11 5-17v-69c0-45-11-83-34-114-23-32-55-56-95-73-1 0-5-1-12-3-2 0-6 1-12 3-40 17-71 41-94 73-23 31-35 69-35 114z m111-29l-27 28c-4 3-8 5-13 5-5 1-9-1-14-6-4-4-6-8-6-13 0-4 2-9 6-13l31-30c6-6 14-10 23-10 9 0 17 4 24 10l89 90c4 3 6 8 6 12 1 5-1 10-6 14-4 4-8 6-13 6-4 0-9-2-13-6l-87-87z" horiz-adv-x="1000" />

<glyph glyph-name="savings" unicode="&#xe820;" d="M270 17c-14 0-28 4-40 14-13 9-21 21-25 35-17 62-31 113-41 153-10 41-19 75-24 103-6 28-10 52-12 72-2 20-3 40-3 60 0 52 18 97 55 133 36 37 80 55 133 55h229c18 25 41 45 66 60 25 15 52 23 80 23 5 0 10-2 14-6 4-4 6-9 6-15 0-1 0-3 0-4-1-1-1-3-2-5-3-8-6-18-9-30-4-11-7-27-11-47l122-122h33c10 0 18-3 24-10 7-6 10-14 10-24v-160c0-7-2-14-6-20-4-6-10-10-18-12l-86-29-53-176c-4-15-12-27-24-35-12-9-26-13-41-13h-38c-19 0-35 6-48 19-13 14-19 29-19 48v16h-167v-16c0-19-7-34-20-48-13-13-29-19-47-19h-38z m1 41h37c7 0 13 3 18 8 5 4 7 11 7 18v58h250v-58c0-7 3-14 8-18 4-5 11-8 18-8h38c6 0 12 2 16 5 5 3 8 8 9 14l59 196 102 34v147h-41l-146 146c0 12 1 26 3 40 2 14 5 27 9 38-19-5-36-15-52-29-16-15-28-31-36-49h-257c-41 0-75-14-104-43-28-28-42-63-42-103 0-27 6-74 20-139 14-65 33-144 57-237 2-5 5-10 10-14 6-4 11-6 17-6z m396 343c8 0 16 4 22 10 7 6 10 14 10 22 0 9-3 16-10 23-6 6-14 9-22 9-9 0-16-3-23-9-6-7-9-14-9-23 0-8 3-16 9-22 7-6 14-10 23-10z m-146 95c6 0 11 2 15 6 4 4 6 9 6 15 0 6-2 11-6 15-4 4-9 6-15 6h-167c-6 0-11-2-15-6-4-4-6-9-6-15 0-6 2-11 6-15 4-4 9-6 15-6h167z" horiz-adv-x="1000" />

<glyph glyph-name="checkbook" unicode="&#xe821;" d="M292 246h315c7 0 12 2 16 6 3 5 5 9 5 15 0 5-2 10-5 14-4 4-9 7-16 7h-315c-6 0-11-2-15-6-4-4-6-9-6-15 0-6 2-11 6-15 4-4 9-6 15-6z m0 167h166c6 0 11 2 15 6 4 4 6 9 6 14 0 6-2 11-6 15-4 4-9 6-15 6h-166c-6 0-11-2-15-6-4-4-6-9-6-15 0-6 2-11 6-14 4-4 9-6 15-6z m-100-313c-18 0-34 7-47 20-13 13-20 29-20 47v366c0 18 7 34 20 47 13 13 29 20 47 20h616c18 0 34-7 47-20 13-13 20-29 20-47v-74c0-6-2-11-6-15-4-4-9-6-15-6-6 0-11 2-15 6-4 4-6 9-6 15v74c0 7-2 13-7 18-5 5-11 7-18 7h-616c-7 0-13-2-18-7-5-5-7-11-7-18v-366c0-7 2-13 7-18 5-5 11-7 18-7h299c6 0 11-2 15-6 4-4 6-9 6-15 0-6-2-11-6-15-4-4-9-6-15-6h-299z m706 252c3-3 5-6 5-10 0-4-2-7-5-10l-33-32-32 32 32 33c3 3 7 5 10 5 4 0 7-2 10-5l13-13z m-56-77l-249-249c-2-2-4-4-6-5-3-1-6-1-9-1h-12c-3 0-6 1-8 3-2 3-3 5-3 8v13c0 3 0 5 1 8 1 2 3 5 5 7l248 248 33-32z" horiz-adv-x="1000" />
</font>
</defs>
</svg>
